<?xml version="1.0" standalone="no"?>
<!DOCTYPE svg PUBLIC "-//W3C//DTD SVG 20010904//EN"
 "http://www.w3.org/TR/2001/REC-SVG-20010904/DTD/svg10.dtd">
<svg version="1.0" xmlns="http://www.w3.org/2000/svg"
 width="1704.000000pt" height="784.000000pt" viewBox="0 0 1704.000000 784.000000"
 preserveAspectRatio="xMidYMid meet">
<metadata>
Created by potrace 1.16, written by Peter Selinger 2001-2019
</metadata>
<g transform="translate(0.000000,784.000000) scale(0.100000,-0.100000)"
fill="#000000" stroke="none">
<path d="M13697 6849 c-29 -10 -64 -18 -79 -19 -15 0 -30 -5 -34 -11 -4 -7
-41 -9 -108 -6 -60 2 -138 -2 -191 -10 -49 -8 -133 -15 -185 -15 -55 0 -112
-6 -135 -14 -22 -7 -47 -14 -55 -14 -8 0 -28 -7 -44 -15 -15 -8 -32 -12 -37
-9 -5 3 -9 1 -9 -3 0 -5 -21 -14 -47 -20 -166 -43 -243 -66 -278 -84 -85 -43
-100 -52 -108 -66 -4 -7 -14 -13 -20 -13 -7 0 -33 -18 -57 -40 -25 -22 -48
-40 -52 -40 -9 0 -71 -60 -62 -60 12 0 -41 -37 -63 -44 -13 -4 -22 -10 -22
-14 3 -20 -3 -32 -15 -32 -8 0 -16 -3 -18 -8 -6 -13 -92 -77 -132 -97 -21 -11
-40 -26 -43 -32 -3 -7 -13 -13 -24 -13 -10 0 -23 -8 -28 -18 -6 -11 -36 -38
-68 -62 -69 -52 -293 -272 -326 -321 -13 -19 -34 -55 -46 -81 -13 -25 -34 -58
-47 -73 -13 -16 -24 -34 -24 -41 0 -7 -3 -14 -7 -16 -10 -4 -73 -94 -73 -103
0 -3 -18 -33 -40 -65 -22 -32 -40 -66 -40 -74 0 -8 -4 -16 -8 -18 -10 -4 -49
-88 -58 -124 -10 -45 -33 -116 -49 -149 -23 -51 -42 -99 -50 -125 -4 -14 -20
-58 -36 -98 -17 -41 -31 -88 -33 -105 -1 -18 -10 -49 -19 -71 -9 -21 -14 -42
-11 -47 3 -5 7 -26 10 -47 2 -20 5 -44 5 -52 6 -52 2 -57 -68 -65 -38 -4 -212
-9 -388 -10 -176 -1 -345 -6 -375 -10 -66 -10 -378 -10 -508 -1 -76 6 -114 3
-200 -15 -87 -17 -125 -20 -202 -15 -150 11 -145 10 -145 39 0 14 -4 29 -8 34
-5 4 -8 1 -6 -7 2 -8 -3 -26 -10 -38 -10 -19 -18 -22 -39 -17 -15 4 -182 9
-372 11 -190 2 -361 7 -380 10 -35 5 -196 5 -440 -1 -69 -1 -159 2 -200 7 -95
12 -133 15 -250 23 -52 3 -108 8 -125 10 -33 4 -217 12 -475 20 -91 3 -228 9
-305 13 -218 11 -532 8 -605 -6 -88 -18 -171 -21 -543 -26 -273 -3 -319 -2
-324 11 -4 10 -8 11 -13 3 -8 -12 -340 -21 -340 -9 0 7 -70 9 -545 14 -233 3
-314 0 -363 -11 -35 -8 -82 -14 -105 -14 -51 0 -240 -31 -247 -40 -3 -4 -14
-7 -25 -8 -35 -2 -283 -3 -291 -1 -5 1 -20 0 -34 -1 l-25 -2 25 -8 c19 -6 10
-8 -36 -9 -54 -1 -62 2 -67 19 -3 11 -14 20 -24 20 -13 0 -24 12 -33 35 -20
51 -176 165 -226 165 -7 0 -14 4 -14 10 0 5 -18 13 -40 16 -22 4 -43 10 -46
15 -3 5 -23 13 -44 19 -22 6 -40 15 -40 20 0 6 -10 10 -23 10 -12 0 -39 9 -60
20 -20 11 -37 18 -37 16 0 -3 -15 1 -34 9 -18 8 -43 12 -55 10 -11 -2 -21 0
-21 6 0 5 4 9 9 9 17 0 21 32 6 53 -19 28 -19 47 1 47 9 0 28 9 43 19 15 11
40 23 55 27 40 10 57 70 41 142 -7 30 -66 92 -88 92 -5 0 -15 6 -22 14 -32 32
-250 29 -270 -4 -3 -5 -23 -14 -44 -20 -47 -12 -59 -36 -32 -59 15 -13 19 -26
15 -54 -2 -21 0 -37 6 -37 5 0 10 -8 10 -19 0 -23 15 -35 63 -51 22 -7 51 -18
65 -26 15 -8 33 -14 40 -14 6 0 12 -3 13 -7 0 -5 2 -27 5 -51 5 -32 3 -41 -8
-38 -7 3 -48 7 -92 10 -84 6 -173 -12 -196 -39 -7 -8 -21 -15 -30 -15 -10 0
-20 -3 -22 -7 -5 -13 -87 -63 -102 -63 -7 0 -16 -6 -19 -14 -3 -8 -21 -17 -39
-21 -18 -4 -35 -11 -38 -15 -13 -20 -68 -14 -98 12 -17 14 -28 29 -24 32 3 4
0 11 -8 16 -11 7 -11 11 -1 24 8 9 9 16 4 16 -6 0 -14 24 -17 53 -6 40 -14 58
-36 79 -27 24 -132 65 -154 59 -28 -7 -51 10 -53 39 l-2 31 80 -4 c85 -4 157
9 175 32 16 20 17 147 1 159 -6 5 -34 17 -62 27 -27 10 -54 22 -60 26 -21 15
-127 31 -137 21 -6 -6 -17 -8 -25 -5 -23 9 -101 -26 -127 -58 -14 -16 -29 -29
-34 -29 -14 0 -42 -35 -42 -53 0 -31 83 -96 134 -104 33 -5 47 -35 23 -50 -7
-4 -69 -8 -140 -9 -126 -2 -129 -3 -203 -39 -42 -21 -78 -44 -81 -51 -3 -8
-11 -14 -17 -14 -7 0 -18 -11 -24 -25 -6 -14 -16 -25 -21 -25 -6 0 -29 -38
-52 -85 -22 -47 -46 -85 -52 -85 -5 0 -7 -3 -4 -6 5 -6 -25 -58 -43 -74 -17
-16 -51 -73 -54 -92 -3 -13 -5 -23 -6 -23 -1 0 -3 -9 -4 -20 -2 -11 -7 -36
-11 -55 -5 -19 -8 -38 -7 -41 0 -4 -16 -14 -38 -24 -44 -20 -53 -35 -40 -69 5
-13 6 -26 4 -29 -13 -13 38 -47 70 -47 32 0 34 -2 38 -37 3 -21 1 -50 -3 -65
-5 -18 -3 -31 5 -37 7 -6 19 -30 26 -53 25 -84 86 -179 172 -271 27 -27 48
-53 48 -57 0 -4 11 -16 25 -26 14 -10 25 -24 25 -30 0 -14 71 -49 117 -59 18
-4 33 -10 33 -15 0 -10 43 -26 113 -41 48 -10 55 -14 40 -23 -10 -6 -24 -11
-32 -12 -8 -2 -18 -10 -23 -18 -5 -9 -16 -16 -23 -16 -8 0 -15 -3 -15 -8 0 -4
-11 -19 -25 -34 -14 -15 -30 -39 -35 -53 -9 -23 -7 -27 18 -36 15 -6 34 -15
42 -20 98 -58 148 -66 258 -42 85 18 120 44 129 96 5 31 1 40 -28 69 -45 45
-76 64 -121 72 -42 8 -53 35 -15 37 37 1 56 6 103 28 47 22 124 95 124 116 0
8 6 20 14 28 8 8 16 29 18 48 3 30 8 35 47 48 44 14 54 12 203 -23 9 -3 29
-18 45 -34 38 -40 130 -101 162 -108 14 -4 35 -12 46 -19 11 -6 41 -20 67 -30
45 -17 56 -35 21 -35 -18 0 -123 -67 -123 -78 1 -17 29 -42 70 -63 25 -12 47
-24 49 -26 2 -1 -4 -12 -14 -23 -14 -16 -16 -25 -8 -43 12 -27 100 -52 168
-49 76 4 174 24 186 38 6 8 18 14 25 14 8 0 14 6 14 14 0 8 7 16 14 19 8 3 18
22 22 42 5 30 2 39 -19 58 -53 47 -75 62 -132 83 -18 6 -18 7 -2 11 10 3 29
11 44 18 14 7 32 11 39 8 8 -3 14 0 14 6 0 6 9 11 20 11 11 0 20 5 20 10 0 6
5 10 11 10 6 0 42 25 81 55 38 30 74 55 79 55 5 0 9 7 9 15 0 8 4 15 9 15 11
0 67 54 79 76 4 7 39 34 76 59 60 39 76 45 121 45 57 0 86 18 62 38 -26 22
-98 44 -137 43 -18 -1 -21 2 -11 8 18 12 209 13 216 1 10 -16 62 -12 69 6 5
14 21 15 124 9 102 -6 318 -7 377 -2 10 1 21 -5 22 -13 3 -13 -36 -15 -304
-15 -170 1 -314 4 -321 9 -7 4 -20 2 -28 -5 -14 -11 -13 -14 3 -23 10 -5 29
-11 43 -12 58 -6 128 -16 164 -24 22 -5 43 -7 46 -5 7 4 54 5 238 5 108 0 132
-3 132 -14 0 -23 22 -31 35 -13 10 14 39 15 236 12 239 -3 281 -8 272 -31 -6
-17 15 -46 28 -38 5 3 9 16 9 29 0 13 8 29 17 35 13 8 14 13 6 16 -7 3 -13 21
-13 40 l0 35 87 -4 c48 -2 106 0 129 3 23 4 48 3 56 -1 7 -4 72 -10 143 -14
72 -4 146 -8 165 -10 19 -2 69 -4 110 -5 41 -1 90 -6 107 -11 18 -6 38 -7 44
-4 6 4 72 8 147 10 76 1 142 3 147 5 6 1 31 2 58 1 40 -1 47 -4 47 -21 0 -17
-7 -20 -52 -22 -29 -1 -66 -3 -83 -4 -40 -3 -137 -4 -210 -2 -33 1 -142 1
-242 0 -146 -2 -185 -5 -197 -17 -8 -8 -19 -15 -25 -15 -6 0 -11 -4 -11 -10 0
-10 83 -13 367 -12 73 0 135 -3 137 -6 4 -7 165 -6 351 2 69 3 108 0 127 -9
16 -8 48 -11 80 -8 113 9 214 13 236 8 21 -5 22 -9 16 -58 -8 -66 -17 -81 -46
-82 -12 -1 -40 -2 -60 -3 -21 -1 -38 -7 -38 -13 0 -6 -13 -24 -30 -39 -29 -27
-40 -71 -22 -95 17 -25 73 -54 157 -80 50 -16 108 -37 130 -47 47 -21 118 -23
134 -5 6 8 30 20 53 28 25 7 61 32 86 56 34 35 42 50 42 81 0 45 -5 52 -50 75
-19 9 -48 25 -65 35 -28 17 -81 32 -130 35 -24 2 -65 41 -65 62 0 17 -1 17 61
20 40 2 50 -2 74 -27 32 -33 63 -48 104 -48 15 0 31 -4 37 -9 14 -13 72 -22
79 -12 2 5 105 7 227 4 123 -3 237 -5 253 -4 94 2 217 11 225 16 5 3 65 5 132
4 167 -2 213 0 283 13 96 17 336 11 640 -18 28 -2 69 -5 93 -5 23 -1 44 -5 47
-9 2 -4 23 -5 45 -3 22 3 46 0 54 -6 32 -27 641 -28 772 -1 29 6 58 9 64 5 15
-9 99 -15 104 -6 5 8 1 8 381 -14 55 -3 132 -9 170 -13 39 -4 124 -6 190 -5
241 4 538 -1 552 -10 13 -8 280 -6 335 2 25 4 52 5 60 1 7 -4 46 -3 87 2 51 6
77 5 87 -3 7 -6 18 -8 24 -4 6 4 10 -4 10 -18 0 -19 12 -29 60 -53 96 -46 100
-48 100 -57 0 -5 -7 -15 -16 -24 -14 -14 -18 -14 -50 3 -42 22 -68 46 -90 79
-9 14 -25 25 -35 25 -11 0 -19 5 -19 10 0 11 -39 13 -65 4 -22 -9 -54 -77 -42
-91 39 -48 50 -55 75 -48 15 3 35 16 45 27 l19 22 46 -24 c70 -36 83 -49 76
-79 -4 -14 -11 -30 -15 -36 -15 -16 -9 -59 11 -85 11 -14 20 -30 20 -36 0 -18
53 -61 108 -89 67 -33 87 -67 65 -110 -9 -17 -21 -33 -27 -37 -14 -9 -12 -149
3 -187 5 -14 12 -46 16 -71 5 -44 8 -46 48 -57 23 -7 76 -12 117 -13 48 0 79
-5 88 -13 17 -17 20 -116 4 -126 -9 -5 -9 -16 -3 -37 5 -16 12 -46 16 -66 3
-21 11 -38 18 -38 10 0 67 -79 101 -140 20 -36 69 -54 154 -57 119 -3 135 -16
155 -130 9 -48 21 -89 27 -91 5 -2 10 -12 10 -21 0 -10 16 -34 35 -54 19 -20
35 -40 35 -45 0 -13 77 -24 156 -23 35 0 66 -4 69 -9 4 -6 17 -10 30 -10 13 0
27 -4 30 -10 3 -5 16 -10 28 -10 12 0 33 -9 46 -19 21 -16 23 -24 19 -68 -5
-54 0 -62 52 -82 19 -7 44 -17 55 -21 48 -20 115 -20 147 0 26 16 43 18 93 13
80 -8 119 -34 110 -74 -4 -16 -2 -29 3 -29 5 0 15 -13 22 -30 7 -16 16 -30 20
-30 4 0 10 -8 13 -19 6 -25 106 -71 155 -71 38 0 98 33 131 73 16 20 53 22 84
5 23 -12 84 -65 125 -110 14 -15 33 -30 43 -33 86 -27 -140 -24 -341 5 -74 11
-171 22 -215 26 -44 3 -128 19 -187 35 -59 16 -116 29 -127 29 -11 0 -22 4
-25 9 -3 4 -23 11 -43 15 -61 10 -249 82 -285 109 -18 14 -56 36 -84 50 -29
15 -58 32 -65 39 -8 7 -48 42 -89 78 -41 36 -113 105 -160 154 -47 49 -107
110 -134 135 -102 95 -216 213 -216 224 0 4 -13 20 -30 37 -16 17 -30 37 -30
45 0 7 -4 15 -9 17 -13 5 -114 128 -140 171 -12 20 -26 37 -31 37 -4 0 -13 12
-19 28 -6 15 -26 43 -44 62 -31 33 -97 143 -97 162 0 5 -13 38 -30 73 -16 35
-30 66 -30 69 0 3 -13 27 -30 53 -16 26 -30 58 -30 72 0 13 -6 32 -14 40 -13
14 -26 69 -41 172 -7 46 -73 189 -87 189 -4 0 -8 -24 -10 -52 -2 -38 3 -66 18
-98 14 -29 24 -74 27 -125 8 -106 18 -142 66 -239 23 -45 41 -84 41 -88 0 -4
13 -35 29 -68 16 -33 27 -60 24 -60 -2 0 4 -12 14 -27 11 -16 24 -40 30 -54 6
-14 41 -64 76 -111 36 -47 72 -99 80 -115 9 -16 29 -42 44 -59 30 -30 133
-160 133 -168 0 -8 197 -216 205 -216 3 0 13 -8 23 -17 10 -10 47 -45 83 -79
35 -33 75 -74 89 -90 14 -16 59 -58 100 -94 41 -36 77 -67 80 -71 3 -3 22 -15
43 -28 20 -12 37 -27 37 -32 0 -5 6 -9 13 -9 12 0 70 -34 139 -81 15 -11 34
-19 43 -19 8 0 15 -4 15 -8 0 -14 129 -63 245 -92 61 -16 126 -34 145 -40 19
-5 49 -13 65 -15 17 -3 44 -10 60 -15 35 -10 90 -17 195 -26 41 -3 78 -8 82
-10 3 -2 28 -7 55 -10 26 -3 55 -7 64 -10 25 -7 197 -14 445 -19 126 -2 234
-5 240 -6 15 -5 143 12 177 23 53 16 168 39 227 45 30 3 60 8 65 13 6 4 35 13
65 20 96 21 133 31 235 65 55 19 118 37 140 41 22 4 69 23 104 41 35 19 86 42
114 50 28 8 61 27 76 43 15 17 41 31 64 35 20 4 37 11 37 15 0 5 10 12 23 15
39 13 129 87 234 195 147 151 153 158 153 169 0 5 6 14 13 18 7 4 26 26 43 48
16 22 47 58 69 80 55 56 99 110 103 126 3 12 40 68 52 79 3 3 12 19 20 35 8
17 27 48 41 70 15 22 32 58 38 80 14 54 48 202 55 246 4 21 13 42 20 48 8 7
17 31 20 55 4 24 16 61 27 82 11 22 27 60 35 85 8 26 21 52 29 59 8 7 15 21
15 32 0 10 7 29 15 42 8 12 16 34 17 49 1 15 6 27 10 27 5 0 6 16 4 35 -3 19
-1 37 4 40 5 3 7 26 4 50 -3 34 0 45 10 45 8 0 16 14 19 33 2 17 12 64 21 102
9 43 12 71 6 73 -6 2 -10 12 -10 22 0 10 -11 25 -24 33 -22 15 -25 15 -39 -1
-23 -27 -38 -61 -32 -72 3 -5 0 -20 -7 -32 -6 -13 -14 -34 -16 -48 -2 -14 -7
-27 -13 -28 -5 -2 -6 -8 -3 -14 8 -12 -15 -28 -31 -22 -7 3 -18 24 -25 47 -7
23 -16 55 -21 71 -11 35 -7 39 47 54 41 12 63 35 44 47 -17 10 -117 7 -138 -4
-32 -17 -51 -13 -80 16 l-27 27 30 6 c55 12 437 3 498 -10 31 -7 57 -16 57
-20 0 -4 14 -5 30 -2 17 2 30 10 30 18 0 8 5 14 11 14 8 0 10 16 5 50 -5 34 0
83 15 157 13 66 19 123 15 150 -3 23 -1 66 4 95 16 81 5 129 -36 162 -28 22
-38 25 -54 16 -11 -6 -20 -18 -20 -26 0 -10 -6 -13 -17 -10 -18 5 -95 13 -213
22 -74 5 -87 6 -134 4 -23 -1 -46 6 -68 23 -18 13 -41 27 -50 30 -28 10 -21
39 22 84 36 39 47 68 52 128 4 55 -5 69 -107 170 l-104 104 32 50 c18 27 40
52 50 55 22 6 54 -24 63 -59 3 -14 10 -25 15 -25 5 0 9 -8 9 -17 0 -9 6 -24
13 -32 8 -9 20 -32 27 -51 7 -19 21 -47 31 -61 10 -14 24 -43 32 -65 8 -21 18
-48 23 -59 4 -11 8 -24 10 -30 1 -5 14 -43 28 -82 14 -40 26 -80 26 -89 0 -30
28 -46 69 -39 l40 7 -14 39 c-8 22 -14 41 -14 44 -1 3 -8 22 -17 43 -8 20 -21
60 -29 87 -20 75 -37 119 -52 133 -7 7 -13 18 -13 24 0 6 -6 19 -13 27 -8 9
-24 44 -37 79 -13 35 -30 71 -39 80 -9 8 -16 18 -16 21 0 3 -11 23 -24 45 -13
21 -24 51 -25 67 -1 16 -4 29 -8 29 -5 0 -8 9 -8 19 0 11 -4 23 -10 26 -5 3
-10 12 -10 20 0 7 -10 35 -22 62 -12 26 -21 51 -20 56 1 4 -7 27 -19 52 -11
24 -18 49 -14 55 3 5 2 10 -4 10 -5 0 -15 16 -21 36 -14 40 -26 66 -54 106
-10 15 -15 31 -12 37 3 5 -1 11 -9 15 -8 3 -15 14 -15 24 0 11 -7 25 -15 32
-8 6 -17 22 -21 33 -9 31 -175 213 -244 267 -24 19 -51 42 -59 51 -9 9 -32 34
-51 54 -19 21 -47 46 -62 55 -16 9 -45 32 -65 51 -21 19 -68 59 -105 88 -38
29 -68 56 -68 60 0 4 -17 8 -37 9 -21 1 -39 6 -41 12 -2 5 -14 10 -27 10 -13
0 -27 5 -30 10 -3 6 -26 15 -49 21 -30 7 -58 26 -92 60 -27 27 -58 49 -69 49
-11 0 -36 13 -55 29 -19 15 -50 36 -68 45 -18 9 -35 23 -38 31 -3 7 -27 23
-52 35 -26 12 -54 31 -63 41 -9 11 -21 19 -27 19 -13 0 -93 44 -132 71 -25 17
-121 44 -190 52 -19 3 -61 16 -92 30 -58 26 -149 43 -273 52 -38 3 -86 7 -105
10 -96 13 -153 11 -203 -6z m187 -96 c6 -4 27 -8 46 -10 163 -10 258 -22 278
-32 23 -12 189 -53 229 -56 28 -3 97 -34 188 -84 29 -15 99 -65 121 -86 6 -5
27 -19 47 -30 20 -11 37 -23 37 -27 0 -5 6 -8 14 -8 7 0 19 -7 26 -15 7 -9 28
-23 46 -31 45 -22 46 -47 2 -40 -116 18 -115 18 -150 -14 -40 -37 -50 -37 -66
-2 -7 16 -32 51 -57 78 -25 27 -45 52 -45 56 0 5 -6 8 -14 8 -8 0 -21 6 -28
13 -26 26 -50 27 -112 5 -33 -12 -69 -28 -79 -36 -16 -14 -22 -10 -75 44 -70
71 -118 101 -185 116 l-49 12 -45 -52 c-25 -29 -51 -52 -58 -52 -8 0 -22 11
-33 25 -11 14 -25 25 -31 25 -6 0 -11 7 -11 15 0 8 -18 27 -41 42 -36 23 -52
27 -134 30 -54 1 -97 -2 -100 -7 -3 -6 -15 -10 -26 -10 -10 0 -19 -6 -19 -14
0 -8 -5 -18 -10 -21 -19 -11 -101 7 -128 29 -40 32 -124 34 -182 4 -36 -19
-48 -31 -60 -66 -17 -50 -40 -68 -69 -52 -11 5 -29 10 -40 10 -12 0 -26 9 -33
20 -9 13 -24 20 -46 20 -43 0 -80 -20 -119 -64 -17 -20 -35 -36 -40 -36 -5 0
-23 -13 -40 -29 -27 -24 -43 -30 -95 -34 -79 -6 -160 -27 -184 -48 -20 -17
-54 -22 -54 -8 0 4 -18 -2 -40 -13 -38 -21 -60 -63 -45 -87 7 -12 -26 -31 -53
-31 -10 0 -27 -9 -37 -20 -9 -10 -38 -26 -64 -35 -58 -19 -96 -52 -103 -87 -3
-16 -1 -28 3 -28 5 0 9 -5 9 -11 0 -8 -18 -10 -57 -5 -48 5 -64 3 -91 -14 -18
-11 -37 -32 -43 -48 -13 -36 -42 -96 -50 -102 -4 -3 -5 -27 -4 -55 2 -57 -2
-75 -20 -75 -6 0 -25 -7 -41 -14 -16 -8 -56 -22 -89 -30 -48 -13 -67 -24 -98
-58 -72 -81 -72 -82 -48 -130 11 -23 19 -43 18 -44 -10 -9 -107 -30 -127 -28
-36 5 -67 -45 -76 -123 -6 -53 -4 -65 15 -91 11 -17 21 -37 21 -45 0 -21 -29
-76 -71 -133 -47 -64 -65 -107 -68 -163 -2 -47 -4 -49 -70 -101 -66 -51 -92
-79 -107 -116 -8 -18 -14 -36 -14 -38 0 -9 44 -50 77 -74 27 -19 36 -20 52
-10 11 7 22 20 25 30 5 22 -29 58 -56 58 -34 0 -17 35 36 77 30 23 65 45 78
48 37 9 81 54 73 74 -28 65 -25 122 8 156 6 7 19 23 27 35 8 12 22 32 30 44
69 95 91 197 44 204 -16 2 -23 12 -27 35 -8 56 5 66 108 83 6 1 35 2 65 3 44
1 58 5 68 21 10 17 10 26 -3 50 -9 17 -22 30 -29 30 -32 0 -28 73 4 108 10 11
63 34 117 52 54 17 117 41 140 52 37 19 41 24 39 55 -1 19 -7 37 -13 41 -12 7
-10 62 3 107 19 64 83 82 159 45 47 -23 66 -25 83 -8 15 15 16 55 1 63 -6 4
-8 13 -5 20 2 7 0 17 -5 22 -11 11 14 43 34 43 7 0 28 14 47 30 42 36 68 44
119 36 29 -4 42 -1 59 14 12 11 20 26 18 33 -3 6 -7 27 -10 46 -5 27 -3 32 9
27 14 -5 60 13 130 51 41 23 133 30 140 12 7 -18 67 -18 88 -1 8 7 14 20 13
30 -3 16 16 42 29 42 4 0 23 18 42 40 41 47 57 49 117 15 33 -18 60 -25 101
-25 49 0 59 4 80 28 13 15 25 36 25 46 0 30 30 56 65 56 17 0 36 5 42 11 7 7
16 8 29 0 62 -34 115 -53 162 -56 28 -2 52 1 52 6 0 5 7 9 15 9 8 0 15 9 15
20 0 21 3 21 109 25 24 0 42 -8 67 -30 19 -17 34 -36 34 -41 1 -23 69 -83 103
-89 34 -7 38 -4 95 55 l59 62 34 -15 c19 -8 50 -33 69 -56 19 -22 37 -41 41
-41 3 0 26 -18 50 -41 39 -36 48 -40 79 -35 19 3 41 14 50 25 27 35 100 50
100 20 0 -5 15 -16 33 -25 18 -9 37 -24 43 -34 5 -10 19 -38 32 -64 25 -51 46
-66 99 -70 29 -1 44 5 72 31 49 45 60 47 138 23 84 -25 101 -38 118 -87 14
-41 65 -78 97 -70 10 3 18 0 18 -5 0 -6 6 -5 15 2 30 25 145 -20 145 -57 0 -7
6 -13 14 -13 19 0 41 -115 26 -135 -5 -5 -10 -23 -12 -39 -3 -28 1 -31 46 -48
31 -11 55 -14 65 -8 38 20 163 -76 181 -139 13 -47 13 -44 -10 -71 -11 -13
-20 -33 -20 -45 0 -26 24 -50 40 -40 5 3 10 2 10 -4 0 -5 14 -8 30 -6 17 2 30
0 30 -5 0 -6 15 -16 33 -24 41 -17 88 -61 89 -84 1 -9 -4 -35 -10 -58 -21 -73
16 -148 68 -137 23 4 36 -2 71 -36 24 -22 58 -53 75 -68 17 -15 33 -35 36 -43
5 -15 -37 -86 -67 -110 -25 -21 -50 -73 -36 -78 6 -2 11 -9 11 -15 0 -15 61
-87 73 -87 14 0 86 -65 112 -101 36 -48 25 -111 -27 -163 -27 -27 -42 -53 -50
-87 -12 -53 -18 -56 -79 -37 -28 8 -39 17 -40 32 -1 12 -3 30 -5 41 -3 11 -9
57 -14 103 -5 46 -19 104 -30 128 -11 25 -22 67 -26 92 -3 26 -10 49 -15 50
-5 2 -9 9 -9 17 0 7 -11 37 -24 66 -13 30 -27 61 -30 69 -8 17 -19 36 -59 97
-15 24 -27 49 -27 58 0 8 -13 28 -30 43 -16 16 -30 36 -30 44 0 8 -7 23 -15
34 -8 10 -15 27 -15 36 0 10 -9 23 -20 30 -11 7 -20 17 -20 23 0 5 -11 23 -25
39 -14 16 -25 35 -25 42 0 7 -20 32 -45 56 -25 24 -45 49 -45 56 0 6 -4 12 -8
12 -5 0 -13 10 -19 23 -11 24 -40 60 -85 109 -16 16 -28 32 -28 35 0 2 -15 19
-33 36 -17 18 -43 47 -55 65 -13 17 -29 32 -37 32 -7 0 -15 3 -17 8 -14 31
-272 216 -338 242 -19 7 -39 17 -45 20 -13 10 -109 37 -155 45 -37 6 -155 47
-205 70 -16 8 -49 18 -72 21 -24 4 -43 10 -43 13 0 4 -28 13 -62 20 -35 7 -74
17 -88 23 -14 6 -34 13 -45 15 -10 2 -22 7 -25 12 -7 12 -36 19 -98 25 -30 3
-58 9 -63 12 -5 3 -22 8 -37 10 -15 3 -45 9 -68 14 -37 9 -185 24 -209 22 -5
0 -65 -5 -132 -10 -110 -9 -127 -12 -158 -36 -20 -16 -61 -33 -94 -39 -32 -7
-64 -17 -72 -24 -8 -6 -27 -15 -43 -19 -16 -4 -41 -13 -55 -20 -14 -8 -31 -14
-37 -14 -16 0 -116 -70 -132 -92 -7 -10 -18 -18 -24 -18 -5 0 -30 -13 -55 -30
-24 -16 -48 -30 -52 -30 -4 0 -16 -9 -26 -20 -10 -11 -23 -20 -30 -20 -7 0
-20 -9 -30 -20 -10 -11 -26 -20 -36 -20 -10 0 -20 -4 -23 -9 -3 -5 -17 -12
-31 -15 -25 -6 -135 -58 -185 -87 -14 -8 -61 -40 -106 -71 -44 -32 -85 -58
-89 -58 -11 0 -198 -192 -254 -261 -25 -30 -61 -70 -81 -89 -20 -19 -47 -56
-61 -82 -13 -27 -30 -48 -36 -48 -7 0 -13 -7 -13 -15 0 -8 -9 -24 -20 -35 -11
-11 -20 -17 -20 -13 0 4 -11 -8 -25 -27 -14 -19 -25 -40 -25 -47 0 -7 -4 -21
-10 -31 -42 -77 -110 -237 -120 -283 -17 -75 -6 -155 25 -194 31 -37 42 -26
28 27 -20 74 -10 165 26 243 88 190 159 293 283 412 26 25 45 49 43 53 -2 4 6
12 18 19 13 7 31 27 41 45 19 35 259 276 275 276 5 0 16 6 23 13 46 45 174
117 298 168 14 6 38 17 53 25 16 8 35 14 42 14 7 0 15 7 19 15 3 8 15 15 26
15 11 0 20 4 20 8 0 4 14 17 31 27 17 11 41 27 54 35 12 8 42 28 66 44 24 16
46 32 49 35 14 19 71 51 89 51 12 0 21 3 21 8 0 6 19 16 85 42 38 14 80 32 97
41 10 5 25 9 34 9 19 0 135 60 146 75 5 6 8 6 8 0 0 -6 63 -10 168 -10 163 0
209 -6 342 -42 30 -9 64 -17 75 -18 39 -4 81 -19 117 -42 28 -17 56 -24 108
-27 53 -3 74 -8 84 -21 7 -10 18 -15 24 -11 6 4 28 -3 49 -14 21 -11 43 -20
50 -20 11 0 62 -20 103 -40 17 -8 120 -25 132 -22 15 4 118 -47 118 -57 0 -6
7 -11 15 -11 20 0 75 -39 121 -86 21 -22 54 -51 72 -64 79 -58 177 -144 183
-159 4 -9 19 -27 34 -41 33 -31 103 -122 129 -170 11 -19 24 -38 30 -42 6 -4
11 -15 11 -25 0 -10 13 -24 28 -31 16 -8 31 -21 34 -29 3 -8 17 -27 29 -41 13
-14 24 -31 24 -38 0 -7 6 -19 13 -26 7 -7 22 -29 33 -48 10 -19 27 -43 36 -54
10 -10 15 -23 12 -28 -3 -5 1 -17 10 -26 26 -28 66 -79 66 -86 0 -3 8 -15 17
-25 9 -11 18 -26 19 -33 1 -7 14 -40 29 -73 33 -70 45 -107 51 -155 3 -19 8
-42 11 -50 8 -20 7 -14 22 -110 8 -47 18 -90 23 -96 11 -15 19 -54 12 -65 -6
-11 -93 27 -120 52 -11 10 -26 19 -33 19 -25 0 -102 41 -132 71 -22 22 -38 29
-53 25 -11 -3 -26 -6 -32 -6 -7 0 -12 -19 -12 -49 0 -28 -6 -59 -15 -71 -8
-12 -13 -30 -10 -41 3 -11 0 -19 -7 -19 -7 0 -10 -13 -8 -37 l3 -38 -40 4
c-22 1 -60 10 -85 18 -36 12 -69 14 -160 9 -187 -12 -240 -16 -335 -28 -49 -6
-162 -13 -250 -14 -88 -2 -194 -7 -235 -13 -41 -6 -127 -13 -190 -16 -63 -4
-144 -13 -180 -21 -142 -33 -253 -38 -880 -37 -344 0 -635 3 -648 6 -12 3 -35
1 -51 -4 -21 -7 -36 -7 -50 0 -11 6 -91 13 -178 16 -386 13 -705 37 -711 53
-1 5 -25 7 -52 4 -33 -3 -50 -1 -50 7 0 6 -12 10 -27 9 -67 -4 -93 2 -93 21 0
29 13 33 107 36 87 4 174 12 206 21 10 3 16 2 15 -3 -4 -12 29 -90 41 -98 6
-3 20 -1 31 5 19 10 19 11 -1 63 -11 28 -24 56 -29 62 -5 5 -10 24 -12 40 -1
17 -8 29 -15 28 -6 -1 -26 -5 -44 -8 -18 -3 -39 -11 -47 -18 -16 -13 -470 -13
-483 0 -4 4 -14 29 -21 56 -10 39 -10 53 1 80 7 17 15 48 17 67 5 59 20 124
32 145 10 16 28 58 37 85 5 16 21 53 46 110 16 36 33 87 39 115 6 27 15 55 21
61 5 7 9 16 7 20 -3 14 49 117 72 141 11 12 20 29 20 38 0 8 4 15 8 15 4 0 21
27 37 60 17 33 33 60 36 60 4 0 12 14 19 30 7 17 19 30 26 30 8 0 14 7 14 15
0 17 81 145 104 164 9 8 16 20 16 27 0 8 4 14 9 14 5 0 53 48 107 108 106 116
146 149 194 159 19 3 29 11 26 18 -2 7 17 27 45 45 27 17 49 35 49 40 0 5 16
14 35 20 19 6 44 22 57 35 13 14 27 25 33 25 5 0 34 24 65 54 30 30 71 63 90
73 19 11 40 29 46 41 14 27 89 102 103 102 6 0 11 4 11 9 0 9 14 16 141 75 58
26 200 64 279 73 25 3 47 9 50 13 9 15 154 49 205 48 67 0 261 10 308 17 21 3
46 1 57 -5 12 -7 21 -7 25 0 3 5 25 10 49 10 23 0 69 9 102 19 32 11 68 21 79
23 27 6 135 -1 149 -9z m1324 -547 c40 -5 119 -43 109 -53 -3 -2 -37 5 -76 16
-39 11 -71 17 -71 13 0 -9 -29 32 -30 42 0 5 6 4 13 -2 7 -6 32 -13 55 -16z
m237 -148 c19 -18 56 -48 83 -67 26 -19 58 -49 70 -67 12 -19 40 -45 63 -59
50 -32 130 -112 165 -165 15 -22 33 -40 40 -40 8 0 14 -4 14 -8 0 -5 14 -24
31 -43 19 -22 29 -42 26 -55 -2 -13 3 -26 15 -33 10 -6 18 -19 18 -29 0 -9 11
-29 24 -44 13 -16 42 -81 66 -145 23 -65 47 -123 52 -130 5 -7 7 -16 4 -21 -3
-5 1 -18 9 -28 35 -46 10 -33 -44 24 -32 34 -64 62 -70 62 -6 0 -14 7 -17 15
-4 8 -14 15 -24 15 -9 0 -25 8 -34 19 -14 16 -15 25 -6 65 9 40 7 54 -8 89
-20 44 -69 92 -109 108 -13 5 -23 12 -23 17 0 5 -11 14 -25 20 -21 10 -25 18
-24 54 0 81 -5 92 -56 138 -27 25 -51 48 -53 53 -2 4 -8 7 -12 7 -5 0 -21 11
-35 24 -15 14 -49 30 -76 37 l-49 13 5 68 c5 64 4 68 -20 84 -24 16 -52 54
-40 54 3 0 21 -15 40 -32z m-14130 -903 c60 -24 60 -25 57 -62 -4 -58 -29 -73
-122 -73 -65 0 -83 4 -112 24 -49 33 -58 35 -100 20 -31 -11 -37 -10 -42 3
-10 25 -7 30 24 36 16 4 38 15 49 26 30 30 61 43 85 37 11 -3 28 -1 36 4 25
16 62 11 125 -15z m877 -44 c50 -16 74 -54 70 -108 -2 -24 -8 -43 -13 -43 -6
0 -17 -7 -26 -15 -11 -12 -27 -14 -66 -9 -76 10 -129 27 -137 44 -4 8 -15 32
-26 54 l-18 38 31 28 c27 24 38 27 89 26 33 -2 76 -8 96 -15z m-1002 -287 c86
-18 140 -41 140 -60 0 -8 -5 -14 -11 -14 -8 0 -8 -4 -1 -12 5 -7 8 -26 6 -43
-2 -20 5 -42 24 -69 31 -45 90 -106 103 -106 5 0 9 -4 9 -10 0 -15 102 -11
130 5 14 8 34 14 46 15 29 0 74 23 74 38 0 6 4 12 8 12 5 0 33 18 62 40 29 22
60 40 69 40 8 0 25 9 37 21 17 15 36 20 80 21 33 0 72 -2 88 -5 16 -4 50 -9
75 -12 65 -8 131 -26 131 -35 0 -5 17 -8 37 -7 20 1 38 -4 41 -11 2 -7 10 -12
17 -12 12 0 78 -25 170 -64 81 -35 127 -62 136 -78 5 -10 18 -18 29 -18 10 0
22 -4 25 -10 11 -18 -223 -8 -295 13 -8 2 -36 10 -62 17 -27 7 -48 15 -48 19
0 7 -82 34 -119 40 -4 0 -26 15 -47 32 -35 27 -44 30 -84 25 -50 -7 -63 -16
-66 -48 -4 -37 15 -74 54 -106 54 -43 73 -46 113 -19 25 17 34 30 34 50 -1 15
5 27 12 27 16 0 103 -28 124 -39 13 -7 68 -19 119 -26 3 0 10 -3 15 -6 9 -6
44 -10 210 -25 65 -6 103 -26 123 -67 7 -14 21 -28 31 -32 14 -4 17 -13 13
-38 -2 -17 -4 -42 -4 -54 0 -26 -2 -27 -108 -12 -41 6 -97 10 -123 10 -27 0
-58 4 -68 10 -11 5 -68 12 -127 15 -59 3 -132 12 -162 20 -30 9 -93 22 -140
30 -47 7 -119 27 -160 43 -41 16 -109 41 -150 56 -41 15 -97 35 -125 45 -27
10 -70 22 -94 25 -24 4 -59 14 -78 21 -19 8 -38 12 -43 9 -6 -4 -10 -2 -10 3
0 5 -12 12 -27 15 -16 2 -64 16 -108 29 l-80 25 -11 49 c-7 32 -23 63 -46 88
-32 35 -39 38 -71 32 -27 -5 -39 -14 -51 -40 -20 -42 -20 -44 0 -103 19 -57
46 -89 82 -96 27 -5 72 10 72 25 0 11 47 10 54 -1 3 -4 34 -14 68 -21 35 -6
68 -15 73 -20 6 -4 64 -18 130 -31 122 -23 179 -40 190 -59 3 -5 14 -10 24
-10 10 0 45 -12 77 -26 33 -15 73 -30 89 -35 17 -4 55 -16 85 -27 30 -11 82
-24 115 -28 74 -9 66 -7 92 -22 25 -14 60 -18 207 -27 55 -3 103 -8 108 -11 5
-3 21 -8 36 -10 84 -11 133 -17 182 -20 95 -8 100 -10 100 -49 0 -35 0 -35
-47 -36 -27 -1 -61 -3 -78 -5 -16 -2 -93 -5 -170 -8 -125 -5 -174 -10 -225
-23 -8 -2 -78 -4 -155 -4 -77 0 -156 -4 -175 -9 -19 -5 -64 -11 -100 -14 -62
-5 -213 -59 -249 -89 -8 -7 -21 -12 -30 -13 -28 0 -95 -15 -116 -25 -26 -11
-153 -36 -231 -44 l-62 -6 -21 35 c-26 42 -69 60 -105 43 -28 -13 -40 -45 -37
-97 6 -86 45 -116 183 -140 50 -9 65 -15 61 -26 -7 -19 -57 -18 -93 1 -27 14
-30 14 -30 0 0 -21 36 -55 60 -55 24 0 25 -6 6 -25 -12 -12 -23 -10 -75 15
-61 30 -111 39 -111 20 0 -5 8 -10 18 -10 23 0 76 -25 90 -43 18 -21 -66 -40
-141 -33 -89 8 -137 17 -137 26 0 4 -17 15 -37 26 -21 10 -46 29 -56 42 -10
12 -24 22 -30 22 -18 1 -159 172 -149 182 11 11 97 -5 98 -20 1 -6 2 -14 3
-17 0 -3 19 5 41 16 22 12 58 22 80 23 22 1 45 7 52 14 7 7 20 12 29 12 29 0
40 24 23 49 -24 34 -7 39 21 7 16 -19 30 -26 41 -22 14 6 15 9 2 29 -8 12 -15
37 -16 56 0 18 -6 39 -11 44 -14 14 -14 28 -1 62 l10 25 20 -20 c42 -42 120
-19 120 36 0 32 -53 78 -97 84 -30 4 -38 9 -38 25 0 16 6 19 27 17 19 -2 31 3
40 17 7 12 23 21 35 21 18 0 23 6 23 25 0 35 -28 47 -87 36 -31 -6 -52 -6 -60
1 -22 18 -14 24 25 20 21 -2 53 0 72 5 30 8 35 14 38 41 4 44 -56 110 -108
118 l-35 6 3 60 c3 47 1 59 -10 56 -7 -3 -13 -11 -14 -19 -2 -36 -17 -89 -28
-97 -6 -5 -23 -12 -38 -16 -21 -5 -28 -3 -28 9 0 8 4 15 9 15 5 0 15 14 24 31
13 27 13 34 0 60 -17 35 -77 63 -113 54 -14 -3 -38 -9 -53 -12 l-28 -5 21 44
c21 42 75 88 104 88 8 0 18 5 21 10 3 6 17 10 30 10 13 0 27 5 30 10 3 6 26 9
51 8 24 0 46 1 48 3 9 8 142 -2 216 -17z m-399 -193 c4 -1 9 -10 12 -22 8 -31
-18 -35 -68 -9 -53 27 -49 44 9 36 22 -3 44 -5 47 -5z m-145 -26 c-8 -30 12
-65 36 -65 10 0 18 -4 18 -10 0 -5 9 -10 20 -10 11 0 20 -5 20 -11 0 -6 -14
-8 -37 -4 -54 8 -93 -2 -93 -26 0 -14 9 -21 30 -26 26 -5 28 -7 14 -17 -9 -7
-14 -22 -12 -36 2 -19 12 -26 45 -35 47 -11 67 -25 37 -25 -11 0 -29 -6 -39
-14 -16 -12 -17 -18 -8 -38 9 -19 21 -26 53 -31 62 -8 75 -27 19 -27 -41 0
-45 -3 -63 -40 -14 -28 -16 -43 -9 -52 22 -26 32 -86 20 -113 -13 -27 -22 -31
-32 -15 -10 16 -47 11 -92 -12 -23 -12 -45 -19 -50 -15 -4 5 -8 57 -8 117 0
83 -4 112 -16 126 -32 38 -3 187 46 240 14 15 25 33 25 40 0 7 8 19 19 26 10
7 18 17 18 21 0 5 6 24 13 43 16 39 35 46 26 9z m380 -147 c60 -45 55 -63 -16
-59 -62 3 -100 22 -100 51 0 21 25 39 54 40 10 0 39 -15 62 -32z m-256 -14 c0
-2 -9 -4 -21 -4 -11 0 -18 4 -14 10 5 8 35 3 35 -6z m96 -78 c3 -30 11 -46 29
-59 29 -21 30 -32 11 -68 -11 -22 -11 -33 0 -65 8 -25 10 -42 4 -48 -6 -6 -10
-18 -10 -28 0 -10 -4 -18 -9 -18 -5 0 -9 16 -9 35 0 20 -8 47 -17 61 -14 22
-15 28 -4 35 23 14 -2 41 -54 56 -57 17 -76 39 -26 31 45 -7 59 -1 59 27 0 18
-7 25 -32 30 -18 4 -42 14 -53 22 -19 14 -18 15 11 10 36 -7 74 15 74 41 1 33
23 -19 26 -62z m3049 50 c73 -9 115 -9 163 -1 42 8 42 7 42 -22 l0 -30 -87 -6
c-49 -4 -152 -9 -231 -11 -78 -3 -150 -9 -159 -15 -11 -6 -26 -5 -42 1 -15 6
-60 12 -101 15 -41 2 -102 7 -135 10 l-60 7 95 13 c52 7 136 16 185 19 50 3
124 14 165 24 42 10 84 14 95 10 11 -4 43 -10 70 -14z m2295 3 c89 -2 163 -6
166 -10 2 -4 50 -8 105 -8 109 0 209 -9 209 -20 0 -4 -17 -5 -39 -3 -23 2 -51
-3 -71 -13 -31 -16 -40 -16 -125 2 -11 3 -145 6 -298 8 -153 2 -285 6 -292 9
-7 2 -37 -2 -67 -10 -62 -16 -114 -18 -123 -4 -3 6 -25 10 -47 10 -23 0 -39 2
-36 5 3 3 59 7 124 10 128 5 166 9 204 24 14 5 48 7 76 6 29 -2 125 -5 214 -6z
m-1584 -17 c23 -7 50 -11 60 -10 40 3 97 -2 90 -9 -4 -4 -98 -11 -209 -15
-216 -9 -233 -10 -259 -22 -29 -13 -148 -8 -148 6 0 4 -7 8 -15 8 -10 0 -15
10 -15 28 l0 28 228 -1 c138 -1 243 -6 268 -13z m11030 2 c22 -9 61 -32 88
-52 27 -20 60 -37 75 -38 68 -7 111 -16 111 -23 0 -5 35 -14 78 -20 42 -7 109
-19 147 -27 138 -30 205 -38 420 -48 33 -2 63 -4 66 -5 8 -2 11 -89 4 -122 -4
-19 -11 -26 -21 -22 -8 3 -26 -5 -40 -18 l-26 -24 -31 38 c-46 54 -53 45 -13
-17 38 -60 125 -148 138 -140 9 6 -6 39 -22 49 -22 14 -8 25 31 25 30 0 38 -3
32 -12 -4 -7 -12 -46 -18 -86 l-10 -72 -52 45 c-28 25 -54 45 -58 45 -3 0 -13
6 -21 14 -11 12 -21 13 -44 4 -46 -15 -40 -30 30 -82 l25 -18 -45 6 c-39 5
-54 15 -113 76 -71 74 -109 93 -91 46 3 -9 10 -16 15 -16 5 0 17 -8 27 -17 10
-10 37 -35 60 -55 50 -44 53 -57 10 -49 -77 14 -236 124 -206 142 20 13 -4 30
-51 36 -22 3 -41 2 -41 -3 0 -14 133 -130 158 -138 26 -8 29 -31 6 -40 -9 -3
-35 -6 -59 -6 -40 0 -47 4 -89 52 -25 29 -46 62 -46 74 0 24 -28 40 -43 25
-10 -10 15 -47 81 -118 33 -36 43 -55 18 -34 -10 8 -21 8 -40 1 -43 -16 -62
-12 -76 18 -7 16 -14 22 -17 14 -3 -7 1 -19 7 -28 7 -8 11 -17 8 -20 -3 -2
-54 -15 -114 -28 -60 -13 -125 -31 -144 -39 -29 -13 -40 -13 -65 -3 -16 7 -36
11 -44 8 -7 -2 -17 2 -22 9 -5 8 -23 14 -41 14 -29 0 -33 4 -39 35 -4 19 -4
39 1 45 4 5 8 23 8 38 -1 42 14 50 83 50 52 -1 62 2 66 18 5 17 15 23 35 20 4
0 25 6 47 15 28 11 45 13 58 6 26 -14 129 0 119 16 -2 4 -46 4 -98 1 -51 -3
-98 -2 -104 2 -6 5 -14 6 -18 2 -3 -4 -45 -8 -92 -9 -71 -1 -84 1 -80 13 4 8
9 26 12 39 4 15 21 32 45 45 41 21 45 29 29 60 -11 20 -50 27 -50 9 0 -5 -5
-10 -11 -10 -8 0 -9 12 -4 38 4 20 7 49 6 64 -1 24 3 27 44 34 26 3 73 3 106
0 62 -7 72 0 42 29 -14 14 -33 17 -120 13 l-103 -4 0 28 c0 15 5 30 10 33 6 3
10 16 10 29 0 40 10 43 66 20z m-10751 -14 c3 -5 -1 -10 -9 -10 -8 0 -18 5
-21 10 -3 6 1 10 9 10 8 0 18 -4 21 -10z m445 -10 c21 0 22 -2 9 -10 -10 -5
-43 -7 -75 -4 -33 3 -67 5 -76 5 -10 0 -21 5 -24 11 -5 7 16 8 67 4 41 -3 85
-6 99 -6z m150 0 c0 -5 -8 -10 -17 -10 -15 0 -16 2 -3 10 19 12 20 12 20 0z
m-100 -10 c0 -5 -4 -10 -10 -10 -5 0 -10 5 -10 10 0 6 5 10 10 10 6 0 10 -4
10 -10z m1955 -20 c30 -6 16 -8 -59 -7 -65 1 -104 6 -115 15 -13 11 -4 12 59
7 41 -4 93 -10 115 -15z m-4095 0 c-37 -12 -82 -12 -75 0 3 6 27 10 53 9 38
-1 42 -2 22 -9z m3596 -11 c3 -5 20 -9 37 -10 29 0 80 -15 67 -19 -3 -1 -43
-3 -90 -5 -105 -3 -192 4 -184 16 3 5 11 9 17 8 21 -3 97 13 97 21 0 10 49 0
56 -11z m609 11 c4 -6 -7 -10 -27 -9 -31 1 -32 1 -8 9 14 4 26 8 27 9 1 1 5
-3 8 -9z m3669 -5 c86 -5 126 -14 126 -30 0 -25 -27 -42 -62 -39 -18 2 -87 6
-153 9 -66 3 -151 9 -190 13 -82 11 -476 5 -555 -7 -30 -5 -62 -5 -70 -1 -12
6 -176 7 -287 1 -13 -1 -29 -1 -35 0 -26 2 -224 -10 -243 -15 -11 -3 -33 -9
-50 -13 -48 -13 -553 -1 -576 13 -28 17 20 24 162 24 88 0 168 4 178 10 18 9
114 23 156 22 422 -6 525 -6 535 4 7 7 31 8 73 2 34 -5 73 -6 87 -2 14 3 97 5
185 4 268 -4 429 -1 460 8 17 5 68 7 115 4 47 -2 111 -6 144 -7z m-5941 -16
c153 -21 148 -19 145 -43 -2 -14 -11 -22 -28 -23 -59 -4 -201 -6 -272 -5 -65
2 -78 5 -83 21 -12 37 4 49 78 58 40 5 75 7 80 5 4 -2 40 -8 80 -13z m2340 14
c-7 -2 -19 -2 -25 0 -7 3 -2 5 12 5 14 0 19 -2 13 -5z m-2605 -40 c3 -30 1
-32 -35 -38 -21 -3 -54 -9 -73 -13 -32 -7 -157 -6 -255 1 -22 2 -67 -2 -100
-9 -33 -6 -76 -10 -95 -7 -19 2 -46 5 -60 7 -14 1 -60 4 -102 4 -74 2 -78 3
-78 25 0 20 5 22 53 24 28 1 66 -3 84 -9 25 -9 47 -8 105 5 40 9 80 16 88 16
122 1 355 13 390 20 66 13 75 10 78 -26z m676 30 c4 -4 46 -9 94 -11 48 -1 94
-3 102 -3 8 -1 44 4 79 11 44 9 69 10 81 3 9 -6 35 -8 63 -3 32 4 56 3 72 -6
17 -9 35 -10 66 -3 26 6 53 6 73 0 17 -5 42 -12 56 -14 18 -3 14 -5 -15 -7
-56 -4 -59 -5 -71 -12 -14 -9 -130 -12 -394 -11 -225 1 -286 -1 -342 -12 -26
-5 -38 -4 -38 4 0 7 -13 10 -35 8 -28 -3 -35 -1 -35 13 0 12 7 17 23 16 12 -1
58 6 102 16 92 19 109 21 119 11z m1514 -2 c23 0 42 -5 42 -11 0 -6 -39 -10
-97 -9 -91 0 -95 1 -63 13 19 6 44 11 55 10 11 -1 39 -2 63 -3z m1157 -9 c33
-5 65 -6 70 -2 11 8 151 4 166 -5 5 -4 9 -13 9 -22 0 -14 -9 -15 -67 -8 -38 5
-94 9 -125 11 -31 1 -61 5 -67 8 -13 9 -33 -2 -26 -14 7 -11 -53 -18 -64 -7
-6 6 -22 5 -42 -2 -18 -6 -35 -7 -38 -3 -3 5 -17 12 -31 15 -14 3 -50 13 -80
21 l-55 16 55 -3 c30 -2 69 0 85 4 33 8 117 4 210 -9z m-1748 -15 c3 -4 -33
-7 -80 -7 -48 0 -87 4 -87 9 0 11 156 8 167 -2z m1003 3 c0 -5 -5 -10 -11 -10
-5 0 -7 5 -4 10 3 6 8 10 11 10 2 0 4 -4 4 -10z m310 0 c0 -11 -39 -24 -65
-21 -20 2 -55 8 -65 11 -3 1 -43 1 -88 0 -48 -1 -82 3 -78 8 7 12 296 14 296
2z m875 1 c108 4 283 -6 293 -16 11 -10 -7 -15 -66 -19 -33 -2 -65 -7 -71 -10
-6 -4 -11 -3 -11 2 0 4 -30 8 -67 9 -243 2 -263 3 -263 17 0 15 50 24 100 18
14 -2 52 -2 85 -1z m-5717 -13 c40 3 42 1 42 -25 0 -49 -33 -73 -98 -73 -38 0
-40 2 -46 38 -11 70 -10 74 27 66 17 -4 51 -7 75 -6z m542 -6 c120 -5 235 -4
423 1 137 4 147 3 147 -14 0 -26 -11 -30 -107 -34 -294 -14 -352 -18 -386 -25
-21 -5 -51 -5 -66 0 -16 4 -100 5 -187 2 -88 -3 -184 -6 -214 -6 l-55 -1 -6
43 -6 44 51 -6 c28 -2 67 -7 86 -11 19 -3 57 1 85 9 31 9 67 12 95 8 25 -4 88
-8 140 -10z m4460 -3 c0 -6 9 -9 20 -6 11 3 25 -2 32 -11 12 -14 9 -15 -22 -8
-19 4 -65 10 -102 13 -38 3 -68 10 -68 14 0 5 32 9 70 9 45 0 70 -4 70 -11z
m7375 -26 c22 -7 62 -14 89 -18 28 -3 52 -7 54 -10 11 -10 1 -140 -11 -147 -6
-4 -32 -8 -57 -9 -25 -1 -58 -3 -75 -5 -16 -2 -268 -6 -560 -8 -291 -3 -559
-9 -595 -14 -112 -16 -240 -15 -290 3 -80 29 -381 22 -647 -14 -81 -11 -266
-5 -343 11 -30 6 -64 12 -75 14 -11 2 -56 9 -100 17 -44 8 -111 17 -150 21
-38 3 -92 11 -120 16 -81 17 -202 22 -223 11 -11 -6 -23 -6 -28 -1 -5 5 -31
10 -57 11 -55 3 -70 14 -29 22 29 6 182 0 221 -9 13 -3 92 -4 175 -3 203 2
416 2 686 -1 382 -4 611 9 790 45 14 3 79 7 145 11 66 3 152 10 190 16 39 5
124 11 190 13 239 6 393 16 461 29 82 16 302 15 359 -1z m-8581 -44 c11 -56 6
-58 -127 -53 -250 8 -355 9 -464 1 l-113 -8 0 25 c0 15 -4 26 -10 26 -5 0 -10
-9 -10 -19 0 -26 -8 -30 -61 -32 -24 -1 -75 -8 -113 -16 -46 -10 -91 -13 -137
-9 -44 5 -68 3 -71 -4 -2 -6 -48 -12 -113 -15 -61 -3 -129 -6 -153 -9 -23 -2
-44 -1 -46 3 -2 3 -6 27 -10 52 l-7 47 38 7 c50 9 358 13 404 5 19 -4 46 -3
60 2 13 5 69 8 124 7 165 -5 206 -4 300 6 50 5 104 8 120 6 72 -8 340 0 351
11 12 13 32 -4 38 -33z m156 25 c19 -3 61 -1 92 4 31 5 63 5 72 0 8 -5 17 -4
21 1 3 6 35 8 73 5 37 -3 133 -5 213 -5 81 1 191 -4 245 -9 55 -5 162 -14 239
-20 77 -6 147 -15 156 -20 9 -5 48 -12 88 -16 l71 -7 0 -32 c0 -29 -4 -34 -27
-38 -54 -9 -100 -12 -213 -10 -78 1 -117 -2 -122 -10 -6 -9 -8 -9 -8 -1 0 7
-22 12 -57 12 -379 4 -353 2 -354 25 -1 16 -3 17 -6 6 -5 -19 -111 -38 -122
-21 -11 17 -136 35 -271 38 -74 2 -155 7 -180 11 -44 8 -45 9 -48 50 -4 53 9
56 138 37z m1185 6 c3 -6 -1 -7 -9 -4 -18 7 -21 14 -7 14 6 0 13 -4 16 -10z
m2155 0 c19 0 90 3 158 6 114 6 122 5 123 -12 1 -18 2 -18 6 -1 4 16 18 18
143 16 93 0 142 -5 147 -12 7 -11 9 -30 4 -63 -1 -8 -34 -11 -108 -9 -193 4
-182 3 -178 25 5 27 -11 26 -18 -1 -6 -21 -8 -21 -229 -16 -123 4 -241 8 -263
10 -22 1 -68 4 -102 5 -54 2 -63 5 -63 21 0 28 83 41 225 35 66 -3 136 -5 155
-4z m-1802 -11 c12 0 22 -5 22 -12 0 -13 -72 -14 -188 -2 -98 10 -62 25 46 19
53 -4 107 -6 120 -5z m1393 -10 c12 -19 -31 -23 -151 -13 l-95 7 50 12 c65 16
185 12 196 -6z m1159 -1 c0 -46 -17 -58 -85 -58 l-65 0 0 33 c0 19 3 37 7 40
4 4 37 7 75 6 60 -1 68 -4 68 -21z m110 8 c25 -2 57 -4 73 -5 22 -1 27 -6 27
-26 0 -25 0 -25 -94 -25 -82 0 -95 2 -98 18 -7 33 3 52 26 47 11 -3 41 -7 66
-9z m240 -11 c36 -4 69 -9 73 -12 21 -13 -17 -25 -102 -30 l-91 -6 0 26 c0 26
14 38 40 32 8 -2 44 -7 80 -10z m-2777 -2 c-7 -2 -19 -2 -25 0 -7 3 -2 5 12 5
14 0 19 -2 13 -5z m100 0 c-7 -2 -19 -2 -25 0 -7 3 -2 5 12 5 14 0 19 -2 13
-5z m184 1 c-3 -3 -12 -4 -19 -1 -8 3 -5 6 6 6 11 1 17 -2 13 -5z m-3655 -17
c49 -1 92 -7 98 -13 6 -6 10 -27 8 -45 -4 -39 -11 -42 -143 -39 -44 1 -117 2
-161 2 l-82 1 -6 45 c-3 24 -3 48 0 53 3 6 47 7 102 3 53 -3 136 -7 184 -7z
m-843 -19 c13 -7 36 -24 51 -38 15 -14 36 -26 46 -27 11 0 34 -4 51 -8 29 -7
34 -4 42 16 10 29 4 49 -16 49 -8 0 -11 5 -7 11 5 8 33 10 93 6 47 -4 126 -2
176 3 49 5 91 8 92 6 5 -5 6 -96 1 -101 -2 -2 -94 -4 -204 -3 -109 1 -288 1
-396 1 l-198 -1 0 47 c0 26 2 50 4 52 10 10 243 -2 265 -13z m7136 12 c4 -6
-7 -10 -24 -10 -17 0 -31 5 -31 10 0 6 11 10 24 10 14 0 28 -4 31 -10z m-7425
-45 c0 -54 6 -52 -180 -60 -210 -10 -262 -10 -317 4 -2 1 -3 8 -3 16 0 8 -4
15 -10 15 -5 0 -7 -7 -4 -15 5 -12 -3 -15 -42 -15 -121 0 -354 -9 -400 -15
-56 -8 -63 -4 -71 46 -4 27 -2 29 29 30 18 0 89 3 158 5 69 2 215 5 325 8 228
5 478 16 484 22 2 2 10 4 18 4 9 0 13 -14 13 -45z m7567 29 c-3 -3 -12 -4 -19
-1 -8 3 -5 6 6 6 11 1 17 -2 13 -5z m93 -10 c0 -2 -9 -4 -20 -4 -11 0 -20 4
-20 9 0 5 9 7 20 4 11 -3 20 -7 20 -9z m4945 -4 c-3 -5 -8 -37 -11 -71 -2 -34
-7 -66 -10 -71 -10 -17 -23 3 -15 24 4 12 4 44 -1 71 -7 37 -6 52 3 58 15 9
41 0 34 -11z m-15911 0 c16 -6 26 -17 26 -30 0 -23 -17 -25 -54 -9 -21 10 -23
14 -13 30 7 11 13 19 14 19 1 0 13 -4 27 -10z m8606 1 c134 4 194 1 260 -10
36 -6 96 -13 134 -17 l68 -6 -5 -40 c-3 -22 -7 -42 -10 -44 -2 -3 -47 -7 -100
-9 l-95 -4 -12 29 c-7 18 -20 30 -31 30 -10 0 -21 5 -24 10 -11 18 -20 11 -50
-40 -26 -44 -33 -50 -55 -44 -14 4 -36 7 -50 9 -14 1 -30 3 -37 3 -7 1 -15 18
-19 37 -8 47 -24 45 -24 -4 0 -38 -1 -39 -32 -35 -18 1 -39 3 -46 3 -10 1 -10
6 -1 22 8 17 8 20 -1 14 -8 -5 -20 1 -30 16 l-18 23 -35 -19 c-33 -18 -36 -18
-61 -2 -14 10 -26 24 -26 31 0 8 -13 17 -30 21 -84 18 28 35 185 28 39 -2 104
-3 145 -2z m-6390 -55 c-5 -14 -16 -19 -38 -19 -86 3 -82 1 -82 33 0 28 1 29
58 32 61 3 76 -8 62 -46z m5433 33 c20 -6 42 -7 47 -4 6 4 10 -11 10 -35 0
-39 -1 -40 -27 -34 -41 8 -100 14 -165 15 -62 2 -77 16 -63 59 6 19 12 20 83
14 42 -3 94 -10 115 -15z m545 12 c8 -1 12 -18 12 -51 0 -46 -4 -53 -30 -52
-266 8 -401 14 -422 18 -24 5 -28 11 -28 39 0 30 3 33 36 37 19 2 37 0 40 -4
9 -13 81 -9 93 6 9 10 42 13 149 11 75 -2 143 -4 150 -4z m-7968 -21 c8 -5 12
-11 9 -14 -3 -3 -14 1 -25 9 -21 16 -8 20 16 5z m5550 -20 c52 -4 111 -6 130
-4 76 6 77 5 79 -113 l2 -105 -58 7 c-80 10 -135 13 -301 16 -79 2 -145 6
-148 10 -4 8 -52 16 -126 22 -21 2 -40 6 -42 8 -2 2 -7 37 -11 77 l-7 73 39
-1 c103 -2 308 11 312 21 2 6 11 7 20 3 9 -4 59 -10 111 -14z m3695 5 c33 -3
110 -6 172 -6 121 -1 125 -3 119 -59 l-3 -25 -135 3 c-74 1 -181 -2 -238 -7
-57 -5 -109 -6 -115 -2 -5 5 -44 9 -85 10 -95 1 -104 11 -91 93 1 8 262 3 376
-7z m593 -10 c8 -3 12 -17 10 -37 l-3 -33 -120 -3 c-66 -2 -121 -7 -123 -12
-2 -4 -12 -6 -22 -3 -16 4 -20 14 -20 49 l0 43 58 3 c71 4 203 0 220 -7z m384
3 c6 -10 8 -10 8 0 0 13 75 16 154 6 l47 -7 -3 -66 -3 -66 -43 -3 c-24 -2 -50
2 -57 8 -8 6 -24 11 -37 10 -45 -4 -48 -1 -48 45 0 25 -4 45 -10 45 -5 0 -10
-21 -10 -46 0 -25 -3 -43 -8 -40 -4 2 -48 6 -99 8 l-91 3 -1 52 0 52 52 3 c29
2 72 4 96 6 28 1 48 -2 53 -10z m372 -4 c3 -8 -1 -37 -10 -64 -11 -35 -13 -53
-5 -68 9 -16 7 -19 -12 -16 -12 2 -43 5 -70 7 -26 1 -47 5 -47 10 0 4 0 39 0
77 l0 70 69 0 c53 0 70 -4 75 -16z m481 -9 c38 -11 123 -20 235 -25 96 -4 209
-15 250 -23 41 -8 107 -18 145 -21 39 -3 120 -13 180 -21 61 -8 117 -15 125
-15 41 -2 -45 -29 -125 -40 -170 -23 -829 -30 -990 -10 -47 6 -116 10 -153 10
-82 0 -102 0 -102 4 0 2 7 18 16 36 14 27 15 39 5 65 -19 55 -18 56 62 50 39
-3 92 -2 117 3 65 12 166 7 235 -13z m-5253 3 c3 -8 53 -12 169 -14 90 -1 202
-7 249 -13 47 -6 101 -12 120 -14 19 -2 35 -9 34 -15 -1 -7 -2 -48 -2 -92 l-2
-80 -112 5 c-62 3 -197 10 -300 17 l-186 11 -7 93 c-4 51 -4 97 -1 103 9 15
33 14 38 -1z m2232 -12 c20 -31 68 -42 109 -25 23 10 32 10 35 1 2 -7 11 -12
20 -12 15 0 15 -2 2 -10 -8 -6 -56 -10 -107 -9 l-92 2 -10 30 c-15 41 -14 47
8 47 10 0 26 -11 35 -24z m1948 -29 l3 -49 -65 5 c-36 3 -66 6 -66 6 -5 3 -14
73 -10 79 3 5 34 8 70 8 l64 0 4 -49z m-4961 11 c1 -33 7 -75 14 -97 5 -16 -2
-19 -47 -24 -29 -3 -78 -3 -108 0 -73 7 -81 7 -322 0 -115 -3 -210 -2 -212 2
-3 4 -8 29 -11 57 l-7 49 140 3 c128 2 142 0 154 -17 8 -10 29 -20 52 -23 35
-4 41 -1 55 24 14 23 22 28 56 27 22 -1 65 3 95 9 30 5 74 10 98 11 37 1 42
-2 43 -21z m-718 -18 c8 -9 16 -110 9 -111 -4 0 -34 -2 -67 -5 -33 -2 -83 -8
-112 -14 -45 -8 -192 -4 -202 6 -2 2 -6 26 -9 54 -4 44 -2 50 15 50 10 0 23 4
29 10 12 12 326 21 337 10z m-4489 -21 c31 -25 33 -57 6 -87 -25 -26 -33 -27
-70 -5 -22 13 -29 25 -32 57 -3 23 0 44 6 48 21 14 63 8 90 -13z m6856 8 c25
0 71 3 103 7 l57 7 0 -39 c0 -69 68 -100 110 -51 23 29 25 48 5 55 -35 14 -8
19 99 21 131 2 125 6 118 -99 -3 -51 -6 -56 -25 -55 -12 1 -71 -2 -132 -6 -60
-4 -145 -10 -189 -13 -43 -3 -89 -9 -101 -14 -47 -18 -289 -9 -309 11 -3 2 -6
42 -8 89 l-3 85 55 3 c29 1 56 5 59 8 3 2 30 2 61 -2 31 -3 76 -6 100 -7z
m658 -7 c34 0 78 -6 97 -14 29 -12 33 -19 30 -43 -2 -15 -4 -39 -4 -53 l-1
-25 -124 0 -123 0 -2 77 -2 77 33 -10 c18 -5 61 -9 96 -9z m-5376 -15 c-6 -33
-30 -52 -65 -51 -28 1 -32 5 -35 33 -3 28 0 32 25 36 56 9 78 3 75 -18z m588
-6 c0 -15 -5 -31 -12 -35 -7 -4 -100 -6 -207 -5 -314 5 -301 4 -301 21 0 31
16 36 109 38 51 1 95 3 97 5 2 2 74 4 159 4 l155 0 0 -28z m343 21 l177 5 0
-44 0 -43 -32 6 c-45 9 -254 21 -303 17 -22 -2 -67 -4 -100 -5 l-60 -1 -3 35
-3 36 73 -6 c40 -3 153 -3 251 0z m792 0 c120 2 187 2 203 1 8 -1 12 -19 12
-56 0 -53 -1 -55 -27 -56 -16 -1 -30 -1 -33 -1 -61 5 -399 21 -584 27 -81 3
-151 7 -155 9 -9 6 -13 65 -5 77 3 6 100 7 252 4 136 -3 288 -5 337 -5z m9135
0 c8 -1 -5 -5 -30 -9 -57 -8 -207 -2 -192 8 10 6 189 7 222 1z m-5275 -10 c4
-6 42 -11 88 -11 45 0 89 0 97 0 8 -1 35 -1 60 0 25 1 74 -2 110 -6 l65 -8 -4
-50 c-1 -27 -5 -54 -8 -59 -6 -9 -197 -1 -245 10 -16 3 -28 10 -28 15 0 5 -22
9 -50 9 -27 0 -50 -4 -50 -10 0 -5 -18 -10 -40 -10 -44 0 -44 0 -40 75 2 47
28 72 45 45z m-5747 -28 c-3 -24 -9 -28 -48 -33 -25 -4 -101 -8 -170 -10 -69
-1 -165 -8 -215 -15 -49 -7 -110 -16 -134 -19 -29 -5 -41 -3 -36 4 3 6 -6 22
-22 36 l-28 25 65 -1 c36 -1 90 4 120 10 30 6 125 14 210 17 85 3 156 7 158 9
2 2 26 3 53 3 49 1 50 0 47 -26z m12106 19 c27 -1 46 -4 43 -8 -10 -9 -287
-12 -287 -2 0 8 107 16 165 12 17 -1 52 -2 79 -2z m556 -20 c0 -27 -2 -28 -61
-35 -83 -8 -121 -8 -115 2 2 4 -21 5 -52 1 -31 -3 -64 -3 -73 2 -8 4 -29 7
-45 7 -28 -1 -114 19 -114 26 0 2 60 4 133 5 159 1 277 8 285 15 3 3 14 6 24
6 13 0 18 -8 18 -29z m-903 6 c18 -3 43 -12 55 -19 16 -9 75 -13 203 -14 109
0 201 -5 233 -13 29 -7 52 -14 50 -16 -2 -2 -35 -6 -73 -9 -164 -14 -203 -18
-260 -31 -120 -28 -232 -44 -335 -46 -58 -2 -114 -6 -125 -10 -39 -13 -102
-18 -335 -24 -242 -7 -332 -11 -410 -20 -25 -3 -109 -5 -186 -6 -78 -1 -147
-5 -155 -9 -25 -16 33 -21 189 -18 84 2 152 0 152 -4 0 -5 -12 -9 -27 -10 -34
-1 -63 -4 -173 -12 -47 -3 -123 -9 -170 -12 -47 -3 -113 -10 -148 -15 -35 -5
-100 -9 -145 -8 -45 1 -86 0 -92 -2 -5 -1 -29 3 -53 10 -46 13 -197 19 -208 8
-4 -3 -15 -2 -25 3 -9 6 -53 12 -96 15 -43 3 -91 8 -108 12 -16 3 -73 7 -125
8 -52 2 -102 6 -110 9 -26 11 -247 11 -364 0 -73 -6 -109 -6 -111 1 -2 5 -6
22 -9 36 l-6 27 98 12 c53 7 142 15 197 16 55 2 141 7 190 12 91 8 341 7 405
-2 19 -3 64 -10 100 -16 36 -5 88 -13 115 -16 28 -3 54 -9 60 -12 28 -17 251
-40 242 -25 -4 6 -41 13 -84 17 -43 4 -91 13 -108 21 -33 15 -91 25 -175 32
-30 2 -66 6 -80 7 -14 2 -37 4 -52 4 -16 1 -28 6 -28 11 0 4 62 11 138 15 75
3 169 11 207 16 76 10 261 38 310 46 17 3 206 7 420 9 311 4 569 16 582 28 5
5 403 -1 430 -6z m-3733 -7 c17 0 18 -6 13 -56 -3 -31 -7 -57 -9 -58 -2 -2
-36 0 -76 3 -42 4 -77 2 -82 -3 -7 -7 -10 -6 -10 2 0 8 -17 12 -45 12 -50 0
-65 16 -65 69 0 36 4 37 150 34 58 -1 114 -2 124 -3z m4163 4 c-3 -3 -12 -4
-19 -1 -8 3 -5 6 6 6 11 1 17 -2 13 -5z m-12961 -42 c-2 -15 -7 -40 -11 -56
-6 -22 -4 -31 9 -38 9 -5 16 -16 16 -24 0 -8 16 -22 35 -31 19 -9 35 -20 35
-23 0 -12 72 0 100 16 20 12 26 23 24 45 -2 36 5 41 70 46 28 2 63 8 77 14 14
5 54 11 90 12 51 2 64 -1 64 -13 0 -15 5 -17 58 -19 15 0 27 -6 27 -12 0 -5
-4 -7 -10 -4 -5 3 -20 1 -32 -6 -12 -7 -35 -12 -50 -11 -32 1 -38 -21 -10 -37
15 -9 15 -10 -4 -11 -12 0 -24 -7 -28 -15 -3 -8 -1 -15 4 -15 6 0 10 -4 10 -8
0 -10 -53 -8 -91 2 -21 6 -27 3 -37 -18 -10 -23 -15 -24 -61 -19 -41 4 -51 2
-51 -10 0 -27 119 -38 140 -12 13 16 40 21 40 8 0 -5 -23 -29 -52 -55 -63 -56
-87 -60 -164 -22 -53 26 -94 29 -101 7 -4 -12 64 -49 101 -55 11 -2 21 -8 23
-15 5 -14 -57 -25 -151 -25 -111 -1 -272 55 -319 111 -14 17 -29 31 -32 31 -3
0 -21 11 -38 24 -47 36 -151 75 -214 81 -31 2 -58 7 -60 9 -6 6 29 24 58 30
32 6 95 30 146 55 23 12 47 21 52 21 6 0 34 11 63 24 57 26 88 33 187 41 35 3
66 7 69 10 11 11 21 -8 18 -33z m7070 27 c5 -8 27 -9 73 -4 36 4 82 8 101 9
39 1 40 -5 19 -74 l-11 -35 -65 2 c-35 0 -74 4 -86 7 -12 3 -38 2 -57 -2 -62
-14 -70 -7 -70 54 l0 54 44 0 c25 0 48 -5 52 -11z m376 -4 c37 -2 70 -5 75 -8
4 -2 42 2 83 9 41 7 101 13 133 12 l57 -1 0 -37 c0 -60 -11 -65 -180 -75 -52
-2 -129 -7 -170 -10 -41 -3 -90 -2 -108 1 -32 6 -34 8 -27 38 4 17 8 40 10 51
1 11 3 24 4 29 0 4 13 5 29 1 15 -4 57 -9 94 -10z m1055 -20 c6 -26 6 -55 -1
-62 -1 -2 -16 1 -32 6 -17 5 -53 3 -89 -4 -33 -7 -63 -11 -67 -8 -4 2 -42 6
-85 9 -43 3 -111 9 -151 15 -41 5 -114 6 -163 3 l-89 -7 0 37 0 36 161 -1
c165 -1 189 -3 189 -22 0 -24 34 -47 70 -47 30 0 39 5 48 25 7 14 12 32 12 39
0 9 24 12 95 12 l94 -1 8 -30z m449 27 c13 -8 17 -29 15 -78 -1 -36 -15 -42
-75 -34 -38 5 -39 6 -43 50 -2 25 -6 51 -8 58 -5 13 91 18 111 4z m144 -16
c25 -2 55 -4 66 -5 15 -1 23 -10 27 -31 11 -55 4 -59 -96 -57 l-92 2 -3 39
c-5 52 2 66 30 60 13 -3 43 -7 68 -8z m-10512 -12 c13 -4 22 -14 21 -23 -3
-32 1 -41 19 -41 10 0 23 -5 29 -11 8 -8 14 -5 23 10 6 12 8 26 5 31 -13 20
15 9 29 -12 23 -32 20 -44 -14 -58 -22 -9 -46 -10 -82 -4 -44 8 -55 14 -71 41
-11 20 -16 41 -12 53 7 21 16 24 53 14z m10751 -10 c59 -7 61 -8 61 -35 0 -38
-9 -59 -24 -53 -14 5 -71 11 -122 13 -30 1 -32 4 -36 41 -3 39 -3 40 28 40 17
0 59 -3 93 -6z m-7367 -23 c21 -7 47 -10 58 -6 17 5 20 2 20 -25 0 -36 18 -35
-149 -9 -62 9 -88 10 -101 1 -10 -6 -21 -8 -24 -5 -3 4 -46 8 -94 9 -48 1 -97
3 -109 3 -35 1 -31 39 5 43 73 8 360 0 394 -11z m7648 0 c41 -4 92 -4 112 1
22 5 48 4 63 -2 15 -6 51 -10 81 -10 60 0 76 -19 17 -21 -21 -1 -42 0 -48 1
-5 1 -14 2 -20 2 -5 -1 -46 -3 -90 -6 -44 -2 -99 -6 -122 -10 -25 -3 -43 -1
-43 4 0 16 -30 12 -36 -5 -4 -10 -20 -14 -57 -12 l-51 2 -3 38 -2 38 62 -6
c34 -3 96 -9 137 -14z m-8932 -6 c3 -3 3 -8 -1 -11 -8 -9 -87 6 -87 16 0 9 79
4 88 -5z m12607 5 c-36 -7 -94 -4 -104 6 -2 2 29 3 70 3 64 -1 69 -2 34 -9z
m-9365 -24 c93 -4 117 -13 107 -39 -6 -16 -58 -17 -109 -3 -18 5 -46 2 -82 -9
-91 -29 -222 -10 -256 37 -3 4 -18 1 -34 -7 -15 -8 -42 -14 -59 -14 -18 1 -58
-1 -89 -4 -56 -6 -58 -5 -58 18 l0 24 203 -4 c112 -2 219 0 238 4 19 4 37 6
40 4 4 -1 48 -5 99 -7z m303 -18 c51 -26 57 -27 83 -18 14 6 29 8 34 5 5 -3
68 -7 142 -10 150 -5 225 -12 239 -20 5 -4 9 -17 9 -29 0 -30 -8 -32 -204 -35
-87 -1 -170 -7 -185 -13 -14 -6 -34 -10 -44 -9 -10 1 -25 -3 -33 -9 -11 -10
-14 -10 -14 0 0 8 -11 10 -38 5 -29 -4 -43 -2 -59 12 -12 10 -38 31 -57 46
-27 21 -36 35 -36 57 l0 30 70 0 c39 0 80 -5 93 -12z m9028 -7 c53 -4 111 -6
129 -3 28 4 31 2 23 -12 -5 -9 -6 -49 -2 -88 4 -40 6 -74 5 -75 -14 -16 -300
-21 -441 -8 -33 3 -157 8 -275 10 -118 3 -215 5 -215 6 0 5 -141 18 -275 24
-125 6 -191 12 -230 19 -25 5 -150 15 -205 16 -26 1 -28 2 -11 11 10 6 40 9
67 7 26 -3 52 -1 57 4 5 5 94 11 198 14 204 4 222 6 243 18 7 5 74 10 149 11
76 2 182 10 237 19 55 8 143 18 195 21 52 4 113 10 135 14 22 4 58 6 80 4 22
-2 83 -7 136 -12z m-4919 -14 c146 1 177 -1 182 -13 4 -11 -3 -15 -32 -14 -20
1 -111 2 -202 2 -91 0 -190 1 -220 1 -30 0 -94 -3 -142 -7 -84 -8 -88 -7 -88
12 0 18 8 22 48 25 26 3 99 2 162 -2 63 -3 195 -5 292 -4z m-1945 -11 c4 -3
-17 -6 -46 -6 -31 0 -50 4 -46 10 6 10 82 7 92 -4z m1403 -13 c0 -7 -8 -13
-17 -14 -10 -1 -38 -3 -63 -5 -51 -5 -175 5 -166 13 3 3 27 8 53 11 27 2 49 5
50 6 1 0 33 1 72 1 51 1 71 -3 71 -12z m922 6 c32 -1 53 -8 64 -20 10 -11 15
-21 13 -23 -2 -2 -38 2 -79 10 -41 7 -91 13 -111 14 -24 0 -39 6 -43 16 -5 14
2 15 51 11 32 -3 79 -7 105 -8z m5768 1 c0 -5 -4 -10 -10 -10 -5 0 -10 5 -10
10 0 6 5 10 10 10 6 0 10 -4 10 -10z m-9445 -18 c58 -6 57 -7 -50 -13 -60 -4
-131 -10 -157 -14 -40 -6 -49 -5 -54 10 -4 10 -1 21 7 26 14 10 135 5 254 -9z
m2062 12 c-3 -3 -12 -4 -19 -1 -8 3 -5 6 6 6 11 1 17 -2 13 -5z m96 -11 c-7
-2 -19 -2 -25 0 -7 3 -2 5 12 5 14 0 19 -2 13 -5z m74 1 c-3 -3 -12 -4 -19 -1
-8 3 -5 6 6 6 11 1 17 -2 13 -5z m1691 -8 c28 -17 5 -30 -49 -27 -55 3 -76 12
-66 29 7 11 97 10 115 -2z m225 4 c4 0 7 -18 7 -40 0 -35 -3 -40 -24 -40 -13
0 -43 7 -66 15 -23 8 -53 15 -66 15 -18 0 -24 5 -24 23 0 13 3 26 6 30 4 3 41
4 83 2 42 -3 79 -5 84 -5z m191 -10 c5 -5 6 -20 2 -33 -5 -20 -14 -26 -48 -31
-24 -3 -58 -9 -75 -12 l-33 -6 0 45 c0 27 5 48 13 51 18 7 130 -3 141 -14z
m-4191 3 c-7 -2 -19 -2 -25 0 -7 3 -2 5 12 5 14 0 19 -2 13 -5z m4333 -18 c-3
-11 -6 -23 -6 -27 0 -5 -20 -8 -44 -8 -31 0 -46 5 -50 16 -14 37 -7 42 49 41
51 -2 55 -4 51 -22z m-3096 -3 c74 0 151 1 170 1 19 0 49 -1 65 -2 17 -2 65
-2 107 -1 42 1 82 -1 89 -5 17 -11 311 -17 744 -15 397 1 430 2 507 15 30 5
53 4 60 -3 15 -11 247 -11 265 1 6 4 14 4 17 -1 3 -5 18 -7 33 -5 22 4 30 -1
38 -19 13 -29 41 -35 50 -10 11 35 54 36 155 2 19 -6 81 -11 138 -10 l102 1 0
-36 c0 -26 -4 -35 -17 -37 -10 0 -31 -2 -48 -4 -48 -5 -264 -4 -470 2 -104 3
-298 7 -430 9 -284 4 -439 11 -491 23 -41 8 -525 7 -584 -1 -41 -7 -441 -9
-550 -3 -41 2 -104 9 -140 14 -36 6 -119 16 -185 22 -66 6 -133 12 -150 15
-16 2 -96 8 -177 11 -82 4 -148 10 -148 15 0 4 17 7 38 8 77 1 347 12 355 14
4 1 78 1 165 0 86 0 218 -1 292 -1z m-7140 -8 c0 -4 -10 -27 -22 -51 -21 -42
-25 -45 -55 -40 -61 10 -85 59 -37 77 14 6 29 8 33 5 4 -2 21 0 37 5 37 11 44
11 44 4z m6274 -3 c5 -1 6 -4 3 -8 -4 -3 -46 -7 -94 -9 l-88 -3 60 12 c51 11
71 12 119 8z m-1633 -14 c-1 -12 -15 -9 -19 4 -3 6 1 10 8 8 6 -3 11 -8 11
-12z m7797 -8 c-8 -4 -25 -5 -39 -2 l-24 7 25 6 c32 9 59 1 38 -11z m-6388 2
c0 -16 -47 -21 -177 -21 -71 1 -162 -2 -205 -5 -42 -3 -79 -2 -82 3 -6 10 -13
9 149 20 182 12 315 14 315 3z m6270 -3 c0 -5 -13 -8 -30 -8 -16 0 -30 4 -30
10 0 5 13 8 30 7 16 -1 30 -5 30 -9z m-2546 -37 c3 -4 24 -11 46 -15 22 -3 40
-11 40 -17 0 -5 -3 -8 -7 -6 -5 2 -34 1 -66 -2 -54 -7 -57 -6 -55 13 4 30 30
47 42 27z m986 -2 c41 -4 132 -10 202 -13 70 -2 131 -7 136 -10 4 -2 70 -7
146 -10 76 -4 148 -9 160 -11 78 -20 247 -24 371 -9 61 7 178 16 260 20 83 3
153 8 156 10 33 19 430 26 512 9 63 -13 202 -24 357 -29 47 -2 94 -8 105 -13
12 -7 108 -11 248 -11 125 -1 232 -4 237 -7 20 -12 314 -29 407 -23 65 4 74
-17 60 -140 -6 -60 49 -65 108 -9 21 20 46 37 55 37 9 0 41 -22 71 -50 48 -44
56 -48 69 -34 13 13 13 16 -5 26 -11 7 -37 28 -59 48 -40 37 -42 60 -5 60 10
0 19 5 19 10 0 6 5 10 10 10 14 0 160 -146 160 -159 0 -16 25 -14 39 3 9 11
-6 28 -74 86 -47 40 -82 76 -78 80 4 4 24 10 43 14 38 6 52 -3 115 -75 59 -67
122 -97 141 -68 9 15 -34 48 -61 49 -19 0 -134 95 -125 103 3 2 17 7 32 11 27
6 36 0 114 -69 6 -5 22 -17 34 -25 12 -8 36 -28 52 -45 28 -29 29 -29 43 -11
8 11 17 17 20 14 16 -15 0 -122 -16 -113 -5 4 -9 0 -9 -7 0 -13 -62 -58 -80
-58 -9 0 -14 -14 -22 -60 -2 -8 6 -25 17 -37 11 -12 30 -34 43 -48 12 -14 20
-25 16 -25 -3 0 -1 -7 6 -15 9 -11 11 -33 7 -73 -6 -55 -10 -61 -75 -127 -38
-39 -76 -74 -85 -80 -10 -6 -19 -25 -21 -45 -1 -19 -9 -47 -16 -62 -16 -33 -9
-52 25 -70 24 -11 27 -20 30 -73 5 -72 -2 -105 -21 -105 -8 0 -22 -4 -32 -9
-61 -31 -108 -47 -157 -55 -36 -6 -73 -24 -94 -47 -24 -26 -53 -109 -56 -159
-1 -19 -8 -47 -15 -62 -15 -33 -65 -43 -169 -36 -64 5 -68 4 -82 -21 -9 -15
-17 -55 -18 -91 -1 -35 -5 -69 -9 -74 -4 -6 -7 -13 -8 -16 -2 -12 -19 -46 -27
-55 -4 -5 -17 -25 -27 -42 -25 -42 -52 -43 -172 -2 l-90 30 -23 -21 c-20 -18
-23 -32 -23 -86 1 -61 -1 -65 -38 -99 -44 -39 -98 -62 -117 -48 -38 29 -188
51 -212 31 -41 -34 -54 -53 -64 -94 -17 -67 -66 -86 -222 -85 -105 0 -173 19
-232 64 -42 31 -95 57 -118 57 -18 0 -59 -48 -59 -70 0 -19 -73 -107 -100
-121 -14 -8 -36 -21 -49 -31 -36 -27 -46 -24 -111 35 -8 8 -23 17 -33 20 -10
4 -15 11 -12 17 3 5 3 10 -2 10 -4 0 -24 14 -43 31 -19 17 -45 35 -58 40 -33
13 -101 11 -117 -3 -7 -7 -21 -21 -31 -30 -11 -9 -25 -24 -32 -32 -16 -20 -40
-20 -84 -2 -26 11 -41 29 -63 72 -62 122 -119 161 -237 163 -43 1 -79 -3 -83
-9 -3 -5 -31 -10 -61 -10 -67 0 -95 22 -88 69 3 18 1 31 -5 31 -6 0 -11 5 -11
12 0 9 -84 98 -93 98 -1 0 -38 7 -82 16 -44 9 -110 17 -147 19 -67 3 -118 25
-118 50 0 8 -6 20 -12 27 -7 7 -14 33 -14 58 -3 75 -7 94 -31 119 -12 14 -20
28 -17 33 3 4 -2 8 -10 8 -8 0 -19 6 -23 13 -4 7 -24 23 -43 34 -31 19 -70 25
-193 33 -13 0 -77 74 -77 88 0 7 -6 15 -14 18 -20 8 -34 83 -35 188 -1 64 -5
94 -16 106 -8 9 -15 24 -15 32 0 19 -50 54 -59 42 -3 -5 -41 -9 -83 -9 -93 0
-101 8 -118 107 -11 63 -11 67 14 106 36 57 43 110 20 157 -9 20 -24 39 -33
43 -47 17 -147 94 -160 122 -19 45 -1 85 34 76 69 -17 79 -16 38 3 -24 11 -43
23 -43 26 0 3 7 19 15 34 11 21 24 30 54 35 23 3 41 12 43 21 3 13 7 13 28 2
14 -7 44 -18 68 -26 35 -10 47 -19 60 -49 9 -20 17 -41 17 -47 4 -31 31 -98
44 -108 28 -20 49 -62 56 -108 8 -56 19 -75 68 -124 22 -21 46 -55 54 -74 8
-20 21 -40 27 -46 7 -5 18 -28 24 -51 7 -23 22 -52 34 -65 29 -32 78 -106 78
-118 0 -6 8 -16 18 -23 11 -7 25 -31 32 -53 7 -22 23 -60 35 -85 12 -25 26
-59 29 -77 7 -28 27 -55 68 -89 23 -20 68 -76 68 -85 0 -6 17 -28 38 -50 37
-38 66 -58 140 -95 17 -9 32 -22 32 -30 0 -26 139 -97 211 -108 9 -1 32 -12
53 -24 20 -12 43 -22 50 -22 6 0 16 -4 21 -9 6 -4 31 -14 57 -21 26 -7 56 -21
66 -31 11 -10 51 -32 89 -49 104 -48 111 -52 132 -71 14 -14 37 -19 88 -20 37
-1 103 -10 146 -21 63 -15 82 -16 94 -7 11 10 16 10 22 1 7 -11 247 -46 261
-37 3 2 30 -2 60 -9 34 -7 135 -12 267 -11 136 0 213 -4 213 -10 0 -6 4 -5 8
1 4 7 45 15 92 20 106 10 98 8 145 18 22 5 47 14 55 21 8 7 51 30 95 52 61 30
98 57 150 111 38 40 73 72 77 72 16 0 67 43 62 52 -11 18 -79 -2 -123 -36 -7
-5 -19 -11 -26 -12 -15 -2 -101 -60 -109 -73 -8 -13 -92 6 -123 28 -16 10 -41
22 -58 26 -29 6 -29 6 -11 -14 10 -11 42 -29 69 -40 28 -10 53 -23 55 -29 4
-13 -102 -62 -135 -62 -13 0 -43 9 -65 20 -23 11 -47 20 -54 20 -6 0 -14 7
-18 15 -3 8 -12 15 -20 15 -8 0 -29 12 -46 26 -17 15 -34 24 -37 20 -4 -3 -1
-6 5 -6 7 0 12 -6 12 -14 0 -7 15 -19 33 -27 17 -7 40 -20 49 -28 28 -26 42
-36 68 -48 24 -11 23 -12 -15 -12 -22 -1 -54 -5 -72 -10 -27 -8 -43 -4 -107
29 -42 21 -85 40 -95 43 -18 4 -31 -9 -31 -34 0 -11 76 -50 83 -43 3 3 14 1
24 -5 14 -8 5 -11 -42 -11 -33 -1 -68 -3 -78 -5 -27 -5 -139 13 -150 24 -20
20 -8 62 40 133 49 73 160 198 175 198 11 0 61 36 100 71 15 14 76 50 135 80
59 30 117 63 129 74 55 50 84 75 89 75 9 0 152 107 159 119 4 6 39 35 79 66
40 30 92 73 117 95 24 22 49 40 55 40 6 0 27 14 45 30 18 17 39 30 45 30 7 0
25 12 41 28 34 31 100 82 108 82 3 0 17 11 32 25 15 14 33 25 40 25 14 0 82
38 102 57 7 6 28 17 47 24 19 7 35 16 35 20 0 4 12 10 27 14 24 6 79 38 93 55
3 3 25 13 49 23 l44 17 -21 -23 c-12 -13 -22 -29 -22 -35 0 -6 -20 -30 -45
-53 -25 -23 -48 -52 -51 -65 -4 -13 -10 -24 -15 -24 -5 0 -9 -6 -9 -14 0 -8
-7 -16 -15 -20 -8 -3 -20 -16 -26 -29 -10 -22 -14 -23 -68 -16 -32 5 -70 13
-85 19 -38 14 -46 13 -46 -8 0 -20 39 -35 122 -47 l48 -7 -20 -25 c-11 -14
-20 -31 -20 -38 0 -17 -27 -39 -51 -40 -11 -1 -25 -9 -32 -19 -15 -20 -53 -22
-117 -8 -53 13 -63 7 -31 -18 28 -20 95 -32 131 -23 22 6 21 4 -11 -39 -19
-24 -50 -58 -69 -75 -33 -29 -39 -31 -81 -23 -25 5 -64 16 -88 26 -42 17 -59
15 -46 -5 11 -19 83 -51 115 -51 16 0 30 -2 30 -5 0 -12 -52 -86 -63 -91 -16
-6 -133 31 -167 53 -14 9 -30 23 -36 31 -11 16 -44 10 -44 -7 0 -24 150 -88
213 -90 13 -1 2 -17 -40 -60 -32 -32 -62 -66 -68 -75 -13 -22 -51 -28 -66 -10
-6 8 -22 14 -36 14 -13 0 -34 10 -46 23 -26 27 -68 57 -80 57 -16 0 6 -44 31
-65 33 -26 94 -44 160 -49 47 -3 14 -40 -89 -99 l-46 -27 -89 45 c-82 42 -114
53 -114 40 0 -10 55 -54 68 -55 7 0 20 -4 30 -9 9 -5 31 -15 47 -23 17 -7 32
-22 33 -33 5 -25 11 -31 43 -39 20 -4 33 1 53 19 15 14 31 25 37 25 17 0 115
105 139 149 19 36 63 82 87 92 12 4 45 36 73 71 74 90 73 89 116 128 21 20 55
55 74 78 19 24 51 63 71 87 20 24 52 64 70 89 18 25 38 46 46 46 7 0 13 5 13
10 0 20 2 25 14 40 7 8 23 34 36 57 12 22 36 51 51 62 16 12 29 28 29 36 0 8
4 15 9 15 5 0 21 26 37 58 15 31 33 61 41 65 51 31 74 197 27 197 -24 0 -62
-22 -58 -34 7 -17 -79 -86 -107 -86 -13 0 -361 -170 -369 -181 -3 -3 -32 -21
-65 -40 -57 -31 -92 -58 -139 -105 -12 -12 -46 -34 -76 -50 -63 -33 -80 -46
-129 -94 -38 -37 -106 -90 -115 -90 -7 0 -47 -36 -98 -88 -43 -44 -161 -132
-178 -132 -4 0 -10 -4 -12 -8 -2 -4 -23 -23 -48 -42 -25 -19 -47 -38 -50 -41
-3 -4 -50 -29 -105 -56 -95 -47 -254 -159 -302 -213 -13 -14 -46 -59 -74 -100
-29 -41 -64 -88 -78 -103 -20 -22 -25 -37 -23 -73 l2 -45 -83 5 c-45 3 -109
10 -142 16 -33 6 -74 9 -92 6 -17 -2 -34 -2 -38 2 -3 4 -20 7 -38 9 -57 4 -92
10 -120 22 -16 6 -40 11 -55 11 -15 0 -53 6 -84 14 -32 7 -58 11 -58 7 0 -3
-4 -1 -8 5 -4 6 -37 26 -74 44 -38 19 -68 37 -68 42 0 4 -5 8 -11 8 -5 0 -29
8 -52 19 -23 10 -67 29 -97 41 -30 12 -75 32 -100 45 -25 12 -70 29 -100 36
-64 15 -83 26 -166 91 -34 26 -65 48 -68 48 -3 0 -14 8 -24 18 -11 9 -28 24
-38 33 -30 26 -104 117 -104 128 0 5 -8 16 -19 23 -10 7 -54 83 -97 168 -43
85 -94 171 -112 190 -18 19 -44 60 -58 90 -44 96 -76 155 -90 166 -8 6 -14 17
-14 25 0 7 -11 24 -24 38 -13 15 -26 34 -28 45 -1 10 -18 46 -35 80 -54 102
-70 139 -88 196 -28 93 -43 117 -76 129 -46 16 -52 14 -45 -15 6 -23 5 -25
-16 -19 -26 8 -53 21 -123 60 -61 34 -86 55 -80 66 9 13 68 5 95 -13 73 -49
172 -76 235 -64 45 9 41 31 -6 31 -62 1 -138 17 -151 33 -11 12 -11 16 0 20 7
2 21 12 30 21 9 10 25 21 35 24 9 4 17 15 17 25 0 10 8 18 18 19 62 3 177 16
200 23 36 10 169 10 262 -1z m-572 -31 c-5 -16 -51 -22 -87 -12 l-26 7 30 7
c51 13 87 11 83 -2z m4122 -38 c0 -5 -9 -14 -20 -20 -11 -6 -20 -17 -20 -24 0
-17 -62 -28 -72 -12 -11 17 -10 26 5 26 7 0 28 9 47 19 39 22 60 26 60 11z
m455 -43 c9 -16 28 -32 41 -37 17 -7 23 -16 22 -35 -3 -28 -13 -32 -33 -12
-23 22 -55 47 -60 47 -3 0 -13 7 -22 14 -10 8 -29 24 -43 35 l-25 19 52 -1
c45 -2 54 -5 68 -30z m-4839 -35 c11 -14 26 -22 32 -18 16 9 62 -4 62 -18 0
-26 -21 -34 -54 -21 -44 18 -136 82 -129 88 12 13 69 -7 89 -31z m-5164 -19
c21 -9 38 -20 38 -25 0 -4 7 -8 15 -8 31 0 -9 -39 -60 -60 -56 -22 -132 -21
-146 1 -5 8 -16 14 -26 15 -22 0 -70 12 -98 24 -11 4 -29 11 -39 14 -34 12 -4
24 89 36 49 6 92 13 94 16 11 11 98 2 133 -13z m10223 -190 c-6 -53 -13 -102
-21 -143 -4 -19 -8 -41 -10 -49 -1 -8 -8 -17 -13 -21 -6 -3 -17 -26 -24 -50
-17 -59 -37 -64 -37 -10 0 41 -26 105 -55 134 -14 14 -13 19 20 51 20 19 42
35 48 35 5 0 7 3 4 7 -4 3 4 14 19 23 14 10 24 21 22 25 -2 5 37 33 49 35 2 0
1 -17 -2 -37z m-14123 -4 c13 -7 26 -12 30 -11 13 3 57 -47 47 -53 -5 -4 -7
-11 -4 -16 10 -15 -41 -29 -122 -34 -67 -5 -74 -3 -63 10 9 10 9 15 1 15 -6 0
-11 9 -11 20 0 14 -7 20 -23 20 -23 0 -67 33 -67 50 0 21 173 20 212 -1z
m-1009 -59 c33 -16 32 -44 -3 -49 -14 -1 -37 -12 -51 -22 -36 -25 -90 -24
-123 2 -30 24 -32 33 -9 62 14 19 25 22 87 22 40 0 83 -7 99 -15z m15005 -377
c-34 -72 -58 -146 -65 -199 -3 -27 -10 -60 -16 -74 -6 -14 -11 -28 -12 -32 -2
-5 -4 -9 -5 -10 -1 -2 -4 -25 -6 -51 -4 -44 -27 -107 -40 -107 -2 0 0 9 6 19
5 11 10 46 10 78 0 33 5 64 11 70 9 9 5 24 -15 59 -42 75 -37 93 49 179 67 68
93 89 83 68z m-148 -492 c0 -5 -10 -22 -23 -38 -12 -15 -38 -50 -57 -78 -19
-27 -45 -60 -57 -73 -13 -13 -23 -27 -23 -32 0 -5 -25 -34 -55 -65 -30 -32
-55 -60 -55 -64 0 -4 -25 -32 -55 -64 -30 -31 -55 -61 -55 -65 0 -5 -13 -18
-30 -30 -16 -13 -30 -28 -30 -34 0 -16 -117 -126 -154 -145 -17 -9 -41 -26
-53 -38 -12 -12 -40 -30 -62 -41 -23 -10 -41 -22 -41 -26 0 -5 -9 -8 -19 -8
-11 0 -23 -4 -26 -10 -3 -5 -14 -10 -24 -10 -10 0 -36 -14 -57 -31 -22 -17
-49 -35 -61 -40 -13 -5 -23 -13 -23 -19 0 -5 -8 -10 -19 -10 -10 0 -30 -9 -44
-21 -27 -20 -40 -25 -202 -74 -49 -15 -99 -31 -110 -36 -11 -4 -31 -10 -45
-12 -14 -3 -61 -14 -105 -25 -90 -22 -280 -64 -370 -82 -33 -6 -141 -11 -240
-12 -227 0 -215 -1 -178 20 75 41 165 128 190 185 9 20 24 37 32 37 16 0 89
-46 106 -67 25 -30 91 -46 203 -48 123 -3 218 13 238 39 6 9 15 16 19 16 14 0
34 34 35 57 0 12 13 35 29 51 29 28 30 29 84 18 31 -6 59 -15 63 -19 15 -14
154 -8 179 9 42 28 85 114 85 172 0 28 4 53 9 56 10 7 62 -11 143 -48 31 -14
65 -26 75 -26 28 0 77 57 108 125 14 33 31 69 37 80 6 10 12 44 14 73 2 30 5
57 8 59 3 3 47 6 100 8 78 2 100 6 125 24 32 23 53 73 57 133 1 20 9 51 18 69
9 18 16 37 16 44 0 14 29 29 90 45 25 6 62 20 82 31 20 10 45 19 55 19 10 0
27 7 37 15 23 17 36 19 36 6z"/>
<path d="M6640 4083 c-14 -2 -31 -12 -37 -22 -13 -21 -6 -61 11 -62 6 0 20 -2
31 -4 59 -11 94 41 52 77 -11 10 -23 17 -26 17 -3 -1 -17 -4 -31 -6z"/>
<path d="M13099 3809 c-20 -12 -8 -16 26 -9 27 5 28 6 9 12 -12 3 -28 2 -35
-3z"/>
<path d="M14520 2091 c0 -6 4 -13 10 -16 6 -3 7 1 4 9 -7 18 -14 21 -14 7z"/>
<path d="M14552 2059 c4 -11 14 -17 114 -68 48 -24 75 -31 118 -31 39 0 55 3
50 11 -4 6 -19 9 -37 5 -16 -3 -35 -2 -41 3 -6 5 -38 19 -71 30 -33 12 -72 30
-87 41 -30 22 -52 26 -46 9z"/>
<path d="M14405 1992 c-3 -3 -5 -9 -5 -13 0 -10 73 -49 91 -49 6 0 18 -8 25
-17 7 -10 16 -15 19 -11 4 4 0 14 -9 23 -9 9 -16 21 -16 26 0 5 -6 9 -14 9 -7
0 -19 6 -25 14 -12 15 -57 27 -66 18z"/>
<path d="M4430 3808 c0 -10 16 -9 50 2 22 7 20 8 -12 7 -21 -1 -38 -5 -38 -9z"/>
<path d="M4518 3813 c7 -3 16 -2 19 1 4 3 -2 6 -13 5 -11 0 -14 -3 -6 -6z"/>
</g>
</svg>
