<?xml version="1.0" standalone="no"?>
<!DOCTYPE svg PUBLIC "-//W3C//DTD SVG 20010904//EN"
 "http://www.w3.org/TR/2001/REC-SVG-20010904/DTD/svg10.dtd">
<svg version="1.0" xmlns="http://www.w3.org/2000/svg"
 width="1176.000000pt" height="1224.000000pt" viewBox="0 0 1176.000000 1224.000000"
 preserveAspectRatio="xMidYMid meet">
<metadata>
Created by potrace 1.16, written by Peter Selinger 2001-2019
</metadata>
<g transform="translate(0.000000,1224.000000) scale(0.100000,-0.100000)"
fill="#000000" stroke="none">
<path d="M6845 11430 c-3 -5 -24 -10 -46 -10 -21 0 -39 -3 -39 -8 0 -4 -15
-14 -32 -21 -18 -8 -65 -45 -105 -83 -40 -37 -79 -68 -88 -68 -8 0 -19 -10
-24 -23 -5 -12 -36 -51 -70 -85 l-61 -63 -23 28 c-13 15 -29 54 -36 86 -13 62
-31 87 -62 87 -26 0 -61 -43 -64 -78 -3 -33 -24 -78 -25 -52 0 9 -12 23 -27
32 -27 16 -83 70 -120 114 -29 34 -55 43 -154 54 -86 10 -100 9 -166 -11 -62
-19 -82 -32 -138 -86 -36 -35 -72 -63 -80 -63 -7 0 -16 -9 -20 -19 -3 -11 -15
-23 -26 -26 -10 -4 -19 -12 -19 -20 0 -7 -7 -15 -15 -19 -8 -3 -15 -16 -15
-28 0 -13 -7 -33 -15 -45 -8 -12 -16 -33 -17 -47 -1 -14 -6 -26 -10 -26 -4 0
-8 -5 -8 -12 0 -20 -69 -158 -80 -158 -5 0 -10 -10 -10 -22 -1 -34 -22 -56
-62 -63 -24 -5 -39 -3 -47 7 -27 32 -120 156 -145 193 -89 132 -134 191 -158
204 -32 20 -78 55 -126 99 -20 19 -49 41 -64 50 -16 9 -28 19 -28 23 0 4 -9 5
-20 2 -11 -3 -20 -1 -20 4 0 5 -6 10 -12 11 -7 0 -28 3 -47 6 -18 3 -54 1 -80
-4 -28 -5 -48 -5 -52 1 -3 5 -11 -2 -17 -15 -7 -16 -25 -29 -52 -37 -22 -7
-40 -15 -40 -19 0 -3 -13 -19 -29 -36 -64 -65 -135 -238 -132 -321 0 -13 -3
-23 -7 -23 -4 0 -7 -21 -8 -48 0 -26 -4 -74 -8 -107 -15 -138 -17 -179 -17
-365 -1 -107 3 -217 9 -243 13 -66 5 -263 -14 -298 -8 -16 -14 -43 -15 -61 l0
-33 -14 35 c-7 19 -20 49 -29 65 -9 17 -16 37 -16 45 -1 22 -25 50 -42 50 -9
0 -21 7 -28 15 -7 8 -18 15 -25 15 -6 0 -27 7 -44 16 -40 20 -118 26 -145 12
-11 -6 -43 -16 -71 -23 -40 -9 -54 -9 -62 1 -15 15 -45 161 -38 183 3 9 -3 26
-12 37 -10 10 -25 32 -33 48 -8 15 -26 33 -40 38 -14 5 -36 15 -50 21 -14 5
-28 10 -32 9 -5 -1 -8 2 -8 7 0 11 -85 41 -116 41 -16 0 -22 4 -18 14 4 10 0
13 -14 9 -25 -6 -87 77 -97 132 -6 36 -50 103 -95 145 -43 40 -128 88 -195
110 -22 7 -45 17 -52 22 -7 5 -22 6 -35 2 -13 -4 -27 -7 -33 -5 -29 9 -105 10
-105 1 0 -5 -6 -10 -12 -10 -18 0 -122 -43 -129 -53 -3 -5 -12 -7 -20 -5 -15
3 -79 -41 -79 -55 0 -9 -7 -17 -125 -140 -41 -44 -75 -84 -75 -90 0 -14 -39
-98 -55 -117 -7 -8 -15 -32 -19 -52 -4 -21 -14 -45 -23 -54 -9 -9 -17 -23 -18
-33 0 -9 -5 -18 -10 -21 -6 -2 -17 -10 -25 -17 -8 -7 -19 -14 -25 -14 -5 -1
-17 -5 -26 -9 -9 -6 -26 -4 -41 4 -14 8 -52 16 -84 19 -33 4 -85 13 -118 22
l-58 15 -39 -40 c-21 -22 -41 -51 -45 -65 -3 -14 -10 -25 -15 -25 -5 0 -8 -3
-8 -7 1 -5 0 -10 -1 -13 -9 -24 -12 -66 -14 -200 -2 -146 12 -263 38 -322 4
-9 9 -22 10 -30 8 -41 21 -77 37 -108 18 -35 72 -191 67 -195 -14 -11 -70 -11
-89 -1 -14 7 -41 11 -60 8 -27 -3 -55 6 -115 36 -88 43 -131 61 -154 60 -8 0
-35 2 -60 5 -56 7 -120 -6 -137 -29 -7 -10 -13 -15 -13 -11 0 7 -62 -13 -70
-22 -3 -3 -40 -24 -83 -46 -64 -32 -80 -45 -84 -67 -3 -16 -9 -28 -13 -28 -13
0 -64 -142 -63 -175 1 -133 27 -281 60 -347 7 -15 13 -36 13 -46 0 -20 26 -79
44 -99 6 -6 22 -28 36 -49 24 -35 115 -139 152 -173 10 -8 18 -18 18 -22 0
-13 85 -92 145 -134 33 -24 71 -55 84 -69 14 -14 28 -26 32 -26 12 0 136 -124
144 -145 8 -19 10 -26 15 -50 8 -34 -7 -61 -65 -120 l-66 -66 -169 3 c-162 3
-170 2 -197 -20 -15 -12 -38 -27 -50 -34 -13 -6 -23 -17 -23 -25 0 -7 -6 -13
-13 -13 -15 0 -37 -41 -37 -70 0 -10 -4 -22 -10 -25 -5 -3 -17 -23 -25 -43 -9
-20 -22 -48 -29 -62 -14 -28 -11 -152 5 -181 5 -10 9 -27 9 -39 0 -19 75 -177
90 -190 4 -3 21 -27 39 -53 18 -26 41 -53 52 -60 10 -6 19 -16 19 -22 1 -19
65 -82 130 -128 36 -25 76 -56 91 -70 14 -13 43 -30 65 -37 21 -7 62 -23 89
-35 28 -13 93 -39 145 -60 52 -20 104 -41 115 -46 11 -5 63 -23 115 -41 52
-17 123 -47 158 -65 34 -18 64 -32 67 -30 2 1 13 -6 24 -15 11 -9 22 -14 25
-11 13 13 109 -65 102 -83 -3 -7 0 -14 5 -16 6 -2 13 -22 16 -45 6 -48 -19
-112 -59 -150 -52 -49 -68 -63 -76 -63 -5 0 -18 -13 -30 -30 -13 -16 -27 -30
-33 -30 -11 0 -120 -51 -129 -60 -3 -3 -17 -11 -32 -19 -16 -8 -28 -17 -28
-21 0 -4 -17 -24 -37 -45 -21 -21 -38 -48 -39 -59 -3 -37 -16 -66 -30 -66 -8
0 -14 -7 -14 -15 0 -8 -4 -15 -8 -15 -5 0 -7 -14 -4 -30 2 -17 0 -36 -6 -43
-8 -11 -8 -114 1 -178 5 -33 16 -51 28 -44 5 4 9 -1 9 -9 0 -8 18 -22 40 -32
22 -10 40 -23 40 -30 0 -6 8 -14 18 -18 9 -3 24 -10 32 -15 8 -5 28 -12 43
-16 15 -3 35 -14 45 -25 9 -11 20 -20 25 -20 14 0 98 -62 130 -95 15 -16 37
-49 48 -72 11 -24 24 -43 28 -43 4 0 14 -19 21 -42 7 -24 20 -61 30 -83 10
-22 25 -69 33 -105 47 -196 48 -206 41 -327 -10 -167 -10 -471 -1 -513 16 -75
17 -99 2 -113 -8 -8 -11 -17 -8 -21 4 -3 2 -6 -4 -6 -5 0 -19 -20 -31 -44 -13
-24 -29 -47 -37 -50 -8 -3 -15 -12 -15 -19 0 -8 -7 -20 -15 -27 -8 -7 -15 -21
-15 -32 0 -10 -7 -21 -15 -24 -8 -3 -17 -16 -21 -27 -7 -26 -160 -177 -179
-177 -26 0 -34 -60 -10 -80 12 -10 18 -10 29 -1 11 9 20 9 35 2 16 -9 25 -6
49 14 17 14 35 25 41 25 6 0 16 9 23 20 7 11 18 20 25 20 7 0 29 11 49 25 20
14 42 25 48 25 6 0 17 9 24 20 7 11 21 20 31 20 10 0 29 12 42 26 13 14 34 35
47 47 12 11 22 27 22 34 0 7 5 13 10 13 6 0 10 4 10 9 0 5 24 45 54 88 55 79
82 97 106 68 8 -9 19 -11 40 -5 16 5 38 6 50 3 11 -3 35 2 54 11 19 9 38 16
42 16 26 0 167 81 209 120 28 26 68 58 90 72 40 25 105 93 105 110 0 4 4 8 8
8 13 0 92 75 92 87 0 6 16 25 35 42 19 17 35 34 35 39 0 5 11 15 25 22 14 7
39 41 57 77 17 34 35 63 38 63 4 0 13 20 20 45 7 24 19 50 26 56 8 6 23 30 33
53 11 22 35 59 55 81 20 22 39 51 43 65 10 43 18 46 23 10 3 -23 11 -36 23
-38 17 -3 18 1 12 42 -4 25 -4 67 0 92 5 39 8 43 19 29 16 -23 43 -9 43 23 0
15 3 46 6 69 5 35 3 43 -12 48 -17 5 -18 10 -7 58 7 34 17 52 26 52 28 0 20
30 -20 84 -22 29 -40 63 -40 76 0 12 -3 37 -7 55 -6 33 -6 33 25 27 37 -7 54
10 26 27 -40 23 -96 38 -107 27 -11 -11 -37 9 -37 31 0 10 -2 10 -9 -1 -7 -10
-16 -4 -40 29 -37 51 -37 53 -10 91 19 27 22 28 47 15 15 -8 40 -31 56 -50 30
-37 46 -45 46 -23 0 10 -13 28 -60 84 -5 7 -10 17 -10 23 0 5 -7 10 -15 10
-22 0 -17 12 16 39 l30 23 40 -28 c22 -15 49 -38 59 -51 10 -13 25 -23 35 -23
15 0 15 1 1 16 -9 8 -16 18 -16 22 0 4 -18 27 -40 52 -22 25 -40 50 -40 56 0
6 20 21 45 34 24 12 58 38 75 56 16 18 45 41 63 50 17 9 44 28 60 42 16 16 31
22 36 16 5 -5 27 -45 51 -89 46 -87 56 -102 66 -92 8 7 -23 85 -68 171 l-30
58 58 54 c32 30 61 54 66 54 4 0 8 5 8 11 0 7 9 19 19 28 10 9 26 33 34 54 9
20 25 46 36 58 l20 22 30 -48 c17 -26 33 -67 37 -91 3 -24 10 -44 14 -44 10 0
20 36 20 75 l1 30 22 -27 c26 -32 37 -35 37 -10 0 17 -48 70 -113 124 l-27 23
24 50 c14 28 34 59 45 69 12 11 21 23 21 27 0 5 13 30 30 56 16 26 30 55 30
64 0 9 8 19 18 21 15 4 18 17 20 79 3 108 21 187 54 236 37 54 44 58 58 33 6
-11 16 -18 21 -14 7 4 6 11 -4 21 -13 13 -13 18 0 44 8 16 21 29 28 29 8 0 17
9 20 20 3 11 13 20 21 20 8 0 14 5 14 10 0 16 28 11 42 -7 7 -10 25 -24 41
-32 15 -8 27 -17 27 -21 0 -13 49 -60 82 -78 18 -10 51 -22 73 -26 46 -9 97
-33 108 -52 4 -7 14 -11 22 -8 8 4 28 1 45 -4 16 -6 29 -8 29 -4 -3 20 2 32
14 32 20 0 67 78 67 110 0 16 5 51 11 79 5 27 12 71 13 98 7 92 27 208 41 235
8 14 15 35 15 46 0 12 5 24 10 27 6 3 10 13 10 21 0 8 8 22 18 32 9 10 24 28
32 40 8 12 20 22 27 22 6 0 16 7 21 16 12 22 105 53 166 56 134 5 178 -48 247
-294 7 -27 19 -48 26 -48 7 0 13 -4 13 -10 0 -5 10 -10 23 -10 13 0 28 -5 35
-12 6 -6 22 -13 34 -15 12 -2 25 -8 28 -14 4 -5 26 -9 49 -8 30 2 45 9 56 26
9 13 22 23 30 23 8 0 15 5 15 10 0 16 37 53 47 47 5 -3 20 12 33 34 14 21 33
42 42 45 10 3 18 10 18 15 0 6 4 8 9 4 6 -3 15 4 21 15 7 13 21 20 38 20 16 0
33 5 40 12 7 7 53 11 130 11 130 -1 166 -13 178 -59 3 -13 10 -24 14 -24 16 0
34 -75 36 -145 2 -88 8 -105 60 -158 11 -12 23 -30 27 -39 3 -10 13 -18 22
-18 8 0 15 -4 15 -10 0 -5 10 -9 23 -9 12 1 34 -3 48 -9 15 -6 30 -8 33 -5 3
3 25 6 48 6 24 0 50 5 58 12 8 8 29 17 45 21 17 4 43 13 59 21 53 27 141 16
181 -22 73 -70 99 -146 81 -234 -11 -54 -19 -67 -74 -121 -57 -55 -92 -111
-92 -146 0 -22 43 -82 67 -95 13 -7 52 -41 88 -76 64 -63 65 -64 59 -106 -7
-43 -31 -86 -49 -87 -6 0 -30 -18 -54 -40 -30 -27 -69 -49 -120 -67 -80 -28
-111 -47 -111 -70 0 -7 -5 -22 -12 -32 -9 -14 -8 -29 2 -65 12 -43 27 -63 120
-162 38 -41 108 -154 94 -154 -3 0 2 -12 11 -27 13 -18 17 -44 16 -89 -2 -76
-13 -109 -49 -142 -23 -22 -37 -26 -109 -28 -52 -1 -83 2 -83 8 0 7 -5 7 -13
-1 -8 -6 -17 -8 -21 -3 -4 4 -38 8 -74 9 -37 1 -104 5 -150 8 -67 6 -89 3
-122 -12 -22 -10 -42 -26 -45 -35 -3 -9 -14 -20 -24 -23 -10 -3 -23 -17 -29
-30 -6 -14 -16 -25 -22 -25 -6 0 -10 -26 -10 -62 0 -59 9 -100 35 -161 8 -19
9 -45 3 -82 -4 -30 -7 -58 -6 -62 4 -16 -33 -73 -48 -73 -8 0 -12 -4 -9 -10 3
-5 -2 -10 -13 -10 -11 0 -50 -16 -88 -36 -74 -38 -71 -38 -284 -32 -30 1 -66
0 -80 -1 -14 -2 -52 2 -85 8 -50 9 -62 9 -71 -4 -13 -17 -40 -20 -49 -5 -5 7
-11 8 -18 1 -8 -6 -27 -3 -57 8 -25 10 -99 27 -164 37 -71 11 -121 24 -123 31
-3 7 10 26 27 42 19 17 31 36 28 47 -4 22 -38 32 -38 12 0 -7 -12 -26 -26 -43
-15 -16 -33 -40 -41 -53 -10 -14 -25 -22 -44 -22 -36 0 -99 -25 -99 -39 0 -6
-6 -11 -13 -11 -16 0 -39 -53 -43 -98 -2 -27 4 -45 26 -71 15 -20 35 -53 43
-74 9 -21 23 -37 32 -37 23 0 81 -60 89 -92 4 -17 2 -28 -4 -28 -5 0 -10 -10
-10 -23 0 -35 -66 -116 -96 -117 -6 0 -17 -6 -23 -13 -16 -21 -99 -44 -176
-51 -16 -1 -37 -5 -45 -8 -23 -10 -53 -6 -74 8 -10 7 -24 10 -31 8 -7 -3 -16
-1 -20 5 -3 6 -13 11 -22 11 -25 0 -139 60 -164 86 -12 13 -28 24 -35 24 -7 0
-32 15 -56 33 -47 35 -77 51 -122 64 -41 13 -42 25 -7 66 37 41 37 43 11 50
-16 4 -25 -5 -47 -44 l-26 -49 -51 6 c-27 3 -56 9 -64 13 -7 4 -27 5 -43 3
-40 -6 -73 -57 -93 -142 -16 -69 -52 -146 -86 -182 -15 -16 -33 -22 -67 -23
-27 -1 -61 -7 -78 -14 -22 -9 -39 -10 -62 -3 -18 6 -42 8 -53 5 -28 -7 -77 15
-100 45 -11 13 -20 21 -20 17 0 -4 -6 -2 -13 4 -8 6 -16 9 -18 6 -3 -2 -13 9
-24 26 -11 16 -24 27 -30 25 -5 -2 -19 5 -31 16 -23 20 -107 34 -148 24 -32
-8 -82 -54 -78 -72 2 -8 -2 -14 -8 -14 -5 0 -10 -11 -10 -25 0 -14 -4 -25 -9
-25 -5 0 -14 -14 -21 -31 -7 -17 -30 -49 -52 -71 -21 -22 -38 -44 -38 -49 0
-5 -9 -9 -20 -9 -12 0 -24 -9 -29 -22 -13 -33 -105 -107 -133 -108 -7 -1 -31
-8 -53 -16 -81 -31 -141 -36 -180 -14 -19 11 -37 14 -50 9 -25 -9 -121 -2
-205 15 -68 14 -90 12 -90 -9 0 -18 26 -66 32 -60 3 3 18 0 34 -6 33 -13 247
-42 314 -42 68 -1 199 28 250 54 25 12 56 35 68 50 14 16 30 25 38 22 8 -3 14
0 14 6 0 6 7 11 15 11 8 0 20 10 26 22 6 13 13 25 15 27 1 1 19 -13 38 -33 23
-22 50 -37 73 -42 21 -3 54 -15 73 -25 43 -23 151 -37 245 -32 53 2 64 0 47
-7 -13 -6 -27 -8 -32 -5 -4 3 -13 -2 -20 -9 -6 -8 -24 -18 -40 -21 -16 -4 -47
-15 -69 -26 -22 -10 -45 -19 -50 -19 -6 0 -16 -9 -23 -20 -7 -11 -17 -20 -21
-20 -8 0 -70 -44 -95 -68 -8 -7 -17 -10 -22 -7 -5 3 -10 1 -12 -3 -1 -4 -28
-25 -58 -46 -30 -20 -75 -52 -100 -71 -25 -19 -52 -38 -60 -41 -8 -4 -25 -16
-37 -27 -13 -11 -23 -17 -23 -12 0 4 -8 1 -17 -7 -10 -8 -45 -26 -78 -39 -61
-23 -104 -49 -139 -81 -11 -10 -25 -18 -32 -18 -6 0 -17 -7 -24 -15 -6 -8 -15
-14 -18 -13 -4 1 -22 -6 -39 -15 -18 -10 -33 -14 -33 -11 0 4 -10 -2 -22 -13
-21 -19 -59 -33 -99 -38 -10 -1 -24 -9 -34 -18 -9 -9 -21 -17 -27 -17 -10 0
-63 -23 -150 -65 -15 -7 -42 -17 -60 -20 -18 -4 -38 -11 -44 -16 -12 -10 -26
-11 -127 -7 -37 2 -67 0 -67 -4 0 -5 -15 -8 -33 -8 -18 0 -39 -6 -45 -12 -10
-10 -17 -10 -33 0 -11 7 -24 10 -29 7 -6 -4 -10 0 -10 8 0 19 -77 32 -96 16
-24 -20 -26 -47 -5 -71 12 -12 21 -30 21 -40 0 -10 5 -19 10 -19 6 -1 14 -2
19 -3 5 0 13 -4 17 -9 12 -12 24 -8 24 8 0 11 8 10 37 -8 21 -12 48 -20 60
-19 14 2 25 -3 29 -12 3 -9 10 -16 15 -16 12 0 49 -38 49 -50 0 -15 21 -48 52
-82 33 -36 60 -31 78 12 7 17 16 30 21 30 4 0 11 9 14 21 4 11 12 18 18 16 7
-2 46 13 88 34 41 22 83 39 92 39 9 0 17 5 17 10 0 6 9 10 19 10 11 0 23 5 27
11 3 6 21 18 38 26 66 31 76 38 82 56 3 9 10 15 15 11 6 -3 18 1 27 9 22 20
133 77 149 77 7 0 18 9 25 20 7 11 20 20 28 20 9 0 20 4 25 9 19 18 174 91
194 91 12 0 21 5 21 10 0 6 6 10 13 10 7 0 23 11 35 25 12 14 27 25 33 25 7 0
26 10 43 23 17 13 47 29 66 37 19 7 54 26 77 42 23 15 50 29 61 31 11 1 27 10
36 19 9 9 26 20 39 24 12 3 36 17 53 29 16 13 46 30 65 39 19 8 45 21 59 29
14 8 39 21 55 28 17 7 46 26 66 41 20 15 42 28 48 28 6 0 11 4 11 9 0 5 13 14
28 20 16 7 46 28 68 47 21 19 63 46 92 61 28 14 52 30 52 34 0 4 9 11 20 14
11 3 20 12 20 20 0 7 8 15 18 19 9 3 23 9 30 12 8 4 12 -5 12 -29 0 -31 2 -34
25 -29 20 3 25 0 25 -15 0 -10 6 -27 14 -38 10 -16 47 -113 51 -135 4 -24 37
-113 65 -175 5 -11 12 -45 15 -75 6 -52 17 -99 36 -145 4 -11 13 -38 18 -60 6
-22 20 -58 31 -80 11 -21 20 -45 20 -52 0 -7 3 -13 8 -13 4 0 16 -16 26 -35
11 -19 23 -35 28 -35 4 0 8 -6 8 -14 0 -8 27 -43 59 -78 91 -98 117 -129 141
-178 13 -25 38 -65 57 -90 107 -141 163 -220 163 -229 0 -6 7 -11 15 -11 8 0
15 -4 15 -9 0 -5 6 -16 13 -23 6 -7 39 -44 72 -83 33 -38 77 -87 97 -108 36
-35 37 -39 23 -60 -19 -29 -25 -138 -7 -144 7 -3 12 4 12 16 0 17 33 102 46
120 2 2 32 -20 68 -48 36 -28 69 -51 73 -51 5 0 32 -22 61 -48 54 -50 64 -80
42 -121 -15 -29 -29 -135 -19 -145 9 -10 18 9 55 114 12 36 28 65 36 66 32 2
38 5 38 14 0 22 -208 235 -295 302 -22 17 -80 78 -130 135 -49 57 -97 112
-105 121 -8 9 -22 27 -30 38 -68 96 -150 214 -203 290 -35 51 -91 122 -125
160 -35 37 -65 78 -68 91 -4 13 -9 23 -13 23 -3 0 -15 17 -26 38 -11 20 -32
55 -47 76 -25 35 -60 127 -56 144 1 4 -8 28 -20 54 -12 26 -26 73 -31 105 -10
64 -29 121 -48 141 -7 7 -13 24 -13 38 0 13 -4 24 -9 24 -4 0 -18 35 -31 78
-12 42 -27 83 -33 90 -12 16 20 16 60 1 15 -6 39 -13 53 -16 13 -2 28 -9 32
-16 4 -6 10 -8 14 -4 6 6 16 2 89 -36 17 -8 33 -15 38 -16 4 0 81 -37 172 -81
99 -49 165 -87 165 -96 0 -8 5 -13 12 -12 6 2 17 -7 23 -20 7 -13 22 -34 34
-48 11 -13 21 -29 21 -34 0 -6 8 -18 18 -28 9 -10 29 -33 43 -52 15 -19 36
-44 47 -56 11 -11 41 -52 68 -90 26 -38 50 -71 54 -74 3 -3 15 -22 26 -44 10
-21 27 -52 36 -70 9 -17 17 -41 18 -53 0 -12 5 -25 11 -28 10 -7 51 -91 64
-132 3 -13 11 -23 16 -23 5 0 9 -5 9 -11 0 -6 7 -27 16 -47 9 -21 20 -46 24
-57 7 -20 33 -79 70 -160 10 -22 23 -56 30 -75 20 -55 158 -334 185 -374 14
-20 32 -51 41 -69 9 -17 20 -34 24 -37 4 -3 19 -27 34 -55 15 -27 32 -54 37
-59 5 -6 9 -16 9 -22 0 -7 12 -26 26 -41 15 -15 48 -59 74 -98 26 -38 56 -79
66 -90 11 -12 39 -45 64 -75 24 -30 48 -56 52 -58 5 -2 8 -10 8 -17 0 -7 7
-15 15 -19 8 -3 15 -10 15 -15 0 -10 55 -71 64 -71 3 0 26 -20 53 -45 26 -25
55 -48 65 -51 10 -3 18 -9 18 -14 0 -8 33 -23 52 -25 3 0 10 -3 14 -7 12 -12
-49 -30 -81 -24 -16 3 -48 8 -70 10 -22 2 -51 7 -65 9 -14 3 -50 9 -80 13 -30
4 -59 10 -65 14 -5 5 -32 11 -58 14 -146 20 -241 64 -340 159 -30 30 -86 72
-124 95 -37 23 -79 51 -93 62 -43 36 -171 115 -275 170 -167 88 -271 160 -385
266 -25 23 -70 61 -100 85 -62 48 -210 189 -208 198 1 3 -18 27 -43 52 -24 25
-55 59 -69 75 -31 37 -100 155 -100 171 0 7 -13 42 -30 78 -16 36 -30 69 -30
73 0 5 -9 26 -19 48 -11 23 -25 63 -32 90 -6 27 -15 54 -19 59 -11 14 -60 140
-60 152 0 11 32 46 128 137 49 46 57 66 28 66 -7 0 -44 -31 -82 -70 -38 -38
-74 -70 -81 -70 -16 0 -36 75 -27 103 3 12 12 32 20 44 12 20 11 27 -8 60 -12
21 -27 43 -35 49 -9 8 -13 41 -14 110 -1 98 6 133 41 204 21 42 32 118 18 126
-32 20 -99 -32 -118 -93 -7 -21 -17 -43 -21 -49 -5 -6 -12 -33 -15 -60 -3 -26
-7 -51 -9 -55 -6 -9 13 -176 29 -253 8 -39 20 -98 26 -131 23 -120 30 -148 39
-159 4 -6 16 -41 26 -79 10 -37 24 -72 31 -78 8 -6 14 -21 14 -33 0 -12 5 -27
10 -32 6 -6 12 -19 14 -30 3 -10 17 -46 32 -79 16 -33 29 -62 29 -65 1 -3 9
-22 18 -44 9 -21 17 -41 17 -45 0 -12 76 -155 95 -179 11 -14 34 -40 50 -57
17 -18 49 -55 70 -81 45 -56 171 -184 181 -184 7 0 97 -72 136 -109 15 -14 33
-31 40 -36 7 -6 38 -31 68 -56 63 -52 157 -119 167 -119 3 0 14 -7 24 -16 9
-8 23 -16 31 -18 7 -1 24 -9 38 -17 14 -9 62 -38 108 -65 123 -72 141 -84 214
-137 36 -26 69 -47 72 -47 9 0 72 -48 105 -80 34 -33 98 -82 105 -81 3 0 17
-10 31 -23 15 -14 61 -37 103 -52 42 -15 79 -31 82 -34 6 -9 61 -24 77 -21 11
1 248 -32 301 -43 12 -3 27 -8 32 -11 18 -11 50 -14 50 -4 0 5 9 9 21 9 17 0
46 8 169 48 8 3 24 7 35 9 11 2 27 6 35 10 8 3 19 7 24 7 4 1 15 18 23 39 13
32 14 42 2 63 -8 15 -18 23 -27 19 -8 -3 -21 0 -29 6 -10 9 -19 9 -38 -1 -21
-11 -34 -10 -86 5 -34 10 -63 24 -66 31 -2 7 -16 15 -30 19 -93 23 -336 304
-510 590 -7 11 -38 61 -69 110 -75 118 -214 390 -214 418 0 4 -20 50 -45 102
-25 53 -48 108 -51 122 -4 14 -27 66 -50 115 -24 49 -44 91 -44 95 0 3 -15 38
-34 77 -18 39 -52 109 -74 156 -22 47 -54 99 -70 116 -16 17 -33 38 -38 46 -5
9 -34 44 -64 78 -57 65 -135 171 -151 205 -25 51 -39 67 -75 85 -21 11 -42 20
-47 20 -5 0 -20 9 -34 20 -14 11 -29 18 -33 15 -4 -2 -15 4 -25 15 -10 11 -24
20 -31 20 -6 0 -29 8 -51 19 -137 67 -213 102 -220 102 -5 1 -12 4 -18 9 -9 7
-66 21 -105 26 -56 7 -160 42 -160 55 0 29 249 229 284 229 6 0 26 13 43 29
27 25 34 27 44 15 7 -8 18 -13 26 -10 7 3 13 1 13 -4 0 -5 7 -7 15 -4 8 4 15
1 15 -6 0 -6 4 -9 9 -6 5 3 14 -1 21 -9 7 -8 21 -15 31 -15 11 0 19 -5 19 -10
0 -6 11 -8 25 -4 14 3 25 2 25 -4 0 -9 85 -28 105 -23 6 2 33 5 60 7 28 3 57
7 65 10 8 4 26 8 39 9 22 3 109 42 121 55 3 3 16 11 30 18 77 40 153 157 151
232 -1 47 -11 90 -20 90 -19 0 -87 64 -110 103 -13 23 -30 46 -38 50 -19 12
-16 50 6 74 15 15 33 20 81 22 35 1 67 4 72 7 4 3 8 1 8 -5 0 -6 14 -9 30 -7
17 2 30 0 30 -4 0 -4 28 -11 63 -15 34 -5 64 -9 67 -10 3 -1 25 -5 50 -9 25
-4 60 -12 78 -18 27 -8 37 -7 50 6 13 11 32 14 67 11 28 -2 106 -7 175 -10 68
-3 127 -10 130 -15 4 -6 34 -3 81 10 41 11 83 22 94 23 11 1 38 11 60 21 22
11 53 25 68 31 16 7 34 23 41 36 6 13 23 29 36 36 21 11 27 10 37 -3 10 -13
18 -14 45 -5 49 16 161 12 208 -6 8 -4 17 -7 20 -8 64 -19 90 -30 90 -37 0 -4
6 -8 14 -8 8 0 16 -3 18 -7 4 -11 75 -43 93 -43 7 0 15 -4 17 -8 2 -4 26 -21
53 -37 28 -15 52 -31 55 -34 3 -3 32 -24 64 -46 l59 -40 -36 -14 c-20 -7 -37
-18 -37 -23 0 -5 -4 -7 -10 -3 -5 3 -62 -11 -126 -32 -86 -28 -126 -47 -152
-70 -33 -31 -38 -53 -15 -60 6 -2 14 4 17 14 3 11 25 29 49 41 23 12 49 26 57
31 14 8 30 15 93 40 51 21 155 51 174 51 11 0 39 -13 61 -30 23 -16 46 -30 52
-30 5 0 10 -4 10 -9 0 -5 9 -12 20 -16 11 -3 27 -19 36 -34 9 -16 30 -36 45
-45 16 -10 29 -23 29 -31 0 -8 7 -18 15 -22 24 -14 135 -123 135 -133 0 -6 6
-10 14 -10 17 0 143 -117 134 -125 -3 -3 -23 -8 -43 -11 -63 -8 -197 -55 -247
-86 -47 -29 -63 -58 -33 -58 8 0 15 4 15 9 0 5 8 12 18 15 9 4 35 17 57 30 22
14 46 25 53 25 6 1 35 12 62 25 72 35 139 42 165 19 11 -10 36 -29 55 -43 19
-13 37 -27 40 -30 3 -3 25 -16 50 -29 76 -41 83 -45 101 -63 17 -16 16 -17
-14 -31 -18 -8 -43 -18 -57 -22 -38 -11 -100 -45 -123 -66 -11 -10 -29 -21
-39 -25 -28 -8 -18 -38 13 -42 21 -2 28 2 33 22 8 31 61 67 160 107 73 30 96
35 96 22 0 -11 58 -43 77 -43 8 0 27 -8 41 -18 68 -46 188 -88 222 -77 10 3
49 -1 87 -10 37 -9 93 -18 123 -20 102 -8 146 -23 125 -44 -6 -5 -41 -26 -80
-47 -38 -20 -82 -47 -97 -60 -15 -12 -41 -28 -58 -35 -16 -8 -30 -17 -30 -21
0 -5 -6 -8 -13 -8 -7 0 -27 -14 -45 -30 -18 -17 -37 -30 -43 -30 -5 0 -9 -3
-9 -8 0 -4 -17 -16 -37 -27 -55 -28 -137 -78 -143 -86 -9 -11 -93 -46 -145
-58 -27 -7 -59 -17 -70 -22 -38 -17 -220 -41 -300 -40 -44 1 -132 9 -195 18
-63 8 -124 15 -135 14 -11 0 -51 9 -88 20 -38 11 -110 27 -160 35 -151 24
-159 26 -252 56 -197 65 -496 214 -578 289 -17 16 -35 29 -39 29 -4 0 -18 10
-31 22 -29 28 -60 53 -79 64 -28 17 -111 89 -142 124 -42 48 -104 109 -146
146 -44 38 -120 129 -120 143 0 6 -4 11 -9 11 -5 0 -19 16 -32 35 -13 19 -31
37 -40 40 -9 3 -33 27 -53 53 -19 26 -39 52 -43 57 -36 46 -83 128 -83 145 0
11 -9 25 -20 32 -11 7 -20 20 -20 30 0 9 -4 20 -10 23 -12 8 -41 98 -49 155
-7 52 -25 61 -63 31 -25 -20 -25 -21 -13 -88 13 -74 38 -143 67 -185 10 -14
18 -35 18 -46 0 -11 7 -25 15 -32 8 -7 15 -19 15 -26 0 -8 4 -14 9 -14 9 0 71
-84 71 -96 0 -2 8 -13 18 -23 9 -11 22 -26 28 -33 6 -7 31 -31 55 -54 24 -22
71 -76 104 -119 68 -90 86 -110 134 -145 41 -30 44 -33 100 -100 40 -47 94
-93 184 -158 18 -12 40 -29 50 -37 9 -8 22 -15 27 -15 6 0 10 -4 10 -9 0 -4
11 -20 25 -35 14 -15 25 -24 25 -21 0 4 14 -4 32 -16 51 -37 368 -200 415
-213 12 -4 31 -9 43 -11 13 -2 33 -11 46 -20 13 -8 34 -15 48 -15 13 0 26 -4
28 -9 3 -9 36 -16 198 -42 36 -6 98 -19 137 -30 40 -10 89 -19 108 -19 20 0
44 -4 53 -9 9 -5 44 -11 77 -14 33 -3 67 -8 75 -11 26 -9 142 -17 220 -16 79
1 225 21 300 40 63 17 72 18 96 19 11 1 34 12 50 26 16 14 36 25 45 25 8 0 26
11 39 25 13 14 25 23 28 21 2 -3 9 0 16 5 6 6 32 23 58 37 26 15 102 66 170
113 68 47 131 89 141 92 9 4 17 11 17 17 0 5 8 10 17 10 9 0 24 6 32 14 9 8
45 26 81 41 111 45 120 50 120 57 0 5 3 7 8 7 27 -4 44 4 52 27 13 33 2 94
-15 94 -7 0 -15 6 -18 13 -3 9 -7 9 -17 0 -7 -6 -19 -9 -26 -6 -8 3 -21 0 -28
-6 -19 -16 -87 -17 -114 -2 -12 7 -22 10 -22 7 0 -2 -15 0 -32 5 -18 4 -49 11
-68 13 -52 7 -161 25 -190 32 -14 3 -44 5 -67 5 -24 -1 -43 3 -43 9 0 5 -9 10
-20 10 -21 0 -149 65 -335 170 -69 39 -168 115 -229 176 -36 35 -69 64 -72 64
-4 0 -21 17 -38 37 -35 41 -50 56 -121 115 -27 22 -59 54 -71 69 -11 16 -34
39 -50 51 -16 12 -31 25 -34 29 -4 5 -116 81 -168 114 -43 27 -127 90 -130 97
-2 4 -10 8 -17 8 -8 0 -20 7 -29 15 -8 8 -35 24 -59 34 -25 11 -71 37 -103 59
-33 22 -79 45 -103 52 -24 6 -54 18 -65 25 -19 12 -46 14 -198 19 -63 2 -76
18 -81 91 -2 33 -7 69 -11 80 -16 42 -24 71 -25 95 -1 14 -2 32 -3 40 -3 33 3
61 11 56 5 -3 11 1 15 9 3 9 12 12 21 9 11 -5 18 0 22 16 4 15 11 20 24 17 11
-3 22 -1 25 4 3 5 10 6 16 3 6 -4 48 -8 94 -10 45 -1 100 -7 120 -13 27 -8 41
-7 52 1 9 8 16 8 20 2 11 -16 39 -23 49 -13 15 15 41 0 47 -26 4 -14 20 -31
41 -41 19 -9 35 -20 35 -25 0 -5 8 -9 19 -9 10 0 24 -7 31 -15 19 -22 63 -42
91 -39 40 3 309 -80 317 -98 2 -5 10 -8 18 -8 8 0 14 -4 14 -10 0 -5 6 -10 14
-10 7 0 19 -7 27 -16 7 -8 30 -24 51 -35 21 -11 38 -26 38 -34 0 -7 8 -16 18
-19 9 -3 31 -19 48 -35 17 -16 44 -36 60 -45 16 -9 44 -25 62 -36 17 -11 43
-22 57 -24 14 -3 40 -12 57 -20 17 -9 36 -16 42 -16 5 0 49 -18 96 -41 98 -47
116 -55 150 -65 29 -9 26 -9 65 -18 17 -4 38 -11 47 -17 10 -5 24 -9 32 -9 8
0 34 -9 59 -19 24 -10 59 -21 78 -24 19 -3 68 -14 109 -25 41 -10 93 -20 115
-20 22 -1 60 -6 85 -11 35 -8 252 -18 450 -23 8 0 38 3 65 6 28 4 70 7 95 7
40 1 98 12 140 27 8 3 20 6 25 7 72 11 364 187 357 216 -2 8 0 11 4 7 9 -10
69 34 111 82 18 20 57 48 87 63 30 15 57 31 61 36 10 16 65 24 80 11 11 -9 15
-9 15 -1 0 6 6 11 14 11 23 0 40 64 25 92 -15 28 -39 53 -39 40 0 -10 -47 -27
-63 -23 -4 0 -49 4 -100 6 -101 6 -175 27 -305 87 -46 21 -89 38 -95 38 -10 0
-34 10 -119 52 -10 4 -24 8 -32 8 -31 0 -143 66 -184 108 -50 51 -110 94 -202
142 -36 18 -71 40 -78 47 -7 7 -18 13 -23 13 -5 0 -9 7 -9 16 0 8 -5 12 -11 8
-6 -3 -27 9 -47 28 -21 19 -53 45 -72 58 -19 13 -61 45 -92 72 -31 26 -59 48
-62 48 -8 0 -119 77 -150 104 -15 14 -49 32 -75 41 -30 10 -55 27 -71 49 -14
19 -43 42 -65 52 -22 9 -56 30 -75 46 -19 15 -44 28 -55 28 -11 0 -43 15 -72
34 -28 18 -84 46 -124 61 -107 40 -108 40 -174 71 -33 16 -73 30 -90 31 -16 2
-61 10 -100 18 -38 7 -95 16 -125 19 -30 3 -80 9 -110 12 -54 6 -88 9 -172 13
-43 2 -94 29 -71 38 19 7 -6 43 -94 131 -46 45 -83 88 -83 94 0 6 -7 16 -15
22 -15 11 -11 56 6 56 28 0 108 115 116 165 2 11 7 41 13 67 10 49 5 104 -12
125 -12 15 11 42 30 35 6 -2 15 3 18 12 10 25 27 19 63 -23 19 -22 40 -37 47
-34 8 3 18 -6 25 -21 7 -14 25 -29 40 -35 16 -5 29 -15 29 -20 0 -6 6 -11 14
-11 7 0 24 -8 37 -18 13 -10 40 -25 59 -32 19 -8 38 -19 43 -26 4 -7 37 -29
74 -50 37 -21 77 -46 87 -56 11 -10 29 -18 41 -18 11 0 25 -4 31 -9 5 -5 41
-12 79 -15 39 -3 95 -12 125 -21 30 -8 69 -15 87 -15 21 0 36 -6 40 -16 3 -8
12 -13 19 -10 8 3 18 -3 24 -13 12 -23 62 -43 176 -72 96 -24 155 -26 652 -18
165 3 215 7 221 18 6 9 10 10 16 2 4 -8 11 -9 18 -3 7 6 44 12 82 15 85 7 138
17 145 27 3 5 19 11 35 14 71 13 121 28 135 41 8 7 33 16 55 20 64 11 197 57
235 82 19 13 41 23 48 23 7 0 39 18 72 40 32 22 76 42 99 46 23 4 41 10 41 14
0 8 66 41 120 61 19 7 44 21 56 31 11 10 26 18 32 18 16 0 121 50 128 61 3 5
9 7 14 4 9 -5 66 29 93 57 25 24 96 43 117 31 13 -9 22 -8 38 3 14 9 47 15 94
15 40 0 114 5 163 10 50 5 114 10 143 11 30 1 57 7 63 15 7 7 22 13 35 13 12
0 29 7 38 15 8 8 19 15 24 15 6 0 12 7 16 15 3 8 12 15 21 15 11 0 15 11 15
44 0 48 -21 76 -42 58 -15 -12 -168 -5 -204 8 -13 5 -34 6 -46 1 -24 -8 -49
-4 -58 10 -6 8 -162 27 -295 34 -116 7 -184 15 -210 25 -13 5 -26 6 -29 3 -3
-4 -6 -1 -6 5 0 6 -6 9 -14 6 -12 -5 -153 60 -166 77 -3 3 -14 8 -25 12 -67
19 -214 87 -242 111 -34 30 -43 36 -67 42 -15 3 -29 10 -32 15 -3 5 -14 9 -25
9 -11 0 -30 6 -42 14 -20 13 -138 43 -199 51 -22 3 -177 55 -253 85 -24 10
-58 21 -65 22 -3 0 -34 11 -70 24 -36 12 -97 25 -137 27 -39 3 -76 8 -82 11
-8 5 -134 18 -176 18 -78 0 -255 -16 -340 -32 -33 -6 -75 -14 -93 -17 -18 -3
-35 -10 -38 -14 -3 -5 -14 -9 -24 -9 -11 0 -68 -18 -127 -40 -107 -40 -120
-45 -178 -71 -16 -7 -33 -12 -37 -11 -5 1 -8 -3 -8 -8 0 -6 -6 -10 -13 -10 -8
0 -22 -8 -31 -19 -9 -10 -37 -24 -62 -31 -24 -7 -47 -17 -50 -21 -3 -5 -18 -9
-35 -9 -16 0 -29 -4 -29 -10 0 -5 -12 -13 -26 -16 -14 -4 -78 -33 -141 -66
-63 -33 -117 -57 -119 -55 -7 7 7 37 17 37 5 0 9 7 9 15 0 8 4 15 8 15 5 0 14
11 21 24 7 13 31 34 53 47 67 40 71 43 136 87 35 24 75 46 89 48 14 3 42 13
62 23 20 10 42 16 48 14 7 -3 37 7 66 21 30 14 69 28 88 31 38 7 179 74 179
86 0 9 58 39 77 39 7 0 21 8 31 18 17 16 34 26 97 52 17 7 39 17 50 23 11 6
76 40 145 75 116 59 170 95 170 113 0 16 88 98 135 125 28 16 59 35 70 42 45
27 115 62 125 62 19 0 82 51 150 120 36 37 78 75 93 85 39 25 61 72 58 123 -3
46 8 60 120 155 44 38 62 66 74 118 6 24 19 39 95 110 14 13 31 44 39 69 16
54 62 173 70 180 11 10 58 75 70 97 6 13 14 42 17 65 3 24 16 75 29 113 13 39
26 81 28 95 2 14 9 39 16 55 6 17 16 41 21 55 6 14 12 34 14 45 17 81 30 124
46 153 11 18 24 61 29 95 9 55 68 226 92 267 12 19 16 29 52 125 17 44 34 85
38 90 4 6 10 27 14 48 4 20 11 37 15 37 4 0 7 20 7 44 1 63 33 183 57 217 12
15 46 64 78 107 31 43 62 85 70 93 22 24 58 78 58 87 0 4 21 28 48 53 81 76
112 119 112 160 0 69 -48 78 -75 14 l-15 -37 -26 21 c-34 26 -50 26 -64 0 -7
-11 -14 -19 -16 -16 -3 3 -15 -5 -28 -17 -36 -34 -90 -76 -99 -76 -5 0 -28
-16 -51 -35 -24 -19 -48 -35 -54 -35 -6 0 -17 -6 -24 -13 -7 -7 -34 -27 -60
-45 -25 -17 -48 -36 -50 -40 -9 -26 -178 -155 -363 -279 -38 -26 -73 -52 -77
-59 -10 -15 -203 -144 -216 -144 -11 0 -140 -67 -162 -84 -8 -7 -33 -20 -55
-30 -22 -11 -49 -24 -60 -29 -86 -45 -175 -86 -199 -91 -32 -8 -103 -37 -158
-67 -20 -10 -42 -19 -47 -19 -10 0 -107 -65 -121 -80 -3 -3 -35 -25 -72 -50
-38 -24 -68 -50 -68 -57 0 -7 -10 -18 -22 -24 -12 -7 -72 -64 -133 -128 -60
-63 -131 -137 -157 -163 -26 -26 -49 -57 -53 -68 -3 -11 -10 -20 -14 -20 -5 0
-25 -25 -45 -56 -21 -30 -49 -69 -63 -85 -14 -16 -31 -37 -37 -48 -81 -141
-128 -230 -133 -251 -6 -28 -48 -136 -63 -161 -5 -9 -12 -34 -16 -55 -4 -22
-13 -49 -21 -60 -7 -12 -14 -43 -15 -70 0 -27 -4 -56 -9 -65 -4 -9 -11 -42
-14 -75 -10 -103 -27 -167 -51 -200 -28 -36 -51 -151 -59 -300 -3 -54 -10
-103 -15 -108 -6 -6 -10 -17 -10 -26 0 -9 -9 -25 -19 -34 -10 -10 -21 -32 -24
-49 -3 -18 -12 -50 -20 -73 -9 -23 -18 -62 -21 -87 -9 -70 -34 -157 -53 -186
l-18 -26 -3 33 c-2 20 -9 32 -18 32 -8 0 -14 5 -14 11 0 8 -5 7 -16 -2 -12
-10 -15 -29 -12 -90 1 -43 -1 -81 -5 -85 -3 -4 -4 -17 -1 -29 4 -16 -2 -28
-20 -43 -14 -11 -26 -24 -26 -29 0 -5 -11 -16 -25 -23 -14 -7 -25 -19 -25 -25
0 -14 -65 -85 -78 -85 -5 0 -10 -20 -10 -45 -2 -30 -10 -54 -25 -72 -49 -60
-173 -174 -194 -179 -24 -6 -123 14 -123 24 0 4 -13 21 -29 38 -24 26 -54 79
-59 104 -1 9 -13 45 -23 68 -5 13 -9 24 -9 26 0 3 89 30 102 31 3 0 10 3 14 8
4 4 14 7 21 7 22 0 157 67 185 92 14 13 42 36 62 52 20 16 36 33 36 37 0 5 10
19 23 32 44 48 64 73 94 117 17 25 46 61 65 80 89 90 121 212 90 350 -18 84
-36 140 -43 140 -4 0 -9 8 -11 18 -4 15 -86 60 -193 107 -35 16 -126 42 -175
51 -19 4 -39 10 -45 14 -5 3 -30 8 -55 9 -94 5 -161 37 -180 86 -12 30 16 86
55 111 16 10 36 24 45 29 61 40 143 84 185 99 28 10 59 22 70 27 40 17 163 59
176 59 8 0 25 6 39 13 14 7 54 23 90 36 36 13 83 35 105 49 22 15 47 27 55 28
8 2 25 16 38 31 21 25 40 46 72 78 70 70 90 104 110 185 7 30 22 71 33 90 51
91 -20 309 -121 369 -24 14 -52 34 -61 43 -10 10 -26 19 -37 21 -10 2 -26 7
-34 10 -98 36 -161 48 -267 50 -45 1 -85 5 -89 9 -4 4 -17 5 -29 2 -12 -3 -42
0 -66 7 -24 7 -47 13 -51 13 -5 1 -24 14 -43 30 -29 25 -34 34 -29 60 3 17 9
33 15 34 5 2 9 9 9 16 0 6 9 18 21 26 37 26 163 184 187 233 18 39 22 58 16
95 -20 145 -53 226 -115 287 -21 21 -39 41 -39 45 0 4 -11 20 -25 36 -14 16
-25 35 -25 42 0 6 -9 12 -20 12 -11 0 -20 4 -20 10 0 5 -15 16 -32 24 -18 7
-44 26 -58 40 -32 36 -37 109 -9 148 25 34 28 150 6 200 -8 18 -25 57 -38 86
-14 33 -29 52 -39 52 -10 0 -28 10 -41 23 -39 37 -97 77 -111 77 -8 0 -18 4
-23 9 -34 31 -285 66 -300 41z m185 -95 c29 -4 87 -32 95 -46 4 -5 13 -9 22
-9 16 0 83 -49 120 -88 12 -13 24 -41 28 -63 4 -21 11 -39 17 -39 15 0 7 -72
-13 -105 -9 -16 -20 -59 -24 -95 -5 -55 -3 -70 15 -100 11 -19 23 -42 26 -50
3 -8 43 -40 90 -70 46 -30 84 -57 84 -60 0 -4 20 -29 45 -55 52 -57 78 -108
101 -199 15 -60 15 -68 0 -114 -10 -28 -35 -70 -59 -96 -58 -63 -67 -74 -67
-82 0 -4 -21 -28 -47 -54 -93 -90 -125 -152 -88 -166 8 -3 15 -12 15 -19 0 -7
12 -21 27 -31 31 -20 46 -31 75 -58 11 -10 25 -19 32 -21 6 -1 18 -5 26 -8 18
-7 145 -17 282 -23 56 -2 106 -8 112 -14 5 -5 19 -10 30 -10 10 0 34 -11 52
-25 18 -14 36 -25 40 -25 4 0 25 -9 48 -21 45 -22 108 -103 120 -154 15 -59
18 -107 9 -114 -5 -3 -20 -40 -33 -81 -33 -108 -37 -115 -124 -207 -58 -61
-95 -91 -140 -112 -53 -25 -191 -76 -236 -86 -8 -2 -60 -20 -115 -40 -55 -21
-104 -38 -110 -40 -5 -1 -17 -5 -25 -8 -8 -4 -27 -11 -42 -16 -16 -6 -28 -15
-28 -21 0 -5 -9 -10 -20 -10 -11 0 -20 -3 -20 -8 0 -4 -16 -16 -35 -26 -19
-11 -35 -23 -35 -27 0 -5 -7 -6 -15 -3 -8 4 -15 1 -15 -5 0 -7 -8 -15 -17 -18
-22 -8 -76 -69 -81 -91 -2 -10 -6 -40 -9 -68 -5 -49 -4 -52 33 -83 22 -17 59
-41 84 -52 96 -44 115 -50 170 -55 25 -1 56 -6 70 -9 14 -3 36 -8 50 -11 46
-9 124 -36 162 -55 10 -5 23 -9 30 -9 43 -2 126 -134 136 -216 3 -27 -3 -67
-16 -111 -21 -69 -39 -98 -80 -137 -13 -11 -33 -38 -45 -58 -11 -21 -27 -38
-34 -38 -7 0 -13 -6 -13 -12 0 -12 -18 -37 -70 -98 -11 -14 -24 -30 -28 -35
-15 -22 -90 -73 -152 -103 -94 -45 -224 -83 -296 -87 -34 -1 -68 -7 -76 -11
-17 -12 -127 -32 -133 -25 -10 9 -40 13 -127 15 -75 2 -91 5 -112 25 -27 25
-63 30 -221 30 -173 0 -198 -3 -240 -32 -22 -15 -47 -27 -55 -27 -9 0 -23 -13
-33 -29 -12 -21 -23 -28 -36 -24 -14 3 -19 0 -18 -14 1 -10 -4 -17 -10 -16 -7
2 -13 -3 -13 -10 0 -29 -55 -79 -92 -84 -47 -6 -63 9 -79 73 -7 27 -15 54 -20
59 -4 6 -10 27 -14 47 -4 21 -13 42 -21 49 -8 6 -14 16 -14 21 0 17 -41 69
-50 63 -4 -3 -15 13 -24 35 -9 22 -18 40 -22 40 -3 0 -2 -6 2 -12 4 -7 -2 -5
-13 5 -16 14 -26 15 -46 8 -14 -6 -66 -10 -114 -10 -48 1 -101 -4 -116 -10
-16 -6 -33 -9 -38 -5 -5 3 -11 -1 -14 -8 -3 -8 -18 -15 -32 -16 -15 -1 -31 -9
-36 -17 -4 -8 -14 -15 -21 -15 -7 0 -22 -11 -34 -25 -12 -14 -27 -25 -32 -25
-6 0 -15 -10 -21 -22 -5 -13 -15 -32 -22 -44 -7 -11 -18 -37 -26 -56 l-14 -36
-33 20 c-19 11 -41 17 -50 14 -21 -8 -10 -22 22 -30 15 -4 32 -13 39 -19 14
-14 8 -78 -8 -88 -10 -7 -18 -68 -17 -131 0 -20 -4 -39 -9 -42 -5 -3 -8 -22
-7 -41 4 -46 -10 -55 -19 -13 -15 76 -52 158 -70 158 -21 0 -19 -13 10 -70 14
-28 22 -50 19 -50 -4 0 -2 -6 4 -13 17 -20 35 -149 22 -157 -6 -4 -10 -13 -8
-20 2 -7 -3 -15 -9 -17 -7 -3 -13 1 -13 7 0 7 -8 9 -20 5 -29 -9 -60 4 -60 25
0 33 -77 187 -98 199 -33 18 -37 -6 -6 -37 22 -22 84 -137 84 -157 0 -17 -63
31 -104 79 -26 31 -53 56 -60 56 -25 0 -66 26 -72 45 -4 11 -24 49 -45 84 -22
34 -39 67 -39 72 0 4 -6 12 -14 16 -7 4 -19 19 -26 33 -18 35 -51 70 -61 64
-9 -5 6 -40 25 -60 6 -6 22 -25 36 -43 14 -18 31 -39 37 -46 7 -8 13 -21 13
-30 0 -8 7 -18 15 -21 8 -4 13 -9 10 -14 -2 -4 2 -16 10 -26 21 -28 19 -47 -3
-35 -31 17 -72 5 -99 -28 -15 -18 -35 -31 -49 -31 -12 0 -26 -4 -29 -10 -11
-18 -21 -10 -34 28 -8 20 -16 42 -18 49 -3 7 15 22 41 35 25 12 46 28 46 35 0
18 -42 16 -66 -2 -28 -21 -34 -18 -34 18 0 46 -12 59 -43 51 -34 -8 -34 4 -4
54 13 20 37 66 55 102 17 36 50 90 72 120 22 30 47 68 56 85 10 16 34 52 54
80 21 27 54 84 74 124 43 86 77 133 152 211 75 78 152 168 183 215 14 22 31
45 37 50 6 6 19 24 29 40 10 17 24 34 32 38 7 4 13 13 13 19 0 6 17 27 38 48
71 73 98 105 125 150 14 25 41 61 59 82 18 20 57 64 87 98 30 34 80 80 110
103 69 50 171 154 171 173 0 8 4 14 9 14 5 0 12 11 15 25 4 14 11 25 16 25 6
0 10 4 10 9 0 6 13 29 29 53 15 24 41 63 57 87 16 24 37 56 46 70 10 14 22 35
28 46 6 11 26 45 44 75 19 30 49 83 67 118 18 34 36 62 40 62 4 0 9 10 13 23
3 12 13 31 23 42 23 25 92 129 116 175 29 54 128 200 136 200 6 0 58 76 98
145 21 35 73 147 73 156 0 5 5 9 10 9 6 0 10 8 10 18 0 16 108 190 135 218 6
6 28 36 49 67 22 32 43 57 48 57 4 0 8 5 8 11 0 7 8 19 18 28 10 9 29 34 42
56 13 22 39 57 59 79 20 21 44 46 53 57 10 10 24 34 32 53 14 33 13 35 -6 42
-15 4 -27 -3 -50 -30 -16 -20 -38 -36 -48 -36 -22 0 -51 -36 -152 -186 -41
-61 -89 -127 -106 -145 -18 -19 -32 -37 -32 -41 0 -3 -11 -20 -25 -36 -24 -29
-175 -322 -175 -340 0 -10 -89 -129 -129 -171 -12 -15 -31 -42 -41 -61 -10
-19 -27 -44 -37 -55 -11 -11 -22 -27 -26 -35 -4 -8 -16 -29 -26 -46 -10 -17
-36 -63 -56 -102 -20 -40 -40 -72 -43 -72 -8 0 -57 -70 -57 -80 0 -14 -134
-238 -177 -296 -27 -35 -48 -67 -48 -73 0 -5 -6 -11 -13 -14 -8 -3 -26 -30
-42 -61 -16 -31 -34 -61 -42 -67 -7 -7 -13 -16 -13 -21 0 -10 -61 -91 -73 -96
-26 -12 -207 -178 -207 -190 0 -4 -12 -15 -28 -26 -28 -19 -78 -80 -126 -155
-30 -48 -56 -77 -56 -65 0 5 -16 -15 -36 -44 -20 -29 -41 -52 -45 -52 -5 0 -9
-5 -9 -12 0 -6 -17 -28 -37 -49 -47 -46 -52 -53 -82 -109 -14 -25 -30 -50 -35
-56 -6 -6 -31 -35 -56 -64 -25 -30 -74 -84 -110 -121 -92 -94 -105 -109 -128
-156 -12 -23 -26 -44 -32 -48 -5 -3 -10 -17 -10 -30 0 -12 -7 -26 -16 -29 -9
-3 -14 -12 -11 -20 3 -8 -12 -33 -34 -58 -21 -23 -48 -62 -60 -85 -36 -75 -46
-73 -53 14 -20 225 -18 220 -48 186 -25 -29 -30 -59 -17 -105 16 -62 17 -68
18 -121 1 -40 5 -50 21 -54 19 -5 19 -6 0 -42 -10 -21 -26 -43 -34 -50 -9 -8
-16 -19 -16 -25 0 -7 -6 -21 -14 -32 -14 -18 -15 -18 -28 -1 -8 11 -20 16 -30
12 -18 -7 -15 -29 9 -56 11 -14 12 -21 1 -45 -7 -16 -18 -35 -25 -42 -7 -7
-15 -25 -19 -40 -3 -15 -9 -34 -14 -42 -19 -29 -40 -83 -40 -99 0 -35 -15 -44
-51 -32 -35 11 -160 9 -217 -4 l-33 -8 7 44 c11 78 55 133 69 89 5 -16 -2 -32
-25 -62 -42 -52 -29 -64 15 -13 28 34 34 37 40 23 12 -30 28 -20 21 13 -5 26
-1 35 31 66 l38 35 10 -24 c15 -34 46 -78 56 -78 5 0 3 11 -3 25 -6 14 -14 25
-18 25 -4 0 -10 17 -14 38 -5 33 -2 40 25 65 18 15 35 27 40 27 4 0 20 5 36
11 l28 12 -25 6 c-19 6 -36 -1 -73 -27 -46 -33 -49 -34 -62 -16 -28 38 -28 70
2 113 15 22 33 39 38 37 6 -1 20 -22 33 -47 25 -49 19 -14 -7 41 -19 41 -23
34 62 122 56 57 67 82 36 83 -8 1 -24 6 -36 13 -15 8 -29 9 -47 2 -14 -5 -26
-6 -26 -2 0 4 -4 2 -8 -3 -4 -6 -20 -16 -37 -24 -28 -12 -31 -11 -52 16 -13
15 -27 33 -32 38 -5 6 16 34 53 71 33 34 79 85 101 114 22 29 48 60 59 69 10
9 30 29 45 46 27 30 125 137 177 191 37 40 90 103 111 135 9 13 40 47 68 74
28 28 62 68 75 90 13 22 35 51 47 65 13 14 26 33 29 43 3 9 9 15 13 12 5 -2
11 17 15 43 6 50 0 104 -16 135 -5 10 -11 28 -14 40 -5 27 -36 87 -45 87 -4 0
-10 11 -13 25 -6 25 -62 84 -79 85 -5 0 -23 6 -40 14 -18 7 -58 21 -89 30 -32
9 -60 21 -63 26 -4 6 -16 10 -29 10 -22 0 -94 66 -115 107 -15 29 -14 53 2 53
19 0 60 47 52 59 -11 18 -27 13 -60 -19 l-31 -30 -14 25 c-7 14 -17 25 -22 25
-4 0 -8 7 -8 15 0 17 -20 56 -33 66 -11 8 28 38 81 64 44 21 51 30 28 38 -17
7 -110 -53 -151 -96 l-29 -32 -6 37 c-4 20 -4 55 -1 78 6 39 9 43 61 66 30 13
63 23 72 24 9 0 20 5 24 12 4 6 3 8 -4 4 -6 -3 -13 -2 -16 3 -7 10 -60 0 -93
-17 -38 -20 -46 -15 -39 24 5 23 3 41 -5 51 -10 12 -10 16 2 24 8 5 20 9 27 9
6 0 12 5 12 10 0 6 -7 10 -15 10 -8 0 -15 4 -15 10 0 9 93 26 118 22 6 -2 12
2 12 8 0 6 -4 8 -10 5 -5 -3 -10 -1 -10 4 0 15 -38 13 -85 -4 -22 -8 -44 -14
-50 -15 -6 0 -10 29 -11 65 0 45 3 62 10 55 5 -5 22 -10 37 -10 23 0 27 5 33
41 3 22 15 59 25 82 11 23 23 67 27 97 3 30 10 64 14 75 4 11 1 42 -7 70 -17
61 -25 482 -12 625 17 191 20 213 46 320 17 71 26 94 54 123 10 11 16 23 14
27 -5 8 67 68 73 62 2 -2 9 4 15 12 7 9 22 18 35 21 13 2 32 7 41 10 10 3 24
-1 31 -10 7 -8 20 -15 29 -16 18 -1 41 -14 131 -79 34 -25 74 -52 89 -61 28
-17 154 -176 198 -249 14 -24 36 -54 48 -66 12 -12 33 -39 45 -61 13 -21 25
-40 28 -43 6 -8 162 -16 162 -7 0 4 11 7 25 7 14 0 25 5 25 10 0 6 7 10 15 10
8 0 15 5 15 11 0 6 14 31 30 56 17 24 30 48 30 53 0 6 11 31 25 57 37 72 92
195 101 223 8 29 104 126 163 165 22 15 53 28 69 30 15 1 37 7 48 12 38 19
125 1 167 -35 9 -8 17 -12 17 -7 0 4 13 -6 28 -21 16 -16 66 -64 110 -107 45
-43 81 -81 81 -85 -4 -24 3 -34 21 -29 10 3 24 -1 31 -9 13 -16 129 -8 140 9
4 5 14 7 23 4 12 -5 57 34 161 138 80 80 145 148 145 152 1 5 19 21 41 36 56
38 171 67 224 55 22 -5 51 -11 65 -13z m3955 -232 c-10 -16 -25 -37 -35 -48
-10 -11 -23 -31 -30 -44 -13 -25 -17 -31 -60 -79 -14 -16 -32 -39 -40 -51 -8
-13 -22 -30 -30 -39 -29 -31 -62 -121 -101 -285 -11 -43 -19 -86 -19 -94 0
-14 -40 -108 -70 -164 -5 -9 -12 -34 -16 -54 -4 -21 -13 -50 -20 -64 -8 -14
-14 -33 -14 -43 0 -9 -4 -18 -9 -20 -5 -1 -14 -39 -21 -83 -7 -44 -21 -105
-32 -135 -11 -30 -26 -77 -33 -105 -7 -27 -23 -76 -35 -107 -24 -66 -76 -237
-95 -318 -15 -63 -40 -126 -55 -135 -16 -10 -88 -170 -96 -215 -3 -14 -28 -48
-57 -75 -29 -28 -57 -62 -63 -75 -30 -66 -38 -80 -68 -112 -17 -19 -52 -52
-78 -72 -61 -49 -80 -79 -83 -136 -2 -47 -19 -90 -35 -90 -4 0 -27 -18 -50
-40 -23 -22 -44 -40 -46 -40 -2 0 -19 -16 -38 -36 -19 -20 -45 -42 -58 -50
-21 -12 -182 -96 -228 -119 -11 -5 -20 -13 -20 -17 0 -4 -15 -14 -33 -23 -18
-8 -51 -39 -72 -68 -22 -28 -46 -59 -55 -67 -23 -24 -224 -118 -263 -124 -8
-1 -21 -7 -28 -12 -8 -6 -39 -21 -69 -33 -30 -13 -78 -38 -107 -57 -28 -19
-54 -34 -57 -34 -3 0 -27 -13 -53 -29 -27 -16 -73 -36 -103 -46 -30 -9 -62
-19 -70 -23 -8 -3 -19 -6 -25 -7 -5 -1 -24 -9 -41 -18 -18 -9 -50 -19 -73 -23
-22 -4 -46 -13 -52 -20 -6 -8 -20 -14 -30 -14 -11 0 -56 -22 -100 -50 -44 -27
-85 -50 -90 -50 -14 0 -11 16 6 30 8 7 15 16 15 21 0 4 5 20 12 36 7 15 12 33
13 38 5 39 29 93 61 137 45 64 65 110 54 127 -10 17 -30 5 -30 -17 0 -9 -9
-30 -21 -47 -19 -28 -20 -28 -14 -5 16 56 43 118 73 165 17 27 27 52 22 55
-13 8 27 84 70 131 24 27 36 47 30 53 -6 6 -24 -7 -48 -33 l-38 -42 -3 49 c-1
37 2 51 14 55 8 4 15 14 15 22 0 17 46 85 67 98 16 10 17 47 3 47 -6 0 -20 -9
-32 -20 -12 -11 -19 -20 -15 -20 4 0 -3 -17 -15 -37 -11 -21 -25 -49 -29 -63
-9 -25 -5 8 9 91 7 37 54 99 91 118 11 7 21 18 21 26 0 20 -6 19 -41 -6 l-29
-20 23 49 c13 27 31 61 40 75 9 15 17 31 17 37 0 5 4 10 8 10 11 0 72 103 72
123 0 24 -27 11 -43 -21 -23 -46 -41 -75 -60 -96 -18 -21 -18 -21 -13 4 14 74
20 91 32 101 8 6 14 16 14 22 0 15 71 76 96 83 26 7 21 44 -5 44 -19 -1 -81
-55 -81 -70 0 -6 -4 -9 -9 -5 -24 14 24 122 89 201 66 81 62 74 40 74 -11 0
-27 -11 -36 -25 -24 -36 -28 -24 -13 34 11 42 16 50 31 45 12 -3 18 0 18 10 0
8 19 32 42 53 88 80 101 93 95 99 -7 7 -54 -22 -91 -58 -52 -49 -56 -37 -11
27 11 17 27 44 35 60 27 58 140 203 140 180 0 -5 7 0 15 11 8 10 15 28 15 39
0 21 171 205 190 205 6 0 10 6 10 13 0 15 37 54 121 129 81 71 115 98 126 98
4 0 24 15 44 33 20 18 51 40 70 49 104 52 187 88 202 88 9 0 17 4 17 9 0 5 17
15 38 22 20 6 46 18 57 25 11 8 29 14 42 14 12 0 25 5 28 10 3 6 39 26 78 45
73 35 168 86 177 95 3 3 23 15 45 27 97 51 121 66 140 82 11 10 65 50 120 89
163 115 189 134 287 209 51 39 100 80 109 90 9 10 27 26 40 36 13 9 44 33 69
53 25 19 52 41 60 47 42 33 162 107 174 107 4 0 0 -12 -9 -27z m-4719 -34 c19
-22 19 -22 -3 -10 -13 6 -23 16 -23 21 0 15 5 12 26 -11z m-3473 -444 c20 -8
39 -15 42 -14 12 2 65 -24 65 -32 0 -5 6 -9 13 -9 38 0 137 -139 137 -192 0
-10 8 -26 18 -36 17 -19 34 -45 59 -92 7 -14 16 -25 20 -26 5 0 15 -4 23 -7
37 -16 108 -34 135 -36 17 0 32 -6 33 -11 2 -6 11 -10 19 -10 29 0 83 -49 83
-75 0 -13 5 -36 11 -52 6 -15 13 -48 15 -73 3 -25 6 -60 8 -79 6 -52 27 -66
103 -67 37 0 84 6 106 13 21 7 61 14 90 15 43 1 54 -3 73 -25 16 -19 25 -22
33 -14 8 8 11 8 11 -2 0 -7 7 -19 15 -28 8 -8 13 -18 10 -23 -3 -4 2 -11 11
-14 8 -3 12 -11 9 -16 -4 -6 -2 -17 4 -24 6 -7 16 -45 23 -85 10 -56 10 -76 0
-91 -7 -11 -12 -30 -12 -42 0 -13 -11 -41 -25 -63 -88 -143 -140 -287 -124
-345 4 -14 7 -42 8 -63 1 -41 38 -123 67 -148 11 -9 37 -25 59 -34 22 -10 49
-25 59 -34 14 -12 20 -13 23 -3 3 6 13 12 24 12 10 0 19 4 19 8 0 11 51 72 60
72 3 0 17 -18 29 -40 12 -22 19 -39 14 -38 -15 5 -108 -26 -122 -39 -7 -8 -26
-17 -42 -20 -35 -7 -42 -16 -34 -42 9 -28 42 -32 95 -11 26 10 50 16 54 13 3
-3 12 0 21 7 9 7 18 10 21 7 3 -3 22 4 42 15 20 11 51 21 69 21 18 1 33 4 33
7 0 4 12 12 27 19 31 14 147 5 166 -13 7 -6 21 -13 32 -14 55 -10 130 -80 141
-132 3 -14 12 -40 20 -58 21 -47 10 -127 -23 -160 -6 -7 -10 -19 -7 -27 4 -8
1 -15 -6 -15 -19 0 -35 -21 -84 -112 -11 -21 -22 -36 -24 -33 -3 2 -18 -16
-35 -41 -16 -25 -41 -52 -54 -61 -13 -9 -32 -31 -41 -49 -9 -18 -33 -45 -53
-61 -19 -15 -73 -71 -119 -123 -45 -52 -104 -115 -129 -141 -25 -25 -53 -56
-61 -68 -26 -42 -57 -71 -73 -71 -9 0 -20 -6 -24 -14 -8 -14 -72 -91 -108
-129 -11 -12 -29 -35 -39 -52 -11 -16 -41 -55 -67 -85 -59 -70 -145 -198 -168
-253 -10 -23 -22 -65 -25 -94 -7 -55 -29 -118 -46 -128 -5 -3 -10 -31 -10 -60
0 -53 7 -65 45 -76 28 -8 65 -24 65 -29 0 -8 143 -5 165 4 83 34 141 61 145
68 9 12 173 11 205 -1 44 -18 131 -78 153 -106 11 -13 25 -39 32 -57 6 -18 16
-42 20 -53 19 -46 20 -76 4 -108 -10 -17 -18 -48 -20 -67 -1 -19 -5 -44 -7
-55 -8 -33 -47 -98 -68 -113 -11 -7 -19 -22 -19 -33 0 -10 -4 -19 -8 -19 -5 0
-19 -22 -32 -50 -13 -27 -29 -50 -37 -50 -7 0 -13 -7 -13 -15 0 -24 -24 -61
-76 -119 -13 -15 -24 -31 -24 -35 0 -5 -9 -11 -20 -14 -11 -3 -20 -12 -20 -21
0 -9 -5 -16 -11 -16 -6 0 -31 -21 -56 -46 -26 -25 -58 -53 -72 -62 -14 -9 -32
-25 -39 -34 -7 -10 -20 -18 -27 -18 -8 0 -22 -12 -31 -26 -10 -14 -35 -32 -56
-41 -21 -8 -38 -19 -38 -23 0 -4 -25 -24 -55 -44 -30 -20 -54 -40 -52 -44 1
-4 -10 -21 -25 -37 -16 -16 -28 -26 -28 -22 0 5 -7 2 -15 -7 -8 -8 -15 -19
-15 -23 0 -5 -9 -28 -20 -50 -15 -31 -19 -56 -16 -99 2 -32 9 -60 15 -62 5 -2
7 -10 4 -18 -3 -8 1 -14 9 -14 7 0 25 -11 40 -25 15 -14 30 -25 34 -25 11 0
69 -72 69 -85 0 -7 6 -19 13 -28 7 -8 15 -28 17 -44 2 -15 4 -29 4 -30 1 -2 1
-5 1 -8 0 -3 6 -18 13 -33 10 -19 11 -37 5 -62 -5 -19 -10 -44 -12 -55 -7 -39
-19 -80 -26 -90 -4 -5 -11 -24 -15 -42 -3 -18 -15 -50 -26 -72 -10 -22 -19
-44 -19 -48 0 -4 -18 -28 -41 -53 -22 -24 -47 -58 -55 -75 -23 -49 -42 -79
-56 -90 -7 -5 -14 -22 -16 -38 -1 -15 -14 -44 -27 -64 -14 -19 -25 -41 -25
-48 0 -11 -14 -24 -55 -53 -6 -4 -29 -32 -53 -63 -23 -31 -67 -80 -97 -108
-30 -29 -55 -56 -55 -60 0 -22 -120 -129 -161 -143 -16 -5 -29 -13 -29 -17 0
-4 -33 -20 -72 -36 -40 -15 -77 -31 -83 -35 -14 -11 -66 -14 -90 -5 -52 18
-73 24 -118 28 -26 3 -51 7 -54 11 -5 5 54 65 131 132 14 12 28 33 32 47 3 15
13 29 22 32 10 2 27 26 40 52 34 70 52 99 52 88 1 -23 119 232 120 258 0 15 7
44 16 65 10 20 18 42 19 47 6 24 26 222 24 230 -1 6 0 17 4 25 10 25 17 88 27
225 5 72 14 150 20 174 6 24 13 107 15 185 3 77 8 157 13 176 4 19 5 53 0 75
-4 22 -8 76 -8 120 -2 113 -38 322 -70 400 -4 11 -20 81 -35 155 -15 74 -36
158 -46 185 -10 28 -25 75 -33 105 -8 30 -18 66 -24 80 -6 14 -16 48 -23 75
-7 28 -19 63 -26 78 -8 16 -16 39 -18 50 -13 71 -46 190 -57 202 -4 5 -8 16
-8 26 0 9 -11 32 -24 52 -32 47 -80 224 -69 254 3 7 2 21 -2 31 -10 23 -12 72
-2 72 4 0 7 9 7 20 0 11 -6 19 -12 17 -14 -2 -22 50 -33 206 -4 57 -2 87 5 87
5 0 10 15 9 33 0 27 -2 29 -9 12 -7 -17 -9 -15 -9 13 -1 18 14 81 33 140 26
79 34 121 32 160 -2 29 0 55 5 58 5 3 9 15 9 28 0 13 9 49 20 82 12 32 21 86
22 119 0 38 9 81 24 117 13 32 24 64 24 73 0 16 68 233 101 320 23 61 49 267
50 395 2 125 2 127 -18 135 -14 5 -15 3 -6 -6 11 -11 10 -22 -7 -64 -4 -11
-18 -85 -30 -165 -31 -212 -47 -288 -70 -350 -70 -183 -137 -402 -145 -470 -8
-78 -53 -283 -72 -330 -4 -8 -7 -26 -8 -40 -2 -14 -11 -52 -20 -85 -18 -60
-24 -203 -12 -290 3 -22 8 -94 11 -160 4 -66 13 -142 21 -170 7 -27 16 -68 19
-90 12 -87 43 -225 53 -237 6 -7 16 -35 21 -63 5 -27 22 -88 37 -135 59 -187
94 -306 95 -321 0 -8 9 -34 20 -57 11 -22 20 -51 20 -62 0 -12 6 -34 14 -48 8
-15 24 -74 36 -132 12 -58 23 -109 25 -115 1 -5 7 -23 13 -38 7 -16 12 -36 12
-46 0 -9 4 -21 10 -27 5 -5 12 -34 15 -64 3 -30 8 -68 11 -85 17 -106 22 -309
11 -475 -4 -52 -10 -140 -13 -195 -3 -55 -7 -116 -9 -135 -2 -19 -4 -64 -6
-100 -1 -36 -8 -86 -15 -112 -7 -27 -10 -48 -8 -48 3 0 -2 -12 -9 -27 -8 -16
-15 -64 -16 -108 -1 -43 -5 -82 -10 -85 -4 -3 -7 -16 -6 -30 1 -14 -2 -33 -7
-44 -6 -10 -11 -28 -13 -40 -16 -114 -39 -165 -105 -234 -8 -8 -15 -20 -16
-26 -3 -26 -6 -33 -32 -62 -62 -72 -72 -85 -72 -92 0 -5 -13 -24 -30 -42 -16
-18 -30 -37 -30 -40 0 -4 -11 -12 -25 -18 -14 -6 -25 -17 -25 -24 0 -7 -16
-28 -34 -46 -26 -25 -36 -30 -42 -20 -13 20 -16 207 -9 489 3 140 -13 263 -50
374 -9 28 -18 58 -20 67 -6 30 -89 212 -110 243 -31 45 -99 108 -140 130 -48
25 -52 37 -26 78 25 41 26 47 6 47 -8 0 -24 -13 -36 -30 -16 -21 -26 -27 -34
-20 -7 5 -15 7 -18 4 -3 -4 -14 -4 -23 0 -14 5 -13 9 7 26 l24 19 -37 1 c-50
0 -49 17 2 71 46 48 54 77 18 58 -26 -13 -87 -75 -104 -104 -10 -19 -12 -18
-37 9 -15 16 -27 35 -27 42 0 7 -3 20 -6 29 -6 14 -3 14 20 4 21 -10 29 -10
39 0 9 9 9 13 0 19 -19 12 -4 47 28 66 34 20 36 31 9 46 -25 13 -18 34 28 82
29 30 34 40 24 50 -8 8 -15 9 -20 3 -4 -6 -20 -21 -36 -35 l-29 -25 16 30 c24
48 63 78 182 140 68 35 215 171 215 199 0 9 4 16 10 16 5 0 18 29 29 65 16 52
19 78 13 123 -9 64 -53 135 -98 158 -14 8 -43 23 -63 33 -20 11 -90 41 -156
66 -66 26 -133 53 -150 61 -16 7 -70 27 -120 44 -49 17 -118 44 -152 60 -34
17 -67 30 -72 30 -6 0 -11 5 -11 11 0 5 -4 8 -8 5 -4 -2 -14 0 -22 5 -12 8
-12 12 -2 16 7 2 18 10 25 17 6 7 15 12 19 12 4 -1 16 6 26 15 10 8 26 18 35
22 9 3 17 11 17 16 0 24 -25 20 -74 -13 -98 -65 -132 -68 -184 -18 -15 15 -45
40 -65 55 -20 15 -37 32 -37 36 0 15 80 44 115 43 42 -2 46 13 6 21 -35 7 -80
-4 -125 -32 l-34 -21 -18 27 c-10 16 -24 34 -31 41 -30 30 -6 43 87 44 61 1
71 7 47 26 -16 13 -80 5 -119 -15 -25 -12 -28 -12 -28 3 0 11 -5 14 -16 10
-18 -7 -74 49 -74 75 0 9 -11 32 -24 52 -14 20 -29 52 -35 72 -9 35 -9 35 22
35 44 0 97 -21 97 -40 -1 -19 -24 -50 -39 -50 -24 0 -11 -41 17 -51 32 -13
104 -23 82 -12 -8 5 -28 16 -43 27 -24 16 -26 21 -14 35 32 37 30 81 -3 81
-10 0 -25 7 -33 15 -8 8 -34 17 -56 21 -23 4 -44 11 -48 17 -4 6 -6 42 -5 80
2 53 9 82 32 128 54 110 63 114 271 114 l166 0 46 38 c79 65 136 127 162 176
19 38 30 111 17 111 -6 0 -17 16 -26 35 -9 19 -20 35 -25 35 -4 0 -17 17 -29
39 -13 22 -57 65 -104 102 -46 35 -88 68 -94 74 -6 5 -26 21 -44 35 -49 37
-69 61 -64 75 5 12 57 29 80 26 6 -1 17 5 24 14 21 26 -14 29 -66 6 -59 -27
-67 -26 -100 4 -15 14 -30 25 -35 25 -9 0 -79 96 -79 109 0 5 -12 16 -26 26
-16 10 -23 22 -20 32 4 10 2 13 -7 10 -8 -3 -21 7 -31 24 -13 23 -14 29 -4 29
8 0 18 -4 24 -10 6 -6 23 -6 47 1 20 5 42 7 47 4 14 -9 12 9 -2 23 -15 15 -75
16 -80 2 -2 -6 -13 -2 -25 10 -26 24 -37 26 -29 5 3 -8 1 -15 -5 -15 -7 0 -9
10 -5 24 3 14 2 28 -4 31 -5 3 -10 19 -10 35 0 16 -6 33 -13 37 -18 11 -36
110 -43 224 -4 80 -2 99 11 112 9 9 16 19 16 21 0 3 5 18 12 33 20 46 57 81
93 88 19 3 34 9 34 13 0 13 98 52 142 57 60 6 154 -11 213 -39 65 -30 108 -49
118 -52 4 -1 8 -2 10 -3 3 -3 67 -12 100 -14 15 -1 27 -5 27 -9 0 -3 24 0 53
9 28 8 58 15 65 15 6 1 12 5 12 10 0 4 6 8 14 8 19 0 41 66 28 83 -5 7 -17 43
-26 82 -10 38 -22 75 -28 82 -5 7 -7 17 -3 22 3 6 -3 19 -15 31 -11 11 -20 31
-20 44 0 14 -4 27 -9 30 -9 6 -10 9 -38 141 -27 129 -24 326 5 389 12 24 29
47 39 50 15 5 53 2 61 -4 4 -4 14 -6 65 -14 26 -5 47 -11 47 -15 0 -3 22 -7
49 -9 67 -4 163 29 176 60 5 13 19 34 31 46 11 12 29 47 40 77 10 30 21 55 25
55 4 0 10 18 14 40 4 22 11 40 15 40 5 0 11 13 15 29 3 16 18 43 33 60 15 17
47 54 72 82 25 28 52 57 60 65 57 50 104 84 114 84 7 0 29 8 50 18 49 24 169
28 219 7z m1247 -1240 c0 -61 -1 -65 -22 -65 -44 0 -49 13 -23 55 14 22 28 48
31 58 11 30 14 19 14 -48z m-37 -91 c3 -3 -6 -17 -21 -29 -18 -16 -30 -20 -37
-14 -7 7 -2 17 14 30 24 20 34 23 44 13z m39 -178 c-41 -49 -45 -48 -64 13
-24 77 -23 84 19 114 l38 27 12 -67 c11 -60 11 -69 -5 -87z m-127 94 c3 -5 1
-10 -4 -10 -6 0 -11 5 -11 10 0 6 2 10 4 10 3 0 8 -4 11 -10z m40 -123 c19
-31 14 -71 -10 -81 -8 -3 -15 -1 -15 5 0 5 -11 27 -25 47 -14 21 -25 51 -25
70 l0 34 29 -24 c16 -13 36 -36 46 -51z m206 36 c13 -21 29 -44 36 -51 22 -22
15 -45 -28 -92 -40 -43 -41 -44 -56 -25 -8 11 -26 44 -40 73 -20 40 -23 56
-14 65 8 8 11 7 11 -7 0 -9 5 -14 10 -11 6 3 10 15 10 26 0 28 18 59 35 59 7
0 24 -17 36 -37z m-111 -136 c0 -5 11 -23 25 -41 14 -18 25 -38 25 -44 0 -17
-24 -20 -39 -5 -7 8 -26 17 -42 20 -28 5 -69 48 -69 72 0 6 9 11 20 11 13 0
20 7 20 18 0 32 14 34 37 5 13 -15 23 -32 23 -36z m-140 13 c0 -5 -4 -10 -10
-10 -5 0 -10 5 -10 10 0 6 5 10 10 10 6 0 10 -4 10 -10z m384 -67 c25 -26 42
-51 38 -55 -5 -5 -28 -10 -52 -12 -24 -2 -46 -8 -48 -15 -8 -24 -52 -11 -72
21 l-19 31 31 29 c16 15 36 28 44 28 8 0 14 5 14 10 0 20 20 9 64 -37z m5128
-1373 c54 -6 102 -9 107 -6 5 4 12 2 16 -4 3 -5 16 -10 28 -10 36 1 72 -5 77
-11 3 -3 52 -20 110 -39 58 -18 123 -41 145 -50 22 -10 56 -21 75 -24 79 -13
133 -26 163 -40 18 -8 46 -17 62 -21 36 -8 136 -58 179 -89 38 -28 130 -72
171 -82 36 -9 189 -84 193 -96 2 -4 8 -6 13 -2 5 3 9 0 9 -7 0 -7 3 -10 6 -6
3 3 27 -2 53 -13 26 -10 64 -21 85 -24 21 -4 43 -9 48 -12 13 -9 168 -21 168
-14 0 3 12 5 28 4 152 -12 193 -19 234 -35 31 -12 75 -19 121 -20 l72 -1 -70
-18 c-51 -13 -111 -18 -221 -19 -83 -1 -165 -6 -182 -10 -17 -5 -32 -7 -35 -5
-6 6 -89 -25 -107 -40 -8 -7 -32 -19 -52 -27 -21 -7 -48 -23 -61 -35 -24 -22
-107 -69 -107 -60 0 3 -24 -8 -52 -24 -67 -38 -117 -61 -139 -65 -27 -5 -59
-25 -59 -35 0 -6 -3 -9 -7 -9 -17 3 -73 -14 -73 -22 0 -5 -7 -9 -15 -9 -8 0
-15 -3 -15 -8 0 -7 -33 -24 -87 -43 -18 -6 -33 -15 -33 -20 0 -5 -5 -9 -11 -9
-6 0 -23 -9 -37 -19 -15 -10 -59 -27 -97 -36 -107 -26 -165 -46 -165 -57 0 -6
-11 -7 -24 -4 -15 4 -28 0 -36 -9 -7 -8 -20 -15 -29 -15 -9 0 -42 -7 -73 -15
-31 -8 -83 -17 -115 -20 -32 -2 -80 -8 -108 -12 -27 -4 -53 -6 -57 -5 -5 1 -8
-2 -8 -7 0 -5 -63 -9 -142 -8 -79 0 -177 -3 -218 -7 -80 -8 -349 -8 -362 0 -4
3 -31 9 -60 14 -29 4 -65 13 -81 19 -24 9 -26 13 -16 30 13 20 6 51 -11 51 -5
0 -20 -10 -31 -21 -20 -20 -23 -20 -31 -5 -12 21 -61 46 -92 46 -27 0 -44 16
-24 23 7 2 10 8 6 12 -11 11 -74 8 -98 -5 -14 -7 -20 -7 -20 0 0 5 -18 10 -40
10 -41 0 -58 19 -17 21 37 1 101 10 106 14 2 3 -2 11 -9 19 -15 19 -45 15
-129 -13 -63 -22 -63 -22 -102 -3 l-39 19 43 11 c23 7 61 16 85 22 41 11 54
26 29 35 -7 3 -46 -4 -87 -15 -125 -35 -130 -35 -130 -12 0 12 -9 23 -19 27
-30 9 -14 33 25 41 33 6 46 28 22 36 -18 6 -121 -13 -136 -25 -15 -12 -62 10
-62 29 0 7 18 18 41 24 51 14 47 36 -7 33 -21 -2 -42 -7 -48 -13 -16 -16 -63
-12 -70 6 -10 25 -7 34 9 34 9 0 15 9 15 25 0 19 -5 25 -23 25 -13 0 -28 -5
-33 -10 -11 -11 -72 14 -86 35 -3 6 -16 21 -27 34 -12 13 -21 28 -21 32 0 13
36 29 64 29 14 0 26 5 26 10 0 6 7 10 15 10 8 0 15 5 15 10 0 6 7 10 15 10 8
0 29 15 48 33 65 64 251 187 281 187 8 0 19 7 26 15 6 8 15 14 18 13 4 -1 43
15 87 36 44 20 89 41 100 46 77 32 114 49 220 101 66 33 127 59 136 59 9 0 19
3 23 7 3 4 13 8 21 9 8 1 29 10 47 19 18 10 49 21 68 26 19 4 55 13 80 19 56
14 84 18 235 31 65 5 121 12 123 14 3 2 16 2 31 0 14 -2 70 -9 123 -15z
m-5413 -154 c10 -12 8 -16 -8 -21 -12 -3 -21 -11 -21 -17 0 -6 -13 -8 -35 -4
-36 7 -41 0 -35 -43 1 -7 -8 -20 -19 -28 -12 -8 -21 -20 -22 -26 0 -7 -13 -22
-30 -35 l-29 -23 -10 26 c-13 33 -13 45 0 45 6 0 10 7 10 16 0 9 30 50 66 90
l66 74 27 -20 c15 -10 33 -26 40 -34z m174 -4 c-10 -11 -31 -39 -47 -63 -32
-45 -45 -39 -27 12 10 30 10 31 -14 27 -17 -4 -25 -1 -25 8 0 8 5 14 11 14 5
0 8 3 6 8 -3 4 5 8 16 9 12 0 38 5 57 10 41 11 49 2 23 -25z m-135 -44 c8 -8
7 -19 -6 -42 -26 -47 -44 -59 -59 -39 -19 25 -16 53 10 74 26 22 39 23 55 7z
m42 -66 c0 -10 -8 -27 -19 -38 -10 -11 -24 -31 -31 -44 l-13 -25 -10 23 c-8
18 -6 27 10 45 11 12 26 30 34 39 18 22 29 22 29 0z m-136 -94 c-10 -10 -15
-18 -12 -18 3 0 -9 -17 -28 -37 -19 -20 -35 -35 -37 -32 -2 2 -14 21 -27 42
l-23 39 53 53 54 54 18 -41 c17 -38 17 -42 2 -60z m-181 -36 c-27 -36 -56 -93
-50 -98 2 -3 10 9 17 26 7 16 16 30 20 30 4 0 12 11 18 25 16 35 27 31 59 -16
l27 -41 -19 -34 c-10 -19 -21 -34 -25 -34 -5 0 -11 -11 -14 -24 -9 -37 -32
-38 -80 -6 -24 17 -49 30 -56 30 -23 0 -4 -33 28 -51 19 -9 41 -24 51 -33 10
-9 25 -16 33 -16 9 0 21 -7 28 -15 7 -8 19 -15 26 -15 9 0 14 -12 14 -36 0
-19 -4 -33 -8 -30 -5 3 -25 -6 -44 -19 -35 -23 -64 -27 -190 -24 -23 0 -23 25
1 91 17 47 31 110 36 160 0 9 6 22 12 30 6 7 18 27 27 45 8 17 22 37 29 45 8
8 22 29 32 47 l17 33 15 -22 c14 -20 14 -24 -4 -48z m4067 33 c0 -8 7 -15 16
-15 23 0 7 -18 -34 -39 -20 -11 -48 -29 -62 -40 -14 -12 -49 -40 -77 -62 -29
-21 -53 -47 -53 -57 0 -43 -61 -84 -73 -49 -6 17 192 210 218 211 12 1 25 13
34 34 15 34 31 43 31 17z m-663 -8 c3 -5 9 -3 14 4 12 20 17 10 29 -66 11 -67
41 -143 63 -157 14 -9 -19 -40 -46 -44 -12 -1 -33 -6 -47 -12 -14 -5 -37 -6
-52 -1 -16 4 -28 4 -28 -2 0 -5 -13 -9 -29 -9 -16 0 -34 -6 -41 -14 -6 -8 -18
-12 -26 -9 -8 3 -14 0 -14 -7 0 -7 -7 -10 -15 -6 -8 3 -15 2 -15 -2 0 -5 -18
-8 -41 -7 -50 1 -83 38 -94 105 -3 25 -9 59 -11 75 -3 17 -16 53 -30 82 -13
28 -24 55 -24 59 0 7 109 0 145 -9 11 -3 59 3 105 13 93 19 148 22 157 7z
m-3181 -8 c7 -12 -9 -49 -45 -97 -23 -32 -26 -33 -38 -16 -20 27 -16 39 25 83
40 43 47 47 58 30z m51 -108 c5 -19 -2 -30 -33 -57 -39 -33 -39 -33 -56 -13
-20 23 -15 37 30 98 24 32 26 33 39 15 8 -10 17 -30 20 -43z m-153 -27 c15
-14 14 -19 -9 -58 -14 -24 -25 -50 -25 -59 0 -22 -10 -21 -42 4 l-27 22 22 31
c23 32 59 76 63 76 1 0 10 -7 18 -16z m455 -97 c9 -22 6 -28 -28 -51 -42 -30
-56 -33 -47 -11 3 9 0 15 -9 15 -23 0 -18 17 17 66 29 41 32 43 44 25 8 -10
18 -30 23 -44z m38 -77 c3 -11 9 -20 13 -20 9 0 40 -62 40 -79 0 -6 -6 -11
-14 -11 -7 0 -19 -20 -26 -47 l-14 -46 -29 34 c-33 39 -81 128 -73 136 17 17
73 52 84 53 8 0 16 -9 19 -20z m3026 -12 c5 -18 9 -19 21 -9 16 13 36 7 36
-10 0 -6 -4 -8 -9 -4 -5 3 -13 -5 -17 -17 -7 -22 -7 -22 -23 -2 -9 10 -25 24
-36 30 -29 16 -30 34 -2 34 17 0 26 -7 30 -22z m-3173 -6 c0 -5 -9 -17 -20
-27 -22 -20 -26 -14 -10 16 11 19 30 26 30 11z m20 -57 c0 -9 -6 -12 -15 -9
-8 4 -12 10 -9 15 8 14 24 10 24 -6z m3330 -888 c67 12 299 1 375 -18 22 -6
60 -15 85 -20 25 -5 52 -11 60 -13 8 -2 23 -7 33 -11 10 -4 20 -5 24 -2 5 5
80 -31 108 -53 6 -4 17 -7 25 -7 44 -1 110 -21 110 -34 0 -6 5 -7 10 -4 6 3
22 -3 36 -14 15 -12 33 -21 40 -21 8 0 14 -4 14 -9 0 -5 14 -14 30 -21 17 -7
30 -15 30 -19 0 -6 63 -37 68 -33 5 5 68 -32 75 -44 4 -8 14 -14 22 -14 7 0
25 -13 38 -30 14 -16 32 -30 41 -30 8 0 28 -12 45 -26 17 -14 31 -23 31 -19 0
3 10 -3 22 -15 12 -11 25 -20 29 -20 4 0 14 -6 21 -12 21 -20 50 -37 81 -49
15 -6 27 -15 27 -20 0 -5 7 -12 16 -16 9 -3 33 -21 53 -39 20 -19 42 -34 49
-34 6 0 12 -4 12 -9 0 -5 8 -12 18 -15 9 -3 35 -24 57 -46 22 -22 60 -52 85
-67 25 -14 47 -29 50 -33 3 -3 12 -9 20 -13 31 -14 69 -41 148 -108 13 -10 28
-19 33 -19 5 0 9 -7 9 -15 0 -8 4 -15 9 -15 11 0 108 -64 143 -96 15 -13 34
-24 41 -24 25 0 107 -32 107 -42 0 -5 4 -6 10 -3 5 3 20 0 32 -7 13 -7 28 -11
35 -10 6 1 35 -11 65 -27 29 -16 56 -30 60 -30 30 -5 194 -64 216 -79 22 -14
22 -15 -56 -91 -44 -42 -90 -84 -103 -94 -13 -9 -38 -27 -54 -40 -39 -29 -72
-47 -86 -47 -6 0 -24 -11 -41 -25 -16 -14 -38 -25 -48 -25 -10 0 -21 -4 -24
-9 -6 -9 -51 -22 -100 -27 -16 -2 -34 -8 -40 -13 -20 -17 -84 -23 -238 -24
-192 0 -413 10 -498 24 -127 20 -364 79 -402 100 -10 5 -27 9 -38 9 -11 0 -20
5 -20 10 0 6 -10 10 -22 10 -12 0 -45 14 -75 30 -29 17 -59 30 -66 30 -8 0
-31 11 -52 25 -20 14 -57 28 -81 32 -24 3 -44 10 -44 14 0 5 -8 9 -19 9 -10 0
-29 8 -42 18 -13 9 -41 26 -61 36 -21 11 -38 25 -38 33 0 7 -8 13 -18 13 -11
0 -33 16 -51 35 l-32 36 30 37 c28 37 29 39 10 50 -26 16 -25 17 -50 -28 -20
-35 -25 -38 -38 -26 -9 7 -31 19 -48 27 -19 8 -33 21 -33 31 0 22 -33 41 -47
27 -8 -8 -19 -6 -36 6 -14 9 -27 16 -29 14 -2 -1 -12 1 -23 4 -11 3 -39 11
-63 17 l-43 11 41 49 c61 73 68 103 67 286 -2 134 -4 159 -17 159 -13 0 -15
-26 -16 -175 l0 -176 -33 -57 c-18 -31 -41 -62 -51 -67 -26 -14 -49 -3 -43 21
7 26 -21 35 -49 15 -29 -21 -48 -20 -77 5 -24 20 -24 20 -4 38 10 10 29 24 41
30 12 6 22 18 22 27 0 26 -28 26 -57 0 -81 -72 -76 -69 -90 -49 -12 15 -11 18
5 24 10 4 25 21 32 38 7 17 15 31 19 31 10 0 33 68 42 120 9 59 -5 154 -31
207 -11 23 -20 46 -20 50 0 10 -31 50 -87 111 -23 26 -43 53 -43 60 0 6 -4 12
-10 12 -5 0 -10 7 -10 15 0 8 -4 15 -9 15 -11 0 -11 49 0 56 4 2 6 10 3 18 -3
8 10 17 38 26 24 8 55 22 69 32 14 9 29 15 33 11 3 -3 6 -1 6 5 0 7 17 22 38
36 20 13 55 41 77 63 22 22 42 37 45 32 3 -4 21 -5 40 -2z m-5804 -564 c-11
-13 -23 -23 -26 -23 -8 0 3 64 15 94 7 16 10 14 20 -15 10 -30 9 -37 -9 -56z
m1911 -705 c-3 -8 -6 -5 -6 6 -1 11 2 17 5 13 3 -3 4 -12 1 -19z m825 -653
c26 -4 53 -14 59 -21 6 -8 20 -14 31 -14 16 0 12 -8 -23 -43 -53 -51 -128
-107 -145 -107 -6 0 -26 -13 -44 -30 -18 -16 -35 -30 -39 -30 -4 0 -18 -11
-31 -25 -13 -14 -29 -25 -37 -25 -7 0 -13 -4 -13 -10 0 -14 -70 -79 -94 -86
-11 -3 -37 -22 -56 -42 l-35 -36 -110 -3 c-203 -6 -350 -4 -370 6 -11 5 -41
16 -68 26 -57 20 -83 51 -63 74 8 9 17 26 20 38 4 11 13 27 21 33 8 7 15 22
15 34 0 22 21 45 60 66 16 9 28 8 50 -2 17 -7 30 -16 30 -20 0 -5 8 -8 19 -8
10 0 25 -7 32 -17 26 -30 119 -94 130 -88 5 4 16 2 23 -4 8 -7 31 -14 52 -17
22 -3 52 -7 69 -9 16 -2 34 0 40 4 18 15 64 21 70 10 5 -7 14 -6 28 4 12 7 40
18 62 25 34 10 125 82 125 99 0 14 52 198 60 214 11 19 34 20 132 4z m214
-107 c10 -12 14 -19 8 -15 -6 4 -22 -2 -34 -13 -28 -24 -40 -18 -17 8 10 10
17 24 17 30 0 17 4 15 26 -10z m-146 -103 c0 -2 -10 -9 -22 -15 -22 -11 -22
-10 -4 4 21 17 26 19 26 11z m-91 -74 c-19 -22 -38 -40 -43 -40 -4 -1 -25 -15
-45 -32 -63 -53 -77 -64 -112 -83 -19 -11 -40 -26 -47 -33 -7 -7 -19 -13 -25
-13 -7 0 2 12 18 26 17 13 46 38 65 54 75 64 202 160 212 160 6 0 -5 -18 -23
-39z m-2079 -156 c0 -6 -31 -57 -40 -65 -3 -3 -12 -18 -20 -35 -8 -16 -22 -36
-31 -42 -9 -7 -19 -23 -22 -35 -6 -22 -53 -58 -76 -58 -12 0 22 75 36 82 11 4
81 91 84 103 5 25 33 55 50 55 11 0 19 -2 19 -5z m1575 -216 c-4 -5 -17 -15
-28 -20 -12 -5 -42 -23 -67 -39 -25 -16 -85 -50 -135 -74 -49 -25 -101 -52
-115 -60 -14 -8 -45 -24 -70 -36 -25 -12 -47 -25 -50 -29 -3 -4 -48 -28 -100
-54 -52 -26 -86 -41 -75 -33 11 9 26 20 33 26 7 6 41 30 75 53 34 22 70 48 80
58 10 9 41 29 70 44 29 15 63 38 77 51 14 12 59 35 100 49 144 52 155 56 165
66 13 13 48 12 40 -2z m-1792 -44 c-3 -9 -8 -14 -10 -11 -3 3 -2 9 2 15 9 16
15 13 8 -4z m2112 -395 c-3 -5 -13 -10 -21 -10 -8 0 -14 5 -14 10 0 6 9 10 21
10 11 0 17 -4 14 -10z m-1510 -210 c-9 -15 -45 -32 -45 -22 0 5 10 14 23 20
29 14 29 14 22 2z m-55 -39 c0 -5 -10 -13 -22 -17 -13 -4 -37 -19 -54 -34 -33
-28 -253 -140 -277 -140 -8 0 -26 -9 -41 -21 -26 -20 -28 -20 -46 -4 -11 10
-20 23 -20 28 0 6 -7 19 -17 29 -15 17 -14 18 23 19 21 1 44 0 49 -1 38 -8 89
3 149 34 38 19 73 33 77 30 4 -2 17 3 27 12 15 12 136 72 150 74 1 0 2 -4 2
-9z"/>
<path d="M4674 10818 c-27 -13 -32 -50 -28 -218 4 -159 1 -140 59 -335 32
-106 36 -123 40 -148 1 -12 10 -71 19 -132 20 -135 33 -278 30 -325 -2 -19 -6
-69 -9 -110 -3 -41 -7 -85 -10 -97 -3 -12 2 -50 11 -85 8 -35 18 -73 21 -85 3
-13 9 -23 14 -23 4 0 11 -17 14 -37 3 -21 10 -45 14 -53 5 -9 12 -36 16 -60
11 -72 47 -159 81 -194 17 -17 29 -37 26 -44 -6 -20 16 -13 32 10 22 31 20 52
-9 96 -14 21 -32 69 -41 107 -17 73 -34 128 -79 255 -23 62 -26 83 -20 130 3
30 7 123 8 205 1 140 -4 190 -33 385 -7 41 -13 89 -15 107 -2 17 -17 69 -33
115 -52 143 -66 231 -64 394 2 133 -6 160 -44 142z"/>
<path d="M5803 10652 c-7 -5 -15 -21 -17 -38 -4 -31 -24 -79 -58 -134 -43 -72
-90 -234 -112 -387 -2 -18 -11 -63 -20 -100 -8 -37 -26 -138 -40 -223 -13 -85
-34 -204 -47 -265 -25 -123 -35 -311 -18 -331 6 -7 11 -26 11 -43 1 -19 6 -31
15 -31 7 0 14 -11 14 -25 3 -46 4 -50 23 -53 17 -4 18 2 12 90 -10 131 -12
278 -5 278 4 0 12 28 18 63 7 34 19 87 26 117 15 56 24 114 50 300 8 58 22
132 31 165 8 33 20 76 25 95 5 19 11 56 14 82 8 84 61 234 90 258 8 7 15 16
15 21 0 4 14 28 30 52 35 52 38 83 10 92 -11 3 -20 11 -20 16 0 11 -30 12 -47
1z"/>
<path d="M7278 9145 c-3 -3 -36 -17 -74 -31 -88 -32 -196 -53 -287 -55 -68 -2
-135 -16 -237 -52 -95 -34 -253 -67 -318 -67 -37 0 -89 -7 -117 -15 -27 -9
-70 -16 -95 -16 -40 -1 -75 -13 -185 -64 -16 -8 -66 -30 -110 -48 -79 -34 -80
-35 -83 -73 -3 -37 -1 -41 30 -52 36 -13 79 -6 91 15 4 7 15 13 22 13 8 0 15
7 15 15 0 20 50 64 73 65 10 0 34 8 55 18 35 18 125 37 217 47 124 13 316 50
346 66 9 4 18 6 21 4 3 -3 31 4 64 16 32 11 69 23 82 26 12 3 22 9 22 14 0 5
12 9 28 9 65 -2 210 19 218 31 3 5 18 9 33 9 15 0 45 8 67 19 21 10 58 26 82
37 23 10 42 22 42 26 0 5 12 13 26 18 14 6 22 14 19 20 -7 11 -38 14 -47 5z"/>
<path d="M6452 8015 c-18 -8 -43 -16 -55 -17 -12 -2 -26 -6 -32 -10 -5 -3 -21
-5 -35 -4 -14 1 -33 -2 -43 -6 -10 -5 -30 -11 -45 -13 -15 -2 -48 -11 -75 -19
-26 -8 -48 -15 -50 -15 -1 0 -9 -2 -17 -4 -8 -3 -49 -15 -90 -27 -41 -12 -151
-46 -245 -77 -93 -31 -197 -62 -230 -69 -33 -7 -85 -20 -115 -29 -30 -9 -71
-19 -90 -21 -19 -3 -40 -9 -46 -15 -7 -6 -25 -12 -41 -14 -15 -2 -66 -11 -113
-19 -47 -8 -116 -16 -154 -18 -79 -3 -99 -16 -94 -62 3 -30 5 -31 56 -34 30
-2 59 1 65 6 7 5 37 15 67 22 30 7 109 28 175 48 133 39 126 37 315 85 198 51
353 95 423 118 34 12 82 25 107 29 25 5 56 11 70 14 14 3 41 9 60 13 43 9 42
8 60 16 8 3 29 8 45 10 17 2 37 6 45 9 8 3 31 10 50 17 19 7 40 14 45 15 41
11 95 41 95 52 0 14 -39 34 -63 34 -7 -1 -27 -7 -45 -15z"/>
<path d="M10290 10431 c0 -5 -12 -11 -27 -13 -23 -2 -30 -11 -42 -48 -8 -25
-20 -51 -28 -58 -7 -7 -13 -21 -13 -30 0 -32 -63 -141 -117 -202 -7 -8 -31
-35 -53 -60 -22 -25 -40 -48 -40 -52 0 -5 -6 -8 -12 -8 -12 0 -32 -20 -115
-112 -14 -16 -29 -28 -34 -28 -5 0 -9 -6 -9 -13 0 -14 -136 -147 -150 -147 -5
0 -12 -9 -15 -20 -4 -11 -25 -37 -47 -58 -83 -75 -91 -84 -163 -181 -5 -7 -32
-37 -60 -65 -27 -29 -80 -85 -117 -124 -37 -39 -76 -76 -87 -82 -12 -6 -21
-15 -21 -21 0 -11 -44 -76 -110 -163 -47 -61 -94 -136 -110 -173 -5 -11 -14
-24 -20 -28 -6 -3 -22 -27 -35 -53 -46 -87 -90 -160 -112 -188 -13 -16 -28
-43 -34 -62 -6 -19 -23 -46 -38 -60 -27 -28 -63 -79 -59 -85 2 -1 -13 -25 -33
-53 -20 -28 -39 -59 -43 -70 -7 -24 -89 -112 -137 -147 -36 -26 -55 -62 -38
-73 11 -7 26 2 84 51 113 94 238 228 271 291 13 24 45 71 72 106 27 35 80 115
119 180 38 64 79 129 91 145 13 15 50 70 83 122 70 109 116 166 220 274 42 43
82 89 89 103 7 13 19 24 26 24 7 0 18 9 24 20 6 11 20 30 33 43 12 13 47 53
77 88 30 35 97 105 149 154 52 50 99 96 105 103 24 29 136 150 228 246 100
105 140 155 194 243 l31 52 22 -29 c15 -21 20 -37 15 -55 -8 -31 6 -32 34 -2
26 27 27 39 8 70 -13 21 -13 57 0 145 8 52 -2 92 -21 92 -8 0 -15 5 -15 10 0
6 -4 10 -10 10 -5 0 -10 -4 -10 -9z"/>
<path d="M9675 10090 c-3 -16 -2 -37 4 -47 8 -14 10 -8 11 30 0 54 -5 60 -15
17z"/>
<path d="M9662 9956 c-7 -35 -12 -89 -12 -120 0 -49 2 -57 18 -54 19 4 27 58
8 58 -8 0 -7 3 0 8 12 7 15 172 3 172 -3 0 -11 -29 -17 -64z"/>
<path d="M9298 9767 c-3 -19 -2 -25 4 -19 6 6 8 18 6 28 -3 14 -5 12 -10 -9z"/>
<path d="M9284 9706 c-3 -14 -3 -30 1 -35 3 -6 2 -11 -2 -11 -11 0 -4 -131 7
-145 4 -5 11 -25 15 -42 3 -18 11 -33 16 -33 12 0 12 17 0 39 -13 24 -26 125
-24 194 1 61 -3 72 -13 33z"/>
<path d="M10096 9669 c-10 -6 -39 -12 -65 -14 -68 -5 -86 -10 -89 -28 -4 -21
33 -22 68 -2 14 8 34 15 45 15 28 1 106 39 80 39 -11 0 -28 -4 -39 -10z"/>
<path d="M8951 9465 c2 -25 6 -45 10 -45 4 0 7 20 6 45 -1 25 -5 45 -10 45 -4
0 -7 -20 -6 -45z"/>
<path d="M8965 9367 c4 -26 13 -63 21 -82 8 -19 14 -44 14 -55 0 -26 37 -100
50 -100 9 0 6 15 -10 55 -5 11 -11 29 -14 40 -2 11 -19 58 -36 105 -28 77 -30
81 -25 37z"/>
<path d="M9918 9255 c-3 -3 -56 -11 -119 -18 -88 -10 -114 -16 -114 -27 0 -11
11 -14 45 -12 78 5 270 62 209 62 -9 0 -18 -2 -21 -5z"/>
<path d="M8550 8848 c0 -9 82 -113 95 -120 31 -18 21 10 -19 52 -45 48 -76 75
-76 68z"/>
<path d="M9257 8784 c-2 -3 -3 -13 0 -23 3 -14 21 -22 61 -30 55 -11 237 -25
197 -15 -156 37 -194 47 -215 57 -14 6 -28 12 -31 14 -3 1 -9 0 -12 -3z"/>
<path d="M8882 8347 c-7 -8 -7 -18 -2 -27 11 -18 166 -28 182 -12 8 8 5 11 -8
10 -28 0 -122 20 -143 32 -14 7 -22 6 -29 -3z"/>
<path d="M2110 9549 c0 -5 -4 -7 -10 -4 -12 8 -13 -36 -1 -67 5 -13 15 -42 22
-66 7 -24 17 -46 23 -50 6 -4 26 -29 45 -57 75 -109 126 -181 138 -193 6 -7
29 -34 50 -60 21 -26 47 -53 57 -61 11 -8 37 -32 58 -53 47 -47 64 -48 72 -4
6 29 1 42 -26 79 -18 25 -45 52 -61 61 -32 20 -80 81 -182 233 -42 62 -80 115
-85 118 -4 3 -12 20 -16 37 -7 34 -31 77 -49 90 -15 11 -35 10 -35 -3z"/>
<path d="M2805 9479 c-9 -17 -14 -36 -11 -42 3 -9 5 -9 5 1 1 6 8 12 16 12 10
0 15 10 15 30 0 38 -5 38 -25 -1z"/>
<path d="M3338 9215 c-32 -13 -71 -33 -87 -44 -16 -12 -36 -21 -44 -21 -8 0
-25 -8 -38 -17 -24 -18 -81 -47 -111 -56 -9 -3 -19 -20 -23 -38 -6 -27 -3 -36
15 -51 20 -16 25 -17 39 -4 9 8 32 21 51 29 19 8 53 33 75 56 22 22 44 40 49
41 19 1 156 108 156 122 0 13 -21 9 -82 -17z"/>
<path d="M1445 8815 c4 -24 12 -59 19 -77 14 -40 83 -154 111 -183 11 -11 34
-42 50 -67 17 -25 56 -73 88 -107 31 -34 57 -71 57 -82 0 -22 36 -66 46 -57
10 10 90 -78 113 -124 12 -24 27 -52 34 -63 16 -27 121 -131 176 -175 24 -19
50 -49 57 -67 15 -35 51 -60 65 -46 5 5 2 30 -6 57 -8 27 -15 59 -16 70 0 14
-23 38 -67 71 -80 60 -132 111 -132 130 0 8 -8 20 -19 27 -10 7 -27 30 -39 51
-11 21 -40 60 -64 86 -25 27 -54 66 -65 88 -17 32 -73 101 -73 89 0 -1 -22 19
-50 46 -27 26 -50 52 -50 56 0 5 -15 26 -33 48 -49 59 -87 112 -87 121 0 5
-15 32 -34 60 -19 29 -37 62 -41 73 -4 11 -15 20 -26 20 -18 0 -20 -4 -14 -45z"/>
<path d="M1090 8310 c0 -10 25 -19 78 -29 43 -9 53 -2 28 18 -16 14 -106 23
-106 11z"/>
<path d="M3965 8189 c-11 -6 -31 -25 -44 -44 -12 -19 -35 -47 -49 -63 -15 -16
-45 -49 -67 -73 -34 -37 -120 -147 -143 -184 -4 -6 -27 -27 -52 -46 -63 -50
-168 -80 -277 -79 -18 0 -33 -4 -33 -9 0 -5 -12 -12 -26 -15 -34 -9 -94 -48
-94 -62 0 -7 -16 -26 -35 -43 -19 -17 -35 -39 -35 -49 0 -10 -17 -36 -37 -59
-109 -119 -159 -178 -171 -199 -7 -13 -16 -24 -21 -24 -5 0 -11 -19 -15 -42
-9 -57 8 -75 57 -59 25 9 39 22 52 50 9 21 31 54 47 72 17 18 46 55 65 83 19
28 45 63 59 78 13 15 24 32 24 37 0 5 8 12 18 15 9 3 23 18 29 33 7 16 30 39
50 53 21 14 40 28 43 31 3 3 12 6 20 7 70 4 172 22 185 32 6 4 28 13 49 20 22
7 46 18 54 24 53 43 127 116 142 139 21 33 80 104 130 156 58 60 96 130 99
184 1 26 1 47 -1 46 -2 0 -12 -5 -23 -10z"/>
<path d="M2535 7510 c-3 -5 -1 -10 4 -10 6 0 11 5 11 10 0 6 -2 10 -4 10 -3 0
-8 -4 -11 -10z"/>
<path d="M1685 6997 c-8 -12 -15 -26 -15 -32 0 -24 63 -84 112 -107 29 -14 76
-45 103 -70 45 -40 79 -61 89 -55 2 1 12 -5 22 -13 11 -9 33 -22 49 -30 17 -8
41 -22 55 -31 32 -21 78 -31 156 -34 34 -1 66 -5 72 -9 5 -3 27 -8 47 -11 20
-2 43 -9 50 -15 9 -8 15 -8 20 0 3 5 14 10 24 10 23 0 71 37 71 55 0 22 -39
38 -89 37 -24 -1 -50 2 -55 7 -6 5 -36 12 -66 16 -115 15 -132 19 -147 28 -7
5 -36 15 -65 24 -29 8 -65 24 -80 34 -14 11 -29 19 -32 19 -4 0 -12 4 -19 10
-46 37 -78 60 -122 85 -27 15 -58 35 -67 43 -10 8 -18 11 -18 7 0 -4 -10 3
-22 17 -33 36 -55 41 -73 15z"/>
<path d="M3691 6566 c-11 -28 -141 -156 -158 -156 -7 0 -13 -4 -13 -9 0 -22
-100 -71 -169 -85 -40 -7 -76 -18 -80 -23 -3 -5 -19 -17 -36 -27 -16 -10 -41
-33 -55 -52 -14 -18 -29 -34 -33 -34 -4 0 -21 -13 -37 -30 -16 -16 -36 -30
-44 -30 -12 0 -15 -12 -14 -47 1 -51 9 -63 45 -63 24 0 73 40 73 60 0 7 31 44
70 81 67 66 120 92 149 75 28 -18 261 143 261 181 0 6 13 24 29 39 16 16 35
40 41 54 6 14 17 36 25 49 17 30 11 41 -21 41 -17 0 -27 -8 -33 -24z"/>
<path d="M2368 5306 c-10 -7 -18 -20 -18 -28 0 -19 99 -120 111 -112 5 3 9 -2
9 -10 0 -8 10 -21 23 -27 12 -7 24 -15 27 -19 3 -4 25 -17 48 -29 42 -21 46
-22 78 -6 19 9 34 21 34 26 0 17 -20 49 -31 49 -21 0 -100 42 -106 55 -3 8
-10 15 -15 15 -6 0 -31 23 -57 50 -48 51 -72 60 -103 36z"/>
<path d="M3384 5153 c-3 -10 -10 -25 -15 -33 -30 -50 -39 -72 -33 -81 4 -6 14
-1 27 13 11 13 31 35 45 50 17 18 22 32 17 47 -8 25 -34 28 -41 4z"/>
<path d="M3305 4708 c-22 -11 -58 -32 -80 -46 -87 -58 -105 -95 -71 -143 9
-13 16 -18 16 -11 0 6 6 12 14 12 8 0 48 33 88 73 40 39 82 77 91 82 10 6 19
19 20 30 3 27 -28 28 -78 3z"/>
<path d="M9379 7412 c-15 -15 -48 -45 -74 -67 -69 -58 -126 -116 -165 -166
l-34 -44 43 40 c23 22 52 49 64 60 30 27 94 75 101 75 11 0 121 93 120 102 -3
24 -5 28 -16 28 -7 0 -25 -13 -39 -28z"/>
<path d="M9724 7326 c-18 -17 -62 -60 -98 -95 -37 -35 -65 -65 -62 -68 2 -3
17 7 33 20 43 39 69 60 108 87 72 50 78 57 72 73 -9 23 -16 20 -53 -17z"/>
<path d="M8810 7287 c-24 -17 -58 -41 -76 -52 -52 -31 -83 -56 -143 -114 l-56
-54 55 39 c30 21 57 42 58 46 2 5 8 8 14 8 6 0 25 11 42 24 17 13 42 27 56 31
14 4 27 10 30 14 3 3 22 14 43 23 24 12 37 24 37 37 0 33 -15 32 -60 -2z"/>
<path d="M9208 7085 c-2 -2 -46 -7 -98 -10 -160 -10 -184 -13 -229 -25 -23 -6
-75 -13 -114 -16 -40 -3 -110 -12 -157 -20 -47 -8 -130 -22 -185 -30 -55 -8
-116 -21 -135 -28 -44 -18 -224 -38 -307 -34 -52 2 -65 -1 -77 -17 -37 -51 21
-77 157 -69 42 3 67 1 67 -6 0 -13 27 -13 32 -1 2 6 42 18 91 29 82 18 86 18
71 1 -10 -11 -13 -25 -9 -38 8 -26 25 -27 32 -2 7 26 80 74 118 79 17 2 54 9
83 17 28 7 52 10 52 5 0 -4 -11 -11 -25 -14 -25 -6 -49 -39 -43 -58 3 -7 9 -5
19 4 8 9 25 18 37 22 12 4 30 17 39 30 15 18 36 25 108 35 190 27 317 41 396
45 36 1 71 6 79 11 9 5 11 4 6 -3 -5 -8 4 -12 29 -12 20 0 52 -8 73 -19 20
-10 66 -21 102 -23 74 -6 245 -46 297 -71 13 -6 60 -7 115 -4 104 6 122 9 226
37 40 11 81 20 91 20 10 0 34 14 51 30 31 29 32 31 14 44 -18 13 -27 13 -69
-4 -22 -9 -158 -29 -250 -37 -38 -3 -88 1 -135 12 -41 9 -84 18 -94 20 -11 3
-22 9 -26 15 -4 6 -14 8 -22 5 -8 -3 -22 0 -30 8 -9 9 -32 14 -64 13 -27 -1
-61 4 -76 11 -15 7 -40 13 -56 13 -16 0 -47 7 -68 16 -36 15 -108 27 -116 19z"/>
<path d="M8985 6897 c-11 -28 56 -166 99 -206 14 -14 26 -30 26 -38 0 -7 5
-13 10 -13 12 0 4 18 -39 83 -31 48 -61 122 -61 154 0 23 -28 40 -35 20z"/>
<path d="M8482 6820 c-27 -36 -28 -53 -4 -46 14 5 22 -3 36 -34 22 -50 107
-159 124 -160 18 0 15 8 -14 38 -34 36 -73 117 -81 167 -6 39 -19 65 -32 65
-4 0 -17 -13 -29 -30z"/>
<path d="M9540 6826 c0 -12 43 -76 51 -76 5 0 11 -11 15 -25 7 -27 24 -34 24
-11 0 16 -27 70 -50 98 -13 16 -40 25 -40 14z"/>
<path d="M7919 5672 c-98 -62 -153 -124 -147 -165 3 -19 7 -15 26 20 20 39 87
113 102 113 3 0 21 11 40 25 38 28 20 33 -21 7z"/>
<path d="M7636 5463 c-11 -3 -36 -15 -55 -28 -20 -12 -53 -27 -74 -34 -38 -13
-63 -43 -52 -62 7 -11 53 -10 70 2 6 3 45 14 89 24 68 16 90 17 160 7 87 -12
249 -54 269 -70 13 -11 91 -31 148 -39 20 -3 50 -17 66 -32 17 -15 34 -26 40
-24 5 2 26 -8 47 -22 20 -14 39 -25 42 -25 3 0 20 -13 37 -29 84 -76 201 -177
216 -186 9 -5 53 -45 98 -87 44 -42 99 -86 121 -97 22 -11 42 -24 44 -28 3 -8
21 -17 121 -63 28 -13 44 -26 40 -33 -10 -17 -10 -56 1 -54 13 3 23 -44 25
-109 0 -28 4 -54 9 -58 4 -4 8 -16 8 -27 4 -53 4 -53 15 -42 8 8 10 55 7 145
l-3 134 40 -22 c22 -11 54 -24 70 -27 17 -3 73 -18 125 -32 122 -34 246 -39
308 -11 26 12 42 26 42 36 0 21 -26 34 -36 18 -9 -14 -150 4 -259 34 -22 7
-44 12 -50 13 -5 1 -12 3 -15 4 -3 2 -12 4 -21 6 -25 5 -92 37 -111 53 -10 8
-18 12 -18 8 0 -8 -77 31 -85 43 -3 6 -12 8 -21 4 -8 -3 -32 6 -53 20 -22 15
-50 29 -64 32 -13 4 -35 16 -48 28 -13 12 -43 37 -67 56 -24 18 -65 55 -92 81
-26 27 -62 56 -79 64 -17 9 -31 21 -31 26 0 5 -13 17 -30 27 -16 9 -30 22 -30
28 0 5 -23 26 -52 45 -29 19 -80 59 -114 88 -34 28 -67 52 -74 52 -6 0 -13 7
-16 15 -4 8 -10 12 -16 9 -11 -7 -211 36 -218 47 -5 7 -47 21 -200 68 -65 19
-237 35 -274 24z"/>
<path d="M8451 5434 c-46 -17 -71 -35 -71 -54 0 -11 60 15 70 31 3 5 24 15 45
23 23 8 31 15 20 15 -11 0 -40 -7 -64 -15z"/>
<path d="M8129 5148 c0 -7 0 -64 0 -126 0 -63 -4 -123 -8 -135 -5 -12 -11 -39
-15 -59 -5 -29 -4 -38 7 -38 13 0 33 68 28 93 -1 4 5 15 14 23 13 14 23 105
15 139 -1 6 -2 26 -1 45 0 19 -2 43 -5 53 -6 19 -34 23 -35 5z"/>
<path d="M8834 5059 c-11 -18 9 -31 40 -25 17 3 86 6 154 7 67 1 122 6 122 10
0 5 -19 10 -42 10 -188 7 -269 6 -274 -2z"/>
<path d="M8491 4968 c-5 -14 -2 -32 7 -51 12 -24 14 -64 10 -214 -3 -101 -3
-181 0 -178 32 32 55 354 31 427 -14 42 -35 50 -48 16z"/>
<path d="M9323 4731 c-24 -24 -1 -28 92 -20 50 5 114 11 144 13 94 9 67 15
-80 18 -111 2 -146 0 -156 -11z"/>
<path d="M5496 6819 c-60 -17 -82 -60 -85 -163 0 -44 -6 -85 -12 -93 -6 -7 -9
-13 -6 -13 3 0 -2 -19 -13 -42 -13 -32 -20 -81 -25 -183 -4 -77 -9 -143 -11
-147 -2 -3 -6 -30 -9 -58 -3 -29 -10 -61 -16 -71 -5 -10 -8 -19 -5 -19 3 0 -8
-37 -23 -82 -15 -46 -26 -89 -25 -95 1 -7 2 -20 3 -28 0 -9 11 -19 23 -24 28
-10 47 7 59 52 27 103 62 224 71 240 5 10 11 69 14 130 5 121 23 235 49 307 9
25 19 83 22 130 3 47 12 94 19 105 15 21 18 51 7 58 -5 2 -21 1 -37 -4z"/>
<path d="M6320 6773 c-8 -3 -23 -14 -33 -24 -27 -29 -118 -232 -142 -319 -16
-57 -56 -128 -94 -168 -41 -44 -58 -101 -27 -89 8 3 17 -1 20 -9 4 -11 13 -13
28 -8 13 3 24 10 26 14 2 5 16 22 33 39 16 17 29 36 29 43 0 6 6 19 14 27 8 9
26 49 39 89 13 40 27 76 31 79 3 4 6 17 6 30 0 35 58 179 85 211 25 30 34 60
22 80 -9 13 -14 14 -37 5z"/>
<path d="M7088 6431 c-36 -12 -116 -68 -128 -90 -11 -21 8 -79 32 -99 21 -17
42 2 36 32 -3 14 -1 26 4 26 5 0 7 4 4 8 -7 12 66 52 95 52 43 0 69 12 69 30
0 35 -59 57 -112 41z"/>
<path d="M6635 6252 c-16 -9 -32 -21 -34 -27 -8 -19 -70 -73 -91 -80 -11 -4
-36 -22 -55 -41 -19 -19 -39 -34 -45 -34 -6 0 -41 -29 -79 -64 -71 -67 -129
-108 -171 -121 -14 -4 -54 -21 -88 -37 -58 -28 -125 -50 -192 -65 -14 -3 -37
-14 -52 -24 -14 -11 -35 -19 -46 -19 -12 0 -24 -4 -27 -10 -3 -5 -19 -10 -35
-10 -16 0 -41 -6 -57 -14 -25 -13 -189 -56 -220 -59 -7 0 -13 -3 -13 -7 0 -4
-10 -7 -22 -7 -28 0 -60 -13 -70 -27 -4 -6 -11 -11 -15 -11 -4 0 -26 -11 -48
-25 -22 -14 -44 -27 -50 -29 -5 -2 -18 -12 -29 -22 -25 -24 -92 -59 -111 -59
-8 0 -15 -6 -15 -14 0 -7 -19 -26 -42 -41 -24 -15 -53 -37 -65 -48 -13 -11
-23 -17 -23 -14 0 7 -23 -11 -79 -63 -16 -14 -43 -36 -60 -50 -18 -14 -47 -38
-64 -53 -18 -15 -44 -35 -59 -43 -16 -8 -28 -19 -28 -24 0 -6 -6 -10 -13 -10
-7 0 -28 -16 -47 -35 -19 -19 -40 -35 -47 -35 -7 0 -13 -4 -13 -9 0 -5 -12
-16 -27 -24 -65 -33 -101 -55 -187 -114 -50 -35 -97 -63 -103 -63 -7 0 -13 -4
-13 -10 0 -5 -6 -10 -13 -10 -8 0 -22 -9 -32 -20 -9 -10 -20 -19 -24 -18 -11
2 -45 -15 -88 -44 -23 -15 -51 -28 -62 -28 -12 0 -21 -4 -21 -8 0 -7 -104 -42
-127 -42 -13 0 -22 -55 -12 -71 5 -9 19 -6 50 9 24 11 60 23 79 27 19 4 85 32
146 61 60 30 114 54 118 54 4 0 12 5 19 10 18 16 135 90 142 90 3 0 11 5 18
11 18 16 85 54 145 84 30 14 68 39 85 55 18 17 35 30 38 30 3 0 28 20 55 45
27 24 52 45 56 45 4 0 13 6 20 13 10 10 200 164 253 204 6 5 36 25 67 47 31
21 59 45 62 52 3 8 13 14 22 14 9 0 28 8 42 18 15 9 36 23 47 30 30 19 106 54
122 56 8 1 18 7 21 12 4 5 15 10 24 12 9 1 30 9 45 17 15 8 40 15 54 15 15 0
40 7 55 15 16 8 37 15 47 15 10 0 39 9 64 21 25 11 71 26 102 32 31 6 59 16
63 22 4 5 8 6 8 1 0 -4 10 -2 23 6 12 8 49 23 82 32 33 10 68 22 78 27 67 36
98 51 109 53 49 10 140 71 218 145 35 34 70 61 77 61 7 0 18 9 25 20 7 11 18
20 25 20 7 0 13 4 13 10 0 5 15 17 33 26 17 9 34 20 37 25 6 9 79 59 86 59 3
0 12 6 19 14 12 11 10 19 -11 50 -28 41 -29 41 -69 18z"/>
<path d="M4580 6113 c-26 -17 -73 -64 -100 -99 -24 -31 -41 -90 -42 -145 0
-28 -4 -65 -10 -82 -13 -43 -23 -85 -46 -197 -41 -196 -57 -231 -155 -333 -72
-74 -117 -133 -117 -151 0 -10 14 -23 33 -31 39 -16 46 -11 93 63 19 29 48 66
64 82 17 16 30 34 30 39 0 6 12 23 26 38 49 53 72 113 109 289 14 66 34 160
46 209 11 50 26 113 31 140 11 51 67 125 95 125 15 0 28 44 18 59 -9 16 -47
13 -75 -6z"/>
<path d="M6945 6093 c-24 -6 -55 -32 -55 -47 0 -17 62 -50 90 -48 57 6 189 7
240 2 49 -4 55 -3 55 14 0 15 -12 22 -55 32 -30 7 -69 13 -86 14 -17 0 -34 3
-38 8 -4 4 -11 7 -14 7 -4 1 -16 4 -27 7 -34 11 -89 16 -110 11z"/>
<path d="M4084 5796 c-3 -9 12 -33 40 -60 29 -30 47 -58 52 -81 9 -49 21 -52
29 -7 8 51 -5 81 -55 125 -47 40 -58 44 -66 23z"/>
<path d="M6415 5636 c-13 -16 -22 -34 -19 -38 7 -11 66 -36 84 -36 61 0 152
-33 280 -101 8 -4 29 -34 46 -67 32 -61 91 -113 129 -113 108 -3 115 -1 115
28 0 14 -13 23 -46 32 -26 8 -51 23 -56 34 -6 11 -17 24 -24 28 -8 4 -14 17
-14 28 0 49 -55 109 -99 109 -11 0 -32 6 -48 14 -178 87 -200 95 -271 105 -51
8 -54 7 -77 -23z"/>
<path d="M3810 5521 c0 -10 7 -24 16 -32 24 -20 46 -69 41 -90 -3 -12 0 -19 8
-19 19 0 29 59 16 90 -24 58 -81 94 -81 51z"/>
<path d="M5693 5259 c-13 -4 -23 -11 -23 -14 0 -17 23 -45 36 -45 20 0 53 -39
54 -62 0 -10 3 -18 8 -18 4 0 16 -23 26 -51 17 -49 68 -109 91 -109 6 0 26
-13 45 -30 19 -16 42 -29 51 -30 8 0 20 -5 25 -10 14 -14 112 -50 152 -57 18
-2 45 -11 59 -18 22 -11 28 -11 39 0 35 35 -2 94 -60 96 -62 1 -87 11 -163 61
-23 15 -46 28 -52 28 -6 0 -18 11 -27 25 -9 14 -20 22 -25 19 -5 -3 -9 0 -9 5
0 6 -6 11 -12 11 -7 0 -28 35 -46 78 -24 56 -42 83 -65 98 -40 27 -75 35 -104
23z"/>
<path d="M4721 4626 c-11 -21 -9 -30 17 -77 16 -30 44 -83 63 -118 37 -73 115
-157 154 -167 27 -7 95 20 95 37 0 23 -22 50 -37 45 -9 -4 -17 1 -20 14 -3 11
-11 20 -18 20 -27 0 -76 64 -121 156 -33 69 -53 98 -71 105 -37 14 -48 11 -62
-15z"/>
<path d="M5712 4584 c-53 -37 -63 -114 -15 -114 23 0 25 3 20 29 -4 21 -1 34
13 46 36 33 20 66 -18 39z"/>
<path d="M5810 4515 c-19 -23 -4 -45 29 -45 35 0 50 28 25 47 -23 17 -39 16
-54 -2z"/>
<path d="M5940 4513 c-33 -12 -39 -23 -28 -49 9 -20 18 -24 42 -22 33 3 46 34
14 32 -14 -1 -16 4 -12 22 3 13 5 24 3 23 -2 0 -11 -3 -19 -6z"/>
<path d="M6990 4308 c-120 -32 -180 -53 -180 -60 0 -4 -5 -8 -12 -8 -20 0 -67
-51 -61 -66 6 -16 33 -19 33 -4 0 6 6 10 14 10 7 0 16 8 18 18 6 23 82 60 167
81 36 10 66 22 69 29 4 14 1 14 -48 0z"/>
<path d="M5875 4288 c-11 -6 -21 -12 -23 -13 -2 -2 0 -14 3 -28 5 -18 23 -33
68 -55 34 -17 76 -34 92 -38 50 -11 156 -65 149 -75 -3 -5 -53 -38 -111 -72
-61 -35 -99 -63 -90 -65 23 -5 237 112 237 129 0 5 29 9 64 9 48 0 74 -6 110
-25 26 -14 53 -25 61 -25 8 0 29 -9 47 -20 18 -10 54 -26 78 -35 25 -8 54 -19
65 -24 11 -5 36 -15 55 -22 54 -19 239 -147 293 -201 15 -15 31 -28 35 -28 4
0 18 -17 32 -36 14 -20 33 -45 43 -55 9 -10 17 -23 17 -28 0 -5 15 -20 33 -33
17 -12 43 -33 57 -45 14 -13 28 -23 32 -23 4 0 28 -18 53 -40 25 -22 50 -40
55 -40 5 0 20 -11 34 -25 14 -14 29 -25 34 -25 5 0 34 -14 65 -30 31 -17 66
-33 78 -35 13 -3 40 -18 60 -35 21 -16 44 -30 52 -30 8 0 26 -9 41 -21 14 -11
26 -18 26 -15 0 3 21 -7 48 -22 70 -41 189 -67 307 -67 159 0 294 33 282 68
-2 6 -64 11 -153 11 -139 2 -264 19 -264 36 0 4 -16 11 -36 15 -43 8 -104 35
-104 47 0 4 -6 8 -14 8 -7 0 -19 7 -26 15 -7 9 -19 14 -26 11 -7 -3 -16 -1
-19 3 -2 5 -17 12 -32 16 -15 3 -30 10 -33 14 -9 13 -103 71 -115 71 -7 0 -32
16 -56 35 -24 19 -51 35 -59 35 -8 0 -24 10 -35 23 -11 12 -36 31 -55 41 -43
24 -78 55 -199 179 -53 53 -103 97 -112 97 -9 0 -19 6 -22 13 -3 7 -24 26 -48
42 -24 17 -51 37 -59 46 -49 52 -107 83 -210 109 -25 7 -64 25 -88 41 -24 16
-51 29 -60 29 -10 0 -27 7 -38 15 -31 21 -99 36 -183 41 -110 5 -363 92 -378
130 -6 17 -30 18 -58 2z"/>
<path d="M3891 4281 c-11 -7 -12 -22 -7 -68 20 -158 19 -156 49 -166 66 -22
81 70 31 181 -28 61 -43 72 -73 53z"/>
<path d="M7580 3866 c-108 -45 -175 -79 -207 -102 -17 -13 -36 -24 -42 -24 -6
0 -11 -9 -11 -20 0 -11 4 -20 8 -20 5 0 39 21 78 47 38 25 108 66 157 90 79
39 100 53 80 53 -5 0 -33 -11 -63 -24z"/>
<path d="M6524 3870 c-11 -4 -34 -10 -50 -11 -16 -2 -34 -7 -40 -11 -5 -4 -35
-14 -65 -22 -71 -19 -122 -39 -130 -50 -4 -5 -12 -5 -18 -2 -6 4 -11 2 -11 -3
0 -14 7 -14 66 3 27 8 94 24 149 36 130 28 125 26 125 50 0 11 -1 20 -2 19 -2
0 -12 -4 -24 -9z"/>
<path d="M6985 3526 c-130 -51 -325 -170 -325 -198 0 -5 13 1 29 15 42 35 197
113 266 132 33 10 65 20 71 22 6 2 23 -8 37 -23 l27 -27 0 40 c0 38 -14 63
-34 63 -6 -1 -38 -12 -71 -24z"/>
<path d="M7188 3336 c-59 -65 -91 -112 -106 -155 -26 -75 -6 -84 26 -12 24 52
34 65 114 149 41 42 48 56 37 63 -20 12 -19 13 -71 -45z"/>
<path d="M8588 3199 c-10 -5 -37 -9 -60 -8 -65 2 -68 1 -68 -26 0 -17 5 -25
18 -25 31 1 156 47 160 59 5 14 -27 14 -50 0z"/>
<path d="M7645 3118 c-114 -92 -178 -165 -149 -169 3 0 27 19 53 43 88 79 129
108 155 108 21 0 27 27 10 45 -9 8 -16 15 -17 14 -1 0 -24 -18 -52 -41z"/>
<path d="M4310 3096 c-22 -43 -21 -81 1 -74 11 4 38 67 42 97 5 33 -23 18 -43
-23z"/>
<path d="M4949 3126 c-6 -7 -160 -29 -208 -30 -29 -1 -47 -7 -55 -18 -5 -9 -8
-20 -5 -23 3 -3 66 8 140 25 74 17 142 33 153 35 29 7 32 15 4 15 -13 0 -27
-2 -29 -4z"/>
<path d="M7964 3024 c-15 -6 -2 -84 19 -109 9 -11 25 -31 36 -45 10 -14 23
-22 27 -18 4 4 2 13 -4 20 -5 7 -16 42 -23 78 -15 73 -25 86 -55 74z"/>
<path d="M5177 2874 c-3 -3 -59 -8 -124 -11 -82 -3 -122 -9 -133 -19 -27 -27
2 -33 90 -18 47 7 102 14 122 14 20 0 40 5 43 10 4 6 11 8 16 5 5 -4 9 -2 9 4
0 12 -15 22 -23 15z"/>
<path d="M5215 2860 c3 -5 10 -10 16 -10 5 0 9 5 9 10 0 6 -7 10 -16 10 -8 0
-12 -4 -9 -10z"/>
<path d="M4563 2566 c-63 -49 -128 -135 -114 -149 9 -9 27 5 74 54 34 36 77
72 95 79 20 8 32 19 32 31 0 30 -40 23 -87 -15z"/>
<path d="M5375 2546 c-44 -6 -86 -15 -92 -19 -7 -5 -22 -10 -33 -12 -43 -8
-110 -45 -110 -60 0 -19 33 -12 95 20 44 24 187 61 218 56 17 -2 24 14 10 22
-5 2 -44 -1 -88 -7z"/>
<path d="M4758 2323 c-28 -32 -72 -129 -63 -143 10 -16 30 -1 44 33 8 17 29
51 48 74 33 41 36 63 9 63 -7 0 -24 -12 -38 -27z"/>
<path d="M5403 2203 c-7 -2 -13 -13 -13 -24 0 -14 7 -19 30 -19 17 0 30 4 30
9 0 4 45 8 100 7 68 -1 100 3 100 10 0 6 -21 14 -46 18 -54 7 -183 7 -201 -1z"/>
<path d="M4893 2012 c-58 -59 -103 -146 -85 -164 5 -5 23 15 42 44 34 54 91
115 125 134 21 12 15 44 -9 44 -8 0 -41 -26 -73 -58z"/>
<path d="M5615 1779 c-9 -28 -4 -31 59 -40 30 -4 63 -10 75 -14 12 -3 21 -3
21 2 0 7 -129 73 -143 73 -3 0 -9 -9 -12 -21z"/>
<path d="M5953 1393 c-18 -7 -16 -43 2 -44 54 -6 70 -3 73 14 2 12 -3 17 -17
17 -12 0 -21 5 -21 10 0 10 -16 12 -37 3z"/>
</g>
</svg>
