<?xml version="1.0" standalone="no"?>
<!DOCTYPE svg PUBLIC "-//W3C//DTD SVG 20010904//EN"
 "http://www.w3.org/TR/2001/REC-SVG-20010904/DTD/svg10.dtd">
<svg version="1.0" xmlns="http://www.w3.org/2000/svg"
 width="876.000000pt" height="678.000000pt" viewBox="0 0 876.000000 678.000000"
 preserveAspectRatio="xMidYMid meet">
<metadata>
Created by potrace 1.16, written by Peter Selinger 2001-2019
</metadata>
<g transform="translate(0.000000,678.000000) scale(0.100000,-0.100000)"
fill="#000000" stroke="none">
<path d="M2287 6572 c-13 -14 -17 -32 -15 -59 3 -33 7 -38 28 -39 14 -1 30 2
37 8 13 10 109 9 168 -4 79 -16 85 -19 85 -31 0 -14 22 -39 52 -60 12 -8 25
-45 38 -107 11 -52 25 -99 30 -104 11 -11 14 -66 4 -66 -3 0 -18 8 -32 19 -75
52 -229 38 -297 -27 -27 -26 -32 -28 -52 -15 -19 13 -26 12 -65 -14 -24 -15
-57 -39 -74 -53 -17 -14 -46 -36 -64 -50 -43 -34 -79 -69 -115 -116 -16 -21
-49 -59 -72 -84 -24 -25 -43 -51 -43 -57 0 -7 -7 -13 -15 -13 -8 0 -15 6 -15
13 0 6 -7 25 -15 41 -8 16 -18 42 -20 58 -3 17 -13 47 -21 67 -9 21 -13 49 -9
68 5 26 1 35 -18 50 -23 17 -23 19 -9 43 18 28 101 110 112 110 4 0 19 11 34
25 15 14 32 25 39 25 7 0 23 12 37 26 13 14 34 30 47 35 13 5 23 15 23 23 0 7
13 16 29 19 18 4 32 14 36 27 7 22 24 27 26 8 1 -7 2 -55 3 -107 1 -77 4 -96
18 -105 14 -8 22 -6 38 9 18 18 19 26 10 80 -5 33 -11 84 -13 113 l-3 52 58 0
59 0 -3 33 c-3 31 -5 32 -58 39 -62 7 -170 0 -170 -12 0 -4 -31 -26 -69 -49
-38 -23 -82 -56 -98 -75 -15 -18 -38 -39 -50 -45 -13 -6 -23 -17 -23 -24 0
-12 -178 -187 -191 -187 -4 0 -16 -14 -26 -30 -9 -17 -34 -41 -54 -55 -20 -13
-43 -38 -50 -54 -8 -17 -17 -31 -21 -31 -5 0 -8 -7 -8 -16 0 -16 -60 -136 -85
-168 -8 -11 -19 -15 -27 -10 -22 13 -58 49 -58 58 0 14 -33 34 -47 29 -20 -8
-16 -33 10 -58 81 -79 97 -103 88 -128 -6 -14 -15 -28 -21 -32 -5 -3 -8 -11
-5 -16 4 -5 4 -13 0 -18 -7 -13 -18 -184 -14 -236 8 -110 -7 -468 -20 -493 -7
-13 -19 -47 -28 -75 -8 -29 -23 -61 -32 -72 -10 -11 -21 -28 -24 -37 -4 -10
-13 -18 -20 -18 -8 0 -14 -6 -14 -13 0 -16 -43 -77 -55 -77 -4 0 -24 -14 -43
-32 -42 -37 -128 -92 -167 -109 -16 -6 -28 -15 -28 -20 0 -5 -5 -9 -12 -9 -6
0 -18 -7 -27 -15 -9 -8 -43 -37 -76 -64 -70 -57 -165 -148 -165 -158 0 -4 -9
-16 -20 -28 -55 -55 -84 -97 -121 -171 -21 -45 -39 -86 -39 -92 0 -5 -12 -21
-26 -35 -14 -14 -23 -31 -19 -37 3 -5 0 -10 -9 -10 -9 0 -13 -8 -12 -25 2 -13
-12 -57 -30 -97 -19 -40 -34 -83 -34 -95 0 -12 -4 -25 -10 -28 -5 -3 -7 -19
-4 -34 3 -16 1 -31 -4 -35 -10 -6 -7 -127 5 -176 3 -14 7 -70 9 -125 1 -55 7
-112 13 -127 6 -16 8 -28 5 -28 -4 0 0 -7 7 -16 7 -9 15 -26 17 -37 4 -25 10
-50 12 -57 1 -3 2 -8 1 -12 0 -4 5 -22 12 -40 7 -18 12 -49 11 -67 -2 -22 3
-39 13 -47 10 -6 14 -18 10 -28 -4 -9 -2 -16 3 -16 13 0 -7 -60 -30 -93 -12
-15 -18 -32 -15 -37 3 -5 1 -11 -4 -15 -7 -4 -7 -15 -1 -31 5 -13 9 -28 9 -32
-3 -20 5 -33 49 -79 26 -27 68 -60 94 -73 30 -15 51 -33 59 -51 6 -16 15 -29
19 -29 7 0 22 -33 24 -55 1 -5 6 -13 13 -17 16 -11 49 -84 63 -138 15 -61 33
-100 45 -100 17 0 53 -45 70 -88 9 -23 25 -44 36 -47 10 -4 19 -11 19 -16 0
-6 14 -15 30 -20 17 -6 30 -14 30 -17 0 -11 60 -75 60 -65 0 6 13 6 35 -1 19
-6 35 -14 35 -18 0 -5 7 -8 15 -8 8 0 15 -4 15 -9 0 -15 67 -74 87 -77 45 -7
193 -37 245 -50 31 -7 64 -11 72 -8 9 3 16 2 16 -3 0 -10 24 -10 50 0 8 3 31
8 50 12 60 10 64 11 112 33 26 12 55 22 64 22 9 0 40 11 68 24 59 27 105 44
159 57 55 13 117 42 117 54 0 13 78 65 97 65 7 0 13 5 13 10 0 6 7 10 15 10 8
0 45 20 82 45 37 25 71 45 75 45 5 0 7 4 3 9 -3 5 3 12 14 16 11 3 22 12 25
20 3 8 10 15 16 15 9 0 40 23 74 56 6 5 19 13 29 17 9 3 17 13 17 21 0 20 40
42 49 28 4 -6 19 -15 34 -21 24 -9 27 -8 27 9 0 10 -8 26 -17 36 -19 19 -23
85 -6 106 12 15 29 80 42 161 6 31 15 66 21 78 7 11 8 28 4 37 -9 20 -5 53 7
68 5 6 9 22 9 35 1 67 16 196 25 209 5 8 8 25 6 38 -1 12 6 51 17 85 11 34 22
79 25 99 3 20 12 52 20 70 8 18 25 61 37 96 13 35 28 62 36 62 16 0 17 -5 5
-29 -6 -10 -12 -31 -15 -47 -2 -16 -5 -29 -6 -29 -1 0 -3 -22 -6 -50 -2 -27
-6 -61 -10 -75 -10 -36 -13 -66 -17 -141 -3 -37 -8 -72 -12 -78 -4 -7 -4 -27
-1 -46 4 -20 2 -36 -4 -40 -6 -4 -10 -21 -9 -39 2 -17 0 -37 -5 -44 -4 -7 -2
-12 4 -12 7 0 9 -8 5 -21 -4 -12 -8 -81 -10 -153 -1 -73 -6 -147 -10 -164 -6
-28 -2 -39 28 -75 34 -42 63 -109 53 -125 -3 -5 13 -26 34 -47 22 -22 40 -45
40 -52 0 -7 4 -13 9 -13 24 0 57 -53 66 -107 11 -64 28 -73 33 -18 3 30 6 34
18 24 8 -6 14 -18 14 -25 0 -8 4 -14 9 -14 5 0 25 -15 45 -32 35 -32 49 -66
49 -121 0 -16 5 -27 14 -27 8 0 12 4 9 8 -7 11 10 36 20 29 5 -3 18 -23 29
-44 11 -21 23 -40 26 -43 3 -3 14 -21 24 -40 10 -19 24 -39 31 -43 8 -4 14
-19 14 -31 0 -16 23 -47 67 -93 37 -37 66 -71 65 -75 -1 -5 3 -8 8 -8 6 0 19
-8 29 -18 67 -61 176 -108 296 -128 50 -9 94 -19 98 -23 8 -8 12 -34 17 -91 1
-23 2 -23 10 -5 5 11 9 43 9 70 l1 51 61 29 c34 16 66 34 73 39 25 24 96 55
102 44 7 -11 -13 -28 -32 -28 -21 0 -124 -62 -124 -74 0 -24 13 -25 49 -1 50
33 118 58 136 51 17 -6 21 -56 5 -56 -12 0 -113 -78 -118 -91 -7 -17 21 -9 54
16 18 14 36 25 40 25 4 0 16 7 26 17 10 9 20 14 23 11 3 -2 10 -53 17 -111 6
-59 15 -107 20 -107 5 0 7 52 4 118 -3 65 -2 122 2 128 4 5 23 18 42 27 19 9
55 30 80 47 25 16 48 30 51 30 5 0 25 -69 34 -117 2 -10 4 -18 5 -18 3 0 10
-40 11 -65 2 -36 10 -62 17 -56 9 10 2 125 -14 205 -13 68 -12 75 4 87 25 20
42 17 42 -7 0 -34 22 -99 32 -93 4 3 6 9 4 13 -3 4 -7 45 -11 90 -5 81 -5 83
16 78 12 -3 34 3 52 14 l32 19 -40 -4 c-22 -2 -47 -7 -56 -10 -14 -6 -16 3
-18 65 -1 40 -4 75 -6 79 -5 7 57 60 70 60 3 0 17 12 30 27 l24 28 1 -32 c0
-18 9 -60 21 -93 11 -34 18 -67 15 -75 -3 -8 -1 -15 5 -15 5 0 14 -11 19 -25
5 -14 14 -25 20 -25 12 0 12 2 0 35 -19 50 -48 200 -45 236 1 25 79 118 97
119 4 0 17 -20 28 -44 11 -25 25 -48 31 -52 12 -7 11 -1 -4 61 -3 11 -8 34
-12 50 -4 17 -12 35 -17 42 -7 8 0 27 21 57 17 24 31 49 31 55 0 5 6 14 13 18
14 9 50 62 53 78 1 6 11 30 23 55 20 45 21 45 21 13 0 -17 -11 -53 -24 -80
-29 -56 -53 -127 -58 -165 -2 -15 -7 -30 -11 -34 -4 -4 -7 -30 -7 -57 0 -51
-25 -153 -40 -162 -4 -3 -6 -14 -3 -24 3 -11 -1 -37 -8 -58 -7 -21 -12 -43
-11 -49 1 -7 -4 -14 -12 -17 -9 -4 -13 -15 -11 -29 3 -13 0 -37 -5 -54 -6 -17
-13 -44 -15 -60 -3 -16 -9 -49 -13 -74 -4 -25 -4 -61 1 -80 4 -19 10 -53 13
-75 3 -22 9 -44 14 -50 12 -15 70 -194 70 -217 0 -26 63 -138 103 -184 26 -30
139 -114 152 -114 2 0 24 -13 48 -30 44 -30 132 -71 145 -68 7 1 29 -7 102
-37 74 -30 160 -47 215 -43 l55 5 0 -63 c0 -53 3 -65 20 -74 27 -14 45 -3 25
16 -22 22 -18 111 6 135 17 17 50 24 87 20 6 -1 12 2 12 8 0 7 50 31 65 31 1
0 2 -8 3 -17 2 -39 -10 -64 -34 -73 -33 -13 -29 -45 6 -45 14 0 25 -5 25 -12
0 -16 23 -38 31 -31 3 4 0 16 -6 28 -12 22 0 50 21 50 5 0 27 12 49 26 22 15
43 24 46 21 3 -3 7 -22 9 -42 2 -21 8 -42 15 -49 9 -8 11 -5 9 14 -6 73 -1 84
50 109 62 29 77 25 73 -20 -2 -20 4 -42 13 -54 15 -19 16 -19 10 12 -3 17 -3
46 0 65 5 28 13 36 53 51 26 10 64 26 86 35 36 15 39 15 51 -2 8 -10 11 -24 9
-30 -3 -7 2 -19 11 -26 9 -8 15 -8 15 -2 0 6 -4 13 -8 16 -5 3 -6 22 -3 42 6
36 7 36 101 66 95 30 143 49 137 54 -1 2 -52 -12 -112 -31 -61 -19 -113 -35
-116 -35 -10 0 21 99 42 137 10 18 15 33 10 33 -18 0 -41 -38 -62 -105 -22
-70 -49 -104 -82 -105 -9 0 -25 -4 -35 -9 -9 -4 -32 -13 -50 -19 -30 -10 -33
-9 -27 6 4 9 11 31 16 47 11 39 49 79 113 120 28 18 71 49 96 69 25 21 53 44
63 52 9 8 26 14 37 14 11 0 20 4 20 9 0 5 7 11 15 15 13 5 14 2 4 -15 -29 -55
-45 -179 -23 -186 7 -2 13 21 17 61 7 70 27 119 61 148 15 12 18 20 9 25 -7 5
6 18 38 36 l49 27 -5 -25 c-3 -14 -8 -37 -11 -52 -19 -86 -21 -150 -5 -166 9
-9 10 -3 6 25 -7 43 28 189 55 233 18 29 81 85 96 85 3 0 4 -15 0 -32 -13 -77
-17 -157 -8 -173 7 -13 11 2 15 56 7 105 34 177 87 238 60 68 71 67 54 -6 -16
-69 -19 -166 -4 -143 5 8 10 30 10 48 0 36 57 220 74 239 6 6 29 37 51 70 l40
58 3 -47 c2 -27 7 -48 11 -48 5 0 8 -7 7 -16 0 -9 5 -19 13 -22 9 -3 11 0 6 8
-4 6 -7 46 -6 88 1 63 7 89 34 146 l32 70 9 -32 c13 -47 26 -39 25 16 -1 47
24 160 44 197 10 19 10 19 18 -3 16 -44 24 -20 25 76 1 69 6 107 18 129 20 40
20 43 -4 43 -17 0 -19 5 -14 43 3 23 8 53 11 67 3 14 7 52 10 85 8 90 21 88
22 -4 1 -67 12 -131 23 -131 2 0 3 63 3 140 0 105 -3 140 -12 140 -8 0 -13 13
-13 33 0 19 -2 123 -4 233 -4 169 -2 210 14 274 10 41 21 87 24 102 11 49 218
278 251 278 8 0 20 8 27 18 7 9 26 23 43 30 44 20 233 134 255 154 11 10 22
18 26 18 14 0 157 139 206 200 19 25 42 59 51 76 9 16 29 43 46 60 41 40 63
110 62 201 0 76 -13 136 -36 163 -13 17 -145 284 -145 295 0 9 -66 90 -114
140 -40 42 -126 205 -126 241 0 11 -4 24 -8 30 -5 5 -19 34 -31 64 -12 30 -35
69 -51 87 -16 17 -41 58 -56 90 -53 119 -88 188 -96 191 -4 2 -8 10 -8 18 0 8
-7 17 -15 20 -8 4 -15 11 -15 16 0 23 -42 67 -70 73 -16 4 -33 12 -37 18 -9
14 -141 81 -163 83 -8 1 -19 3 -25 5 -20 5 -161 -45 -218 -77 -32 -19 -64 -34
-70 -34 -7 0 -31 -9 -52 -20 -22 -11 -52 -22 -66 -23 -14 -2 -36 -11 -49 -20
-14 -9 -30 -17 -37 -17 -7 0 -21 -4 -31 -9 -49 -25 -104 -34 -189 -32 -50 1
-100 -2 -111 -8 -10 -5 -36 -12 -58 -15 -80 -11 -131 -25 -179 -49 -28 -14
-75 -30 -105 -37 -61 -14 -91 -27 -166 -77 -28 -18 -56 -33 -63 -33 -6 0 -11
-4 -11 -8 0 -4 -15 -16 -32 -27 -18 -10 -50 -36 -72 -57 -21 -20 -47 -40 -57
-43 -11 -4 -19 -10 -19 -14 0 -5 -13 -14 -30 -21 -16 -7 -32 -21 -36 -32 -3
-10 -17 -24 -30 -30 -13 -6 -24 -17 -24 -24 0 -7 -27 -41 -60 -74 -40 -41 -72
-85 -95 -134 -19 -41 -35 -79 -35 -84 0 -6 -5 -12 -12 -14 -7 -3 -13 -18 -14
-34 -4 -53 -17 -119 -27 -139 -12 -24 -11 -283 1 -298 10 -12 38 -131 48 -201
3 -22 10 -48 15 -58 6 -10 10 -40 10 -66 1 -26 1 -85 2 -132 1 -93 -7 -170
-22 -198 -5 -9 -12 -36 -16 -59 -4 -24 -11 -43 -16 -43 -5 0 -9 -5 -9 -11 0
-20 -72 -163 -94 -188 -12 -12 -29 -32 -38 -42 -10 -10 -18 -21 -18 -24 0 -2
-15 -20 -32 -38 -62 -65 -98 -108 -98 -118 0 -6 -7 -9 -15 -5 -9 3 -15 0 -15
-8 0 -7 -9 -23 -20 -36 -23 -26 -24 -34 -10 -60 6 -12 6 -21 1 -25 -6 -3 -13
-27 -16 -53 -4 -26 -10 -56 -15 -67 -5 -11 -14 -38 -21 -60 -6 -22 -16 -45
-20 -51 -5 -6 -10 -23 -11 -38 -1 -14 -6 -26 -10 -26 -4 0 -8 -9 -8 -20 0 -11
-6 -20 -13 -20 -9 0 -12 25 -10 101 1 56 5 104 8 107 3 3 -2 14 -11 24 -13 13
-17 37 -16 95 0 43 3 87 5 98 3 11 6 26 6 33 1 7 5 11 10 8 8 -5 37 71 33 87
-1 4 3 7 8 7 6 0 10 5 10 12 0 6 9 22 21 34 17 18 19 26 9 44 -6 12 -14 19
-17 16 -4 -3 -12 -1 -20 5 -16 14 -17 53 -2 81 13 25 22 208 10 222 -5 6 -17
54 -26 106 -10 52 -25 111 -34 130 -27 59 -21 261 12 385 26 99 63 201 79 219
4 6 8 17 8 25 0 9 9 27 19 40 l18 23 16 -33 c9 -19 26 -45 37 -59 29 -37 27
-3 -5 66 -32 69 -31 86 6 159 55 111 70 230 55 445 -11 151 -39 243 -93 307
-46 54 -55 66 -65 89 -6 13 -19 26 -29 29 -11 4 -22 17 -25 31 -3 13 -10 24
-15 24 -5 0 -9 5 -9 11 0 6 -23 31 -52 57 -28 26 -56 53 -62 60 -6 7 -21 23
-33 34 -13 12 -23 27 -23 34 0 7 -8 15 -18 19 -18 5 -162 140 -162 151 0 14
-65 98 -113 147 -30 30 -57 62 -60 71 -4 9 -17 20 -31 26 -13 5 -25 12 -27 17
-2 5 -38 30 -79 55 -41 26 -91 61 -110 77 -19 17 -60 38 -90 47 -30 10 -66 27
-80 39 -47 40 -94 59 -118 46 -11 -6 -54 -11 -95 -11 -72 0 -75 -1 -117 -40
-24 -22 -53 -40 -65 -40 -13 0 -28 -7 -35 -15 -7 -8 -19 -15 -26 -15 -8 0 -14
-4 -14 -10 0 -5 -12 -16 -27 -24 -16 -8 -43 -28 -61 -45 -18 -17 -39 -31 -46
-31 -12 0 -46 -31 -46 -41 0 -3 -22 -28 -48 -56 -27 -29 -57 -72 -66 -97 -20
-53 -32 -58 -40 -18 -4 15 -9 38 -12 52 -3 14 -8 38 -11 53 -3 17 -15 33 -28
39 -13 6 -31 29 -41 52 -10 22 -19 43 -20 45 -2 1 -13 -7 -26 -19 l-23 -21 -7
48 c-7 49 -36 123 -48 123 -4 0 -12 11 -18 25 -12 27 -16 31 -56 77 -14 15
-27 37 -31 48 -11 35 -109 139 -147 157 -13 6 -48 23 -78 38 -31 14 -62 27
-70 28 -8 2 -22 7 -30 12 -39 24 -229 62 -320 64 -52 1 -109 4 -125 7 -23 4
-35 0 -48 -14z m473 -173 c0 -5 8 -9 17 -9 25 0 163 -70 163 -82 0 -11 34 -54
103 -130 20 -23 37 -45 37 -48 0 -4 24 -33 53 -64 29 -32 63 -78 76 -104 13
-26 26 -53 30 -61 12 -24 30 -24 39 0 12 30 24 10 27 -47 2 -23 6 -53 10 -66
5 -18 4 -20 -5 -8 -9 13 -12 13 -20 -2 -6 -10 -27 -20 -48 -23 -20 -4 -45 -9
-54 -12 -12 -3 -18 1 -18 11 0 17 -7 19 -51 18 -25 0 -26 1 -19 34 4 19 6 34
3 34 -3 0 0 6 6 13 15 19 4 27 -34 27 -25 0 -39 8 -59 34 -14 19 -26 39 -26
45 0 5 -9 25 -20 44 -18 30 -19 35 -5 41 8 3 15 10 15 16 0 8 -26 9 -84 4 -84
-7 -117 1 -122 27 -15 81 -37 197 -48 251 -7 37 -11 70 -9 72 7 7 43 -6 43
-15z m-184 -314 c10 -8 28 -15 40 -15 12 0 47 -14 78 -30 31 -17 58 -30 61
-30 3 0 15 -4 27 -9 20 -7 20 -8 -10 -19 -18 -6 -35 -18 -38 -27 -4 -9 -38
-38 -76 -65 -94 -66 -165 -134 -182 -173 -17 -43 -62 -73 -82 -56 -8 6 -14 18
-14 25 0 8 -12 33 -26 55 -14 23 -23 47 -20 55 3 7 1 16 -3 19 -5 2 -14 35
-21 72 -6 38 -14 76 -16 85 -6 21 44 49 73 42 14 -4 32 5 56 25 31 28 93 58
123 60 5 1 19 -6 30 -14z m1609 -34 c65 -32 116 -54 127 -55 3 -1 17 -12 30
-26 33 -34 57 -52 93 -70 17 -8 32 -17 35 -20 3 -3 28 -23 55 -44 71 -57 87
-73 134 -143 23 -33 49 -64 58 -67 9 -4 13 -9 10 -12 -3 -3 3 -14 14 -25 10
-10 19 -25 19 -33 0 -8 9 -18 21 -21 17 -6 129 -110 129 -121 0 -2 38 -40 84
-86 45 -46 90 -97 99 -113 9 -17 29 -43 46 -58 17 -16 31 -33 31 -38 0 -10 5
-17 44 -63 14 -15 28 -37 31 -47 4 -11 10 -19 15 -19 8 0 21 -66 25 -135 2
-22 6 -60 10 -85 12 -86 12 -162 -1 -218 -28 -126 -37 -150 -73 -217 -21 -38
-48 -96 -61 -127 -13 -32 -27 -58 -30 -58 -4 0 -7 -6 -7 -12 0 -7 -7 -29 -15
-48 -9 -19 -19 -46 -22 -60 -4 -21 -21 -98 -53 -240 -5 -22 -5 -195 0 -242 0
-10 5 -18 9 -18 4 0 8 -9 8 -20 0 -12 6 -31 14 -43 8 -12 18 -49 21 -82 4 -33
10 -64 14 -70 9 -16 12 -50 14 -203 1 -79 -2 -146 -6 -149 -5 -3 -5 -17 -2
-33 4 -20 2 -29 -10 -34 -9 -3 -13 -11 -9 -17 3 -6 2 -21 -4 -32 -5 -12 -15
-37 -22 -54 -10 -27 -15 -31 -31 -23 -21 12 -29 3 -35 -43 -5 -30 -18 -80 -45
-167 -24 -77 -64 -148 -117 -214 -32 -37 -76 -93 -99 -124 -23 -30 -69 -83
-101 -116 -51 -53 -137 -170 -137 -186 0 -4 -12 -20 -27 -38 l-26 -31 -16 32
c-38 78 -76 100 -112 63 -34 -33 -20 -65 42 -96 27 -13 51 -25 53 -27 2 -1
-21 -25 -50 -52 -83 -77 -88 -81 -101 -81 -7 0 -30 -16 -50 -36 -34 -32 -45
-36 -110 -41 -50 -4 -78 -12 -92 -24 -35 -34 -110 -52 -164 -40 -54 11 -77 0
-46 -23 29 -23 99 -30 157 -17 29 7 66 15 82 18 17 3 40 12 51 20 12 8 26 13
30 11 27 -7 147 41 166 67 4 6 8 7 8 3 0 -3 26 21 58 55 31 34 65 69 75 78 9
9 17 21 17 27 0 5 8 13 17 16 17 7 52 -26 53 -49 0 -13 92 -85 108 -85 6 0 12
-4 14 -9 2 -5 12 -3 23 6 14 11 16 17 8 20 -7 3 -13 12 -13 21 0 10 -9 23 -20
29 -17 11 -43 59 -63 116 -4 9 -16 17 -28 17 -18 0 -19 2 -9 15 7 8 9 15 4 15
-5 0 -4 4 1 8 6 4 27 32 48 63 21 31 58 76 83 100 25 24 51 55 59 69 7 14 25
37 39 52 14 15 26 30 26 34 0 4 18 22 40 41 22 19 40 40 40 46 0 7 12 23 26
36 14 13 23 30 20 38 -3 7 -1 13 4 13 5 0 12 10 15 23 4 12 13 37 22 56 8 19
16 44 17 56 0 13 4 21 9 18 4 -2 8 2 8 9 4 49 10 69 28 100 11 20 17 39 14 42
-4 3 -2 6 4 6 6 0 13 -61 17 -156 8 -173 7 -178 -59 -211 -16 -9 -40 -24 -52
-36 -12 -11 -33 -25 -45 -31 -36 -18 -35 -51 1 -66 29 -12 33 -10 82 34 36 33
55 44 63 36 7 -7 6 -14 -2 -22 -7 -7 -12 -20 -12 -30 0 -10 -7 -21 -15 -24 -8
-4 -12 -10 -9 -15 3 -5 -6 -25 -20 -45 -14 -21 -23 -41 -20 -46 3 -4 0 -8 -5
-8 -6 0 -11 -10 -11 -23 0 -12 -7 -33 -16 -45 -14 -21 -17 -21 -44 -7 -16 8
-42 15 -57 15 -15 0 -37 7 -47 15 -24 18 -77 20 -94 3 -16 -16 -15 -65 1 -75
6 -4 54 -6 105 -5 76 3 92 1 92 -12 0 -14 -29 -53 -62 -84 -10 -9 -18 -24 -18
-34 0 -10 -4 -18 -8 -18 -4 0 -8 -9 -9 -20 -3 -30 -125 -158 -200 -208 -21
-14 -59 -43 -84 -64 -26 -21 -49 -38 -52 -38 -3 0 -27 -15 -52 -32 -90 -63
-98 -68 -111 -57 -7 5 -12 25 -12 44 0 43 -6 51 -38 58 -24 4 -64 -23 -64 -45
0 -23 31 -78 49 -88 29 -15 26 -27 -11 -46 -18 -9 -35 -20 -38 -24 -3 -4 -49
-29 -102 -55 -74 -37 -108 -48 -140 -47 -61 1 -152 29 -209 63 -28 16 -53 29
-57 29 -12 1 -52 38 -52 48 0 6 -9 14 -20 17 -11 4 -28 21 -37 38 -9 18 -29
45 -45 62 -16 16 -43 54 -60 85 -18 30 -43 73 -55 95 -13 22 -28 52 -34 67 -6
16 -14 28 -17 28 -13 0 -112 102 -112 115 0 3 -16 20 -36 39 l-36 34 33 105
33 104 36 -1 c29 0 44 6 69 32 36 36 115 92 129 92 4 0 19 12 33 26 13 14 32
30 41 35 15 8 17 6 12 -20 -5 -22 -1 -35 15 -52 11 -12 28 -42 38 -65 10 -24
23 -44 29 -44 6 0 16 -11 22 -25 13 -28 47 -34 56 -10 3 8 1 15 -3 15 -5 0
-11 19 -14 43 -14 112 -39 193 -58 181 -5 -3 -17 -3 -27 1 -12 4 0 14 43 35
33 15 76 45 95 65 29 29 81 65 97 65 1 0 3 -6 3 -13 0 -7 13 -26 29 -41 16
-16 32 -39 35 -52 4 -13 10 -24 15 -24 4 0 20 -11 33 -25 16 -16 32 -23 42
-19 20 8 20 5 -6 55 -12 23 -22 60 -22 83 -1 39 -23 76 -46 76 -5 0 -10 5 -10
10 0 6 5 10 10 10 6 0 10 7 10 15 0 9 32 48 71 87 l72 72 18 -22 c9 -12 22
-22 28 -22 6 0 11 -4 11 -9 0 -12 49 -20 56 -10 3 5 2 15 -3 22 -4 6 -8 14 -9
17 0 3 -3 12 -6 20 -4 8 -11 35 -16 59 -10 42 -9 44 25 75 53 47 65 59 96 98
15 20 40 41 55 47 19 8 33 25 41 49 12 33 83 113 100 112 3 0 19 -12 34 -26
l29 -25 -28 -22 c-15 -12 -30 -24 -34 -27 -4 -3 -17 -25 -31 -50 -23 -43 -31
-54 -79 -110 -12 -13 -28 -39 -37 -57 -8 -18 -30 -42 -49 -54 -19 -11 -34 -26
-34 -33 0 -6 -14 -38 -30 -70 -23 -44 -28 -61 -19 -72 8 -10 -3 -42 -50 -138
-34 -69 -61 -129 -61 -134 0 -5 -7 -15 -15 -22 -8 -7 -15 -20 -15 -30 0 -9 -9
-25 -20 -35 -11 -10 -20 -22 -20 -26 0 -5 -13 -36 -29 -71 -16 -35 -36 -79
-45 -99 -8 -20 -31 -47 -50 -60 -19 -13 -32 -27 -30 -31 3 -4 -2 -8 -10 -8 -9
0 -16 -4 -16 -10 0 -5 -7 -10 -15 -10 -8 0 -15 -4 -15 -8 0 -17 -161 -173
-171 -166 -19 12 -49 88 -49 127 0 82 -63 136 -98 86 -22 -32 -24 -52 -6 -66
8 -6 15 -13 13 -15 -1 -1 5 -19 14 -39 8 -20 18 -45 21 -56 4 -11 25 -33 47
-49 l40 -28 -28 -15 c-15 -8 -55 -16 -88 -16 -38 -2 -61 -7 -63 -15 -3 -9 1
-11 12 -7 10 4 15 3 11 -3 -4 -6 31 -8 90 -6 90 3 99 5 143 37 63 45 89 67
126 108 56 61 80 81 96 77 8 -2 32 -7 53 -11 23 -4 37 -11 37 -20 0 -8 -4 -15
-9 -15 -5 0 -7 -8 -4 -19 3 -14 -8 -27 -42 -50 -25 -17 -50 -31 -56 -31 -5 0
-9 -4 -9 -10 0 -5 -15 -12 -34 -16 -37 -6 -59 -26 -70 -59 -6 -19 -77 -75 -95
-75 -6 0 -12 -8 -15 -17 -4 -10 -21 -29 -39 -42 l-32 -23 30 7 c30 7 63 29 78
53 4 6 14 12 22 12 7 0 27 12 44 26 17 14 47 28 68 31 21 3 42 12 46 20 4 7
14 13 21 13 15 0 40 13 96 48 41 25 80 29 80 7 0 -9 9 -15 25 -15 28 0 34 25
14 62 -9 17 -8 24 2 32 21 16 69 83 69 95 0 6 4 11 8 11 21 0 167 162 182 202
9 24 20 52 25 63 4 11 10 29 12 39 2 11 8 26 15 33 9 11 14 8 29 -17 15 -25
25 -30 56 -30 21 0 55 -5 77 -9 42 -10 92 2 81 19 -4 6 -26 20 -50 31 -24 11
-55 32 -69 46 -20 20 -32 24 -56 20 -37 -8 -38 0 -5 35 14 15 25 33 25 40 1
25 39 98 52 98 7 0 18 12 25 26 10 21 10 32 -1 52 -11 21 -11 33 2 74 9 26 21
48 28 48 6 0 38 -9 72 -19 33 -11 79 -22 103 -24 24 -3 56 -11 71 -18 37 -16
64 2 45 32 -6 10 -16 19 -20 19 -20 0 -177 79 -177 89 0 6 -11 13 -23 16 l-24
6 21 42 c11 23 26 48 33 55 7 7 20 30 29 50 8 20 21 46 27 57 6 11 19 36 28
55 10 19 32 49 49 65 54 50 118 215 84 215 -15 0 -42 -38 -69 -97 -13 -28 -29
-46 -47 -52 -16 -6 -28 -16 -28 -24 0 -7 -16 -28 -35 -47 -18 -18 -33 -36 -33
-39 4 -15 -15 -71 -23 -71 -5 0 -9 -8 -9 -19 0 -16 -42 -88 -59 -101 -6 -5
-32 -56 -75 -152 l-17 -38 -94 0 c-94 0 -95 0 -109 -29 -14 -26 -13 -30 5 -50
27 -28 52 -27 127 9 49 23 63 26 60 14 -2 -8 -6 -14 -9 -12 -3 2 -13 -5 -23
-14 -10 -10 -24 -18 -33 -18 -10 0 -14 -6 -10 -20 3 -11 0 -18 -7 -17 -7 1
-10 -10 -8 -29 3 -33 -37 -118 -84 -181 -13 -17 -24 -36 -24 -42 0 -20 -56
-11 -90 14 -19 14 -42 25 -52 25 -10 0 -18 2 -18 4 0 13 64 137 76 147 8 6 14
17 14 23 0 6 16 28 36 48 l36 37 -19 31 c-15 26 -23 31 -45 27 -16 -2 -28 0
-28 4 0 21 25 59 42 65 10 3 16 9 13 14 -3 5 15 30 40 56 25 27 45 53 45 58 0
6 13 24 29 41 16 16 40 52 55 78 15 27 48 70 74 97 39 39 51 62 69 122 12 40
25 81 28 91 14 34 -10 16 -29 -23 -11 -22 -25 -40 -32 -40 -7 0 -14 -8 -16
-17 -2 -13 -11 -4 -27 27 -25 46 -24 41 -35 310 -1 36 0 70 2 77 2 7 47 14
124 19 87 5 121 10 125 20 8 22 -14 41 -55 48 -21 3 -61 15 -89 27 -57 23 -55
17 -19 114 47 126 72 155 138 161 154 12 161 11 164 -16 2 -14 -1 -45 -6 -70
-5 -25 -12 -64 -14 -88 -2 -24 -9 -48 -14 -55 -6 -7 -18 -32 -28 -57 -10 -25
-28 -58 -40 -75 -12 -16 -34 -56 -49 -87 -15 -32 -31 -58 -35 -58 -10 0 -40
-75 -40 -101 0 -15 5 -20 21 -17 15 2 27 18 40 52 10 27 22 52 26 55 23 17 64
82 128 202 5 11 13 19 17 19 5 0 8 10 8 23 0 13 4 27 9 33 13 12 20 53 27 149
6 73 16 101 35 89 7 -4 19 19 19 37 0 5 -11 14 -23 20 -23 10 -24 14 -22 122
2 94 -1 118 -18 150 -33 65 -55 36 -37 -50 8 -39 9 -68 1 -104 -6 -28 -8 -61
-5 -75 8 -29 -2 -30 -91 -8 -67 17 -82 35 -52 66 15 16 18 34 21 128 2 72 3
76 31 89 16 8 60 15 99 17 38 2 74 8 79 13 18 18 -11 38 -61 45 -73 10 -156
28 -165 36 -6 6 -16 162 -17 288 0 13 -7 39 -15 59 -18 43 -18 43 -2 43 6 0
35 11 62 25 28 13 60 25 71 25 24 0 47 -30 58 -75 4 -16 15 -38 23 -47 9 -10
17 -28 19 -40 2 -13 8 -43 15 -68 6 -25 11 -52 11 -60 -2 -37 10 -80 22 -80
18 0 41 132 28 157 -6 10 -15 44 -21 75 -5 32 -22 83 -36 113 -14 31 -25 60
-25 66 0 13 85 49 116 49 19 0 29 -8 40 -37 9 -21 22 -51 30 -68 17 -38 34
-116 28 -127 -3 -4 4 -8 14 -8 29 0 32 21 16 87 -8 32 -15 65 -16 73 0 8 -23
61 -49 118 -27 57 -49 107 -49 113 0 11 -11 11 -28 1 -8 -6 -11 -22 -7 -50 5
-40 4 -42 -23 -43 -41 -1 -63 -6 -75 -18 -23 -23 -48 -11 -67 32 -11 23 -20
53 -20 67 0 14 -7 34 -15 44 -8 11 -15 26 -15 33 0 8 -11 26 -25 41 -36 38
-63 94 -47 100 21 7 13 27 -18 45 -16 10 -30 24 -30 32 0 8 -8 19 -19 24 -10
6 -24 24 -31 41 -10 23 -19 30 -40 30 -29 0 -46 -22 -33 -43 4 -7 22 -32 41
-56 l33 -44 -38 -14 c-21 -7 -48 -11 -61 -8 -12 3 -32 0 -43 -6 -19 -9 -25 -7
-45 17 -13 16 -23 34 -24 41 0 6 -12 21 -27 33 -15 11 -28 27 -29 34 -1 7 -11
24 -22 37 -12 13 -45 60 -74 103 -56 84 -64 91 -88 76 -13 -8 -12 -11 3 -27
33 -35 64 -78 71 -98 8 -26 6 -41 -5 -37 -12 3 -11 -4 4 -30 15 -27 57 -68 68
-68 5 0 9 -6 9 -14 0 -7 19 -32 41 -55 l42 -42 -23 -24 c-13 -14 -29 -25 -37
-25 -7 0 -13 -4 -13 -9 0 -9 -74 -61 -88 -61 -4 0 -14 28 -22 63 -8 34 -15 67
-16 72 -2 6 -10 36 -18 68 -9 31 -15 67 -14 80 1 12 -2 37 -6 55 -5 21 -4 32
4 32 6 0 2 9 -9 21 -11 12 -22 31 -25 43 -14 55 -36 95 -50 90 -18 -7 -31 -58
-20 -76 5 -7 9 -17 10 -23 1 -5 5 -23 9 -39 5 -20 4 -27 -3 -22 -19 11 -25
-50 -8 -83 14 -26 65 -215 83 -303 3 -18 -1 -32 -16 -47 -12 -12 -21 -32 -21
-45 0 -27 23 -56 45 -56 16 0 25 -31 25 -90 0 -25 7 -85 15 -135 9 -49 18
-103 21 -120 8 -50 4 -245 -6 -265 -1 -3 -2 -9 -1 -14 2 -9 -2 -28 -49 -221
-13 -49 -36 -117 -53 -150 -17 -33 -31 -62 -32 -65 0 -3 -26 -41 -57 -86 -31
-44 -60 -92 -63 -107 -14 -53 -50 -56 -98 -6 -10 11 -27 19 -37 19 -16 0 -18
4 -11 18 46 92 59 132 54 165 -4 30 0 41 21 60 14 14 26 28 26 32 0 4 9 19 19
34 11 14 27 50 36 79 18 55 25 58 100 53 11 -1 28 4 38 11 24 18 12 48 -18 48
-34 0 -55 10 -55 26 0 8 -7 14 -15 14 -12 0 -15 14 -15 68 0 83 -8 205 -18
295 -9 79 -11 77 84 102 61 16 76 25 80 49 2 12 -14 13 -90 9 l-93 -6 -8 34
c-4 19 -9 52 -11 74 -2 22 -7 51 -10 65 -4 14 -6 32 -5 40 1 8 -7 32 -18 53
-11 21 -17 45 -14 52 9 25 136 105 166 105 16 0 26 4 22 10 -3 6 -1 10 4 10
13 0 14 10 2 29 -8 12 -16 13 -53 2 -24 -6 -52 -16 -63 -20 -59 -24 -85 -29
-86 -18 -9 91 -20 117 -51 117 -19 0 -20 4 -13 58 12 102 8 97 83 99 125 3
146 7 150 27 6 27 -9 36 -65 41 -27 2 -62 9 -77 15 -15 5 -38 10 -52 10 -19 0
-28 8 -40 35 -15 37 -40 46 -51 19 -3 -8 -1 -26 5 -39 10 -21 7 -24 -31 -38
-114 -42 -131 -46 -178 -35 -38 9 -50 8 -72 -7 -15 -9 -27 -26 -27 -36 0 -11
-4 -19 -9 -19 -8 0 -7 36 3 110 6 45 52 139 71 146 8 4 15 11 15 18 0 6 12 20
27 31 15 11 52 40 83 65 63 51 94 70 113 70 7 0 30 16 50 35 21 20 42 33 48
29 5 -3 17 0 25 7 44 36 143 32 229 -10z m-1285 -56 c11 -13 6 -15 -36 -15
-44 0 -46 1 -28 15 25 19 48 19 64 0z m-1183 -49 c0 -7 10 -35 22 -62 13 -26
24 -55 26 -63 7 -35 65 -166 75 -169 13 -5 13 -39 0 -47 -6 -4 -20 -29 -32
-56 -12 -27 -25 -49 -30 -49 -4 0 -8 -7 -8 -15 0 -9 -7 -30 -16 -47 -16 -30
-16 -30 -30 -9 -8 12 -19 21 -25 21 -5 0 -26 18 -46 41 -21 23 -63 59 -95 80
-32 22 -58 45 -58 51 0 18 78 184 95 202 6 6 18 28 28 50 10 21 26 40 36 43
10 2 24 13 32 24 16 22 26 24 26 5z m1251 -46 c50 -48 65 -75 53 -99 -6 -11
-11 -31 -11 -45 0 -14 -4 -28 -10 -31 -5 -3 -10 3 -10 14 0 16 -6 21 -29 21
-18 0 -31 -7 -36 -17 -4 -10 -9 -78 -12 -151 -5 -116 -8 -134 -24 -143 -11 -5
-19 -16 -19 -24 0 -27 -28 -16 -34 13 -15 80 -17 116 -7 164 6 29 12 67 14 85
2 17 9 38 15 46 10 11 9 17 -2 26 -20 17 -41 4 -44 -27 -1 -15 -9 -61 -18
-102 -9 -41 -17 -85 -18 -98 0 -13 -10 -30 -20 -38 -13 -9 -18 -24 -17 -46 6
-97 -7 -166 -51 -266 -17 -39 -20 -41 -41 -31 -12 7 -24 15 -27 19 -3 3 -50
36 -105 73 -122 81 -143 96 -174 125 -13 12 -28 22 -33 22 -5 0 12 26 39 57
67 80 70 83 87 83 22 0 58 39 84 93 13 26 27 47 30 47 4 0 14 -9 22 -20 8 -11
18 -20 23 -20 5 0 17 -10 26 -22 11 -13 32 -22 54 -24 20 -2 46 -8 58 -14 13
-7 25 -8 30 -3 11 11 1 43 -13 43 -15 0 -101 61 -125 89 -12 14 -22 32 -23 40
0 7 29 41 64 75 90 86 104 96 118 91 7 -3 42 1 78 9 36 8 68 15 71 15 3 1 20
-12 37 -29z m-736 -2 c7 -13 20 -48 31 -78 10 -30 26 -73 36 -95 10 -22 22
-55 26 -72 3 -18 11 -33 16 -33 21 0 6 -31 -36 -73 -25 -25 -45 -50 -45 -56 0
-15 -3 -14 -52 12 -24 13 -62 30 -84 39 -30 12 -51 32 -83 78 -42 62 -42 63
-24 84 11 11 31 39 45 61 35 53 111 135 126 135 7 0 12 5 12 10 0 18 19 10 32
-12z m868 -171 c0 -58 77 -73 166 -32 30 14 61 25 68 25 12 0 24 -22 31 -55 1
-5 8 -23 14 -40 7 -16 14 -41 16 -55 3 -30 16 -81 23 -95 3 -5 7 -42 8 -81 2
-74 12 -119 45 -191 10 -24 19 -52 19 -62 0 -11 4 -22 9 -26 6 -3 10 -13 10
-23 0 -38 9 -79 23 -112 8 -19 14 -56 13 -82 -1 -27 1 -48 4 -48 3 0 6 -15 7
-34 l0 -34 -65 4 c-43 2 -95 -4 -149 -17 -46 -12 -86 -18 -89 -15 -3 3 0 29 6
58 26 116 37 174 46 241 3 21 6 43 8 50 4 19 65 77 92 87 21 8 24 13 16 28 -8
16 -17 18 -53 12 -24 -3 -49 -10 -56 -14 -7 -4 -13 -4 -13 1 -1 4 -3 17 -4 28
-1 11 -5 30 -9 42 -5 16 -2 25 14 33 11 6 20 16 20 23 0 14 -22 18 -91 17 -45
0 -46 0 -66 47 -12 27 -26 64 -31 83 -6 19 -20 61 -31 92 -21 57 -33 141 -24
165 7 19 23 5 23 -20z m-108 -57 c-7 -19 -2 -38 25 -87 19 -35 31 -63 27 -63
-3 0 -2 -6 4 -13 6 -7 14 -28 17 -47 3 -18 8 -37 11 -42 3 -5 8 -22 11 -39 4
-27 2 -29 -26 -29 -16 0 -32 -6 -34 -12 -3 -7 -6 -2 -6 10 -1 13 -10 37 -22
53 -16 23 -21 50 -26 132 -6 111 2 186 18 170 6 -6 6 -19 1 -33z m-910 -179
c24 -11 56 -21 71 -21 15 0 36 -5 46 -12 17 -11 17 -13 -13 -53 -81 -107 -95
-130 -178 -292 -61 -119 -62 -121 -74 -95 -21 46 -56 173 -51 186 3 7 -3 20
-14 30 -21 18 -59 22 -59 6 0 -5 -6 -10 -14 -10 -26 0 -30 -40 -7 -64 24 -25
121 -211 121 -231 0 -8 -5 -26 -12 -42 -6 -15 -12 -32 -14 -38 -4 -17 -51
-146 -74 -205 -11 -30 -28 -75 -37 -100 -8 -25 -19 -50 -25 -57 -5 -6 -6 -28
-2 -48 4 -25 2 -41 -9 -53 -8 -9 -18 -28 -22 -42 -4 -14 -20 -43 -36 -65 -15
-22 -30 -55 -34 -73 -4 -18 -13 -45 -21 -60 -8 -15 -14 -44 -14 -64 0 -32 -3
-37 -30 -43 -22 -5 -30 -13 -31 -28 -3 -99 -8 -118 -40 -163 -19 -26 -41 -55
-49 -64 -8 -10 -23 -26 -32 -36 -10 -10 -31 -32 -48 -49 -16 -16 -30 -35 -30
-42 0 -6 -9 -14 -19 -18 -11 -3 -22 -13 -25 -21 -3 -8 -10 -13 -15 -9 -6 3
-15 -4 -21 -15 -6 -11 -15 -20 -20 -20 -6 0 -34 24 -63 54 -50 51 -83 104
-107 169 -5 15 -16 27 -25 27 -29 0 81 172 136 211 32 23 33 22 19 -15 -8 -23
-6 -28 19 -41 17 -8 44 -41 66 -77 20 -35 52 -73 71 -86 35 -23 64 -29 64 -12
0 20 -80 187 -110 230 -16 22 -16 26 -2 48 15 23 15 26 -12 48 -30 27 -28 39
10 48 25 7 84 59 84 74 0 5 14 21 30 37 17 16 30 37 30 47 0 10 4 18 9 18 7 0
21 35 20 50 0 2 9 7 20 12 14 5 23 20 27 48 4 22 12 40 19 40 7 0 16 17 20 38
4 20 11 42 16 48 5 6 10 25 12 43 2 18 9 36 15 40 8 5 9 17 3 39 -10 33 4 57
15 28 3 -9 15 -16 25 -16 25 0 20 32 -9 63 -12 13 -20 26 -17 29 8 8 17 49 16
73 -1 29 31 139 42 147 6 3 12 26 13 50 2 30 25 87 79 193 42 83 82 155 89
160 7 6 28 42 47 82 l34 72 42 -43 c22 -24 61 -53 85 -65z m1773 45 c-2 -24
-8 -52 -13 -63 -8 -15 -10 -48 -13 -175 0 -15 -39 -48 -39 -34 0 3 -17 -1 -38
-8 -22 -8 -72 -17 -114 -21 l-74 -7 -18 74 c-24 99 -30 148 -16 148 6 0 8 5 5
10 -3 6 -1 10 4 10 6 0 11 7 11 15 0 8 -5 15 -11 15 -6 0 -9 5 -7 10 2 6 41
12 88 14 66 3 97 9 140 30 30 14 65 26 76 26 19 0 21 -5 19 -44z m-2280 -66
c22 -25 52 -58 67 -75 16 -16 28 -33 28 -37 0 -5 7 -8 15 -8 20 0 20 -2 -19
-106 -19 -50 -37 -114 -39 -142 -5 -53 -55 -171 -73 -171 -5 -1 -25 15 -44 34
-19 19 -39 35 -45 35 -7 0 -11 59 -13 178 -1 97 -3 182 -3 187 -3 26 11 97 20
109 7 9 7 16 -1 24 -8 8 -8 12 -1 12 6 0 13 10 16 21 6 21 6 21 29 3 13 -11
42 -39 63 -64z m5974 -111 c60 -18 182 -80 188 -95 3 -8 11 -14 18 -14 7 0 15
-8 18 -17 8 -26 40 -77 53 -85 6 -4 17 -22 24 -40 7 -18 19 -40 27 -49 8 -9
13 -20 11 -25 -2 -5 8 -27 21 -49 14 -22 33 -56 44 -75 11 -19 23 -37 26 -40
14 -10 48 -87 55 -124 4 -21 16 -55 27 -75 10 -20 19 -40 19 -46 0 -38 106
-182 161 -220 25 -18 61 -78 74 -125 4 -14 13 -32 20 -40 7 -8 20 -37 30 -65
10 -27 26 -58 34 -69 9 -10 15 -20 14 -22 -1 -2 9 -30 23 -61 30 -68 36 -127
17 -165 -7 -15 -13 -34 -13 -42 0 -26 -123 -204 -172 -249 l-30 -28 -62 41
c-35 22 -73 51 -86 65 -27 28 -35 30 -73 13 -27 -13 -33 -25 -19 -43 9 -14 97
-68 145 -90 20 -9 37 -20 37 -24 -1 -10 -106 -91 -118 -91 -17 0 -91 -39 -143
-76 -26 -18 -68 -44 -95 -58 -26 -14 -78 -56 -114 -94 -37 -38 -71 -71 -76
-73 -9 -4 -48 -62 -70 -104 -32 -60 -67 -121 -76 -132 -5 -7 -11 -38 -13 -70
-2 -32 -10 -76 -18 -98 -8 -24 -13 -79 -13 -137 1 -109 6 -102 -74 -99 -28 1
-92 -28 -97 -44 -1 -5 1 -16 6 -23 6 -11 20 -11 66 -3 71 13 128 14 121 2 -3
-5 -10 -73 -16 -152 -6 -78 -12 -145 -15 -147 -2 -3 -15 -6 -28 -7 -44 -5 -64
-22 -65 -55 0 -17 -5 -37 -10 -43 -15 -19 -42 -122 -42 -160 0 -19 -7 -51 -15
-72 -9 -20 -13 -45 -10 -56 4 -11 2 -19 -4 -19 -6 0 -11 -8 -11 -19 0 -26 -39
-111 -50 -111 -6 0 -10 -5 -10 -11 0 -6 -6 -16 -13 -24 -7 -7 -26 -28 -41 -46
l-28 -33 -80 28 c-74 26 -117 29 -103 6 3 -5 -1 -10 -9 -10 -9 0 -16 -3 -16
-7 1 -24 33 -41 93 -53 37 -7 67 -15 67 -19 -1 -8 -58 -71 -65 -71 -9 0 -45
-35 -45 -44 0 -11 -4 -16 -110 -128 -70 -74 -81 -90 -70 -103 7 -8 20 -15 30
-15 9 0 93 76 185 168 140 141 172 168 192 164 13 -2 26 -8 29 -13 8 -13 -26
-67 -71 -115 -22 -22 -50 -52 -62 -65 -13 -13 -37 -36 -55 -51 -18 -14 -54
-45 -79 -67 -25 -23 -51 -41 -56 -41 -6 0 -29 -14 -51 -30 -23 -17 -47 -30
-52 -30 -6 0 -13 -6 -16 -13 -3 -8 -37 -30 -77 -51 -40 -21 -87 -47 -105 -57
-33 -19 -33 -19 -27 1 4 14 2 20 -9 20 -11 0 -18 -13 -22 -39 -4 -22 -12 -42
-20 -45 -7 -3 -38 18 -69 47 l-56 52 32 43 c28 39 40 47 63 43 26 -5 52 18 92
79 24 38 56 81 71 97 26 27 71 88 126 173 28 43 57 118 57 147 0 12 6 28 13
35 21 23 147 285 147 307 0 6 14 33 30 61 17 28 30 55 30 60 0 14 2 13 59 -16
27 -15 57 -24 66 -21 18 8 16 57 -3 57 -7 0 -27 13 -45 30 -18 16 -35 30 -39
30 -13 0 -9 44 7 90 10 28 15 80 15 154 0 61 5 127 10 146 14 48 25 133 25
204 0 57 -1 60 -29 67 -43 12 -79 -8 -87 -48 -3 -18 -3 -33 1 -33 4 0 7 -18 8
-40 1 -22 2 -43 3 -47 4 -27 -2 -32 -27 -23 -14 6 -38 10 -54 10 -16 0 -32 5
-35 10 -4 6 -12 10 -18 9 -7 -1 -30 1 -51 6 -30 6 -47 4 -73 -10 -18 -10 -33
-22 -33 -26 0 -24 35 -37 122 -43 51 -4 108 -12 126 -19 29 -10 33 -15 26 -37
-4 -14 -8 -61 -10 -105 -4 -123 -21 -215 -38 -215 -6 0 -71 15 -144 34 -140
35 -154 35 -220 -2 -38 -22 -10 -42 57 -42 31 -1 83 -7 116 -14 58 -13 173
-51 183 -60 5 -6 -33 -89 -58 -126 -10 -14 -30 -63 -45 -110 -34 -107 -82
-195 -98 -181 -43 35 -353 74 -364 45 -2 -7 -11 -10 -18 -8 -21 8 -29 -16 -11
-34 13 -13 38 -17 109 -19 134 -2 257 -30 257 -59 0 -8 -4 -14 -10 -14 -5 0
-10 -17 -10 -39 0 -21 -6 -44 -14 -50 -7 -6 -33 -43 -57 -82 -24 -39 -56 -85
-72 -102 -15 -18 -41 -53 -58 -79 -17 -27 -37 -48 -45 -48 -7 0 -32 -29 -55
-65 -54 -87 -133 -155 -249 -215 -194 -103 -224 -124 -365 -261 -27 -26 -58
-60 -68 -74 -18 -26 -69 -35 -82 -15 -3 6 -19 10 -35 10 -15 0 -61 12 -102 26
-40 14 -81 28 -90 31 -27 8 -22 17 22 48 22 15 40 32 40 38 0 6 8 4 18 -5 27
-22 64 -35 98 -34 25 1 34 -5 43 -26 16 -35 50 -47 68 -22 7 10 12 23 10 28
-2 6 7 22 20 36 13 14 28 41 34 60 7 19 15 40 19 45 4 6 17 37 30 70 13 33 38
90 57 126 18 36 33 72 33 80 1 11 3 11 13 -2 29 -38 97 -45 97 -10 0 9 5 22
12 29 7 7 9 12 5 12 -4 0 -2 10 5 22 7 13 12 26 13 29 1 20 42 79 55 79 20 -1
102 -30 165 -60 47 -22 87 -39 110 -48 6 -2 -1 5 -15 17 -28 22 -143 81 -160
81 -6 0 -25 10 -43 22 -18 13 -34 24 -36 25 -2 2 10 34 27 71 18 38 32 73 32
79 0 10 22 54 87 177 12 22 22 48 22 57 1 8 12 26 26 39 13 12 22 26 19 31 -2
4 18 45 44 91 27 46 61 115 75 153 65 173 107 293 117 335 7 25 27 83 45 130
18 47 36 94 40 105 14 36 17 117 5 125 -13 8 22 124 46 151 8 8 14 18 14 22 0
3 23 41 50 84 28 43 55 85 60 93 5 8 30 45 55 82 25 37 45 71 45 77 0 5 14 23
30 41 17 18 33 43 36 56 3 13 10 24 15 24 5 0 9 9 9 19 0 11 4 21 9 23 5 2 13
15 16 31 6 21 4 27 -9 27 -9 0 -16 -4 -16 -9 0 -5 -9 -11 -19 -14 -10 -2 -27
-21 -36 -41 -10 -20 -25 -42 -35 -49 -9 -7 -20 -23 -23 -38 -4 -14 -20 -38
-36 -55 -17 -16 -31 -39 -31 -52 0 -12 -12 -35 -28 -50 -15 -15 -35 -43 -44
-62 -9 -20 -28 -49 -42 -65 -14 -17 -26 -36 -26 -43 0 -7 -11 -30 -25 -50 -14
-20 -25 -43 -25 -50 0 -8 -8 -31 -19 -51 -33 -65 -66 -145 -59 -147 2 0 -3 -9
-11 -18 -12 -14 -12 -18 2 -29 14 -11 10 -29 -34 -167 -28 -85 -54 -164 -58
-175 -18 -45 -34 -81 -42 -97 -5 -10 -9 -27 -9 -37 0 -11 -4 -22 -9 -25 -4 -3
-14 -26 -21 -51 -7 -25 -17 -48 -21 -51 -5 -3 -27 -43 -49 -90 -39 -82 -42
-86 -68 -81 -15 4 -49 11 -77 17 -108 22 -174 30 -262 30 -76 0 -98 -4 -127
-21 -33 -19 -36 -20 -36 -3 0 10 5 31 10 48 6 17 19 58 29 91 31 94 63 179 73
192 5 6 16 9 23 7 8 -3 28 5 45 18 30 22 40 23 178 22 101 -1 162 -7 195 -17
26 -8 55 -14 65 -12 9 2 22 4 28 4 7 1 14 10 17 21 8 30 -36 48 -150 61 -54 6
-119 15 -145 19 -60 12 -125 4 -165 -20 -18 -11 -33 -15 -33 -9 0 14 101 167
129 196 11 12 21 27 21 32 0 6 6 14 13 18 8 4 42 51 78 103 35 52 67 97 70
100 3 3 18 31 34 62 32 64 133 186 171 206 15 8 24 21 24 37 0 13 5 27 10 30
6 4 8 16 5 27 -4 12 0 27 11 39 41 46 144 246 144 281 0 10 4 26 9 36 35 70
50 117 56 180 7 71 8 74 31 69 25 -4 39 14 35 46 -2 10 4 26 12 35 8 10 31 49
52 89 39 73 109 163 127 163 29 0 198 166 198 195 0 17 46 65 63 65 16 0 17 3
7 15 -10 12 -8 22 11 53 14 20 30 55 37 77 10 30 65 161 78 183 4 6 195 2 204
-3 5 -3 5 -16 0 -29 -4 -12 -11 -47 -14 -77 -6 -52 -41 -174 -56 -194 -4 -5
-11 -26 -15 -45 -4 -19 -11 -49 -17 -66 l-11 -32 -126 -4 c-157 -5 -202 -27
-153 -72 17 -14 22 -15 48 -2 35 18 194 33 194 19 0 -14 -32 -77 -42 -84 -9
-6 -58 -127 -58 -145 0 -7 -3 -14 -7 -16 -5 -1 -19 -24 -32 -50 -27 -53 -35
-58 -110 -64 -48 -3 -148 -25 -191 -42 -8 -3 -17 -6 -20 -7 -3 -1 -12 -4 -20
-7 -8 -3 -28 -9 -44 -14 -16 -5 -31 -14 -33 -19 -5 -16 45 -17 127 -1 108 21
213 31 209 19 -2 -6 -14 -23 -26 -39 -43 -55 -93 -134 -86 -134 5 0 33 33 63
72 101 131 83 120 190 120 52 0 114 -5 138 -11 46 -13 62 -9 62 16 0 10 6 13
16 9 15 -6 15 -4 2 16 -23 35 -82 50 -175 45 -46 -3 -83 -2 -83 1 0 3 11 25
25 49 14 23 24 43 21 43 -3 0 10 27 29 59 19 33 35 64 35 69 0 5 14 28 30 50
17 23 30 46 30 52 0 17 47 23 125 15 l75 -7 0 26 c0 34 -11 39 -92 38 -60 0
-68 2 -64 16 2 9 7 34 11 56 6 36 29 94 62 158 7 15 13 30 12 35 -1 4 1 15 4
23 3 8 7 44 9 80 l3 65 71 -2 c39 -1 101 -9 139 -18 55 -12 70 -13 77 -3 13
21 9 28 -19 39 -16 7 -37 15 -48 20 -11 5 -57 13 -102 20 l-83 11 0 41 c0 22
8 80 17 129 15 78 15 90 3 99 -32 20 -45 5 -51 -56 -4 -33 -10 -85 -14 -115
-4 -30 -8 -62 -9 -71 0 -14 -15 -16 -103 -15 -72 1 -103 5 -103 13 0 6 4 14 8
17 5 3 14 31 21 63 7 32 23 83 34 113 12 30 22 57 23 60 0 3 6 17 12 33 32 76
52 156 58 228 7 87 3 92 -51 67 -18 -8 -25 -18 -22 -30 6 -19 -9 -91 -25 -125
-6 -11 -8 -26 -4 -31 3 -6 2 -13 -4 -17 -5 -3 -10 -16 -10 -29 0 -13 -9 -31
-20 -41 -10 -9 -19 -20 -18 -24 1 -3 -8 -37 -20 -75 -12 -37 -22 -76 -22 -87
0 -10 -6 -33 -14 -51 -8 -18 -29 -71 -47 -118 -18 -47 -40 -94 -51 -106 -10
-11 -18 -30 -18 -42 0 -11 -4 -24 -10 -27 -5 -3 -10 -14 -10 -24 0 -10 -11
-39 -25 -63 l-25 -45 -68 12 c-102 19 -248 43 -337 56 -135 19 -157 22 -171
31 -6 4 -20 -6 -32 -21 -17 -23 -19 -31 -9 -40 7 -5 82 -17 167 -26 85 -9 175
-20 200 -25 25 -5 61 -11 80 -14 138 -18 144 -21 115 -50 -8 -8 -15 -17 -15
-21 0 -16 -57 -78 -108 -117 -31 -24 -64 -50 -73 -58 -34 -32 -97 -128 -128
-195 -35 -76 -37 -80 -64 -118 -20 -27 -47 -117 -47 -154 0 -20 -6 -36 -45
-128 -22 -51 -29 -69 -30 -86 -4 -31 -47 -109 -66 -120 -10 -5 -19 -19 -19
-29 0 -11 -7 -28 -15 -37 -9 -10 -31 -35 -49 -56 -19 -21 -42 -54 -51 -74 -9
-19 -45 -68 -79 -107 -33 -39 -70 -88 -81 -109 -11 -21 -28 -43 -37 -48 -10
-5 -18 -18 -18 -28 0 -20 -93 -151 -116 -164 -8 -4 -36 -43 -64 -85 -27 -42
-53 -82 -57 -88 -10 -13 -20 -28 -82 -129 -48 -78 -103 -208 -151 -353 l-23
-72 -36 7 c-20 5 -67 7 -104 6 l-68 -3 2 38 c2 20 6 42 10 47 4 6 10 42 13 80
3 39 13 95 21 125 8 30 15 64 15 75 1 39 16 48 87 50 103 4 105 4 97 16 -3 6
-1 15 7 19 10 7 10 11 -1 25 -12 14 -26 16 -87 10 -76 -7 -79 -6 -64 23 5 9
21 46 36 82 15 36 34 72 42 81 8 9 35 57 61 105 l47 89 132 -3 c122 -4 135 -2
159 17 l26 21 -24 9 c-13 5 -70 12 -125 16 -55 4 -106 11 -112 14 -7 5 -1 26
19 66 16 32 30 64 30 71 0 7 11 30 25 50 14 20 25 43 25 50 0 8 5 14 10 14 6
0 10 10 10 23 0 13 4 27 8 33 4 5 14 27 21 49 7 22 20 56 28 75 9 19 18 44 19
55 1 11 10 47 19 79 8 33 16 79 17 103 2 43 4 44 29 39 43 -8 60 19 46 72 -10
39 -8 52 23 145 43 131 126 309 172 369 20 26 53 82 75 124 57 113 65 129 75
132 4 2 8 8 8 13 0 12 52 93 63 97 4 2 7 14 7 27 0 12 6 28 13 34 8 6 24 30
36 54 12 24 33 56 47 70 13 14 24 31 24 37 0 5 3 10 8 10 4 0 18 17 32 37 14
20 30 41 35 47 6 6 17 25 25 41 28 56 85 140 119 175 44 46 53 70 33 93 -8 9
-20 17 -26 17 -17 0 -86 -60 -97 -84 -5 -11 -25 -46 -44 -76 -19 -30 -42 -69
-50 -86 -9 -17 -33 -50 -55 -75 -22 -24 -62 -78 -90 -119 -27 -41 -54 -80 -60
-87 -5 -7 -10 -17 -10 -23 0 -11 -11 -26 -41 -58 -9 -9 -20 -32 -24 -50 -4
-18 -18 -45 -31 -59 -14 -15 -48 -74 -76 -130 -28 -57 -57 -110 -65 -118 -32
-33 -132 -247 -169 -364 -35 -110 -42 -125 -66 -133 -27 -10 -28 -12 -25 -68
4 -67 -18 -257 -32 -274 -5 -6 -19 -45 -32 -86 -13 -41 -27 -77 -30 -80 -3 -3
-10 -16 -14 -30 -4 -14 -20 -46 -36 -71 -16 -25 -29 -49 -29 -53 0 -4 -16 -43
-37 -87 l-36 -80 -106 6 c-58 3 -114 8 -124 11 -28 9 -117 -27 -117 -47 0 -37
27 -44 167 -41 l135 3 -7 -23 c-4 -13 -11 -27 -16 -32 -5 -6 -9 -16 -9 -23 0
-7 -18 -43 -40 -79 -22 -36 -40 -72 -40 -78 0 -7 -11 -35 -25 -62 -14 -27 -25
-54 -25 -60 0 -28 -47 -61 -105 -73 -33 -7 -70 -19 -82 -27 -12 -8 -28 -14
-34 -14 -18 0 -99 -42 -99 -52 0 -4 -4 -8 -8 -8 -19 0 -8 78 19 135 16 34 29
67 29 73 0 6 20 52 44 104 24 51 47 113 51 138 4 25 12 56 18 70 6 14 12 41
14 60 6 53 22 98 38 104 8 3 15 11 15 19 0 7 31 45 69 83 39 38 80 84 93 101
13 18 38 52 56 77 18 26 30 46 27 46 -4 0 3 13 14 29 12 16 21 34 21 40 0 6 5
20 10 31 6 11 14 29 20 40 25 50 50 174 50 252 0 45 2 106 4 133 3 28 -2 88
-11 135 -8 47 -16 93 -17 102 -1 10 -5 21 -9 24 -4 4 -7 17 -7 28 0 12 -7 40
-15 64 -9 24 -18 67 -22 95 -7 63 -8 205 -1 232 3 11 8 34 13 50 24 96 56 173
92 221 13 17 23 34 23 37 0 9 30 45 63 75 15 14 27 31 27 39 0 7 10 17 23 22
12 5 49 35 82 66 33 31 85 73 115 93 30 20 62 43 71 51 41 39 62 52 106 62 26
5 50 13 53 18 9 13 130 61 171 67 22 4 42 10 45 15 10 17 84 29 219 34 122 5
148 10 214 35 42 17 84 30 93 30 9 0 38 11 65 24 47 23 137 64 198 90 17 7 48
22 70 33 48 25 58 26 104 12z m-4640 -41 c9 -29 24 -329 22 -433 -1 -22 -13
-89 -27 -150 -14 -60 -30 -132 -36 -160 -6 -27 -20 -65 -31 -83 -11 -19 -22
-52 -25 -75 -2 -22 -13 -60 -23 -85 -11 -24 -19 -50 -19 -58 0 -8 -5 -14 -11
-14 -5 0 -7 -5 -4 -11 4 -6 -2 -20 -12 -32 -25 -27 -89 -139 -85 -149 1 -5 -2
-8 -6 -8 -4 0 -16 -14 -26 -32 -11 -17 -35 -45 -55 -62 -20 -17 -49 -46 -65
-63 -16 -18 -33 -33 -37 -33 -12 0 -67 84 -75 113 -3 15 -10 27 -14 27 -5 0
-13 15 -19 33 -6 18 -29 51 -51 74 -37 37 -39 41 -27 66 6 15 20 30 30 33 9 3
17 12 17 20 0 8 4 14 8 14 5 0 33 35 62 78 30 42 59 82 66 87 21 18 94 134 94
149 0 8 4 16 9 18 9 3 113 195 109 200 -6 8 55 229 68 247 2 2 23 -6 47 -17
57 -27 82 -31 82 -12 0 9 -22 24 -53 36 -29 12 -57 25 -62 30 -5 5 7 47 27 98
19 50 38 108 42 130 6 38 18 48 63 55 3 1 11 -14 17 -31z m1801 -2 c0 -16 21
-64 55 -125 14 -24 28 -60 31 -80 4 -20 10 -38 13 -41 14 -11 32 -63 24 -70
-16 -13 -89 -31 -113 -27 -26 4 -58 54 -60 92 0 11 -6 30 -13 41 -34 59 -55
102 -60 125 -6 23 -1 31 46 62 56 39 77 45 77 23z m-2460 -23 c0 8 44 -15 123
-66 31 -20 60 -37 63 -37 3 0 53 -28 110 -62 76 -44 103 -65 100 -77 -3 -9
-12 -44 -22 -78 -9 -35 -20 -63 -23 -63 -4 0 -8 -14 -9 -32 -2 -17 -6 -36 -11
-42 -4 -6 -11 -25 -14 -43 -4 -17 -16 -52 -27 -77 l-22 -45 -41 20 c-23 12
-50 25 -59 30 -10 5 -27 9 -38 9 -11 0 -20 5 -20 10 0 6 -6 10 -12 10 -11 0
-99 39 -138 62 -8 5 -42 22 -75 38 -33 16 -73 40 -88 52 l-28 23 26 50 c44 86
70 130 77 133 4 2 10 19 14 38 3 19 10 34 14 34 5 0 12 10 15 21 13 40 68 110
77 96 4 -6 8 -9 8 -4z m914 -49 c14 -15 26 -32 27 -38 0 -6 3 -20 5 -31 8 -34
13 -168 8 -195 -5 -23 -10 -25 -62 -25 -31 0 -69 -4 -83 -8 l-25 -8 -2 106 c0
58 -3 109 -6 114 -3 5 -3 30 1 56 6 44 7 47 32 42 15 -3 33 -2 41 4 23 14 35
11 64 -17z m1346 -20 c0 -8 9 -23 20 -34 11 -11 17 -20 14 -20 -4 0 5 -15 20
-34 14 -19 26 -41 26 -49 0 -8 14 -44 31 -80 26 -56 28 -68 17 -86 -11 -17
-10 -22 5 -33 24 -18 61 -205 58 -292 -2 -75 -13 -106 -36 -106 -9 0 -23 -4
-33 -9 -32 -18 -177 -63 -225 -71 -48 -7 -48 -7 -43 19 9 42 10 123 2 158 -6
28 -3 36 31 71 34 35 87 74 148 107 66 37 73 46 57 72 -6 10 -24 7 -78 -11
-120 -41 -139 -48 -156 -64 -10 -8 -18 -11 -19 -6 0 5 -2 18 -4 29 -5 25 -17
105 -20 125 -1 8 -5 58 -9 110 l-8 95 68 60 c82 74 105 87 121 73 7 -6 13 -17
13 -24z m-667 -26 c4 -12 1 -28 -5 -35 -7 -9 -7 -17 2 -28 7 -8 10 -25 6 -40
-4 -14 -2 -25 4 -25 5 0 10 -8 10 -18 0 -10 5 -23 11 -29 6 -6 12 -36 14 -67
2 -31 8 -62 13 -69 20 -25 -4 -50 -68 -73 -67 -24 -83 -27 -136 -25 -25 1 -33
6 -36 25 -3 14 -1 29 4 34 5 5 2 27 -7 51 -8 23 -14 45 -13 49 3 14 -15 89
-34 135 -10 27 -16 52 -13 57 3 4 21 11 42 15 20 4 54 15 75 26 31 16 82 32
119 38 4 1 9 -9 12 -21z m-2328 -353 c24 -24 29 -37 27 -65 -1 -19 -6 -42 -9
-50 -23 -55 -41 -116 -37 -122 3 -5 0 -8 -5 -8 -6 0 -11 -9 -11 -20 0 -11 -4
-20 -10 -20 -5 0 -10 -10 -10 -23 0 -13 -9 -33 -21 -45 -11 -12 -17 -27 -14
-32 3 -5 -3 -18 -15 -30 -11 -11 -20 -24 -20 -29 0 -5 -13 -19 -30 -31 -16
-12 -30 -27 -30 -33 0 -19 -52 -72 -83 -85 -27 -11 -29 -10 -42 22 -15 37 -52
69 -67 60 -5 -3 -13 -17 -18 -30 -9 -23 -2 -46 41 -126 13 -25 11 -48 -4 -48
-7 0 -19 -9 -27 -20 -8 -11 -19 -20 -25 -20 -5 0 -17 -11 -25 -24 -8 -12 -39
-58 -67 -100 l-52 -78 -26 57 c-14 32 -25 61 -25 66 0 25 -35 91 -53 101 -18
9 -25 6 -49 -22 l-27 -33 24 -24 c13 -14 27 -39 31 -56 3 -18 22 -64 40 -104
19 -39 34 -75 34 -81 0 -5 -13 -36 -29 -68 -16 -32 -52 -104 -79 -160 -55
-113 -41 -108 -126 -39 -50 40 -156 95 -183 95 -12 0 -24 -6 -26 -12 -3 -8 -6
-7 -6 4 -1 19 17 70 27 78 4 3 13 23 21 45 13 36 56 112 72 125 3 3 14 21 25
40 29 53 74 110 123 155 24 22 71 66 104 98 54 50 76 64 91 55 2 -2 14 9 25
24 23 29 78 66 114 76 30 9 89 57 188 154 58 57 84 91 100 130 11 29 28 61 36
71 9 9 13 17 10 17 -4 0 -2 12 4 28 13 33 18 58 21 97 1 17 5 35 10 41 5 7 8
16 7 20 -1 5 -1 18 0 28 1 19 1 19 24 0 12 -10 36 -32 52 -49z m1670 43 c-3
-13 -7 -34 -9 -48 -6 -38 -66 -218 -91 -275 -12 -27 -35 -83 -50 -123 -16 -40
-32 -75 -35 -77 -4 -3 -21 8 -38 23 l-30 27 19 55 c20 57 43 162 65 295 13 80
27 109 59 118 17 5 37 13 45 18 8 4 27 8 43 8 23 1 27 -2 22 -21z m-1108 -99
c141 -66 284 -117 386 -136 15 -3 29 -9 32 -12 4 -7 -47 -111 -66 -135 -49
-62 -116 -158 -145 -206 -29 -50 -60 -88 -144 -179 -31 -34 -48 -68 -53 -111
-14 -110 -18 -120 -57 -147 -21 -15 -43 -42 -49 -60 -7 -17 -26 -43 -42 -58
-17 -14 -28 -25 -24 -25 3 0 -5 -15 -19 -33 -14 -19 -23 -37 -19 -40 3 -4 1
-7 -4 -7 -6 0 -32 -29 -57 -64 -25 -35 -52 -66 -60 -69 -14 -6 -35 -33 -114
-153 -15 -23 -40 -52 -57 -64 -16 -13 -55 -52 -85 -86 l-55 -64 -11 38 c-17
54 -41 165 -56 252 -7 41 -16 78 -21 81 -10 7 57 87 101 120 18 13 40 37 48
53 9 15 35 47 58 71 24 23 46 50 49 59 6 15 10 15 39 3 18 -8 61 -17 95 -21
35 -4 74 -13 89 -21 28 -14 54 -10 54 9 0 25 -137 113 -204 130 -19 5 -26 13
-26 30 0 14 5 26 10 28 7 2 7 14 -1 37 -9 26 -9 46 0 85 16 66 29 104 47 139
9 15 13 27 10 27 -13 0 86 174 101 176 20 3 71 -22 162 -80 36 -23 82 -50 101
-60 19 -9 46 -24 60 -31 39 -23 38 7 -2 48 -39 40 -141 117 -155 117 -5 0 -18
9 -28 20 -10 11 -23 20 -28 20 -6 0 -25 11 -44 25 l-33 26 19 37 c10 20 24 55
31 77 18 57 71 195 75 195 2 0 43 -19 92 -41z m1844 -16 c20 -115 33 -358 24
-441 -6 -54 -9 -62 -23 -56 -97 40 -213 67 -251 57 -15 -4 -21 -13 -21 -33 0
-41 27 -59 85 -57 28 1 80 -2 118 -7 53 -6 67 -11 67 -24 0 -25 -11 -37 -46
-50 l-30 -13 1 -107 c2 -109 -5 -141 -37 -178 -10 -11 -18 -25 -18 -31 0 -15
-20 -52 -51 -93 -15 -19 -29 -47 -33 -62 -3 -15 -13 -33 -21 -42 -8 -8 -15
-18 -15 -23 0 -4 -14 -21 -30 -37 -17 -16 -30 -33 -30 -37 0 -4 -21 -17 -46
-29 -25 -12 -58 -36 -74 -53 l-29 -31 -20 25 c-11 13 -20 27 -21 32 0 4 -12
21 -27 37 -20 23 -35 30 -65 30 -21 0 -38 5 -38 10 0 6 4 10 10 10 5 0 47 37
94 83 135 131 119 121 185 104 96 -26 133 -30 142 -15 16 24 10 48 -12 48 -35
0 -130 53 -156 87 -16 21 -34 33 -49 33 -29 0 -30 10 -5 58 11 20 24 48 29 62
5 14 19 48 31 77 12 28 21 59 21 67 0 9 4 24 9 34 20 39 60 179 76 267 4 22 7
79 6 126 l-2 85 83 28 c46 16 99 37 118 47 39 20 49 23 51 12z m-358 -61 c-2
-12 1 -22 5 -22 5 0 9 -19 9 -42 0 -24 1 -52 2 -63 5 -49 -20 -207 -39 -250
-4 -11 -23 -67 -41 -125 -18 -58 -38 -114 -46 -126 -7 -11 -10 -24 -6 -27 3
-4 2 -7 -4 -7 -6 0 -21 -26 -34 -57 -12 -32 -26 -60 -29 -63 -4 -3 -14 -19
-23 -36 -9 -17 -27 -42 -41 -55 -14 -13 -26 -28 -26 -32 0 -8 -7 -16 -87 -104
-94 -102 -120 -128 -148 -148 -35 -24 -56 -45 -70 -70 -9 -15 -15 -16 -32 -6
-12 6 -51 11 -87 11 l-66 0 14 34 c13 32 26 50 123 179 60 78 79 115 92 177
11 51 34 90 53 90 4 0 45 18 90 40 46 22 89 40 96 40 7 0 26 7 42 15 16 8 50
17 77 21 55 6 58 8 49 30 -5 14 -17 15 -79 11 -93 -8 -185 -25 -217 -42 -36
-20 -130 -48 -137 -41 -3 3 0 42 7 86 10 62 16 80 27 76 7 -3 51 14 96 38 80
43 142 65 202 71 96 10 125 18 125 34 0 17 -1 17 -111 21 -63 3 -199 -17 -209
-30 -3 -4 -17 -10 -32 -13 -25 -7 -26 -6 -18 20 20 71 103 259 118 270 10 7
23 17 29 23 7 6 23 15 35 20 13 6 30 14 38 19 41 25 167 56 225 56 25 0 30 -4
28 -23z m1112 -301 c17 -28 4 -221 -16 -221 -5 0 -9 -5 -9 -12 0 -19 -33 -88
-42 -88 -5 0 -11 7 -15 16 -5 13 -16 15 -62 10 -31 -4 -78 -9 -104 -12 -27 -3
-66 -2 -89 1 -35 6 -39 10 -34 29 4 11 14 55 22 96 l16 75 49 1 c27 1 57 8 67
16 9 8 40 25 67 38 28 13 66 31 85 41 39 21 56 23 65 10z m-1710 -91 c17 -19
17 -25 5 -73 -18 -72 -22 -267 -5 -267 17 0 24 -20 18 -53 l-5 -27 -139 5
c-76 3 -148 9 -160 13 -20 8 -18 11 25 47 26 23 48 51 51 67 4 16 10 28 15 28
4 0 12 13 18 28 5 16 16 35 24 43 17 18 58 95 58 112 0 7 9 31 20 55 21 47 46
54 75 22z m-682 -280 c26 -32 47 -65 47 -73 0 -8 7 -20 15 -27 8 -7 15 -16 15
-21 0 -19 66 -98 83 -98 20 -1 22 -12 6 -28 -24 -24 -49 -120 -54 -203 -11
-175 -12 -177 -47 -222 -19 -24 -47 -72 -63 -108 -40 -94 -43 -96 -79 -62 -17
16 -47 40 -67 53 -55 37 -107 85 -134 125 -21 30 -25 49 -25 105 0 38 -3 69
-7 69 -5 0 -13 11 -19 24 -12 25 -15 20 109 160 42 48 52 66 53 97 0 21 5 44
11 51 6 7 13 42 17 77 3 36 13 72 21 81 8 9 15 22 15 28 0 12 28 32 45 31 6 0
31 -26 58 -59z m2296 -9 c-7 -23 -18 -46 -26 -52 -7 -6 -13 -19 -13 -28 0 -9
-9 -27 -20 -41 -11 -14 -20 -32 -20 -41 0 -9 -11 -37 -25 -63 -14 -26 -25 -54
-25 -62 0 -38 -161 1 -216 53 -16 15 -44 34 -61 43 l-33 16 38 46 c20 26 45
59 55 73 12 17 27 25 47 25 28 0 231 49 280 68 14 5 26 8 28 7 2 -2 -2 -22 -9
-44z m-1845 -203 c108 0 170 5 199 17 9 4 17 3 17 -2 0 -14 -55 -96 -78 -117
-12 -11 -22 -24 -22 -31 0 -7 -9 -20 -19 -29 -11 -10 -31 -41 -45 -70 -14 -29
-37 -65 -50 -79 -13 -14 -36 -51 -50 -81 -27 -56 -42 -68 -52 -42 -3 8 -34 19
-72 26 -115 22 -108 14 -105 126 2 53 8 103 13 109 5 7 8 14 5 17 -13 13 29
113 63 148 36 37 38 37 66 23 21 -11 60 -15 130 -15z m716 2 c0 -14 -51 -70
-75 -82 -18 -10 -18 -8 3 14 12 13 22 27 22 31 0 10 33 47 42 47 5 0 8 -5 8
-10z m670 -88 c0 -5 21 -13 48 -20 179 -44 225 -53 238 -48 16 6 18 -7 4 -34
-5 -10 -12 -36 -16 -57 -3 -21 -7 -45 -9 -53 -3 -8 1 -26 8 -40 17 -33 5 -196
-18 -241 -19 -35 -24 -42 -72 -96 -18 -20 -33 -42 -33 -50 0 -7 -14 -26 -31
-41 -73 -64 -151 -149 -243 -262 -24 -30 -76 -88 -115 -129 -39 -41 -71 -79
-71 -83 0 -4 -8 -8 -18 -8 -9 0 -29 -11 -43 -24 -15 -14 -33 -26 -42 -28 -18
-4 -138 92 -167 132 -11 16 -30 32 -41 35 -21 7 -20 8 7 34 45 43 66 72 75
105 5 17 24 47 42 67 17 21 39 45 49 55 9 11 28 30 42 43 23 20 32 48 27 87
-1 6 17 29 38 52 38 40 47 61 84 197 5 22 34 90 64 152 29 61 53 118 53 126 0
22 27 39 50 32 32 -10 49 10 43 52 -4 26 -3 34 5 29 7 -4 12 -1 12 8 0 9 7 16
15 16 8 0 15 -4 15 -8z m-3089 -49 c31 -50 57 -74 93 -88 17 -7 46 -18 64 -24
17 -7 32 -16 32 -20 0 -3 -16 -20 -37 -36 -20 -17 -50 -45 -67 -64 -17 -19
-53 -56 -81 -84 -27 -27 -49 -53 -48 -57 4 -14 -40 -46 -44 -33 -8 23 -74 103
-85 103 -21 0 4 94 43 163 21 38 39 72 39 76 0 7 28 64 43 89 13 20 24 14 48
-25z m2872 -3 c26 -8 37 -16 33 -25 -3 -8 -10 -33 -16 -57 -12 -44 -58 -130
-72 -136 -4 -2 -8 -10 -8 -18 0 -8 -11 -41 -25 -74 -14 -33 -27 -76 -30 -97
-15 -103 -24 -105 -71 -15 -36 68 -53 116 -61 165 -3 18 -10 36 -16 40 -9 6
-6 12 7 20 32 20 96 91 96 107 0 8 9 26 20 40 11 14 20 31 20 38 0 6 5 12 10
12 6 0 10 6 10 14 0 14 15 12 103 -14z m-3443 -104 c0 -3 -4 -8 -10 -11 -5 -3
-10 -1 -10 4 0 6 5 11 10 11 6 0 10 -2 10 -4z m-2 -56 c6 -11 18 -17 25 -15
23 9 105 -22 156 -59 27 -20 56 -36 64 -36 32 0 32 -10 -8 -160 -10 -36 -25
-83 -35 -105 -44 -99 -54 -175 -24 -175 8 0 14 5 14 12 0 6 3 9 6 5 12 -11 60
49 81 103 12 30 28 69 34 85 7 17 13 32 14 35 1 3 7 24 14 48 6 23 15 42 19
42 5 0 19 -13 32 -30 14 -16 35 -29 48 -30 12 0 22 -3 22 -6 0 -6 -68 -103
-80 -114 -3 -3 -14 -22 -24 -42 -11 -21 -22 -38 -25 -38 -6 0 -26 -37 -51 -95
-7 -16 -12 -39 -11 -50 1 -11 -5 -40 -14 -65 -13 -38 -14 -46 -1 -58 26 -26
66 -2 97 59 16 29 29 65 29 77 0 22 26 80 41 92 4 3 24 32 45 65 20 33 41 64
46 70 4 5 17 21 28 35 16 20 19 22 20 8 0 -10 4 -18 9 -18 5 0 8 -8 7 -17 -2
-10 1 -31 6 -48 14 -48 17 -57 29 -109 8 -33 17 -50 30 -53 10 -3 19 -9 19
-13 0 -5 -41 -30 -91 -56 -98 -52 -254 -186 -245 -210 3 -7 2 -15 -2 -18 -4
-2 -8 -61 -10 -131 l-3 -126 46 -45 c26 -24 50 -44 55 -44 16 0 21 19 10 40
-20 38 -24 63 -24 195 -1 115 1 133 18 153 11 12 26 22 33 22 7 0 13 4 13 10
0 5 11 12 25 16 14 3 29 12 33 18 6 12 112 66 127 66 4 0 5 -10 4 -22 -2 -13
-1 -27 3 -33 3 -5 11 -30 18 -55 6 -25 18 -52 25 -60 7 -8 18 -49 24 -90 9
-62 16 -79 39 -98 15 -12 26 -27 24 -33 -4 -15 28 -23 40 -11 9 9 9 18 1 34
-17 36 -40 134 -72 308 -7 36 -19 70 -27 77 -12 9 -6 14 36 28 28 9 54 23 57
31 3 8 9 11 15 8 10 -6 106 56 152 99 16 15 34 26 40 24 6 -1 25 -30 42 -64
16 -34 38 -71 47 -81 10 -11 15 -26 11 -36 -14 -37 49 -117 110 -139 23 -9 22
-5 -34 156 -42 124 -79 205 -104 230 -14 13 -13 17 4 38 29 36 33 40 96 101
33 31 86 94 119 141 90 128 106 132 119 34 7 -53 42 -112 93 -158 34 -31 155
-109 169 -109 14 0 64 -24 64 -30 0 -3 -19 -25 -41 -49 -22 -24 -49 -61 -60
-83 -11 -21 -26 -41 -34 -45 -8 -3 -15 -11 -15 -17 0 -7 -45 -57 -101 -112
-126 -123 -137 -134 -146 -134 -4 0 -16 -9 -27 -19 -24 -23 -203 -131 -216
-131 -5 0 -15 -6 -22 -12 -21 -20 -56 -38 -73 -38 -8 0 -15 -4 -15 -9 0 -5
-15 -14 -32 -21 -18 -7 -82 -36 -143 -65 -120 -58 -207 -93 -300 -120 -68 -21
-127 -68 -123 -100 2 -15 12 -21 42 -23 22 -2 49 1 60 7 63 30 116 49 116 40
0 -5 -6 -12 -14 -15 -12 -5 -11 -11 5 -37 10 -18 19 -39 19 -48 0 -35 41 -149
54 -149 7 0 23 -11 35 -24 22 -23 22 -26 7 -47 -15 -22 -14 -24 12 -41 15 -10
42 -18 61 -18 30 0 33 -2 27 -24 -7 -28 36 -111 66 -127 11 -6 17 -13 14 -16
-3 -4 0 -13 7 -21 10 -13 5 -14 -42 -8 -29 4 -63 14 -75 22 -13 8 -26 11 -29
7 -4 -3 -7 -2 -7 4 0 6 -10 13 -22 17 -13 3 -40 21 -61 41 -21 19 -47 35 -58
35 -10 0 -19 5 -19 10 0 6 -10 15 -22 21 -46 20 -65 35 -119 92 -31 31 -54 57
-52 57 1 0 -6 15 -17 33 -11 17 -20 39 -20 48 0 9 -9 24 -19 33 -11 10 -23 36
-26 58 -4 21 -13 42 -20 44 -7 3 -16 16 -19 30 -4 13 -11 24 -16 24 -6 0 -10
8 -10 18 0 19 -70 119 -93 134 -9 6 -9 10 3 18 8 5 10 10 4 10 -6 0 -27 11
-47 24 -20 14 -46 26 -58 28 -12 2 -27 12 -33 23 -6 11 -17 25 -25 31 -12 9
-11 12 3 17 9 4 16 12 15 19 -8 64 9 83 75 80 58 -2 59 -2 113 62 l22 26 -25
25 c-14 14 -22 25 -17 25 18 0 -17 21 -43 26 -16 3 -37 7 -46 10 -9 3 -25 -4
-35 -15 -10 -11 -23 -17 -29 -13 -7 4 -24 48 -38 97 -15 50 -32 101 -37 114
-15 37 -24 141 -11 141 6 0 5 11 -4 29 -20 40 -37 233 -25 278 6 20 8 40 5 45
-7 11 24 118 34 118 4 0 13 -9 20 -20z m2927 -141 c6 -17 2 -27 -14 -40 -27
-22 -43 -70 -42 -123 1 -28 -5 -43 -19 -53 -11 -8 -20 -20 -20 -28 0 -8 -8
-19 -19 -24 -16 -9 -20 -3 -36 54 -9 35 -18 84 -19 107 -3 54 -14 78 -35 78
-9 0 -22 4 -30 9 -11 7 2 25 54 78 l69 69 52 -52 c29 -29 55 -62 59 -75z
m-268 89 c-13 -13 -26 -31 -30 -40 -3 -10 -14 -18 -23 -18 -12 0 -8 10 16 40
17 22 38 40 46 40 11 0 8 -7 -9 -22z m-1807 -143 c37 -135 54 -175 75 -175 8
0 15 -7 15 -15 0 -9 7 -18 14 -21 23 -9 -88 -115 -153 -147 -86 -42 -95 -39
-114 41 -17 73 -43 171 -57 215 -5 18 -4 35 3 50 18 33 171 188 178 179 3 -4
20 -61 39 -127z m1640 86 c0 -5 -7 -11 -15 -15 -8 -3 -15 -13 -15 -22 0 -9
-10 -30 -22 -47 -13 -18 -22 -37 -20 -44 1 -7 -7 -17 -18 -23 -11 -6 -18 -15
-16 -19 3 -5 -3 -27 -14 -49 -11 -23 -20 -49 -20 -59 -1 -10 -7 -29 -15 -43
-8 -14 -14 -34 -15 -45 0 -10 -7 -38 -16 -61 l-16 -42 -72 -7 c-39 -3 -85 -2
-103 4 -23 7 -36 6 -50 -5 -39 -30 -35 -14 48 163 16 34 29 66 29 71 0 11 95
158 127 196 21 26 31 29 101 33 42 2 81 9 87 14 12 12 35 12 35 0z m621 -56
c12 -22 29 -53 37 -70 26 -53 64 -98 72 -85 5 7 15 -1 28 -24 l21 -36 -59 -40
c-33 -23 -60 -46 -60 -52 0 -10 -44 -65 -90 -113 -11 -12 -20 -30 -20 -41 0
-12 -9 -29 -20 -39 -19 -18 -20 -17 -20 7 0 13 -3 28 -7 32 -9 8 -9 14 -19
134 -5 64 -11 86 -25 96 -17 12 -16 15 24 54 23 23 57 46 75 53 39 13 40 24 2
69 -37 42 -37 54 -4 87 28 28 32 26 65 -32z m-531 4 c-7 -11 -14 -19 -16 -16
-7 7 7 37 17 37 6 0 5 -9 -1 -21z m-415 -34 c-14 -20 -99 -184 -101 -195 0 -3
-9 -23 -19 -45 -10 -22 -19 -42 -20 -45 0 -3 -8 -21 -17 -40 -25 -56 -31 -74
-29 -91 1 -9 -4 -29 -10 -45 -16 -39 -16 -39 -18 -79 -1 -30 -6 -37 -36 -49
-19 -8 -35 -20 -35 -25 0 -6 -7 -11 -16 -11 -20 0 -134 62 -134 72 0 5 -6 8
-13 8 -8 0 -22 9 -32 20 -17 19 -17 21 11 57 28 38 34 46 97 118 31 36 58 88
138 263 11 23 23 42 28 42 5 0 11 14 15 31 6 31 7 32 54 25 26 -3 61 -2 77 3
17 4 40 8 52 7 20 -1 21 -3 8 -21z m370 -34 c-8 -17 -20 -33 -26 -37 -11 -7 5
29 24 54 17 21 18 13 2 -17z m135 -76 c6 -22 15 -54 19 -72 5 -17 19 -51 33
-75 21 -38 22 -46 10 -70 -7 -16 -17 -28 -23 -28 -5 0 -9 -7 -9 -15 0 -8 -4
-15 -10 -15 -5 0 -10 -6 -10 -14 0 -8 -4 -16 -8 -18 -27 -11 -127 -199 -119
-222 2 -6 0 -22 -5 -35 -5 -15 -4 -28 3 -37 19 -23 26 -16 32 31 8 57 34 108
51 102 8 -3 18 5 25 19 15 34 28 30 29 -12 1 -19 11 -47 22 -61 11 -14 20 -33
20 -42 0 -10 6 -26 14 -37 15 -19 15 -19 30 1 10 14 11 24 4 33 -7 8 -9 41 -5
91 6 82 3 89 -51 103 -19 5 85 139 105 136 9 -2 17 5 19 15 10 68 29 61 54
-20 12 -39 35 -85 57 -111 29 -35 33 -46 22 -53 -8 -5 -16 -9 -19 -9 -3 0 -11
-14 -19 -31 -16 -37 -143 -164 -204 -206 -23 -15 -43 -31 -45 -35 -2 -4 -21
-12 -42 -18 -21 -6 -40 -18 -43 -28 -28 -93 -70 -172 -91 -172 -33 1 -38 16
-27 96 6 43 12 122 13 174 0 52 3 99 6 104 3 6 7 44 8 85 1 42 5 90 8 106 3
17 8 52 11 79 4 28 8 53 11 57 2 4 11 47 19 96 16 91 28 125 58 157 9 11 17
27 18 35 1 9 5 3 9 -14 5 -16 14 -48 20 -70z m310 91 c0 -2 -22 -28 -50 -57
-36 -39 -50 -48 -50 -35 0 19 73 96 90 96 6 0 10 -2 10 -4z m-715 -468 c-2
-18 -11 -56 -19 -83 -8 -28 -18 -79 -21 -115 -7 -75 -10 -89 -19 -110 -3 -9
-8 -36 -10 -60 -2 -25 -5 -45 -6 -45 -6 0 -13 -50 -15 -110 -4 -110 -24 -155
-50 -109 -5 10 -13 23 -18 28 -14 20 -67 91 -75 101 -4 6 -21 28 -37 50 -16
22 -44 57 -61 78 l-32 39 21 51 c11 29 28 63 37 77 9 14 23 59 30 100 20 120
26 130 63 123 58 -12 168 -5 185 12 3 3 11 5 19 5 9 0 12 -10 8 -32z m-638
-117 c22 -21 182 -101 201 -101 47 0 -32 -132 -150 -252 l-93 -95 -45 55 c-60
74 -106 146 -127 200 -16 44 -16 45 4 61 32 25 56 41 82 54 13 7 29 21 35 31
17 30 50 65 62 65 5 1 19 -8 31 -18z m1361 -116 c11 -14 29 -25 40 -25 11 0
22 -6 25 -13 3 -8 22 -22 44 -31 63 -29 103 -50 103 -56 0 -9 -107 -72 -115
-67 -2 1 -13 -5 -23 -14 -11 -9 -23 -18 -28 -20 -29 -13 -84 -52 -84 -60 0 -5
-10 -14 -22 -19 -13 -5 -44 -25 -69 -45 l-47 -35 -17 92 c-9 51 -19 104 -21
118 -3 14 -6 30 -8 36 -5 12 14 29 109 99 33 25 65 49 70 54 15 15 22 13 43
-14z m-1654 -109 c15 -13 26 -33 26 -44 0 -41 99 -161 133 -162 7 -1 23 -10
36 -21 l25 -20 -80 -75 c-81 -78 -99 -92 -212 -180 -75 -59 -82 -58 -124 10
-46 75 -73 177 -80 305 -3 45 0 55 17 65 11 6 22 14 25 17 3 4 30 19 60 34 30
15 57 30 60 34 3 3 22 14 43 23 20 10 37 22 37 28 0 15 6 12 34 -14z m1372
-155 c12 -34 24 -65 28 -68 3 -4 6 -17 6 -30 0 -13 7 -26 15 -29 22 -9 18 -22
-6 -26 -15 -2 -26 -18 -39 -55 -20 -58 -35 -130 -31 -155 4 -31 -18 -28 -45 7
-14 19 -33 35 -40 35 -8 0 -14 7 -14 15 0 8 -4 15 -9 15 -9 0 -20 25 -41 98
-11 34 -11 50 0 85 29 99 71 164 107 170 44 6 46 4 69 -62z m-810 6 c27 -29
61 -71 76 -92 15 -22 52 -67 83 -99 43 -47 52 -62 43 -73 -6 -8 -17 -12 -24
-9 -8 3 -11 0 -8 -8 3 -9 -6 -18 -25 -24 -34 -12 -74 -49 -67 -61 6 -9 -36
-31 -58 -31 -7 0 -22 -11 -34 -25 -12 -14 -31 -25 -43 -25 -11 0 -17 -4 -14
-10 3 -5 0 -10 -8 -10 -7 0 -24 -11 -37 -25 -13 -14 -31 -25 -40 -25 -9 0 -27
-11 -39 -24 -21 -23 -87 -61 -93 -54 -2 1 -19 -7 -39 -20 -56 -34 -119 -54
-119 -38 0 8 -29 45 -65 83 -35 39 -62 73 -58 76 3 4 -2 9 -11 13 -9 3 -16 13
-16 22 0 19 49 72 67 72 7 0 13 5 13 10 0 6 7 10 15 10 9 0 18 7 21 15 4 8 12
15 18 15 7 0 19 11 26 25 7 14 17 25 21 25 3 0 31 22 60 50 40 38 56 47 66 39
16 -14 57 -80 59 -97 4 -25 56 -117 80 -139 23 -23 64 -31 64 -13 0 15 -79
208 -112 273 l-29 58 83 84 c46 46 86 84 89 84 3 1 28 -23 55 -52z m2824 -21
c0 -3 -4 -8 -10 -11 -5 -3 -10 -1 -10 4 0 6 5 11 10 11 6 0 10 -2 10 -4z
m-3744 -43 c0 -50 14 -123 24 -123 4 0 18 -33 31 -72 13 -40 34 -90 46 -110
13 -21 23 -42 23 -48 0 -5 6 -10 13 -10 6 0 -8 -10 -33 -21 -43 -20 -90 -25
-190 -21 -50 2 -100 36 -125 86 -19 36 -56 187 -49 198 3 5 1 15 -6 23 -9 11
11 24 102 68 166 81 165 80 164 30z m2728 -49 c9 -8 44 -20 78 -25 34 -6 64
-12 66 -14 12 -12 -69 -133 -136 -203 l-80 -83 -40 20 c-22 11 -42 27 -45 35
-4 9 9 39 28 68 19 29 35 56 35 60 0 10 71 158 75 158 2 0 11 -7 19 -16z
m1305 -166 c-4 -24 -13 -65 -19 -93 -11 -50 -19 -152 -20 -232 0 -33 -4 -43
-16 -43 -9 0 -46 -11 -83 -24 -36 -13 -72 -21 -78 -19 -8 3 -13 -4 -13 -16 0
-12 -6 -21 -15 -21 -8 0 -15 9 -15 20 0 12 -11 43 -25 70 -24 48 -35 133 -17
143 4 3 8 31 10 64 3 59 25 92 62 93 8 0 34 13 58 29 23 16 68 37 100 46 65
20 77 23 78 24 0 1 -3 -18 -7 -41z m1948 -138 c-1 -11 -5 -20 -9 -20 -10 0
-10 4 -2 24 8 22 13 20 11 -4z m-14 -117 c-5 -106 -34 -203 -98 -331 -34 -69
-50 -92 -62 -88 -8 3 -21 6 -29 6 -20 0 -17 17 7 41 24 24 99 138 99 151 0 5
9 29 21 54 11 25 28 92 37 150 9 57 19 104 23 104 4 0 4 -39 2 -87z m-5733 28
c0 -20 108 -118 153 -139 26 -12 47 -25 47 -30 0 -8 -123 -62 -143 -62 -7 0
-17 -4 -22 -9 -9 -8 -156 -41 -182 -41 -5 0 -16 12 -24 28 -8 15 -23 35 -35
44 -11 9 -35 43 -52 76 l-32 60 30 6 c17 3 32 6 35 7 2 1 28 7 57 15 29 7 76
21 103 32 59 24 65 25 65 13z m3411 -118 c7 -27 12 -56 11 -65 -1 -10 2 -18 7
-18 4 0 14 -26 21 -57 7 -32 23 -74 36 -93 29 -45 54 -131 54 -186 0 -24 4
-45 8 -48 5 -3 17 -33 27 -68 10 -35 22 -67 27 -72 4 -6 8 -24 8 -42 0 -18 6
-34 13 -37 9 -3 8 -11 -5 -34 -16 -27 -16 -30 1 -40 11 -7 27 -45 41 -100 13
-48 28 -94 33 -100 5 -7 6 -13 3 -13 -4 0 1 -12 12 -27 11 -16 23 -39 27 -52
4 -13 18 -34 31 -46 l23 -21 -32 -36 c-18 -19 -46 -42 -62 -51 -26 -13 -34
-13 -55 -1 -14 7 -35 13 -47 14 -12 0 -24 4 -27 9 -4 5 -38 30 -76 55 -51 34
-74 56 -85 83 -9 21 -22 44 -29 53 -13 15 -39 89 -51 148 -5 24 -3 32 8 32 8
0 20 7 27 15 21 26 45 17 69 -25 12 -22 26 -40 30 -40 5 0 14 -14 21 -30 13
-30 50 -61 50 -41 0 5 -5 13 -11 16 -5 4 -15 17 -20 28 -13 29 -29 56 -56 93
l-22 31 79 24 c44 13 80 27 80 30 0 9 -95 0 -125 -11 -15 -6 -30 -10 -35 -10
-28 0 -77 154 -81 256 -3 61 -14 81 -36 62 -10 -8 -13 -7 -13 3 0 17 18 87 29
114 5 11 16 63 24 115 32 195 39 230 47 230 4 0 14 -21 21 -47z m577 -92 c1
-16 -2 -33 -8 -36 -6 -4 -8 -11 -4 -16 3 -5 0 -49 -6 -98 -14 -112 -15 -153
-4 -221 15 -98 5 -381 -16 -420 -6 -11 -9 -24 -6 -29 3 -5 -1 -34 -9 -65 -18
-69 -19 -118 -3 -134 7 -7 8 -12 2 -12 -19 0 -33 16 -40 45 -10 45 -22 55 -57
48 -18 -3 -39 -9 -48 -14 -13 -6 -21 3 -39 44 -12 29 -27 61 -32 72 -5 11 -15
44 -22 73 -14 51 -14 52 7 52 50 1 71 52 40 97 -22 32 -53 92 -53 104 0 4 51
5 114 2 78 -4 116 -2 120 6 5 7 -3 11 -21 11 -15 1 -68 9 -118 19 -53 11 -95
14 -101 9 -8 -6 -14 3 -19 29 -4 20 -13 50 -21 65 -8 15 -14 40 -14 55 1 34
-22 139 -33 149 -4 4 -7 16 -7 26 0 10 -4 18 -10 18 -5 0 -10 11 -10 24 0 18
12 32 49 55 81 49 169 65 155 26 -3 -8 -1 -15 5 -15 6 0 11 11 11 25 0 23 2
24 83 28 45 1 89 4 97 5 11 1 16 -8 18 -27z m445 -21 c91 -16 137 -30 137 -40
0 -5 -7 -15 -15 -24 -8 -8 -18 -30 -22 -48 -3 -18 -12 -44 -19 -58 -23 -44
-124 -260 -124 -265 0 -3 -5 -11 -10 -18 -24 -28 -61 -83 -66 -99 -4 -10 -11
-18 -16 -18 -5 0 -6 -5 -3 -10 6 -9 -17 -40 -29 -40 -3 0 -6 9 -6 19 0 41 -36
37 -44 -5 -2 -10 -9 -32 -16 -49 -6 -16 -11 -31 -11 -33 4 -9 -16 -63 -42
-115 -17 -34 -31 -69 -32 -78 -1 -9 -11 -27 -23 -39 -12 -13 -22 -29 -22 -34
0 -11 -31 -35 -61 -48 -13 -5 -18 1 -22 26 -3 18 -3 48 -1 67 9 75 16 158 21
232 l5 79 32 -6 c55 -11 116 63 66 79 -11 3 -20 12 -20 18 0 9 29 11 100 10
126 -3 174 10 80 22 -36 4 -92 7 -126 7 l-61 1 -11 86 c-19 130 -18 153 4 339
5 42 10 52 23 48 9 -3 45 -2 81 2 81 9 171 6 253 -8z m-1509 -182 c3 -24 7
-55 9 -71 3 -22 -2 -30 -27 -42 -16 -8 -31 -14 -32 -12 -2 1 -7 29 -12 61 -9
57 -8 60 17 82 14 13 29 24 32 24 4 0 9 -19 13 -42z m-100 -65 c-1 -21 3 -41
8 -44 44 -27 -100 -93 -204 -94 -27 0 -48 3 -48 8 0 4 6 7 13 7 6 0 37 20 67
45 30 25 63 48 72 51 9 3 31 18 49 35 17 16 34 29 38 29 3 0 6 -17 5 -37z
m116 -68 c0 -2 -13 -11 -30 -20 -30 -16 -40 -9 -18 13 12 12 48 17 48 7z m369
-101 c0 -17 15 -73 32 -125 l31 -93 -22 -18 c-12 -10 -28 -18 -35 -18 -7 0
-22 35 -35 83 -24 92 -23 158 5 237 l9 25 7 -30 c4 -16 7 -44 8 -61z m-459 53
c0 -12 -75 -60 -156 -101 -31 -15 -32 -15 -38 10 -4 15 -6 27 -4 29 2 1 36 15
76 30 40 16 75 32 78 37 8 13 44 9 44 -5z m1861 -453 c19 -14 49 -32 67 -39
17 -8 32 -16 32 -19 0 -3 -18 -15 -41 -27 -23 -11 -57 -36 -75 -55 -19 -19
-41 -34 -49 -34 -8 0 -18 0 -22 0 -9 0 -8 45 2 81 9 34 -7 44 -30 19 -15 -16
-17 -30 -12 -79 6 -53 5 -59 -14 -64 -14 -4 -20 -1 -18 11 3 30 -1 35 -16 22
-8 -7 -15 -22 -15 -35 0 -18 -10 -25 -51 -38 -28 -10 -60 -17 -71 -17 -11 0
-31 -9 -45 -20 -33 -26 -36 -25 -50 6 -8 18 -9 32 -3 45 12 21 0 32 -24 23 -8
-3 -18 -22 -21 -42 -12 -81 -15 -85 -80 -97 -32 -7 -61 -17 -63 -24 -2 -6 -13
-11 -25 -11 -31 1 165 187 253 240 87 54 84 52 170 94 41 21 93 48 115 61 22
14 43 25 46 25 3 0 21 -12 40 -26z m-66 -301 c-3 -10 -9 -30 -12 -46 -6 -32
-12 -36 -77 -59 l-48 -17 6 32 c3 18 13 37 21 43 8 6 15 15 15 20 0 5 19 17
43 26 56 21 60 21 52 1z m-158 -60 c-3 -10 -8 -29 -11 -43 -6 -27 -78 -70
-117 -70 -18 0 -20 4 -14 33 8 35 27 55 65 64 14 3 34 12 45 19 26 19 37 17
32 -3z"/>
<path d="M5188 4753 c-2 -5 -1 -53 2 -108 4 -55 8 -89 9 -75 1 14 4 34 6 45 2
11 6 48 9 83 4 50 3 62 -9 62 -7 0 -15 -3 -17 -7z"/>
<path d="M4694 3170 c-22 -9 -74 -65 -74 -80 0 -5 10 -16 22 -24 20 -14 24
-14 40 1 10 9 18 22 18 30 0 7 4 13 10 13 5 0 17 12 26 26 15 22 15 27 3 35
-17 10 -18 10 -45 -1z"/>
<path d="M3730 1539 c0 -11 27 -12 34 -1 2 4 -4 9 -15 9 -10 1 -19 -2 -19 -8z"/>
<path d="M6400 4878 c-27 -29 -50 -56 -50 -60 0 -5 -7 -8 -15 -8 -8 0 -15 -6
-15 -13 0 -8 -11 -24 -25 -37 -14 -13 -25 -28 -25 -32 0 -22 -31 -37 -88 -42
-77 -7 -234 -41 -270 -58 -16 -8 -27 -21 -27 -33 0 -24 16 -24 95 -2 30 9 92
19 137 22 l83 7 -28 -50 c-15 -28 -44 -68 -63 -89 -19 -21 -48 -64 -63 -95
-47 -97 -41 -93 -244 -154 -45 -13 -70 -27 -83 -46 l-20 -27 28 4 c15 2 64 13
107 24 117 31 145 26 110 -20 -6 -8 -21 -43 -34 -79 -12 -36 -27 -76 -33 -90
-6 -14 -11 -32 -12 -40 -3 -23 -36 -90 -45 -90 -8 0 -13 -22 -26 -103 -7 -50
4 -119 19 -114 7 2 13 17 14 33 2 46 23 117 41 144 15 22 42 75 47 90 23 80
69 207 81 225 9 13 16 28 16 32 0 26 20 34 100 40 55 4 98 2 119 -6 30 -10 35
-9 56 15 46 54 -17 90 -143 82 -41 -3 -74 -2 -74 1 0 14 54 107 66 114 8 4 14
12 14 18 0 5 5 15 11 22 6 7 32 46 59 88 l48 77 110 7 c74 5 116 3 130 -4 45
-24 77 -7 67 37 -5 24 -13 32 -38 38 -37 8 -106 6 -157 -5 -19 -4 -41 -6 -47
-4 -17 6 24 60 104 141 68 67 78 92 38 92 -16 0 -41 -17 -75 -52z"/>
<path d="M7880 4898 c0 -9 5 -20 10 -23 13 -8 13 5 0 25 -8 13 -10 13 -10 -2z"/>
<path d="M6833 4692 c-13 -2 -23 -7 -23 -12 0 -5 -9 -12 -21 -15 -34 -11 -4
-32 54 -38 28 -2 132 -17 230 -31 156 -23 180 -25 193 -12 13 13 10 16 -23 25
-21 6 -49 11 -61 11 -13 0 -38 6 -55 14 -18 8 -79 24 -137 36 -133 27 -131 26
-157 22z"/>
<path d="M7890 4661 c0 -6 -7 -11 -15 -11 -15 0 -40 -74 -30 -90 3 -6 14 -10
24 -10 51 0 83 -193 53 -318 -5 -20 -8 -66 -6 -102 2 -52 -2 -75 -21 -115 -13
-27 -31 -83 -40 -124 -19 -86 -33 -116 -71 -153 -16 -14 -51 -56 -79 -92 -27
-36 -64 -73 -82 -81 -17 -8 -35 -24 -38 -35 -6 -17 -33 -51 -95 -115 -11 -12
-20 -25 -20 -30 0 -4 -11 -20 -24 -34 -14 -14 -52 -60 -86 -101 -33 -41 -68
-84 -78 -96 -9 -11 -39 -64 -65 -117 -27 -54 -52 -97 -56 -97 -5 0 -8 -12 -8
-27 0 -14 -7 -31 -14 -37 -8 -6 -15 -18 -17 -26 -2 -8 -8 -16 -13 -18 -5 -2
-9 -9 -9 -15 0 -6 -7 -19 -16 -29 -13 -13 -14 -21 -6 -31 6 -7 13 -30 15 -50
2 -21 7 -40 9 -43 12 -11 39 10 44 35 13 61 37 131 45 131 5 0 9 7 9 15 0 8 4
23 10 33 5 9 25 51 45 92 58 118 124 214 214 310 9 9 38 47 64 84 32 44 53 64
60 59 30 -21 82 4 92 44 3 15 10 30 14 33 4 3 20 23 36 45 17 22 60 76 96 120
80 97 92 118 115 217 l19 78 55 0 c59 0 127 -26 203 -78 23 -16 52 -32 64 -36
25 -8 42 12 22 26 -12 8 -12 10 -1 15 10 4 4 14 -20 36 -72 66 -175 110 -255
109 l-42 -1 14 47 c8 26 15 85 16 132 0 47 4 110 8 142 7 61 -24 231 -47 259
-7 8 -18 22 -25 31 -15 20 -67 35 -67 19z"/>
<path d="M6305 3806 c-42 -35 -25 -46 82 -57 48 -5 95 -12 104 -14 9 -3 30 -7
45 -10 16 -2 43 -7 60 -10 24 -5 33 -3 38 10 4 11 0 22 -11 31 -24 17 -104 42
-173 54 -30 5 -68 12 -85 15 -23 4 -37 0 -60 -19z"/>
<path d="M7295 2960 c3 -5 10 -10 16 -10 5 0 9 5 9 10 0 6 -7 10 -16 10 -8 0
-12 -4 -9 -10z"/>
<path d="M6399 2555 c-46 -13 -73 -39 -56 -53 14 -12 162 -18 190 -8 9 3 25 8
34 11 55 18 -110 67 -168 50z"/>
<path d="M2607 4578 c-9 -5 -17 -17 -17 -27 0 -41 132 -201 165 -201 26 0 24
17 -5 50 -17 19 -30 40 -30 48 0 8 -8 26 -19 40 -10 15 -22 40 -28 56 -10 33
-41 49 -66 34z"/>
<path d="M4662 4658 c5 -15 28 -18 29 -3 0 6 -7 12 -17 13 -10 3 -15 -1 -12
-10z"/>
<path d="M3986 3492 c-13 -25 -12 -30 2 -49 37 -46 93 -57 263 -54 45 1 73 21
65 47 -5 17 -14 19 -77 16 -43 -2 -76 1 -82 7 -6 6 -19 11 -29 11 -11 0 -31 9
-46 19 -15 10 -39 22 -54 25 -23 5 -30 2 -42 -22z"/>
<path d="M3842 3150 c-33 -20 -49 -40 -33 -40 6 0 11 -6 11 -12 1 -15 61 -58
105 -76 45 -18 172 -40 201 -34 19 3 24 10 22 26 -2 17 -12 22 -48 26 -43 5
-133 43 -156 65 -6 6 -16 20 -22 31 -16 30 -45 35 -80 14z"/>
<path d="M5202 3988 c-8 -10 -3 -27 19 -68 16 -30 32 -63 35 -72 4 -10 10 -18
14 -18 13 0 22 33 11 40 -6 3 -19 32 -28 65 -19 61 -32 75 -51 53z"/>
<path d="M5287 3527 c-5 -13 51 -139 71 -159 16 -16 16 11 0 49 -14 35 -13 29
-22 81 -6 31 -12 42 -26 42 -10 0 -20 -6 -23 -13z"/>
<path d="M2870 1965 c-11 -13 -9 -19 8 -36 12 -11 22 -26 22 -34 0 -19 32 -85
41 -85 13 0 20 18 10 24 -5 4 -15 32 -22 64 -17 80 -33 98 -59 67z"/>
<path d="M3296 1387 c-15 -11 -17 -21 -11 -54 3 -23 13 -49 20 -60 12 -16 14
-15 13 17 0 19 -5 43 -10 54 -7 13 -6 21 2 26 7 4 11 13 9 19 -3 8 -9 8 -23
-2z"/>
<path d="M4650 1320 c0 -5 5 -10 10 -10 6 0 10 5 10 10 0 6 -4 10 -10 10 -5 0
-10 -4 -10 -10z"/>
<path d="M3990 940 c0 -5 5 -10 10 -10 6 0 10 5 10 10 0 6 -4 10 -10 10 -5 0
-10 -4 -10 -10z"/>
<path d="M6945 640 c-13 -6 -15 -9 -5 -9 8 0 22 4 30 9 18 12 2 12 -25 0z"/>
<path d="M6868 613 c7 -3 16 -2 19 1 4 3 -2 6 -13 5 -11 0 -14 -3 -6 -6z"/>
<path d="M6810 600 c-21 -7 -21 -8 -5 -9 11 0 27 4 35 9 18 11 5 11 -30 0z"/>
</g>
</svg>
