<?xml version="1.0" standalone="no"?>
<!DOCTYPE svg PUBLIC "-//W3C//DTD SVG 20010904//EN"
 "http://www.w3.org/TR/2001/REC-SVG-20010904/DTD/svg10.dtd">
<svg version="1.0" xmlns="http://www.w3.org/2000/svg"
 width="1320.000000pt" height="568.000000pt" viewBox="0 0 1320.000000 568.000000"
 preserveAspectRatio="xMidYMid meet">
<metadata>
Created by potrace 1.16, written by Peter Selinger 2001-2019
</metadata>
<g transform="translate(0.000000,568.000000) scale(0.100000,-0.100000)"
fill="#000000" stroke="none">
<path d="M1646 5111 c-4 -5 -32 -10 -64 -11 -85 -2 -140 -8 -252 -29 -25 -5
-63 -9 -84 -10 -22 -1 -45 -6 -52 -12 -7 -6 -19 -9 -26 -6 -7 2 -31 -2 -52
-10 -22 -7 -63 -14 -90 -14 -28 -1 -54 -6 -57 -11 -3 -5 -40 -10 -81 -12 -62
-3 -80 -7 -99 -25 -13 -12 -37 -25 -52 -28 -30 -6 -49 -34 -29 -41 15 -5 16
-32 1 -32 -15 0 -6 -69 14 -107 9 -18 17 -39 17 -47 0 -8 5 -16 11 -18 5 -2
11 -30 12 -63 2 -33 6 -66 10 -72 4 -7 10 -28 12 -48 3 -19 8 -52 13 -72 4
-21 7 -65 6 -98 -1 -33 1 -64 5 -70 14 -24 16 -101 3 -141 -6 -19 -6 -36 -1
-41 14 -14 36 -270 42 -475 2 -59 6 -111 10 -115 14 -14 6 -64 -13 -83 -24
-24 -25 -30 -5 -30 11 0 13 -9 10 -32 -2 -18 -7 -78 -10 -133 -4 -55 -9 -107
-12 -115 -3 -8 -8 -24 -10 -34 -2 -11 -7 -24 -12 -30 -5 -6 -8 -42 -6 -81 1
-38 -2 -75 -7 -82 -6 -7 -5 -19 2 -32 6 -11 8 -32 4 -46 -3 -14 -2 -25 3 -25
6 0 10 -12 11 -27 1 -87 2 -251 1 -272 0 -15 8 -31 21 -41 18 -13 22 -24 18
-49 -4 -24 -1 -31 13 -31 29 0 33 -14 43 -177 13 -207 18 -268 26 -303 4 -19
7 -44 7 -55 0 -11 3 -42 6 -70 16 -141 21 -204 20 -240 -3 -72 -24 -249 -34
-288 -6 -21 -12 -55 -14 -75 -2 -20 -10 -68 -19 -107 -8 -38 -13 -95 -11 -125
13 -176 22 -212 63 -261 9 -11 17 -30 17 -42 0 -17 5 -21 21 -19 11 1 43 -12
70 -30 57 -39 102 -61 127 -64 27 -2 19 9 -30 41 -26 17 -48 35 -50 40 -4 15
45 15 51 0 2 -7 21 -16 42 -20 21 -4 50 -15 64 -24 42 -29 90 -45 101 -34 7 7
0 14 -20 23 -17 7 -31 16 -31 21 0 13 12 11 35 -4 44 -30 173 -62 149 -37 -6
6 -27 17 -45 24 -60 21 -111 58 -100 69 8 8 15 7 23 -1 7 -7 26 -12 43 -12 17
0 60 -14 94 -30 68 -33 121 -48 121 -34 0 5 -26 20 -57 34 -32 13 -65 32 -74
41 -15 15 -15 17 4 28 20 13 40 6 139 -45 14 -8 35 -14 46 -14 12 0 23 -4 26
-8 3 -5 42 -17 88 -27 46 -10 87 -22 92 -27 13 -10 36 -10 36 0 0 5 -24 19
-52 31 -29 12 -61 27 -70 32 -10 5 -24 9 -33 9 -23 0 -135 62 -129 71 3 5 22
9 42 9 28 0 40 -5 47 -21 7 -16 30 -27 85 -41 131 -35 190 -46 195 -38 4 7
-17 19 -45 25 -3 1 -22 10 -42 20 -44 22 -51 37 -10 24 15 -4 68 -20 117 -35
50 -14 105 -30 123 -36 64 -19 51 7 -15 32 -63 24 -64 25 -34 31 39 8 96 -2
141 -26 24 -12 35 -14 38 -6 2 7 16 9 38 5 21 -4 34 -2 34 4 0 6 -19 15 -42
19 -24 5 -43 13 -43 18 0 17 72 30 97 17 38 -18 86 -24 107 -13 11 6 35 13 53
15 18 2 34 9 36 15 2 6 8 11 14 11 6 0 22 12 36 27 21 23 25 36 23 84 -1 32 2
60 6 62 12 8 15 135 4 171 -5 17 -13 54 -16 81 -3 28 -11 68 -16 90 -6 22 -14
62 -19 89 -5 27 -15 53 -21 57 -6 4 -8 12 -4 19 18 29 0 183 -32 270 -21 55
-17 183 6 228 11 20 27 54 36 74 8 21 25 44 38 53 12 8 17 15 12 15 -6 0 -2 7
9 15 10 7 15 18 12 23 -3 6 12 25 34 42 44 35 46 50 9 102 -10 15 -19 29 -19
31 0 6 40 18 68 21 13 1 27 7 31 14 13 21 78 27 96 8 15 -14 55 -23 55 -11 0
2 -14 12 -32 21 l-32 16 25 13 c13 7 47 16 74 19 56 8 181 42 207 57 10 5 34
11 55 14 20 2 40 10 44 16 4 7 15 9 24 5 10 -4 29 1 42 10 14 8 27 13 31 10 3
-3 14 2 25 11 15 13 21 15 24 6 6 -17 18 -16 38 3 9 10 33 18 53 20 20 1 48 7
62 12 14 5 31 7 38 4 8 -2 39 1 70 7 32 6 73 13 92 17 19 3 58 10 85 15 28 5
77 13 110 17 33 4 66 11 73 16 7 4 36 9 65 11 102 8 143 15 184 30 27 9 61 13
93 10 27 -3 50 -1 50 4 0 4 37 11 83 14 137 10 198 17 291 33 49 9 146 15 220
15 72 0 163 5 201 11 39 5 99 12 135 13 36 2 67 4 70 5 3 1 13 1 23 0 11 -1
40 3 65 9 49 11 143 20 277 26 44 3 107 7 140 11 133 13 223 24 285 33 36 5
179 8 320 5 281 -4 365 -4 425 2 22 2 90 6 150 9 61 2 171 8 245 12 159 9 546
8 745 -2 267 -14 836 -8 864 10 6 3 132 16 201 20 19 1 58 5 85 8 28 4 100 9
160 12 61 4 160 13 220 21 189 24 218 25 733 26 276 1 502 4 502 7 0 3 64 7
143 9 78 2 196 5 262 8 66 3 189 6 273 7 83 1 152 6 152 11 0 5 6 3 14 -3 7
-6 27 -11 42 -11 138 0 433 -24 484 -40 19 -5 55 -13 80 -16 25 -3 70 -15 100
-26 88 -32 140 -47 140 -42 0 3 11 -4 25 -15 14 -11 40 -23 58 -26 18 -4 37
-11 42 -15 6 -4 37 -13 70 -20 33 -7 62 -15 65 -19 7 -9 52 -33 54 -29 34 47
58 106 38 94 -11 -7 -49 133 -43 162 1 6 -3 12 -9 12 -5 0 -10 6 -10 14 0 8
-4 16 -8 18 -7 3 -24 54 -56 175 -7 24 -17 48 -24 55 -7 7 -12 25 -12 40 0 15
-5 28 -11 28 -8 0 -8 5 1 15 9 10 9 15 1 15 -6 0 -11 9 -11 19 0 11 -6 21 -12
24 -7 2 -14 18 -15 35 -3 49 -6 62 -12 62 -14 0 -19 146 -9 224 3 21 12 43 19
48 11 7 11 11 1 15 -6 2 -10 8 -7 13 3 5 1 20 -4 33 -9 23 -14 25 -71 23 -47
-1 -64 -6 -72 -19 -8 -14 -16 -17 -41 -11 -35 8 -250 7 -308 -2 -19 -3 -84 0
-145 7 -154 17 -862 13 -1424 -7 -85 -4 -191 -7 -235 -8 -44 -1 -120 -10 -170
-19 -49 -9 -99 -16 -110 -16 -32 1 -286 -20 -327 -27 -21 -3 -63 -7 -95 -9
-32 -2 -85 -6 -118 -10 -33 -3 -163 -7 -290 -10 -226 -4 -251 -6 -329 -26 -21
-6 -52 -9 -70 -8 -17 2 -37 0 -43 -4 -6 -4 -49 -10 -95 -13 -46 -3 -130 -12
-188 -21 -58 -8 -130 -17 -160 -20 -30 -3 -60 -9 -66 -14 -24 -19 -299 -29
-939 -33 -286 -2 -527 -6 -535 -9 -8 -3 -69 -9 -135 -12 -66 -4 -140 -9 -165
-11 -66 -5 -211 -4 -330 2 -236 12 -826 2 -860 -16 -8 -4 -80 -11 -160 -14
-80 -4 -159 -9 -177 -12 -17 -3 -51 -7 -75 -9 -24 -2 -63 -8 -88 -14 -25 -6
-112 -14 -195 -16 -82 -3 -175 -10 -205 -15 -30 -6 -66 -8 -80 -5 -14 3 -82 7
-152 9 -70 3 -142 7 -160 10 -18 3 -51 8 -73 10 -22 2 -62 9 -90 15 -89 18
-381 32 -745 35 -218 2 -396 11 -429 22 -11 3 -10 9 3 30 22 33 33 123 17 133
-7 5 -13 14 -15 22 -4 27 -31 79 -41 79 -6 0 -16 12 -22 28 -7 15 -24 40 -37
55 -14 16 -23 34 -20 40 2 7 -6 17 -18 22 -12 6 -25 20 -28 32 -3 13 -12 31
-20 40 -32 37 -59 120 -62 189 -2 38 -7 74 -11 81 -4 7 -7 27 -6 45 3 57 -13
273 -20 283 -4 6 -9 42 -11 80 -5 141 -8 181 -18 245 -5 36 -8 68 -5 72 4 8
-87 77 -103 78 -6 0 -26 8 -45 17 -19 9 -56 21 -84 26 -65 12 -418 15 -472 4
-27 -5 -49 -5 -62 2 -12 7 -22 7 -25 2z m509 -96 c64 -9 162 -54 168 -75 2 -9
3 -36 2 -58 -1 -23 0 -42 4 -42 3 0 7 -51 8 -114 1 -63 6 -123 11 -133 9 -15
10 -61 3 -95 -2 -15 -190 80 -221 112 -53 53 -89 80 -102 75 -23 -9 -11 -42
26 -67 17 -12 36 -27 41 -33 6 -6 22 -18 36 -27 20 -13 26 -25 27 -60 2 -25
-3 -51 -11 -63 -13 -17 -16 -18 -31 -3 -9 9 -26 20 -37 23 -16 5 -20 13 -16
33 3 17 -5 41 -25 74 -25 40 -30 60 -32 118 -1 38 -5 72 -9 76 -4 4 -7 25 -7
46 0 21 -4 38 -10 38 -5 0 -15 20 -21 45 -6 25 -15 48 -20 51 -5 3 -9 13 -9
22 0 27 -36 45 -60 30 -27 -17 -42 -62 -26 -79 20 -21 46 -96 46 -130 0 -16 8
-41 17 -55 10 -16 17 -47 17 -82 1 -32 5 -63 9 -69 5 -8 4 -13 -2 -13 -7 0 -7
-8 1 -25 6 -14 14 -25 18 -25 4 0 5 -10 3 -22 -3 -14 4 -31 15 -43 39 -43 49
-76 34 -120 -7 -22 -18 -45 -24 -52 -6 -8 -5 -29 6 -65 8 -29 15 -76 15 -105
-1 -101 62 -233 122 -255 9 -4 23 -22 33 -42 9 -19 21 -38 26 -41 6 -3 10 -14
10 -24 0 -24 34 -53 57 -49 10 1 32 -7 47 -20 16 -12 25 -22 21 -22 -5 0 2
-11 15 -25 24 -25 50 -33 50 -15 0 13 33 13 46 1 21 -22 95 -30 137 -15 81 29
83 60 3 62 -25 0 -51 4 -58 8 -7 5 -23 7 -35 5 -30 -3 -29 14 2 53 14 17 37
45 50 61 23 30 24 30 39 10 10 -12 14 -31 12 -47 -5 -26 13 -44 42 -39 6 1 13
-4 13 -11 1 -7 2 -20 3 -28 0 -9 9 -14 20 -12 17 3 18 2 7 -12 -8 -9 -15 -35
-17 -59 -2 -23 -8 -43 -14 -45 -5 -2 -8 -7 -5 -11 2 -4 -5 -32 -16 -62 -12
-30 -23 -67 -25 -83 -2 -15 -6 -36 -9 -46 -3 -10 -1 -22 6 -25 6 -5 7 -10 2
-14 -11 -7 -43 -193 -43 -248 0 -30 3 -35 11 -23 8 11 9 4 3 -25 -4 -22 -7
-49 -8 -60 0 -11 -6 -26 -13 -34 -10 -9 -11 -17 -4 -25 9 -11 12 -100 10 -332
0 -34 2 -82 5 -108 3 -25 2 -46 -2 -46 -13 0 22 -152 45 -196 20 -39 20 -41 3
-52 -15 -9 -19 -7 -24 14 l-7 25 -121 -7 c-78 -4 -129 -11 -143 -20 -12 -8
-25 -11 -28 -7 -4 3 -7 2 -7 -4 0 -6 -12 -16 -27 -22 -32 -12 -81 -41 -101
-58 -7 -7 -18 -13 -23 -13 -5 0 -9 -8 -9 -19 0 -10 -12 -36 -26 -57 -16 -23
-22 -40 -15 -42 7 -2 6 -9 -4 -19 -8 -8 -15 -23 -15 -34 0 -10 -6 -19 -12 -19
-10 0 -10 -2 -1 -8 10 -6 9 -14 -2 -36 -8 -15 -12 -32 -9 -37 3 -6 1 -15 -4
-22 -12 -14 -9 -257 3 -276 4 -7 6 -61 6 -121 -1 -71 4 -123 13 -151 9 -28 12
-58 8 -84 -10 -59 -7 -103 12 -170 10 -33 25 -89 34 -125 9 -36 20 -66 24 -68
4 -2 8 -12 8 -22 0 -17 3 -18 38 -6 24 9 37 19 37 31 0 30 25 29 54 -3 22 -23
25 -33 16 -45 -8 -12 -29 -15 -95 -13 -47 1 -90 -2 -97 -7 -12 -8 -82 -5 -148
7 -16 3 -59 8 -95 12 -36 3 -68 8 -72 11 -5 2 -60 4 -124 4 -111 -1 -116 0
-139 25 -13 14 -21 32 -18 40 6 16 19 19 25 6 2 -5 15 -12 30 -16 21 -5 31 -2
40 14 7 11 19 20 27 20 11 0 11 3 1 15 -15 18 -15 131 -1 190 5 22 8 65 6 95
-14 198 -17 236 -17 245 0 6 0 35 0 65 1 88 -6 189 -14 218 -4 15 -8 29 -9 32
-5 23 -30 89 -38 105 -6 11 -11 23 -12 27 0 13 -70 99 -91 113 -12 8 -25 24
-29 35 -3 11 -10 20 -15 20 -18 0 -115 68 -164 114 -28 25 -53 46 -57 46 -4 0
-25 10 -46 22 -20 12 -44 23 -52 25 -9 1 -17 6 -19 11 -2 6 -12 8 -22 5 -20
-5 -28 -39 -10 -45 8 -3 68 -55 174 -150 22 -21 47 -38 53 -38 7 0 13 -4 13
-10 0 -5 5 -10 10 -10 6 0 21 -10 34 -23 12 -12 39 -36 58 -54 33 -28 78 -105
78 -132 0 -6 4 -11 8 -11 10 0 49 -143 58 -210 3 -25 7 -56 10 -69 5 -22 3
-22 -21 8 -15 17 -32 31 -38 31 -6 0 -18 7 -28 16 -10 9 -23 13 -28 9 -21 -12
-11 -40 18 -53 33 -14 33 -43 0 -35 -26 7 -35 -20 -15 -48 14 -20 13 -25 -3
-58 -10 -20 -26 -53 -35 -74 -14 -34 -14 -38 0 -44 9 -3 19 -1 23 6 10 16 36
5 50 -22 10 -18 9 -30 -4 -60 -8 -20 -19 -37 -24 -37 -17 0 -19 -40 -3 -53 10
-6 37 -36 60 -64 37 -45 43 -57 37 -82 -3 -16 -13 -35 -21 -42 -8 -6 -14 -18
-14 -25 0 -24 -15 -15 -27 16 -6 17 -16 30 -22 30 -14 0 -15 -57 -1 -65 13 -8
13 -45 0 -45 -5 0 -6 -7 -3 -17 4 -11 3 -14 -5 -9 -7 4 -12 1 -12 -8 0 -23 19
-20 39 6 l18 22 27 -21 26 -21 -33 -7 c-17 -3 -49 -7 -70 -8 -36 -2 -40 1 -51
33 -7 19 -12 38 -13 43 -12 75 -15 95 -20 110 -9 34 -17 7 -14 -51 1 -31 8
-60 14 -64 8 -5 9 -8 1 -8 -7 0 -11 -16 -10 -37 1 -26 -4 -38 -14 -40 -11 -3
-21 21 -39 102 -14 58 -28 105 -32 105 -16 0 -20 -22 -10 -53 5 -17 12 -62 15
-99 6 -67 5 -68 -19 -68 -20 0 -25 5 -26 28 -1 39 -7 79 -15 104 -5 13 -8 27
-9 33 0 5 -8 11 -17 13 -20 4 -25 -27 -9 -43 8 -9 14 -69 12 -117 -1 -22 -29
-23 -59 -2 -20 14 -53 74 -51 92 4 25 -3 62 -10 62 -5 0 -13 -15 -17 -32 -7
-31 -8 -30 -21 32 -17 84 -16 182 2 236 8 24 17 76 20 116 3 40 12 118 21 172
15 103 13 251 -6 331 -5 22 -10 75 -10 117 0 42 -4 79 -10 83 -5 3 -7 12 -4
20 3 7 1 22 -5 34 -9 15 -7 23 7 37 18 18 27 64 13 64 -11 0 -31 102 -31 157
0 50 20 133 33 133 4 0 5 5 2 10 -3 6 1 13 9 16 9 3 16 17 16 30 0 13 4 24 9
24 10 0 29 42 36 79 2 12 9 29 15 35 5 7 7 15 4 18 -3 4 3 23 13 45 11 21 18
47 17 58 -1 11 -5 52 -8 90 -4 39 -9 90 -13 115 -3 25 -6 52 -5 60 3 44 13
117 17 127 2 7 0 15 -5 18 -5 3 -8 24 -6 45 3 25 -1 43 -10 51 -8 6 -14 20
-14 30 0 10 -5 21 -11 24 -6 4 -8 14 -5 22 3 8 -5 25 -19 39 -14 14 -25 33
-25 42 0 25 -14 43 -36 46 -10 2 -18 6 -16 9 1 4 2 14 2 22 0 11 11 15 40 15
22 0 40 5 40 10 0 6 5 10 10 10 6 0 28 11 50 25 29 18 40 32 40 50 0 21 5 25
28 25 67 0 141 47 142 92 0 18 -27 28 -50 17 -8 -4 -33 -15 -55 -24 -66 -29
-70 -32 -69 -49 1 -9 -6 -16 -16 -16 -10 0 -21 -9 -25 -19 -8 -27 -57 -44
-102 -37 l-38 7 3 54 c3 37 0 55 -8 55 -6 0 -8 4 -5 10 3 5 1 29 -6 52 -6 24
-12 57 -13 73 -1 17 -10 45 -19 64 -14 28 -25 136 -16 166 1 6 -1 30 -5 55
-13 88 -26 358 -29 602 l-3 247 41 7 c22 3 45 11 52 16 6 5 44 12 84 14 39 2
81 10 92 16 12 6 52 12 89 14 67 3 142 20 165 36 15 12 22 -2 14 -26 -4 -10 1
-44 11 -74 10 -30 16 -57 14 -60 -3 -2 6 -28 19 -57 13 -30 21 -55 19 -58 -2
-2 2 -21 9 -43 8 -21 15 -72 16 -112 2 -92 20 -124 64 -120 43 4 59 53 41 122
-7 27 -10 70 -7 97 4 33 2 49 -6 49 -6 0 -11 10 -11 23 0 13 -5 28 -12 35 -8
8 -8 15 2 27 10 12 10 15 -4 15 -10 0 -15 4 -11 9 3 5 1 12 -5 16 -5 3 -10 22
-10 41 0 21 -8 43 -19 56 -27 29 -14 61 30 70 19 3 68 7 109 8 41 0 116 4 165
8 111 9 264 7 330 -3z m-1306 -222 c-1 -43 -2 -45 -9 -18 -11 44 -11 65 0 65
6 0 9 -21 9 -47z m1401 -300 c14 -6 44 -20 68 -29 40 -17 43 -21 41 -54 -1
-19 3 -48 10 -63 6 -16 11 -37 11 -47 0 -16 -4 -17 -35 -7 -19 6 -35 14 -35
19 0 4 -6 8 -13 8 -7 0 -34 13 -60 30 -38 24 -47 35 -47 57 0 37 19 104 28
100 4 -1 18 -8 32 -14z m-126 -149 c-15 -50 -15 -49 -24 -34 -11 18 -13 64 -3
74 10 10 33 -23 27 -40z m99 -31 c9 -3 17 -9 17 -13 0 -5 9 -11 19 -15 13 -4
17 -12 14 -26 -9 -32 -21 -32 -63 1 -41 33 -57 79 -22 65 9 -4 25 -10 35 -12z
m164 -82 c7 -9 13 -31 13 -49 l0 -33 -52 27 c-29 16 -54 29 -55 29 -2 1 3 15
9 32 11 29 13 30 42 20 17 -6 36 -18 43 -26z m-180 -23 c34 -23 42 -57 15 -66
-9 -3 -11 3 -6 22 5 20 2 26 -10 26 -18 0 -20 -13 -6 -40 14 -27 -6 -36 -30
-15 -13 12 -17 23 -11 34 5 9 7 26 6 39 -1 12 1 22 4 22 2 0 20 -10 38 -22z
m-161 -85 c-10 -10 -19 5 -10 18 6 11 8 11 12 0 2 -7 1 -15 -2 -18z m316 10
c32 -15 45 -30 53 -63 1 -3 7 -18 13 -33 21 -49 15 -55 -33 -37 -14 5 -25 16
-24 22 3 27 -2 37 -16 32 -8 -4 -15 -12 -15 -20 0 -8 -4 -14 -10 -14 -5 0 -10
4 -10 9 0 5 -9 11 -20 14 -25 6 -26 39 -3 78 20 34 17 34 65 12z m-262 -73 c0
-5 -5 -10 -11 -10 -5 0 -7 5 -4 10 3 6 8 10 11 10 2 0 4 -4 4 -10z m14 -56 c5
-14 4 -15 -9 -4 -17 14 -19 20 -6 20 5 0 12 -7 15 -16z m206 -31 c0 -14 -10
-16 -34 -7 -9 3 -16 15 -16 25 0 16 3 17 25 7 14 -6 25 -17 25 -25z m84 -13
c25 -9 37 -40 16 -40 -20 0 -60 24 -60 37 0 16 10 16 44 3z m76 -51 c0 -5 -7
-9 -15 -9 -9 0 -12 6 -9 15 6 15 24 11 24 -6z m-111 -20 c34 -12 38 -21 18
-41 -7 -7 -21 -26 -31 -42 l-19 -29 -12 24 c-9 15 -10 30 -4 41 5 9 9 26 9 37
0 25 -2 24 39 10z m-151 -48 c3 -8 -1 -12 -9 -9 -7 2 -15 10 -17 17 -3 8 1 12
9 9 7 -2 15 -10 17 -17z m255 7 c33 -16 33 -21 5 -61 -42 -61 -68 -76 -97 -58
-11 7 -10 15 8 44 11 19 21 41 21 49 0 14 19 38 30 38 3 0 18 -6 33 -12z
m9332 -144 c72 -3 161 -5 198 -4 37 0 109 -6 159 -15 68 -12 94 -13 104 -4 10
8 18 8 27 1 14 -12 87 -5 87 8 0 3 17 5 38 2 20 -2 62 -5 94 -5 l56 -2 -1 -85
c-1 -55 3 -96 12 -116 13 -28 12 -35 -6 -70 -13 -26 -29 -41 -50 -46 -26 -7
-30 -12 -25 -33 3 -16 11 -25 23 -25 33 0 30 -19 -10 -51 -47 -37 -54 -51 -37
-75 13 -17 14 -17 31 -1 11 11 30 17 51 15 19 -1 34 -3 34 -5 0 -1 -16 -18
-37 -37 -27 -27 -39 -33 -49 -25 -16 13 -34 4 -34 -18 0 -9 14 -41 31 -71 29
-52 33 -96 6 -75 -6 6 -25 13 -40 17 -25 6 -28 10 -22 35 8 36 -10 49 -34 27
-16 -15 -19 -14 -37 12 -11 15 -23 35 -27 44 -7 21 -47 12 -47 -11 0 -20 38
-83 56 -94 8 -4 14 -15 14 -22 0 -16 -24 -18 -55 -5 -17 7 -17 9 -2 9 21 1 23
21 2 21 -8 0 -15 5 -15 10 0 6 -13 10 -28 10 -35 0 -112 80 -112 116 0 27 -12
36 -34 28 -9 -4 -16 -18 -16 -33 0 -30 47 -100 68 -101 14 0 15 -9 4 -27 -5
-9 -19 -9 -52 -2 -69 15 -87 28 -109 81 -15 37 -25 49 -38 46 -13 -3 -17 -11
-15 -28 9 -74 8 -85 -13 -82 -24 4 -94 36 -117 55 -10 8 -18 22 -18 31 0 9 -6
16 -12 16 -7 0 -25 14 -40 32 l-26 33 -7 -27 c-5 -20 -1 -36 15 -58 l21 -30
-30 0 c-66 0 -149 56 -177 120 -20 44 -26 47 -44 25 -26 -31 39 -119 109 -147
14 -6 41 -17 59 -25 18 -8 40 -12 48 -9 8 3 14 1 14 -5 0 -6 -38 -9 -96 -8
-85 1 -97 3 -101 20 -7 24 -29 25 -42 2 -8 -15 -13 -15 -36 -5 -51 23 -95 64
-95 87 0 18 -4 21 -24 18 -17 -4 -25 0 -29 16 -6 23 -14 26 -37 11 -12 -7 -12
-12 -2 -22 19 -19 15 -26 -25 -45 -21 -9 -40 -18 -44 -20 -3 -2 -26 11 -52 28
-43 28 -48 29 -63 15 -14 -14 -14 -18 0 -31 8 -8 21 -15 28 -15 8 0 19 -5 25
-11 9 -9 5 -19 -17 -39 -16 -15 -34 -27 -42 -28 -46 -4 -100 -4 -104 0 -2 3
-6 27 -8 54 -2 27 -4 51 -5 53 -1 2 -8 -2 -16 -9 -8 -6 -36 -13 -62 -15 -26
-1 -74 -14 -107 -29 -69 -31 -67 -30 -60 -11 4 8 15 15 25 15 10 0 19 6 19 14
0 16 -34 28 -47 16 -8 -8 -87 -34 -136 -45 -18 -3 -27 -11 -24 -19 12 -30 -10
-38 -103 -37 -51 0 -94 2 -97 4 -2 3 13 15 34 28 21 12 49 33 63 46 14 13 34
30 45 38 l20 15 -20 -7 c-11 -4 -33 -15 -50 -24 -16 -10 -56 -27 -87 -39 -32
-12 -58 -26 -58 -32 0 -18 -30 13 -58 61 -27 48 -39 61 -58 61 -28 0 -19 -31
23 -84 25 -31 42 -60 38 -64 -11 -11 -125 -6 -138 7 -8 8 -7 11 6 11 9 0 17 4
17 10 0 14 -36 31 -53 25 -7 -3 -20 1 -27 10 -11 14 -10 18 10 32 20 14 21 17
6 25 -9 5 -21 6 -27 2 -7 -4 -20 4 -31 17 l-18 24 -21 -25 c-12 -14 -16 -26
-10 -28 18 -6 12 -22 -8 -22 -11 0 -23 -4 -26 -10 -11 -18 -71 -11 -90 10 -13
14 -29 20 -49 18 -17 -2 -29 -6 -26 -9 3 -4 -4 -16 -14 -28 -11 -12 -15 -21
-10 -22 5 0 -9 -9 -31 -20 l-40 -19 -47 50 c-52 54 -62 59 -77 33 -7 -14 0
-25 32 -55 23 -21 40 -38 37 -39 -3 0 -14 -2 -25 -3 -70 -9 -107 -20 -112 -32
-7 -19 -20 -18 -55 8 -29 20 -30 22 -13 35 25 17 16 23 -43 28 -46 4 -50 3
-45 -15 3 -11 3 -20 0 -20 -2 0 -21 -7 -40 -15 -34 -14 -37 -14 -64 9 -46 38
-72 49 -88 36 -14 -12 -10 -40 6 -40 14 0 49 -33 49 -47 0 -7 -6 -13 -14 -13
-7 0 -35 -3 -62 -6 -38 -4 -45 -3 -31 6 30 20 18 30 -35 30 -29 1 -64 7 -78
15 -52 30 -67 11 -25 -30 15 -16 36 -25 57 -26 64 -1 -4 -17 -91 -21 -61 -3
-80 -1 -77 8 7 18 -4 24 -24 14 -13 -7 -33 -2 -76 20 -70 35 -74 36 -67 11 3
-10 20 -27 39 -37 l35 -19 -33 -7 c-18 -4 -89 -11 -158 -14 -102 -5 -129 -4
-140 7 -8 8 -27 16 -42 17 -30 2 -180 51 -188 61 -9 11 -50 31 -65 31 -8 0
-15 -7 -15 -15 0 -8 5 -15 10 -15 23 0 6 -17 -39 -38 -35 -16 -65 -22 -105
-21 -32 1 -53 6 -49 12 12 19 -22 25 -56 10 -42 -18 -347 -30 -336 -13 3 6 12
10 19 10 7 0 23 11 36 25 13 14 44 37 69 52 35 21 42 28 28 31 -25 5 -87 -7
-87 -16 0 -11 -54 -41 -80 -45 -25 -4 -53 -35 -44 -49 3 -5 16 -13 28 -18 14
-6 -3 -9 -58 -9 -77 -1 -78 -1 -55 17 13 9 33 22 44 28 10 6 21 16 23 24 7 20
-71 6 -107 -19 -16 -12 -36 -21 -45 -21 -8 0 -19 -6 -23 -14 -8 -14 -116 -26
-128 -15 -3 3 15 16 40 28 48 24 61 50 23 46 -34 -4 -137 -55 -151 -75 -9 -12
-26 -16 -64 -15 -68 2 -77 11 -21 22 59 12 54 27 -10 31 -45 3 -59 -1 -98 -27
-46 -32 -107 -44 -85 -18 15 19 4 27 -36 27 -18 0 -33 3 -33 6 0 11 29 34 43
34 8 0 18 7 21 16 5 13 0 15 -36 9 -24 -3 -55 -11 -70 -17 -22 -8 -32 -6 -57
11 -35 25 -47 26 -55 6 -6 -18 2 -45 15 -45 5 0 9 -7 9 -15 0 -19 -31 -35 -67
-35 l-28 1 24 20 c32 26 22 33 -27 18 -36 -11 -43 -10 -72 11 -30 21 -33 22
-48 6 -16 -16 -16 -18 2 -32 19 -13 19 -14 -6 -14 -15 0 -30 -4 -33 -10 -3 -5
-30 -10 -59 -10 -50 0 -93 20 -117 52 -3 4 -13 2 -24 -5 -19 -15 -13 -37 11
-37 20 0 17 -26 -3 -29 -55 -8 -94 -3 -132 17 -48 25 -64 22 -55 -14 6 -22 3
-24 -32 -25 -61 -2 -76 1 -118 22 -43 22 -70 13 -46 -15 16 -20 7 -23 -81 -29
-93 -6 -129 21 -77 57 19 13 19 16 5 16 -9 0 -26 -5 -36 -12 -15 -9 -26 -9
-47 1 -31 14 -57 0 -37 -20 8 -8 6 -16 -8 -30 -26 -26 -66 -41 -74 -28 -4 5
-12 9 -18 8 -24 -3 -77 14 -77 25 0 6 7 22 16 34 24 35 12 35 -25 2 l-33 -30
-28 20 c-15 11 -35 20 -44 20 -23 0 -20 -27 4 -40 22 -12 27 -32 8 -27 -7 1
-17 -8 -23 -20 -11 -26 -22 -28 -76 -11 -47 14 -49 22 -9 38 17 7 30 17 30 22
0 13 -43 3 -97 -23 -23 -11 -47 -18 -53 -14 -19 12 -60 16 -60 6 0 -6 9 -17
21 -25 30 -21 17 -32 -30 -28 -44 4 -50 12 -25 36 8 9 14 21 12 26 -3 10 -24
-4 -87 -57 -32 -28 -68 -29 -101 -3 -22 17 -23 22 -12 40 7 11 8 20 3 20 -6 0
-13 -4 -16 -10 -3 -5 -21 -10 -38 -10 -38 -1 -70 -22 -62 -42 10 -24 -16 -35
-100 -42 -44 -4 -90 -10 -102 -13 -31 -7 -29 7 8 67 17 28 29 54 26 57 -7 6
-52 -45 -78 -86 -27 -44 -52 -56 -138 -67 -31 -4 -33 -3 -20 13 8 10 18 21 24
25 5 4 7 9 4 13 -8 7 -69 -15 -69 -26 0 -5 -9 -9 -20 -9 -11 0 -29 -9 -40 -20
-31 -31 -32 -24 -5 30 36 71 31 77 -17 26 -24 -25 -60 -52 -80 -60 -20 -9 -39
-20 -43 -26 -3 -5 -15 -10 -26 -10 -17 0 -18 3 -7 22 7 13 21 34 31 47 19 26
22 41 8 41 -11 0 -62 -49 -95 -92 -23 -31 -34 -36 -84 -43 -31 -4 -65 -8 -74
-10 -17 -3 28 61 96 139 27 30 33 46 17 46 -14 0 -93 -79 -114 -112 -10 -16
-23 -28 -30 -28 -7 0 -26 -13 -42 -30 -19 -19 -39 -30 -57 -30 -15 0 -28 2
-28 5 0 9 64 110 83 133 l20 22 -24 0 c-17 0 -30 -9 -42 -32 -10 -18 -33 -51
-52 -73 -20 -22 -38 -48 -41 -57 -3 -12 -15 -18 -33 -18 -15 0 -32 -5 -39 -12
-22 -22 -23 0 -3 41 27 52 27 70 1 46 -11 -10 -20 -24 -20 -32 0 -8 -4 -12
-10 -8 -5 3 -16 -7 -24 -22 -8 -15 -15 -25 -16 -21 0 4 -14 -6 -31 -22 -17
-15 -43 -30 -58 -33 -14 -2 -35 -8 -45 -12 -17 -7 -16 -4 6 26 29 40 71 120
65 125 -2 3 -16 -13 -31 -35 -15 -22 -34 -42 -42 -45 -8 -3 -14 -12 -14 -20 0
-8 -10 -18 -22 -22 -13 -4 -33 -18 -45 -33 -20 -23 -82 -46 -148 -54 -38 -5
-115 -30 -121 -38 -9 -15 -51 -10 -64 6 -11 13 -9 20 12 43 14 15 35 39 47 53
15 18 29 25 42 22 15 -4 17 -9 10 -16 -28 -28 9 -59 39 -32 19 18 57 20 62 4
2 -7 13 -9 26 -5 29 9 21 22 -19 30 -28 5 -30 8 -18 23 8 9 29 22 47 30 18 7
30 18 27 23 -3 6 6 22 20 36 40 40 26 47 -28 13 l-47 -29 -38 19 c-20 11 -54
35 -75 54 -41 37 -42 30 8 113 18 30 21 31 41 17 33 -21 114 -27 114 -8 0 9
-9 15 -22 15 -13 1 -39 9 -58 18 -28 14 -34 23 -32 42 2 22 0 23 -10 8 -11
-14 -14 -15 -35 -1 -26 17 -30 45 -9 62 13 11 29 51 20 51 -8 0 -41 -37 -47
-53 -9 -25 -20 -21 -66 22 l-42 40 25 58 c28 65 38 68 86 25 31 -29 112 -58
129 -47 15 9 14 28 -1 22 -14 -4 -82 31 -138 72 l-35 26 17 35 c9 19 17 41 18
48 0 18 -20 15 -27 -5 -4 -10 -15 -27 -25 -37 -29 -32 -34 5 -7 59 22 44 45
56 43 22 -1 -9 2 -15 6 -12 5 3 29 -4 54 -15 43 -18 46 -18 46 -2 0 9 -12 23
-27 30 -50 23 -89 60 -76 73 13 13 73 3 73 -12 0 -6 4 -7 10 -4 23 15 6 37
-52 66 -79 40 -64 49 62 37 52 -4 203 -11 335 -13 373 -7 460 -11 473 -18 6
-4 66 -10 134 -13 68 -3 150 -10 183 -16 33 -5 85 -13 115 -17 61 -8 323 -7
523 2 133 7 161 9 287 28 41 6 124 13 185 16 60 3 117 9 126 13 8 5 79 10 158
11 78 1 144 5 146 9 3 4 37 6 77 4 40 -3 78 -5 83 -4 6 0 78 3 160 6 170 7
202 7 335 -3 151 -12 388 -6 510 12 85 13 204 17 484 20 204 1 389 6 411 9 22
4 77 3 121 -1 45 -5 151 -5 235 -1 85 5 191 10 235 12 45 2 85 6 90 9 5 3 29
6 54 8 25 1 50 6 56 11 6 5 36 10 66 12 31 2 60 6 65 9 6 4 48 9 94 12 93 6
119 9 264 30 55 8 116 17 135 20 60 8 168 14 365 20 195 6 317 13 370 21 17 2
46 6 65 8 19 2 62 6 95 9 33 4 119 11 190 17 72 6 150 16 175 21 25 5 137 11
250 14 113 3 252 7 310 9 58 2 209 7 335 11 127 4 231 7 232 8 2 3 193 -2 348
-9z m-9062 -329 c45 -13 77 -28 77 -36 0 -15 -36 -10 -61 9 -13 10 -32 21 -41
25 -12 4 -15 12 -11 24 7 17 8 17 11 1 2 -9 13 -20 25 -23z m34 -76 c10 -9 7
-21 -13 -58 -14 -25 -27 -47 -29 -49 -2 -2 -17 4 -34 12 -26 14 -29 20 -26 53
1 21 4 40 5 43 1 3 2 9 1 14 -2 11 79 -2 96 -15z m9854 14 c0 -5 2 -17 4 -28
7 -35 -8 -47 -45 -38 -29 8 -31 11 -18 23 8 8 17 23 21 33 6 17 36 24 38 10z
m-11665 -87 c8 -8 14 -18 14 -21 0 -4 9 -18 20 -32 11 -15 20 -41 20 -61 l0
-34 -34 26 c-19 14 -41 24 -48 21 -11 -4 -14 4 -12 32 1 41 12 83 20 83 3 0
12 -6 20 -14z m1611 -38 c-3 -8 -6 -5 -6 6 -1 11 2 17 5 13 3 -3 4 -12 1 -19z
m10107 -53 c3 -16 10 -31 15 -34 14 -9 25 -81 12 -81 -6 0 -11 5 -11 10 0 15
-27 12 -33 -4 -3 -8 -3 -23 0 -34 5 -21 -18 -44 -25 -24 -2 7 -9 12 -17 12 -7
0 -18 7 -25 15 -10 12 -9 24 4 63 10 26 24 60 33 75 14 27 14 29 -3 25 -15 -3
-53 -58 -78 -113 -3 -6 -9 -4 -15 4 -12 19 -4 33 59 100 49 53 51 54 65 34 8
-11 16 -33 19 -48z m-9996 26 c12 -7 11 -14 -2 -39 -22 -44 -36 -49 -36 -13 0
33 9 61 19 61 3 0 12 -4 19 -9z m-121 -33 c-3 -8 -6 -5 -6 6 -1 11 2 17 5 13
3 -3 4 -12 1 -19z m197 -31 c-4 -12 -17 -37 -29 -54 -15 -24 -25 -29 -32 -22
-11 11 9 60 39 96 15 19 30 5 22 -20z m8605 -34 c23 -15 41 -30 41 -34 0 -17
-76 -13 -112 6 l-36 20 26 17 c34 23 33 23 81 -9z m-10337 -91 c-2 -42 -4 -95
-6 -117 -1 -22 0 -44 3 -50 3 -5 6 -19 7 -30 1 -11 5 -35 9 -52 4 -18 4 -33
-1 -33 -5 0 -10 -20 -10 -45 -1 -25 -6 -51 -11 -57 -6 -7 -13 -26 -17 -43 -7
-26 -9 -28 -18 -12 -6 12 -6 22 2 32 6 7 10 37 9 67 -1 42 6 364 10 428 1 11
4 11 13 2 8 -8 11 -39 10 -90z m-101 55 c0 -12 3 -69 5 -127 5 -102 -10 -220
-28 -220 -4 0 -8 28 -8 63 0 35 -5 68 -11 74 -9 9 -9 23 0 57 6 25 11 74 11
109 0 35 3 67 6 70 11 11 24 -3 25 -26z m10017 3 c-2 -25 -7 -30 -28 -31 -55
-2 -126 -9 -139 -14 -32 -12 11 23 46 37 110 45 124 46 121 8z m-915 6 c4 -10
-5 -16 -29 -21 -20 -3 -42 -9 -50 -12 -29 -11 -13 15 19 31 40 19 53 20 60 2z
m1787 -1 c10 -12 10 -15 -4 -15 -9 0 -16 7 -16 15 0 8 2 15 4 15 2 0 9 -7 16
-15z m-1113 -41 c-3 -3 -20 -4 -39 -2 l-33 4 35 15 c30 13 36 14 38 2 2 -8 2
-17 -1 -19z m-842 -3 c-30 -12 -115 -20 -115 -11 0 13 22 18 80 19 37 0 49 -3
35 -8z m2425 -1 c0 -13 -40 -13 -60 0 -11 7 -5 10 23 10 20 0 37 -4 37 -10z
m-9603 -11 c13 -13 -13 -75 -41 -98 -14 -12 -16 -8 -16 32 0 25 3 52 6 61 7
19 35 21 51 5z m10067 -42 c1 -13 6 -28 10 -35 4 -7 3 -12 -2 -12 -14 0 -42
68 -35 86 5 15 7 15 15 0 5 -9 11 -27 12 -39z m-3366 5 c2 -8 -8 -12 -30 -12
-31 1 -32 1 -13 15 21 17 37 15 43 -3z m3252 -17 c0 -5 -7 -18 -14 -28 -12
-15 -18 -16 -42 -5 -16 6 -30 13 -32 14 -1 1 2 12 8 26 11 23 14 24 46 14 19
-6 34 -15 34 -21z m-125 4 c11 -16 3 -17 -40 -4 l-40 13 37 1 c20 1 40 -4 43
-10z m-9695 -70 c0 -3 -18 -25 -40 -50 l-39 -44 -32 31 -31 31 27 51 27 51 43
-32 c25 -18 44 -35 45 -38z m5400 41 l45 -19 -82 0 c-46 -1 -83 1 -83 4 0 3 6
12 13 20 16 19 53 18 107 -5z m4490 -12 c0 -5 7 -17 16 -26 23 -22 2 -27 -29
-7 -18 11 -23 22 -19 40 3 20 7 23 18 14 8 -6 14 -16 14 -21z m-9812 -84 c7
-4 -21 -49 -34 -57 -8 -4 -14 -15 -14 -23 0 -8 -4 -13 -9 -10 -5 4 -11 0 -14
-6 -3 -9 -10 -8 -26 6 -24 22 -23 27 14 85 l25 41 28 -17 c15 -9 28 -18 30
-19z m-230 -24 c12 -11 25 -20 31 -20 18 0 21 -33 4 -54 -10 -12 -19 -23 -20
-25 -1 -1 -13 8 -26 20 -27 27 -44 99 -23 99 7 0 22 -9 34 -20z m2622 -10 c0
-5 -7 -10 -16 -10 -8 0 -12 5 -9 10 3 6 10 10 16 10 5 0 9 -4 9 -10z m-595
-50 c4 -6 -5 -10 -19 -10 -14 0 -26 5 -26 10 0 6 9 10 19 10 11 0 23 -4 26
-10z m-1916 -34 c13 -15 6 -42 -13 -49 -19 -7 -39 9 -41 32 -1 11 2 18 6 15 4
-2 10 0 14 6 9 14 20 13 34 -4z m-119 -38 c0 -9 -25 -38 -33 -38 -2 0 -2 13 1
29 3 20 8 28 18 24 8 -3 14 -9 14 -15z m265 -75 c6 -5 23 -14 40 -21 l30 -14
-25 -14 c-32 -17 -55 -17 -69 0 -9 11 -8 15 6 20 14 6 15 9 3 16 -8 5 -21 5
-32 -1 -14 -8 -26 -4 -53 17 -40 30 -41 31 -19 55 17 19 22 16 119 -58z m-217
17 c-15 -24 -22 -19 -13 9 3 12 11 19 16 16 5 -4 3 -14 -3 -25z m-62 -30 c19
0 18 -16 -2 -24 -9 -3 -16 -6 -17 -6 -1 0 -3 12 -3 28 -1 15 1 21 3 15 3 -7
11 -13 19 -13z m153 -8 c39 -33 37 -39 -25 -95 l-42 -37 -41 22 c-33 18 -40
26 -35 42 4 12 10 22 15 24 4 2 25 19 45 38 21 19 41 34 44 34 3 0 21 -13 39
-28z m-1814 -69 c-3 -14 -13 -36 -21 -47 -12 -17 -14 -18 -14 -4 0 9 -7 21
-17 26 -9 6 -14 16 -10 25 5 13 18 19 61 26 4 0 5 -11 1 -26z m1715 -84 c0
-14 -38 -39 -60 -39 -11 0 -14 63 -4 72 10 11 64 -16 64 -33z m65 -49 c5 -9
-50 -40 -70 -40 -14 0 -2 17 23 32 32 20 39 22 47 8z m-214 -268 c-6 -2 -11
-14 -11 -27 0 -40 -17 -37 -63 10 -25 25 -42 45 -38 46 3 0 26 3 51 5 25 3 50
10 55 15 7 7 11 1 13 -18 2 -15 -1 -29 -7 -31z m-98 -37 l57 -55 -26 -40 c-16
-24 -24 -48 -21 -59 3 -11 -1 -25 -9 -32 -15 -13 -19 -59 -5 -59 10 0 9 -25
-1 -35 -3 -4 -1 -20 6 -37 8 -24 8 -32 -2 -35 -6 -3 -9 -9 -6 -15 7 -11 15
-58 16 -88 1 -8 5 -21 11 -27 5 -7 6 -13 3 -13 -4 0 0 -10 8 -22 9 -12 16 -32
16 -45 0 -12 5 -25 10 -28 6 -4 8 -16 4 -28 -13 -41 -13 -71 2 -105 8 -19 16
-49 19 -66 2 -17 9 -65 16 -106 6 -41 14 -81 19 -90 4 -8 7 -35 5 -60 -1 -25
-4 -79 -5 -120 -2 -41 -7 -85 -13 -97 -12 -27 -54 -37 -114 -28 -26 4 -48 3
-52 -3 -3 -5 -16 -12 -27 -16 -16 -5 -33 5 -73 43 -49 45 -52 51 -47 85 4 21
2 36 -4 36 -12 0 -13 40 -1 59 7 10 13 11 31 1 26 -14 42 -3 19 13 -9 7 -19
22 -23 35 -9 29 2 82 17 82 8 0 12 20 13 53 0 28 -1 40 -3 25 -4 -29 -23 -39
-23 -13 0 7 -6 18 -14 22 -34 21 -37 49 -10 112 23 53 29 59 45 50 24 -12 26
6 3 29 -11 10 -13 17 -5 20 14 5 15 32 1 32 -5 0 -10 -4 -10 -10 0 -20 -20 -9
-26 14 -4 16 7 47 35 101 23 43 39 81 36 84 -4 3 -10 -1 -15 -9 -7 -12 -15 -9
-42 15 -18 17 -36 34 -39 39 -7 8 28 76 38 76 3 0 16 -11 29 -25 30 -32 44
-13 17 23 -11 15 -22 39 -25 54 -6 35 14 55 32 33 15 -19 40 -20 40 -2 0 7
-13 31 -30 53 -32 42 -37 63 -18 82 6 6 8 15 4 19 -4 4 -12 0 -17 -10 -6 -9
-14 -17 -19 -17 -16 0 -11 36 8 60 l18 22 33 -41 c57 -70 68 -81 80 -81 16 0
13 27 -4 34 -8 3 -15 11 -15 17 0 7 -11 26 -23 43 -54 71 -56 106 -8 106 18 0
44 -17 84 -55z m-190 -27 c-18 -18 -35 -30 -37 -27 -8 7 43 59 57 59 6 0 -3
-14 -20 -32z m-56 -78 c3 -11 11 -20 18 -20 7 0 15 -7 19 -15 6 -17 -21 -48
-36 -39 -15 9 -37 66 -31 81 8 20 24 16 30 -7z m-41 -78 c29 -20 22 -75 -13
-95 -17 -11 -7 -27 17 -27 10 0 22 9 25 20 6 19 35 27 48 14 8 -8 -9 -42 -35
-71 l-20 -21 -44 42 -43 42 17 52 c17 51 26 59 48 44z m111 -38 c-13 -24 -17
-26 -22 -12 -9 22 13 64 27 50 6 -6 5 -19 -5 -38z m-140 -149 c25 -22 26 -26
13 -50 -18 -33 -25 -32 -41 8 -15 35 -17 48 -12 60 6 11 12 9 40 -18z m114
-85 l34 -29 -18 -28 c-10 -15 -21 -36 -24 -45 -8 -26 -19 -22 -44 15 -13 17
-29 38 -36 45 -11 11 -9 19 8 43 26 36 38 36 80 -1z m-82 -112 c23 -22 41 -47
41 -55 0 -10 -42 -101 -56 -121 -1 -2 -14 9 -28 23 -26 26 -35 70 -16 77 6 2
5 19 -2 46 -8 32 -7 46 2 57 7 8 14 15 15 15 2 0 22 -19 44 -42z m-674 -100
c10 -25 11 -38 4 -38 -19 0 -48 44 -49 75 0 26 2 27 15 15 8 -8 21 -32 30 -52z
m739 -62 c-16 -31 -35 -56 -43 -56 -8 0 -11 6 -6 18 4 9 16 41 27 71 18 48 22
52 36 38 14 -14 12 -21 -14 -71z m-754 -18 c40 -44 45 -56 46 -99 l1 -48 -23
22 c-13 12 -24 33 -24 47 0 20 -2 22 -10 10 -8 -13 -13 -11 -35 12 -14 15 -25
35 -25 45 0 26 11 63 19 62 3 -1 26 -24 51 -51z m655 -27 c3 -5 0 -22 -6 -38
-12 -32 -22 -22 -34 35 -7 32 -6 33 13 23 12 -6 23 -15 27 -20z m31 -68 c-10
-10 -19 5 -10 18 6 11 8 11 12 0 2 -7 1 -15 -2 -18z m67 -42 c15 -16 27 -37
27 -48 -1 -21 -28 -84 -29 -67 -1 6 -17 27 -36 47 -35 36 -35 37 -20 67 8 16
19 30 23 30 4 0 19 -13 35 -29z m-734 -40 c21 -25 24 -39 22 -88 -3 -59 -10
-79 -19 -55 -2 8 -17 29 -33 47 -16 18 -29 38 -29 46 0 18 23 79 30 79 3 0 16
-13 29 -29z m731 -126 c0 -5 -5 -28 -12 -50 -6 -22 -12 -44 -13 -50 -1 -5 -3
-13 -3 -18 -3 -11 -67 65 -80 96 -18 42 -15 104 6 116 14 8 25 2 60 -37 23
-26 42 -51 42 -57z m-50 -165 c0 -5 -2 -10 -4 -10 -3 0 -8 5 -11 10 -3 6 -1
10 4 10 6 0 11 -4 11 -10z m-305 -190 c8 -13 -5 -13 -25 0 -13 8 -13 10 2 10
9 0 20 -4 23 -10z"/>
<path d="M2016 4992 c-4 -7 -5 -20 -1 -30 9 -25 102 -99 161 -128 58 -28 131
-44 120 -26 -4 7 -16 12 -26 12 -16 0 -121 56 -158 85 -16 12 -44 42 -70 74
-13 17 -21 21 -26 13z"/>
<path d="M2001 4808 c0 -18 15 -30 68 -55 38 -18 73 -33 79 -33 5 0 15 -6 21
-14 15 -18 106 -40 122 -31 7 5 -18 23 -62 46 -41 21 -85 44 -99 51 -14 7 -40
23 -59 35 -44 30 -71 30 -70 1z"/>
<path d="M1501 4378 c-39 -95 -37 -148 5 -148 10 0 13 17 12 68 -1 37 2 77 6
90 13 35 -8 26 -23 -10z"/>
<path d="M1565 4379 c-4 -5 -8 -55 -9 -110 -1 -65 -5 -102 -13 -107 -19 -12
-3 -52 22 -58 29 -7 63 11 65 34 0 9 2 33 3 54 1 20 5 39 9 43 4 4 3 18 -3 32
-5 13 -9 35 -9 47 0 24 -35 76 -50 76 -5 0 -12 -5 -15 -11z"/>
<path d="M1485 4093 c-3 -15 -15 -39 -26 -54 -17 -24 -17 -28 -3 -39 9 -8 18
-9 23 -4 8 9 31 93 31 113 0 22 -18 10 -25 -16z"/>
<path d="M1490 3893 c-7 -16 -13 -32 -11 -37 1 -4 -7 -24 -19 -43 -25 -42 -25
-60 -2 -66 23 -5 72 20 72 38 0 7 6 20 14 28 15 14 19 34 17 80 -1 23 -5 27
-29 27 -21 0 -32 -7 -42 -27z"/>
<path d="M1367 3810 c-20 -24 -37 -47 -37 -51 0 -4 -9 -11 -20 -14 -23 -7 -27
-33 -6 -41 20 -8 88 47 81 65 -3 8 2 22 11 32 9 9 14 25 12 35 -2 14 -11 9
-41 -26z"/>
<path d="M8427 2953 c-16 -15 112 -70 158 -67 48 3 55 5 55 18 0 9 -13 14 -40
14 -21 0 -60 10 -86 21 -48 22 -76 26 -87 14z"/>
<path d="M2320 1239 c0 -5 5 -7 10 -4 6 3 10 8 10 11 0 2 -4 4 -10 4 -5 0 -10
-5 -10 -11z"/>
</g>
</svg>
