<?xml version="1.0" encoding="UTF-8" standalone="no"?>
<!-- Created with Inkscape (http://www.inkscape.org/) -->

<svg
   xmlns:dc="http://purl.org/dc/elements/1.1/"
   xmlns:cc="http://creativecommons.org/ns#"
   xmlns:rdf="http://www.w3.org/1999/02/22-rdf-syntax-ns#"
   xmlns:svg="http://www.w3.org/2000/svg"
   xmlns="http://www.w3.org/2000/svg"
   xmlns:sodipodi="http://sodipodi.sourceforge.net/DTD/sodipodi-0.dtd"
   xmlns:inkscape="http://www.inkscape.org/namespaces/inkscape"
   width="32.883781mm"
   height="32.883781mm"
   viewBox="0 0 32.883781 32.883781"
   version="1.1"
   id="svg8"
   inkscape:version="0.92.4 (5da689c313, 2019-01-14)"
   sodipodi:docname="gear.svg">
  <defs
     id="defs2" />
  <sodipodi:namedview
     id="base"
     pagecolor="#ffffff"
     bordercolor="#666666"
     borderopacity="1.0"
     inkscape:pageopacity="0.0"
     inkscape:pageshadow="2"
     inkscape:zoom="1.979899"
     inkscape:cx="78.235536"
     inkscape:cy="-60.212819"
     inkscape:document-units="mm"
     inkscape:current-layer="layer1"
     showgrid="false"
     showguides="true"
     inkscape:window-width="1920"
     inkscape:window-height="1027"
     inkscape:window-x="-8"
     inkscape:window-y="1072"
     inkscape:window-maximized="1"
     fit-margin-top="0"
     fit-margin-left="0"
     fit-margin-right="0"
     fit-margin-bottom="0" />
  <metadata
     id="metadata5">
    <rdf:RDF>
      <cc:Work
         rdf:about="">
        <dc:format>image/svg+xml</dc:format>
        <dc:type
           rdf:resource="http://purl.org/dc/dcmitype/StillImage" />
        <dc:title></dc:title>
      </cc:Work>
    </rdf:RDF>
  </metadata>
  <g
     inkscape:label="Layer 1"
     inkscape:groupmode="layer"
     id="layer1"
     transform="translate(-50.511276,-95.680389)">
    <path
       style="opacity:0.96799999;fill:#333333;fill-opacity:1;stroke:none;stroke-width:0.26499999;stroke-miterlimit:4;stroke-dasharray:none;stroke-opacity:1"
       d="m 64.071173,95.680389 v 4.804881 a 12.000744,12.000744 0 0 0 -3.308842,1.37045 l -3.397727,-3.397722 -4.07572,4.076242 3.399276,3.39927 a 12.000744,12.000744 0 0 0 -1.369425,3.30678 h -4.807459 v 5.76399 h 4.804874 a 12.000744,12.000744 0 0 0 1.369944,3.30884 l -3.39721,3.39772 4.07572,4.07572 3.399793,-3.39927 a 12.000744,12.000744 0 0 0 3.306776,1.36942 v 4.80746 h 5.763987 v -4.80487 a 12.000744,12.000744 0 0 0 3.308842,-1.36995 l 3.397211,3.39721 4.076236,-4.07572 -3.399792,-3.39979 a 12.000744,12.000744 0 0 0 1.369941,-3.30677 h 4.807458 v -5.76399 h -4.804873 a 12.000744,12.000744 0 0 0 -1.37046,-3.30833 l 3.397726,-3.39772 -4.076236,-4.076242 -3.399277,3.399792 a 12.000744,12.000744 0 0 0 -3.306776,-1.36994 v -4.807461 z m 2.881992,9.685711 a 6.9493621,6.7563248 0 0 1 6.949448,6.75618 6.9493621,6.7563248 0 0 1 -6.949448,6.75618 6.9493621,6.7563248 0 0 1 -6.949445,-6.75618 6.9493621,6.7563248 0 0 1 6.949445,-6.75618 z"
       id="path815"
       inkscape:connector-curvature="0" />
  </g>
</svg>
